<svg xmlns="http://www.w3.org/2000/svg" xmlns:xlink="http://www.w3.org/1999/xlink" fill="none" version="1.1" width="16" height="16" viewBox="0 0 16 16"><defs><clipPath id="master_svg0_176_21767"><rect x="0" y="0" width="16" height="16" rx="0"/></clipPath></defs><g clip-path="url(#master_svg0_176_21767)"><g><path d="M4.358224990234375,8.3308190625C5.559114990234375,8.3308190625,6.559114990234375,7.3921490625,6.559114990234375,6.181479062499999C6.559114990234375,4.9708190625,5.559114990234375,4.0721490625,4.358224990234375,4.0721490625C3.159114990234375,4.0721490625,2.158224990234375,5.0099290624999995,2.158224990234375,6.2205990625C2.158224990234375,7.4330390625,3.159114990234375,8.3308190625,4.358224990234375,8.3308190625ZM13.472914990234376,4.3059290625L7.578674990234375,4.3059290625L7.578674990234375,9.229479062500001L1.682674990234375,9.229479062500001L1.682674990234375,2.6650390625L-0.000885009765625,2.6650390625L-0.000885009765625,13.3317390625L1.682674990234375,13.3317390625L1.682674990234375,10.8703690625L14.314714990234375,10.8703690625L14.314714990234375,13.3317390625L15.998214990234375,13.3317390625L15.998214990234375,6.9237090625C15.999114990234375,5.3610390625,15.073814990234375,4.3059290625,13.472914990234376,4.3059290625Z" fill="#18FEFE" fill-opacity="1" style="mix-blend-mode:passthrough"/></g></g></svg>