<svg xmlns="http://www.w3.org/2000/svg" xmlns:xlink="http://www.w3.org/1999/xlink" fill="none" version="1.1" width="17.600004196166992" height="17.600004196166992" viewBox="0 0 17.600004196166992 17.600004196166992"><defs><clipPath id="master_svg0_192_39247/182_36970"><rect x="0" y="0" width="17.600004196166992" height="17.600004196166992" rx="0"/></clipPath></defs><g clip-path="url(#master_svg0_192_39247/182_36970)"><g><path d="M14.850096875,1.462890625L2.7501268750000003,1.462890625C2.042463875,1.462890625,1.466796875,2.038557625,1.466796875,2.7462206250000003L1.466796875,5.536560625C1.466796875,6.174560625,1.936129875,6.702560625,2.548466875,6.797890625L2.548466875,14.776590625C2.548466875,15.484190625,3.124126875,16.059890625,3.831796875,16.059890625L13.772096875,16.059890625C14.479796875,16.059890625,15.055496875,15.484190625,15.055496875,14.776590625L15.055496875,6.801560625C15.667796875,6.702560625,16.137096874999997,6.178220625,16.137096874999997,5.540220625L16.137096874999997,2.7462206250000003C16.133296875,2.037618625,15.558696875,1.464692795,14.850096875,1.462890625ZM2.566796875,2.7462206250000003C2.566796875,2.643560625,2.647466875,2.562890625,2.7501268750000003,2.562890625L14.850096875,2.562890625C14.952796875,2.562890625,15.033496875,2.643560625,15.033496875,2.7462206250000003L15.033496875,5.536560625C15.033496875,5.639220625,14.952796875,5.719890625,14.850096875,5.719890625L2.7501268750000003,5.719890625C2.647466875,5.719890625,2.566796875,5.639220625,2.566796875,5.536560625L2.566796875,2.7462206250000003ZM13.951796875,14.776590625C13.951796875,14.879190625,13.871096875,14.959890625,13.768496875,14.959890625L3.831796875,14.959890625C3.729126875,14.959890625,3.648466875,14.879190625,3.648466875,14.776590625L3.648466875,6.856560625L13.955496875,6.856560625L13.955496875,14.776590625L13.951796875,14.776590625Z" fill="#9E9E9E" fill-opacity="1" style="mix-blend-mode:passthrough"/></g><g><path d="M7.09150390625,10.0580078125L10.51250390625,10.0580078125C10.81683390625,10.0580078125,11.06250390625,9.8123418125,11.06250390625,9.5080078125C11.06250390625,9.2036748125,10.81683390625,8.9580078125,10.51250390625,8.9580078125L7.09150390625,8.9580078125C6.78717090625,8.9580078125,6.54150390625,9.2036748125,6.54150390625,9.5080078125C6.54150390625,9.8123418125,6.78717090625,10.0580078125,7.09150390625,10.0580078125Z" fill="#9E9E9E" fill-opacity="1" style="mix-blend-mode:passthrough"/></g></g></svg>