<svg xmlns="http://www.w3.org/2000/svg" xmlns:xlink="http://www.w3.org/1999/xlink" fill="none" version="1.1" width="18" height="18" viewBox="0 0 18 18"><defs><clipPath id="master_svg0_1086_81553"><rect x="0" y="0" width="18" height="18" rx="0"/></clipPath></defs><g clip-path="url(#master_svg0_1086_81553)"><g><path d="M13.4258,3.375L12.828,3.375C12.6353,2.31525,11.6805,1.5,10.533,1.5L3.918,1.5C3.00225,1.5,2.25,2.23125,2.25,3.12225L2.25,14.8778C2.25,15.7687,3.00225,16.5,3.918,16.5L14.082,16.5C15.0075,16.5,15.75,15.7687,15.75,14.8778L15.75,5.634C15.75,4.3875,14.7083,3.375,13.4258,3.375ZM14.7855,14.8778C14.7855,15.2528,14.4675,15.5625,14.082,15.5625L3.918,15.5625C3.5324999999999998,15.5625,3.2145,15.2528,3.2145,14.8778L3.2145,3.1215C3.2145,2.7465,3.5324999999999998,2.4375,3.918,2.4375L10.533,2.4375C11.15025,2.4375,11.66175,2.83125,11.835,3.375L5.499750000000001,3.375C5.23612,3.3687,5.01868,3.58005,5.0175,3.84375C5.02725,4.10625,5.2395,4.3125,5.499750000000001,4.3125L13.4167,4.3125C14.1683,4.3125,14.7855,4.90275,14.7855,5.63475L14.7855,14.8785L14.7855,14.8778Z" fill="#9E9E9E" fill-opacity="1" style="mix-blend-mode:passthrough"/></g><g><path d="M11.410671875,9.938350625C11.680671875,9.938350625,11.892921874999999,9.732100625000001,11.892921874999999,9.469600625C11.891741875000001,9.205900625,11.674301875000001,8.994550625,11.410671875,9.000850625L9.645921874999999,9.000850625L11.526921875,6.966099625C11.703891875,6.773043625,11.686231875,6.471904625,11.487921875,6.300849625C11.286311874999999,6.128391925,10.984741875000001,6.144907825,10.803171875,6.338349625L9.000171875,8.297350625L7.187421875,6.347350625C7.005850875,6.153907725,6.704280875,6.137392525,6.502671875,6.309850625C6.303644875,6.480973625,6.286294875,6.783065625,6.464420875,6.975850625L8.354421875,9.000850625L6.589671875,9.000850625C6.326043875,8.994550625,6.108605655,9.205900625,6.107421875,9.469600625C6.107421875,9.732100625000001,6.319671875,9.938350625,6.589671875,9.938350625L8.517921874999999,9.938350625L8.517921874999999,11.813350625L6.589671875,11.813350625C6.326043875,11.807050624999999,6.108606335,12.018400625,6.107421875,12.282100625C6.107421875,12.544600625000001,6.319671875,12.750850625,6.589671875,12.750850625L8.517921874999999,12.750850625L8.517921874999999,14.157100625C8.517921874999999,14.419600625,8.730171875,14.625850625,9.000171875,14.625850625C9.270171874999999,14.625850625,9.482421875,14.419600625,9.482421875,14.157100625L9.482421875,12.750850625L11.410671875,12.750850625C11.680671875,12.750850625,11.892921874999999,12.544600625000001,11.892921874999999,12.282100625C11.891741875000001,12.018400625,11.674301875000001,11.807050624999999,11.410671875,11.813350625L9.482421875,11.813350625L9.482421875,9.938350625L11.410671875,9.938350625Z" fill="#9E9E9E" fill-opacity="1" style="mix-blend-mode:passthrough"/></g></g></svg>