<svg xmlns="http://www.w3.org/2000/svg" xmlns:xlink="http://www.w3.org/1999/xlink" fill="none" version="1.1" width="20" height="20" viewBox="0 0 20 20"><defs><clipPath id="master_svg0_1125_63290/1125_63098"><rect x="0" y="0" width="20" height="20" rx="0"/></clipPath></defs><g clip-path="url(#master_svg0_1125_63290/1125_63098)"><g><path d="M16.537085375,3.41457915L15.477683375,3.41457915L15.477683375,2.38601665C15.477683375,1.76587701,14.963932375,1.26171875,14.332141375,1.26171875L4.010797775,1.26171875C3.378986175,1.26171875,2.865234375,1.76589704,2.865234375,2.38601665L2.865234375,5.39827445C2.865234375,6.01735495,3.378986175,6.52157305,4.010797775,6.52157305L14.332141375,6.52157305C14.963932375,6.52157305,15.477683375,6.01735445,15.477683375,5.39827445L15.477683375,4.3697719500000005L16.051015375,4.3697719500000005L16.051015375,7.61499215L9.209992374999999,7.61499215C8.941394375,7.61499215,8.723861675,7.82880785,8.723861675,8.09256795L8.723861675,9.90611935L8.671797275,9.90611935C8.188365475000001,9.90611935,7.791074275,10.27738765,7.767670675,10.75174615L7.419846575,17.75919675C7.408174075,18.00069275,7.498573275,18.23891075,7.668777475,18.41445175C7.838982575,18.58995275,8.077200375,18.68992375,8.323973174999999,18.68992375L10.096591475,18.68992375C10.345462775,18.68992375,10.586379574999999,18.58781475,10.757103875,18.40909575C10.927309075,18.23039675,11.015548675,17.98896075,10.999659575,17.74430675L10.534834374999999,10.73685645C10.505034875,10.29223825,10.142300575,9.94443415,9.696642375,9.91251565L9.696642375,8.570163749999999L16.537085375,8.570163749999999C16.806203375000003,8.570163749999999,17.023735375,8.35634855,17.023735375,8.092548350000001L17.023735375,3.89213535C17.023715375000002,3.62833425,16.806182375,3.41457915,16.537085375,3.41457915ZM14.505481375,5.39825435C14.505481375,5.49085145,14.427814375,5.56743955,14.332119375,5.56743955L4.010797775,5.56743955C3.915042775,5.56743955,3.837954935,5.49085145,3.837954935,5.39825435L3.837954935,2.3860163500000002C3.837954935,2.29239985,3.915042775,2.21685112,4.010797775,2.21685112L14.332141375,2.21685112C14.427836375,2.21685112,14.505503375,2.29241995,14.505503375,2.3860163500000002L14.505481375,5.39825435ZM10.024240975,17.73581075L8.395204975,17.73581075L8.736653375,10.86129095L9.568408975,10.86129095L10.024240975,17.73581075Z" fill="#9E9E9E" fill-opacity="1" style="mix-blend-mode:passthrough"/></g></g></svg>