<svg xmlns="http://www.w3.org/2000/svg" xmlns:xlink="http://www.w3.org/1999/xlink" fill="none" version="1.1" width="20" height="20" viewBox="0 0 20 20"><defs><clipPath id="master_svg0_342_26889"><rect x="0" y="0" width="20" height="20" rx="0"/></clipPath></defs><g clip-path="url(#master_svg0_342_26889)"><g><path d="M15.32809765625,6.214150625Q15.37709765625,5.989130625,15.32809765625,5.9401206250000005Q15.22109765625,5.833180625,14.72879765625,5.9401206250000005L15.11869765625,5.327439625L15.60209765625,4.567720825Q15.10749765625,4.485287825,14.97379765625,4.567720825C14.89589765625,4.616735125,14.77109765625,4.868489625,14.65299765625,5.135839625C14.53049765625,5.414328625,14.41239765625,5.708410625,14.35669765625,5.810900625L14.33889765625,5.810900625C14.28759765625,5.708410625,14.16729765625,5.412100625,14.04259765625,5.133611625C13.92229765625,4.866261625,13.79529765625,4.616734725,13.71729765625,4.567720825Q13.58139765625,4.483060025,13.07788765625,4.567720825L13.55911765625,5.327439625L13.94679765625,5.9401206250000005Q13.45662765625,5.835400625,13.35191765625,5.9401206250000005Q13.30290765625,5.989130625,13.35191765625,6.214150625L14.07379765625,6.214150625L14.07379765625,6.4547606250000005Q13.48113765625,6.327770625,13.35191765625,6.4547606250000005Q13.30290765625,6.503780625,13.35191765625,6.728800625L14.07379765625,6.728800625Q13.98469765625,7.187750625,14.07379765625,7.299140625C14.15839765625,7.403860625,14.51929765625,7.394940625,14.61289765625,7.299140625Q14.71319765625,7.198890625000001,14.61289765625,6.728800625L15.32809765625,6.728800625Q15.37709765625,6.503780625,15.32809765625,6.4547606250000005Q15.20109765625,6.327770625,14.61069765625,6.4547606250000005L14.61069765625,6.214150625L15.32809765625,6.214150625ZM6.08222765625,8.488850625L4.05928465625,8.488850625C3.87436765625,8.488850625,3.72509765625,8.339580625,3.72509765625,8.154660625L3.72509765625,6.260940625C3.72509765625,5.935660625,3.99021965625,5.670540625,4.31549565625,5.670540625L11.201987656250001,5.670540625C11.29555765625,5.670540625,11.38466765625,5.710640625,11.44705765625,5.777480625C11.50943765625,5.846540625,11.54285765625,5.937890625,11.53394765625,6.031460625C11.52725765625,6.1072106250000004,11.52502765625,6.185190625,11.52502765625,6.258710625C11.52502765625,6.477040625,11.54953765625,6.695380625,11.60077765625,6.907030625C11.62528765625,7.0072906249999996,11.60077765625,7.112000625,11.53839765625,7.1922106249999995C11.47601765625,7.272410625,11.37798765625,7.319200625000001,11.27550765625,7.319200625000001L6.41641765625,7.319200625000001L6.41641765625,8.154660625C6.41641765625,8.337350625,6.26714765625,8.488850625,6.08222765625,8.488850625ZM4.39569965625,7.820480625L5.74804765625,7.820480625L5.74804765625,7.241220625C5.74804765625,6.915940625,6.013167656249999,6.650820625,6.33843765625,6.650820625L10.878937656249999,6.650820625C10.86779765625,6.546110625,10.861107656249999,6.443630625,10.858887656250001,6.3389106250000005L4.39569965625,6.3389106250000005L4.39569965625,7.820480625Z" fill="#9E9E9E" fill-opacity="1" style="mix-blend-mode:passthrough"/></g><g><path d="M11.828026874999999,8.488420625L6.082233875,8.488420625C5.897316875,8.488420625,5.748046875,8.339150625,5.748046875,8.154230625L5.748046875,7.240788625C5.748046875,6.915512625,6.013168875,6.650390625,6.338444875,6.650390625L11.275506875,6.650390625C11.431456875,6.650390625,11.565136875,6.757330625,11.600786875,6.908828625C11.689896874999999,7.289802625,11.856996875,7.641812625,12.093146875,7.953720625C12.168896875,8.053980625,12.182266875,8.189880625,12.126566875,8.303500625C12.070876875,8.414900625,11.955016875,8.488420625,11.828026874999999,8.488420625ZM6.416420875,7.820050625L11.228716875,7.820050625C11.146286875000001,7.657410625,11.079446875,7.490314625,11.023746875,7.318765625L6.416420875,7.318765625L6.416420875,7.820050625Z" fill="#9E9E9E" fill-opacity="1" style="mix-blend-mode:passthrough"/></g><g><path d="M16.2012153125,9.127180625000001C16.1499753125,9.127180625000001,16.0987353125,9.116040625,16.0497153125,9.091530625C15.9383253125,9.033600625,15.867025312500001,8.919980625,15.867025312500001,8.792990625L15.867025312500001,8.487770625L11.8278163125,8.487770625C11.7231053125,8.487770625,11.6250763125,8.438750625,11.560466312500001,8.354090625000001C11.2663823125,7.966430625,11.0614133125,7.529760625,10.9500175125,7.057440625C10.8876358125,6.794550625,10.8564453125,6.524970625,10.8564453125,6.255390625C10.8564453125,6.161820625,10.8609008825,6.068250625,10.8675850125,5.9746806249999995C10.8987755125,5.580340625,10.9968043125,5.197130625,11.1572143125,4.8384406250000005C11.7164213125,3.586352625,12.964055312500001,2.775390625,14.3364553125,2.775390625C16.2569153125,2.775390625,17.8164553125,4.337160625,17.8164553125,6.255390625C17.8164553125,7.135420625,17.4867253125,7.977570625,16.8874153125,8.621440625C16.738145312500002,8.781850625,16.5732753125,8.931120625,16.3950453125,9.060340625C16.341575312499998,9.104900624999999,16.2725153125,9.127180625000001,16.2012153125,9.127180625000001ZM12.0015953125,7.819390625L15.945005312500001,7.819390625C16.1611153125,7.819390625,16.3504853125,7.937470625,16.4551953125,8.111250625C16.9052353125,7.598830625,17.1525353125,6.941590625,17.1525353125,6.2576206249999995C17.1525353125,4.7069906249999995,15.8915353125,3.445992625,14.3409053125,3.445992625C13.2314053125,3.445992625,12.2243853125,4.101000625,11.7721183125,5.112470625C11.642899312499999,5.402100625,11.5626943125,5.711780624999999,11.5381873125,6.030370625C11.5315033125,6.106120625,11.5292753125,6.184100625,11.5292753125,6.2576206249999995C11.5292753125,6.475960625,11.5537823125,6.694290625,11.6050243125,6.905950625C11.6807743125,7.233450625,11.8144483125,7.538670625,12.0015953125,7.819390625Z" fill="#9E9E9E" fill-opacity="1" style="mix-blend-mode:passthrough"/></g><g><path d="M15.94508984375,17.4449125L3.29498784375,17.4449125C2.96971184375,17.4449125,2.70458984375,17.179792499999998,2.70458984375,16.8545125L2.70458984375,8.4107105C2.70458984375,8.0854345,2.96971184375,7.8203125,3.29498784375,7.8203125L15.94508984375,7.8203125C16.27038984375,7.8203125,16.53548984375,8.0854345,16.53548984375,8.4107105L16.53548984375,16.8545125C16.53548984375,17.179792499999998,16.27038984375,17.4449125,15.94508984375,17.4449125ZM3.37073684375,16.776532500000002L15.86708984375,16.776532500000002L15.86708984375,8.4886875L3.37073684375,8.4886875L3.37073684375,16.776532500000002Z" fill="#9E9E9E" fill-opacity="1" style="mix-blend-mode:passthrough"/></g><g><path d="M9.62007328125,14.84094125C9.45521328125,14.84094125,9.31485328125,14.72063125,9.29034328125,14.55800125C9.16558328125,13.760401250000001,8.72445328125,13.48191125,8.29892328125,13.21234125C8.23431128125,13.17223125,8.17192928125,13.13213125,8.11400328125,13.09203125C7.64168528125,12.77121125,7.36987988125,12.39023125,7.30972598125,11.95579125C7.23397678125,11.40772425,7.52583428125,10.99110425,7.65505328125,10.83737825C8.00038028125,10.42744141,8.51948328125,10.31827425,9.11211328125,10.53438125C9.31485328125,10.60790225,9.49308328125,10.70815925,9.62230328125,10.78836325C9.75152328125,10.70815925,9.929753281250001,10.60790225,10.13249328125,10.53438125C10.72735328125,10.31827325,11.244223281250001,10.42744141,11.58955328125,10.83737825C11.71877328125,10.99110425,12.01063328125,11.40549625,11.93488328125,11.95579125C11.874723281249999,12.39023125,11.60515328125,12.77121125,11.13060328125,13.09203125C11.07045328125,13.13213125,11.01029328125,13.17223125,10.94568328125,13.21234125C10.517923281249999,13.48191125,10.07679328125,13.760401250000001,9.95426328125,14.55800125C9.92530328125,14.72063125,9.78494328125,14.84094125,9.62007328125,14.84094125ZM8.550673281249999,11.09581625C8.40586328125,11.09581625,8.26995728125,11.14260225,8.16301828125,11.26736525C8.10732028125,11.33420225,7.92908728125,11.57259125,7.96918928125,11.86222125C8.00260828125,12.10060125,8.176385281249999,12.32785125,8.48606328125,12.53728125C8.53730328125,12.57292125,8.59523328125,12.60857125,8.65538328125,12.64644125C8.94724328125,12.83136125,9.33713328125,13.07866125,9.62007328125,13.53093125C9.90302328125,13.07643125,10.29290328125,12.83136125,10.58476328125,12.64644125C10.64491328125,12.60857125,10.70284328125,12.57292125,10.75408328125,12.53728125C11.06376328125,12.32785125,11.23754328125,12.10060125,11.27096328125,11.86222125C11.31106328125,11.57036125,11.13283328125,11.33420225,11.07713328125,11.26736525C10.68056328125,10.79727525,9.83618328125,11.44783125,9.82950328125,11.45451125C9.706963281250001,11.55254125,9.53318328125,11.55254125,9.41288328125,11.45451125C9.406193281250001,11.45005125,8.94947328125,11.09581625,8.550673281249999,11.09581625Z" fill="#9E9E9E" fill-opacity="1" style="mix-blend-mode:passthrough"/></g></g></svg>