<svg xmlns="http://www.w3.org/2000/svg" xmlns:xlink="http://www.w3.org/1999/xlink" fill="none" version="1.1" width="20" height="20" viewBox="0 0 20 20"><defs><clipPath id="master_svg0_1125_63285/1125_63082"><rect x="0" y="0" width="20" height="20" rx="0"/></clipPath></defs><g clip-path="url(#master_svg0_1125_63285/1125_63082)"><g><path d="M3.73463136,7.84400655C3.67213136,7.84400655,3.62525636,7.81275655,3.59400636,7.75025655L3.109631347,6.64088155C3.078381347,6.56275655,3.109631347,6.46900655,3.187756352,6.43775655C3.26588134,6.40650655,3.35963136,6.43775655,3.39088136,6.51588155L3.87525636,7.62525655C3.90650636,7.70338155,3.87525636,7.79713155,3.79713136,7.82838155C3.76588136,7.84400655,3.75025636,7.84400655,3.73463136,7.84400655ZM6.03150625,7.14088155C5.96900625,7.14088155,5.92213125,7.10963155,5.89088125,7.04713155L5.31275625,5.70338155C5.28150625,5.62525625,5.31275625,5.53150625,5.39088125,5.50025625C5.46900625,5.46900625,5.56275625,5.50025625,5.59400625,5.57838125L6.17213125,6.92213155C6.20338125,7.00025655,6.17213125,7.09400655,6.09400625,7.12525655C6.07838125,7.12525655,6.06275625,7.14088155,6.03150625,7.14088155ZM7.84400655,5.85963155C7.78150655,5.85963155,7.73463155,5.82838155,7.70338155,5.76588155L7.29713155,4.84400625C7.26588155,4.76588125,7.29713155,4.67213125,7.37525655,4.64088125C7.45338155,4.60963125,7.54713155,4.64088125,7.57838155,4.71900625L7.98463155,5.64088125C8.01588155,5.71900655,7.98463155,5.81275655,7.90650655,5.84400655C7.87525655,5.85963155,7.85963155,5.85963155,7.84400655,5.85963155ZM10.43775655,5.23463125C10.37525655,5.23463125,10.32838155,5.20338125,10.29713155,5.14088125L9.71900655,3.79713125C9.68775655,3.71900625,9.71900655,3.62525645,9.79713155,3.59400645C9.87525655,3.56275645,9.96900655,3.59400645,10.00025655,3.67213125L10.57838155,5.01588125C10.60963155,5.09400625,10.57838155,5.18775625,10.50025655,5.21900625C10.46900655,5.21900625,10.45338155,5.23463125,10.43775655,5.23463125ZM12.45338155,3.85963125C12.39088155,3.85963125,12.34400655,3.82838125,12.31275655,3.76588125L11.90650655,2.84400645C11.87525655,2.76588145,11.90650655,2.67213145,11.98463155,2.64088136C12.06275655,2.60963136,12.15650655,2.64088136,12.18775655,2.71900645L12.59400655,3.64088145C12.62525655,3.71900625,12.59400655,3.81275625,12.51588155,3.84400625C12.48463155,3.84400625,12.46900655,3.85963125,12.45338155,3.85963125ZM14.71900625,3.07838145C14.65650625,3.07838145,14.60963125,3.04713145,14.57838125,2.98463145L14.10963125,1.87525634C14.07838125,1.79713134,14.10963125,1.703381348,14.18775625,1.672131347C14.26588125,1.640881347,14.35963125,1.672131347,14.39088125,1.750256352L14.87525625,2.85963145C14.90650625,2.93775645,14.87525625,3.03150645,14.79713125,3.06275645C14.76588125,3.07838145,14.75025625,3.07838145,14.71900625,3.07838145ZM11.70338155,15.81275625C11.68775655,15.81275625,11.67213155,15.81275625,11.64088155,15.79713125L10.51588155,15.35963125C10.43775655,15.32838125,10.39088155,15.23463125,10.42213155,15.15650625C10.45338155,15.07838125,10.54713155,15.03150625,10.62525655,15.06275625L11.75025655,15.50025625C11.82838155,15.53150625,11.87525655,15.62525625,11.84400655,15.70338125C11.82838155,15.76588125,11.76588155,15.81275625,11.70338155,15.81275625ZM12.82838155,13.67213125C12.81275655,13.67213125,12.79713155,13.67213125,12.76588155,13.65650625L11.40650655,13.12525625C11.32838155,13.09400625,11.28150655,13.00025625,11.31275655,12.92213125C11.34400655,12.84400625,11.43775655,12.79713125,11.51588155,12.82838125L12.87525655,13.35963125C12.95338155,13.39088125,13.00025655,13.48463125,12.96900655,13.56275625C12.95338155,13.64088125,12.89088155,13.67213125,12.82838155,13.67213125ZM13.14088125,11.21900655C13.12525625,11.21900655,13.10963125,11.21900655,13.07838155,11.20338155L12.28150655,10.89088155C12.20338155,10.85963155,12.15650655,10.76588155,12.18775655,10.68775655C12.21900655,10.60963155,12.31275655,10.56275655,12.39088155,10.59400655L13.18775625,10.90650655C13.26588125,10.93775655,13.31275625,11.03150655,13.28150625,11.10963155C13.26588125,11.18775655,13.20338125,11.21900655,13.14088125,11.21900655ZM14.59400625,9.21900655C14.57838125,9.21900655,14.56275625,9.21900655,14.53150625,9.20338155L13.17213125,8.67213155C13.09400655,8.64088155,13.04713155,8.54713155,13.07838155,8.46900655C13.10963125,8.39088155,13.20338125,8.34400655,13.28150625,8.37525655L14.64088125,8.90650655C14.71900625,8.93775655,14.76588125,9.03150655,14.73463125,9.10963155C14.70338125,9.18775655,14.65650625,9.21900655,14.59400625,9.21900655ZM15.04713125,6.81275655C15.03150625,6.81275655,15.01588125,6.81275655,14.98463125,6.79713155L14.04713125,6.42213155C13.96900625,6.39088155,13.92213125,6.29713155,13.95338125,6.21900655C13.98463125,6.14088155,14.07838125,6.09400655,14.15650625,6.12525655L15.09400625,6.50025655C15.17213125,6.53150655,15.21900625,6.62525655,15.18775625,6.70338155C15.17213125,6.78150655,15.10963125,6.81275655,15.04713125,6.81275655ZM16.10963125,4.65650625C16.09400625,4.65650625,16.07838125,4.65650625,16.04713125,4.64088125L14.92213125,4.20338125C14.84400625,4.17213125,14.79713125,4.07838125,14.82838125,4.00025625C14.85963125,3.92213125,14.95338125,3.87525625,15.03150625,3.90650625L16.15650625,4.34400625C16.23463125,4.37525625,16.28150625,4.46900625,16.25025625,4.54713125C16.21900625,4.62525625,16.17213125,4.65650625,16.10963125,4.65650625ZM17.17213125,4.17213125C16.71900625,4.17213125,16.34400625,3.79713125,16.34400625,3.34400645C16.34400625,2.89088145,16.71900625,2.51588136,17.17213125,2.51588136C17.62525625,2.51588136,18.00025625,2.89088145,18.00025625,3.34400645C18.00025625,3.79713125,17.62525625,4.17213125,17.17213125,4.17213125ZM17.17213125,2.82838145C16.89088125,2.82838145,16.65650625,3.06275645,16.65650625,3.34400645C16.65650625,3.62525645,16.89088125,3.85963125,17.17213125,3.85963125C17.45338125,3.85963125,17.68775625,3.62525645,17.68775625,3.34400645C17.68775625,3.06275645,17.45338125,2.82838145,17.17213125,2.82838145Z" fill="#9E9E9E" fill-opacity="1" style="mix-blend-mode:passthrough"/></g><g><path d="M12.90625,19.703216625C12.875,19.703216625,12.828125,19.703216625,12.796875,19.687591625L9.359375,18.328216625C9.28125,18.296966625,9.21875,18.234466625,9.1875,18.156341625C9.15625,18.078216625,9.15625,18.000091625,9.1875,17.921966625L15.8125,1.125091355C15.875,0.968841363,16.0625,0.890716363,16.21875,0.953216363L19.6562505,2.312591425C19.7343745,2.343841425,19.7968745,2.406341425,19.8281245,2.484466425C19.8593745,2.562591425,19.8593745,2.640716425,19.8281245,2.718841425L13.1875,19.500091625C13.140625,19.625091625,13.03125,19.703216625,12.90625,19.703216625ZM9.875,17.859466625L12.734375,18.984466625L19.140625,2.765716425L16.28125,1.640716375L9.875,17.859466625Z" fill="#9E9E9E" fill-opacity="1" style="mix-blend-mode:passthrough"/></g><g><path d="M1.9375,11.4999995C1.8125,11.4999995,1.703125,11.4374995,1.65625,11.3124995L0.1875,7.921875C0.15625,7.84375,0.15625,7.765625,0.1875,7.6875C0.21875,7.609375,0.28125,7.546875,0.359375,7.515625L16.9218745,0.328125C17.0000005,0.296875,17.0781245,0.296875,17.1562505,0.328125C17.2343745,0.359375,17.2968745,0.421875,17.3281245,0.5L17.8593745,1.703125C17.9062505,1.8125,17.8906245,1.953125,17.7968745,2.046875C17.7031245,2.140625,17.5781245,2.171875,17.4531245,2.125L16.2812505,1.671875L14.5781245,5.9375C14.5468745,6.015625,14.4843745,6.078125,14.4062505,6.109375L2.0625,11.4687495C2.015625,11.4843755,1.984375,11.4999995,1.9375,11.4999995ZM0.875,7.953125L2.09375,10.7656255L14.0468745,5.578125L15.6406245,1.53125L0.875,7.953125ZM16.6250005,1.125L16.9687505,1.265625L16.8750005,1.015625L16.6250005,1.125Z" fill="#9E9E9E" fill-opacity="1" style="mix-blend-mode:passthrough"/></g></g></svg>