<svg xmlns="http://www.w3.org/2000/svg" xmlns:xlink="http://www.w3.org/1999/xlink" fill="none" version="1.1" width="18" height="18" viewBox="0 0 18 18"><defs><clipPath id="master_svg0_1086_81605"><rect x="0" y="0" width="18" height="18" rx="0"/></clipPath></defs><g clip-path="url(#master_svg0_1086_81605)"><g><path d="M4.062519375,6.914318125C4.391849375,4.483458125,6.480429375,2.603518125,9.000149375,2.603518125C11.519859375,2.603518125,13.608409375,4.483448125,13.937809375,6.914308125L15.000709375,6.914308125C14.936909375,6.336478125,14.790809375,5.774308125,14.563309375,5.236298124999999C14.259109375,4.517268125,13.823909375,3.871598125,13.269509375,3.317278125C12.715189375,2.7629481250000003,12.069529375,2.327662125,11.350499375,2.023526125C10.605779375000001,1.708543125,9.814999375,1.548828125,9.000149375,1.548828125C8.185279375,1.548828125,7.394509375,1.708543125,6.649789375,2.023525125C5.930759375,2.327662125,5.285099375,2.762928125,4.7307693749999995,3.317278125C4.176439375,3.871618125,3.7411573750000002,4.517268125,3.437020375,5.236298124999999C3.210458375,5.771408125,3.063098775,6.336688125,2.999588475,6.914308125L4.062519375,6.914318125ZM13.968809375,7.969008125C13.772909375,10.538758125,11.619229375,12.569828125,9.000149375,12.569828125C6.3810593749999995,12.569828125,4.227419375,10.538758125,4.031529375,7.969008125L2.974609375,7.969008125C3.016831875,8.648928125000001,3.171554375,9.309398125000001,3.437019375,9.937018125C3.741156375,10.656068125,4.176429375,11.301738125,4.7307693749999995,11.856028125C5.285109375,12.410428125,5.930759375,12.845628125,6.649789375,13.149828125C7.394509375,13.464728125,8.185289375,13.624528125,9.000149375,13.624528125C9.814999375,13.624528125,10.605779375000001,13.464728125,11.350499375,13.149828125C12.069529375,12.845628125,12.715209375,12.410428125,13.269509375,11.856028125C13.823909375,11.301718125,14.259109375,10.656068125,14.563309375,9.937018125C14.828709375,9.309398125000001,14.983409375,8.648928125000001,15.025709375,7.969008125L13.968809375,7.969008125Z" fill="#9E9E9E" fill-opacity="1" style="mix-blend-mode:passthrough"/></g><g><path d="M10.63107125,7.97154125C10.40810125,8.65926125,9.76146125,9.15796125,9.00043125,9.15796125C8.23940125,9.15796125,7.5927412499999996,8.65926125,7.36981125,7.97154125L6.28261125,7.97154125C6.52954125,9.24671125,7.6542112499999995,10.21264125,9.00043125,10.21264125C10.34665125,10.21264125,11.471321249999999,9.24671125,11.71825125,7.97154125L10.63107125,7.97154125ZM7.36981125,6.916851250000001C7.592761250000001,6.22914125,8.23940125,5.73045125,9.00043125,5.73045125C9.76146125,5.73045125,10.40810125,6.22914125,10.631051249999999,6.916851250000001L11.71827125,6.916851250000001C11.47130125,5.64169925,10.34665125,4.67578125,9.00043125,4.67578125C7.6542312500000005,4.67578125,6.52954125,5.64171725,6.28261125,6.91687125L7.36981125,6.916851250000001ZM12.79730125,16.76278125L5.20355625,16.76278125C4.84063825,16.76278125,4.58618705,16.40478125,4.70555075,16.061981250000002L6.05606125,12.18443125L7.05207125,12.531321250000001L5.94563125,15.70808125L12.05523125,15.70808125L10.98546125,12.63667125L11.98147125,12.28978125L13.29531125,16.061981250000002C13.41468125,16.40478125,13.16022125,16.76278125,12.79730125,16.76278125Z" fill="#9E9E9E" fill-opacity="1" style="mix-blend-mode:passthrough"/></g></g></svg>