<svg xmlns="http://www.w3.org/2000/svg" xmlns:xlink="http://www.w3.org/1999/xlink" fill="none" version="1.1" width="17.600000381469727" height="17.600000381469727" viewBox="0 0 17.600000381469727 17.600000381469727"><defs><clipPath id="master_svg0_321_78304/321_78089"><rect x="0" y="0" width="17.600000381469727" height="17.600000381469727" rx="0"/></clipPath></defs><g clip-path="url(#master_svg0_321_78304/321_78089)"><g><path d="M10.915838749999999,3.9986645625L9.33293875,3.9986645625L9.33293875,3.7522645624999997C9.33293875,3.4578765625,9.094928750000001,3.2197265625,8.800538750000001,3.2197265625C8.50615875,3.2197265625,8.26800875,3.4578765625,8.26800875,3.7522635625L8.26800875,3.9986635625L6.68413875,3.9986635625C5.58854375,3.9986635625,4.79296875,4.7203965624999995,4.79296875,5.7150765625C4.79296875,6.0093265625,5.03111875,6.2474765625,5.32550575,6.2474765625C5.61989375,6.2474765625,5.85803875,6.0093265625,5.85803875,5.7150765625C5.85803875,5.0946765625,6.54650875,5.0634665625,6.68427875,5.0634665625L10.915838749999999,5.0634665625C11.05361875,5.0634665625,11.74097875,5.0946765625,11.74097875,5.7150765625C11.74097875,6.0093265625,11.979128750000001,6.2474765625,12.273518750000001,6.2474765625C12.567898750000001,6.2474765625,12.80591875,6.0093265625,12.80591875,5.7150765625C12.80591875,4.7203965624999995,12.01088875,3.9986635625,10.915838749999999,3.9986645625Z" fill="#9E9E9E" fill-opacity="1" style="mix-blend-mode:passthrough"/></g><g><path d="M12.1839390625,6.80360575L11.4377290625,6.80360575L11.4377290625,6.45050575C11.4379490625,6.15629875,11.1993890625,5.917739136,10.9051890625,5.91796875C10.6110290625,5.917817017,10.372559062499999,6.15635375,10.3727890625,6.45050575L10.373059062500001,6.80360575L7.2113890625,6.80360575L7.2113890625,6.45050575C7.2116190625000005,6.15629875,6.9730590625,5.917740479,6.6788490625,5.91796875C6.3846390625,5.917739807,6.1460890625,6.15629875,6.1463090625,6.45050575L6.1465890625,6.80360575L5.4161890625,6.80360575C5.1220900625,6.80345375,4.8836369935,7.04190875,4.8837890625,7.3360087499999995C4.8835607915,7.63015875,5.1220360625,7.86869875,5.4161890625,7.86853875L6.1419090625,7.86853875C6.1984290625,9.415968750000001,6.6397990625,10.296788750000001,7.5243390625,10.933418750000001C7.2852290625,11.01082875,6.8850990625,11.13553875,6.5383290625,11.22271875C6.2531090625,11.294158750000001,6.0798990625,11.583388750000001,6.1515390624999995,11.86854875C6.2229190625,12.153828749999999,6.5121690625,12.32711875,6.7973790625,12.25547875C7.3723990624999995,12.11137875,8.0505490625,11.88147875,8.0842390625,11.87006875C8.3353190625,11.78206875,8.5707090625,11.693928750000001,8.7919490625,11.60358875C9.0272390625,11.699278750000001,9.2649690625,11.788868749999999,9.5048890625,11.87226875C9.5334890625,11.88147875,10.2116390625,12.11137875,10.7865290625,12.25547875C11.0717090625,12.32695875,11.3608490625,12.153728749999999,11.4323590625,11.86855875C11.5040090625,11.583388750000001,11.3307890625,11.294158750000001,11.0455790625,11.22271875C10.698659062499999,11.13553875,10.2982590625,11.01068875,10.060659062500001,10.93396875C10.947539062499999,10.29692875,11.3889090625,9.41610875,11.4432290625,7.86854875L12.1839390625,7.86854875C12.4780890625,7.86869875,12.7165690625,7.63015875,12.716339062500001,7.3360087499999995C12.716489062499999,7.04190875,12.478039062499999,6.80345575,12.1839390625,6.80360575ZM8.7924990625,10.45188875C7.7197290625,9.95757875,7.2601990625,9.364128749999999,7.2053390625,7.86853875L10.3796590625,7.86853875C10.3269990625,9.36426875,9.8681590625,9.957168750000001,8.7924990625,10.45188875Z" fill="#9E9E9E" fill-opacity="1" style="mix-blend-mode:passthrough"/></g><g><path d="M16.184664062499998,3.46002C14.8779640625,2.57769,14.2747640625,1.84399,13.6030640625,0.320487C13.5104640625,0.110387,13.2967640625,-0.0148752,13.0649640625,0.00533726C12.9499640625,0.0161998,12.6295640625,0.0677622,12.2037640625,0.137337C11.2068640625,0.300137,9.5383240625,0.572525,8.746324062500001,0.582425C7.8363540625,0.582425,6.2212740625,0.296975,5.2568540625,0.126475C4.8840840624999995,0.0608873,4.6063340625,0.0126248,4.495104062499999,0.0016248C4.2517240625,-0.0165252,4.0291140625,0.118637,3.9433140625,0.344275C3.3304740625,1.97599,2.7034740624999998,2.75602,1.4584140625,3.43459C1.2872200625,3.52777,1.1806639785767,3.70707,1.1806641464233,3.90195C1.1806641464233,12.2505,4.4065540625,14.5669,8.4905740625,17.5001C8.6763340625,17.6333,8.9263540625,17.6332,9.1119340625,17.4997C13.3540640625,14.45,16.4193640625,12.2464,16.4193640625,3.90154C16.419164062500002,3.72457,16.3312640625,3.55922,16.184664062499998,3.46002ZM8.8010540625,16.4118C4.8949540625,13.6019,2.3168240625000003,11.5636,2.2472540624999997,4.21091C3.4503740625,3.4944,4.1591940625,2.63227,4.7811040625,1.12376L5.0712240625,1.17532C6.0705740625,1.3516,7.7428540625,1.6475,8.7464640625,1.6475L8.807234062500001,1.64695C9.6314140625,1.6365,11.2829640625,1.36672,12.3753640625,1.18839C12.5160640625,1.16524,12.6567640625,1.14237,12.7974640625,1.11977C13.4516640625,2.49615,14.1457640625,3.325,15.3531640625,4.17984C15.2902640625,11.5537,12.7111640625,13.5957,8.8010540625,16.4118Z" fill="#9E9E9E" fill-opacity="1" style="mix-blend-mode:passthrough"/></g></g></svg>