<svg xmlns="http://www.w3.org/2000/svg" xmlns:xlink="http://www.w3.org/1999/xlink" fill="none" version="1.1" width="18.617712020874023" height="19.091638565063477" viewBox="0 0 18.617712020874023 19.091638565063477"><g><path d="M16.6874,1.19873C17.175,1.21905,17.6356,1.38836,17.9877,1.67958C18.3941,2.01143,18.6243,2.47873,18.6176,2.97312L18.6176,15.5225C18.6176,16.0102,18.3873,16.4842,17.981,16.8161C17.7439,17.0057,17.4662,17.1412,17.1615,17.2224L17.1615,17.9132C17.1615,18.5634,16.5723,19.0916,15.8544,19.0916L13.6737,19.0916C12.9558,19.0916,12.3666,18.5634,12.3666,17.9132L12.3666,17.2969L6.251,17.2969L6.251,17.9132C6.251,18.5634,5.66857,19.0916,4.94391,19.0916L2.76317,19.0916C2.04529,19.0916,1.45608,18.5634,1.45608,17.9132L1.45608,17.2224C0.616296,17.0057,0,16.3285,0,15.5225L0,2.97312C0,1.86921,1.67958,1.24614,2.64804,1.19873C3.21016,0.98201,5.95979,0,9.31217,0C12.7594,0,16.105,1.01587,16.6874,1.19873ZM17.2428,15.9153C17.324,15.8544,17.4595,15.7122,17.4595,15.5225L17.473,15.5225L17.473,2.97312C17.473,2.77672,17.3376,2.64127,17.2563,2.57355C17.087,2.4381,16.8432,2.35683,16.5926,2.35683L16.4978,2.35683L16.4097,2.32974C16.3759,2.31619,12.8339,1.16487,9.31894,1.16487C5.86497,1.16487,3.01376,2.30265,2.98667,2.31619L2.87831,2.35683L2.76317,2.35683C2.12656,2.35683,1.25968,2.76318,1.1581,2.98667L1.1581,15.5158C1.1581,15.8476,1.55767,16.1321,2.03175,16.1321L2.61418,16.1321L2.61418,17.8794C2.6345,17.8929,2.6819,17.92,2.76317,17.92L4.94391,17.92C5.02519,17.92,5.07259,17.8929,5.09291,17.8794L5.09291,16.1321L13.5314,16.1321L13.5314,17.8794C13.5517,17.8929,13.5992,17.92,13.6804,17.92L15.8476,17.92C15.9289,17.92,15.9763,17.8929,15.9966,17.8794L15.9966,16.1321L16.579,16.1321C16.8364,16.1321,17.0734,16.0508,17.2428,15.9153ZM4.66596,5.18555L13.9578,5.18555C14.4183,5.18555,14.7976,5.5174,14.7976,5.92375L14.7976,8.38216C14.7976,8.78174,14.4183,9.11359,13.9578,9.11359L4.66596,9.11359C4.20543,9.11359,3.82617,8.78851,3.82617,8.38216L3.82617,5.91698C3.82617,5.5174,4.20543,5.18555,4.66596,5.18555ZM13.5989,8.15867C13.714,8.15867,13.775,8.10449,13.775,8.09094L13.775,6.21496C13.775,6.19465,13.714,6.14724,13.5989,6.14724L5.03167,6.14724C4.91654,6.14724,4.85559,6.20142,4.85559,6.21496L4.85559,8.09094C4.85559,8.11126,4.91654,8.15867,5.03167,8.15867L13.5989,8.15867ZM3.98871,12.8926C3.98871,13.597,4.5576,14.1659,5.26194,14.1659C5.96628,14.1659,6.53517,13.597,6.53517,12.8926C6.53517,12.1883,5.96628,11.6194,5.26194,11.6194C4.5576,11.6194,3.98871,12.1883,3.98871,12.8926ZM12.0886,12.8926C12.0886,13.597,12.6575,14.1659,13.3618,14.1659C14.0662,14.1659,14.6418,13.597,14.6351,12.8926C14.6351,12.1883,14.0662,11.6194,13.3618,11.6194C12.6575,11.6194,12.0886,12.1883,12.0886,12.8926Z" fill-rule="evenodd" fill="#9E9E9E" fill-opacity="1" style="mix-blend-mode:passthrough"/></g></svg>