<svg xmlns="http://www.w3.org/2000/svg" xmlns:xlink="http://www.w3.org/1999/xlink" fill="none" version="1.1" width="17.600004196166992" height="17.600004196166992" viewBox="0 0 17.600004196166992 17.600004196166992"><defs><clipPath id="master_svg0_192_39257/182_36935"><rect x="0" y="0" width="17.600004196166992" height="17.600004196166992" rx="0"/></clipPath></defs><g clip-path="url(#master_svg0_192_39257/182_36935)"><g><path d="M13.4457390625,6.0665990625C12.5046390625,6.1166590625,11.5934390625,6.3769890625,10.7724490625,6.8275490625C11.2230390625,6.0065190625,11.4833390625,5.0853790625,11.5334390625,4.1542190625C11.5334390625,1.6811470625,9.9013690625,0.790039230347,8.7999990625,0.790039230347C7.7386790625,0.790039230347,6.0665990625,1.7011720625,6.0665990625,4.1542190625C6.1166590625,5.0953890625,6.3769890625,6.0065190625,6.8275490625,6.8275390625C6.0065190625,6.3769790625,5.0853790625,6.1166590625,4.1542190625,6.0665990625C1.6811470625,6.0665990625,0.790039230347,7.6986290625,0.790039230347,8.7999990625C0.790039230347,9.8613190625,1.7011720625,11.5334390625,4.1542190625,11.5334390625C5.0953890625,11.4833390625,6.0065190625,11.2230390625,6.8275390625,10.7724490625C6.3769790625,11.5934390625,6.1166590625,12.5146390625,6.0665990625,13.4457390625C6.0665990625,15.9188390625,7.6986290625,16.8099390625,8.7999990625,16.8099390625C9.8613190625,16.8099390625,11.5334390625,15.8988390625,11.5334390625,13.4457390625C11.4833390625,12.5046390625,11.2230390625,11.5934390625,10.7724490625,10.7724490625C11.5934390625,11.2230390625,12.5146390625,11.4833390625,13.4457390625,11.5334390625C15.9088390625,11.5334390625,16.8099390625,9.9013690625,16.8099390625,8.7999990625C16.8099390625,7.7386790625,15.8988390625,6.0665990625,13.4457390625,6.0665990625ZM8.7999990625,1.9715090625C9.3707090625,1.9715090625,10.3519290625,2.4320790624999997,10.3519290625,4.1442090625C10.3519290625,5.3957690625,9.3907290625,6.9577090625,8.7999990625,7.7987490625C8.1491890625,6.8675990625,7.2580790625,5.3256790625,7.2580790625,4.1442090625C7.2480690625,2.3720090625,8.3994990625,1.9715090625,8.7999990625,1.9715090625ZM1.9715090625,8.7999990625C1.9715090625,8.229289062500001,2.4320790624999997,7.2480690625,4.1442090625,7.2480690625C5.3957690625,7.2480690625,6.9577090625,8.2092590625,7.7987490625,8.7999990625C6.8675990625,9.4508090625,5.3256790625,10.3419090625,4.1442090625,10.3419090625C2.3720090625,10.3519290625,1.9715090625,9.2004890625,1.9715090625,8.7999990625ZM8.7999990625,15.6284390625C8.229289062500001,15.6284390625,7.2480690625,15.1679390625,7.2480690625,13.4557390625C7.2480690625,12.2042390625,8.1992490625,10.6422890625,8.7999990625,9.8012390625C9.3907290625,10.6522990625,10.3519290625,12.2042390625,10.3519290625,13.4557390625C10.3519290625,15.2280390625,9.2004990625,15.6284390625,8.7999990625,15.6284390625ZM13.4457390625,10.3519290625C12.1942390625,10.3519290625,10.6322790625,9.4007390625,9.7912290625,8.7999990625C10.6422890625,8.2092590625,12.1942390625,7.2480690625,13.4457390625,7.2480690625C15.2179390625,7.2480690625,15.6184390625,8.3994990625,15.6184390625,8.7999990625C15.6284390625,9.3707090625,15.1679390625,10.3519290625,13.4457390625,10.3519290625Z" fill="#9E9E9E" fill-opacity="1" style="mix-blend-mode:passthrough"/></g></g></svg>