<svg xmlns="http://www.w3.org/2000/svg" xmlns:xlink="http://www.w3.org/1999/xlink" fill="none" version="1.1" width="17.600004196166992" height="17.600004196166992" viewBox="0 0 17.600004196166992 17.600004196166992"><defs><clipPath id="master_svg0_192_39242/182_36956"><rect x="0" y="0" width="17.600004196166992" height="17.600004196166992" rx="0"/></clipPath></defs><g clip-path="url(#master_svg0_192_39242/182_36956)"><g><path d="M9.9,4.3813C10.1244,4.3219,10.373,4.2878,10.6337,4.2878L12.4663,4.2878C13.4783,4.2878,14.3,4.7905,14.3,5.4098L14.3,10.7206L13.2,10.7206L13.2,9.6481L12.1,9.6481L12.1,8.5767L13.2,8.5767L13.2,5.9147C13.2,5.3977,12.8722,5.3603,12.4663,5.3603L10.6337,5.3603C10.2278,5.3603,9.9,5.3977,9.9,5.9136L9.9,11.7931L8.8,11.7931L8.8,2.5531C8.8,1.4762,8.1433,1.0725,7.3337,1.0725L5.8663,1.0725C5.0567,1.0725,4.4,1.4762,4.4,2.552L4.4,11.792L3.3,11.792L3.3,2.1439C3.3,0.9603,4.2845,0,5.5,0L7.7,0C8.9155,0,9.9,0.9603,9.9,2.145L9.9,4.3813ZM5.5,8.5767L6.6,8.5767L6.6,9.6481L5.5,9.6481L5.5,8.5767ZM6.6,6.4317L7.7,6.4317L7.7,7.5042L6.6,7.5042L6.6,6.4328L6.6,6.4317ZM5.5,4.2889L6.6,4.2889L6.6,5.3614L5.5,5.3614L5.5,4.2889ZM6.6,2.145L7.7,2.145L7.7,3.2175L6.6,3.2175L6.6,2.145ZM11,6.4339L12.1,6.4339L12.1,7.5053L11,7.5053L11,6.4339ZM2.9843,4.1052C1.77153,5.45631,1.10049,7.20773,1.1,9.0233C1.1,13.1681,4.5474,16.5275,8.8,16.5275C13.0526,16.5275,16.5,13.1681,16.5,9.0233C16.5,8.1543,16.3482,7.3183,16.0688,6.5406L17.1072,6.1864C17.4262,7.0741,17.6,8.0289,17.6,9.0244C17.6,13.7588,13.6598,17.6,8.8,17.6C3.9402,17.6,0,13.761,0,9.0233C0,6.886,0.803,4.9291,2.1318,3.4265L2.9843,4.1052Z" fill="#9E9E9E" fill-opacity="1" style="mix-blend-mode:passthrough"/></g></g></svg>