<svg xmlns="http://www.w3.org/2000/svg" xmlns:xlink="http://www.w3.org/1999/xlink" fill="none" version="1.1" width="18" height="18" viewBox="0 0 18 18"><defs><clipPath id="master_svg0_1086_81576"><rect x="0" y="0" width="18" height="18" rx="0"/></clipPath></defs><g clip-path="url(#master_svg0_1086_81576)"><g><path d="M14.970084375,3.8309875L4.2770543750000005,3.8309875C3.834134375,3.8309875,3.475073375,3.4719275,3.475073375,3.0290075C3.475073375,2.5860875,3.834134375,2.2270265,4.2770543750000005,2.2270265L14.970084375,2.2270265C15.216184375,2.2270265,15.415684375,2.0275495,15.415684375,1.7814825C15.415684375,1.5354145,15.216184375,1.3359375,14.970084375,1.3359375L4.2770543750000005,1.3359375C3.342404375,1.336919746,2.584966621,2.0943575,2.583984375,3.0290075C2.583984375,3.0895975,2.583984375,3.1484175,2.592895315,3.2072275L2.583984375,3.2072275L2.583984375,14.4349375C2.585946465,15.6644375,3.582183375,16.6607375,4.811704375,16.662637500000002L13.187984375,16.662637500000002C14.417484375,16.6607375,15.413684375,15.6644375,15.415684375,14.4349375L15.415684375,4.0983175L15.378284375,4.0983175C15.307084375,3.9363375,15.147084375,3.8315375,14.970084375,3.8309875ZM10.425574375,4.7220775L12.385964375,4.7220775L12.385964375,6.9497975L11.721214375,6.2832675C11.546324375,6.1106875,11.265214375,6.1106875,11.090324375,6.2832675L10.425564375,6.9497975L10.425574375,4.7220775ZM13.187984375,15.7715375L4.811704375,15.7715375C4.073504375,15.7715375,3.475073375,15.1731375,3.475073375,14.4349375L3.475073375,4.5189075C3.721124375,4.6528275,3.9969143750000002,4.722697500000001,4.2770543750000005,4.7220775L9.534484375,4.7220775L9.534484375,8.0191075C9.534154375,8.199557500000001,9.642714375,8.3623875,9.809414375,8.4314875C9.976114375,8.5005875,10.168034375000001,8.462317500000001,10.295474375000001,8.3345475L11.405764375,7.2242575L12.516064375,8.3345475C12.643484375,8.462317500000001,12.835384375,8.5005875,13.002084375,8.4314875C13.168784375,8.3623875,13.277384375,8.199557500000001,13.277084375,8.0191075L13.277084375,4.7220775L14.524584375,4.7220775L14.524584375,14.4349375C14.524584375,15.1731375,13.926184375,15.7715375,13.187984375,15.7715375Z" fill="#9E9E9E" fill-opacity="1" style="mix-blend-mode:passthrough"/></g><g><path d="M5.3469121875,9.891089000000001L7.6637471875,9.891089000000001C7.9098071875,9.891089000000001,8.1092871875,9.691612,8.1092871875,9.445544C8.1092871875,9.199477,7.9098071875,9,7.6637471875,9L5.3469121875,9C5.1008441875,9,4.9013671875,9.199477,4.9013671875,9.445544C4.9013671875,9.691612,5.1008441875,9.891089000000001,5.3469121875,9.891089000000001ZM12.653837187499999,10.9604L5.3469121875,10.9604C5.1010851875,10.96074,4.9019827655,11.16011,4.9019827655,11.405940000000001C4.9019827655,11.651769999999999,5.1010851875,11.85115,5.3469121875,11.85149L12.653837187499999,11.85149C12.8999071875,11.85149,13.0993871875,11.65201,13.0993871875,11.405940000000001C13.0993871875,11.15987,12.8999071875,10.9604,12.653837187499999,10.9604ZM10.3370071875,12.92079L5.3469121875,12.92079C5.1010851875,12.92113,4.9019827655,13.12051,4.9019827655,13.366340000000001C4.9019827655,13.61216,5.1010851875,13.81154,5.3469121875,13.81188L10.3370071875,13.81188C10.582837187500001,13.81154,10.781937187499999,13.61216,10.781937187499999,13.366340000000001C10.781937187499999,13.12051,10.582837187500001,12.92113,10.3370071875,12.92079Z" fill="#9E9E9E" fill-opacity="1" style="mix-blend-mode:passthrough"/></g></g></svg>