<svg xmlns="http://www.w3.org/2000/svg" xmlns:xlink="http://www.w3.org/1999/xlink" fill="none" version="1.1" width="16" height="16" viewBox="0 0 16 16"><defs><clipPath id="master_svg0_1460_68842"><rect x="0" y="0" width="16" height="16" rx="0"/></clipPath></defs><g clip-path="url(#master_svg0_1460_68842)"><g><path d="M12.481800875,6.924985925L12.307081875,6.924985925C12.230640875,4.620868425,10.352404575,2.775390625,8.026447775000001,2.775390625C5.700490475,2.775390625,3.811332675,4.620868425,3.745812875,6.924985925C3.669373075,6.924985925,3.603852975,6.914065825,3.527413375,6.914065825C1.802055075,6.914065825,0.404296875,8.289984725,0.404296875,10.015342725C0.404296875,11.740700725,1.802055375,13.116619625,3.527413375,13.116619625L12.481802875,13.116619625C14.207159875,13.116619625,15.604919875,11.740700725,15.604919875,10.015342725C15.604919875,8.289984725,14.207159875,6.924986325,12.481800875,6.924985925ZM9.697204575,7.197985625C9.904684975,7.045105925,10.275963775,6.739346225,10.275963775,6.739346225L10.275963775,8.104344325L8.845446575,8.104344325L9.216726275,7.602025025C9.216726275,7.449145325,6.923527675,6.357146525,6.530408875,8.759543925C6.213728875,8.759543925,6.060849675,8.770463925,5.798769475,8.814144125C6.464888575,5.494467925,9.609845175,6.673826925,9.697204575,7.197985625ZM6.552249475,10.550421725C6.344768975,10.703301425,6.017170475,11.009060825,6.017170475,11.009060825L6.017170475,9.633142424999999L7.360328175,9.633142424999999C7.360328175,9.633142424999999,7.141928675,9.873382525,6.989048975,10.080862025C6.989048975,10.244662325,9.282247575,11.380340625,9.675366375,8.868743925C9.992045375,8.868743925,10.166766175,8.912423624999999,10.428845875,8.879663425C9.762725875,12.188420325,6.639609375,11.063660625,6.552249475,10.550421725Z" fill="#CAF5FE" fill-opacity="1" style="mix-blend-mode:passthrough"/></g></g></svg>