<svg xmlns="http://www.w3.org/2000/svg" xmlns:xlink="http://www.w3.org/1999/xlink" fill="none" version="1.1" width="17.600000381469727" height="17.600000381469727" viewBox="0 0 17.600000381469727 17.600000381469727"><defs><clipPath id="master_svg0_321_78287/321_78069"><rect x="0" y="0" width="17.600000381469727" height="17.600000381469727" rx="0"/></clipPath></defs><g clip-path="url(#master_svg0_321_78287/321_78069)"><g><path d="M9.6799728125,7.9934228125L15.9952828125,7.9934228125C16.3004828125,7.9934228125,16.5129828125,7.6902928125,16.4088828125,7.4033828125C15.4830828125,1.3388638125,9.7670928125,0.8856638125,9.7094528125,0.8812637925C9.5877128125,0.8714572625,9.4676028125,0.9142172125,9.3794528125,0.9987438125C9.2905728125,1.0814638125,9.2399728125,1.1980638125,9.2399728125,1.3199438125L9.2399728125,7.5534228125C9.2399728125,7.7964328125,9.4369628125,7.9934228125,9.6799728125,7.9934228125ZM15.4641828125,7.1134228125L10.1199728125,7.1134228125L10.1199728125,1.8290238125C11.3528828125,2.0666228125,14.6413828125,3.0742228125,15.4641828125,7.1134228125ZM4.9843228125,15.8487828125C6.1490028125,16.289282812499998,7.2621928125,16.5131828125,8.2931228125,16.5131828125L8.2931228125,16.5127828125C13.8208828125,16.5127828125,15.3792828125,10.1750028125,15.3946828125,10.1116428125C15.4599828125,9.8353728125,15.2504828125,9.5705028125,14.9665828125,9.5704428125L8.0000828125,9.5704428125L8.0000828125,2.4569628125C7.9992828125,2.1931828125,7.7687828125,1.9890128125,7.5068428125,2.0200428125C3.0874828125,2.5581628125,1.3591588125,6.5529228125,1.2878788125,6.7227628125C1.2817188125,6.7377228125,1.2764388125,6.7526828125,1.2715988125,6.7680828125C-0.6102771874999999,13.1058828125,4.8950028125,15.8078828125,4.9843228125,15.8487828125ZM5.3288428125,15.0391828125C5.1290828125,14.9445828125,0.4593588125,12.6499828125,2.1076028124999997,7.0444028125C2.2321228125,6.7676428125,3.7026028125,3.6506828125,7.1200828125,2.9726428125L7.1200828125,10.0100028125C7.1200828125,10.2530128125,7.3170728125,10.4500028125,7.5600828125,10.4500028125L14.3791828125,10.4500028125C13.9044828125,11.8843828125,12.2812828125,15.6331828125,8.2926828125,15.6331828125C7.3691228125,15.6331828125,6.3606428125,15.4281828125,5.3288428125,15.0391828125Z" fill-rule="evenodd" fill="#9E9E9E" fill-opacity="1" style="mix-blend-mode:passthrough"/></g></g></svg>