<svg xmlns="http://www.w3.org/2000/svg" xmlns:xlink="http://www.w3.org/1999/xlink" fill="none" version="1.1" width="53.84000015258789" height="51.71736145019531" viewBox="0 0 53.84000015258789 51.71736145019531"><defs><filter id="master_svg0_1646_72635" filterUnits="objectBoundingBox" color-interpolation-filters="sRGB" x="-0.995555559794108" y="-1.0480330877273911" width="2.9911111195882163" height="3.257302046656119"><feFlood flood-opacity="0" result="BackgroundImageFix"/><feColorMatrix in="SourceAlpha" type="matrix" values="0 0 0 0 0 0 0 0 0 0 0 0 0 0 0 0 0 0 127 0"/><feOffset dy="1.28000009059906" dx="0"/><feGaussianBlur stdDeviation="4.480000019073486"/><feColorMatrix type="matrix" values="0 0 0 0 0.4601770043373108 0 0 0 0 0.7084956765174866 0 0 0 0 1 0 0 0 0.75 0"/><feBlend mode="normal" in2="BackgroundImageFix" result="effect1_dropShadow"/><feBlend mode="normal" in="SourceGraphic" in2="effect1_dropShadow" result="shape"/></filter></defs><g filter="url(#master_svg0_1646_72635)"><path d="M35.72161507629394,21.158343885694883L34.76216107629395,21.612032085694885L34.76216107629395,24.370349485694884L35.380026076293944,25.023519185694887L34.515900076293946,25.930896385694886L33.650891076293945,25.023519185694887L34.273167076293944,24.370349985694887L34.273167076293944,21.847702185694885C32.32272507629395,22.776321985694885,30.370865076293946,23.701940685694886,28.417591076293945,24.624556185694885C27.497553776293945,25.181283585694885,26.344523476293944,25.181283585694885,25.424485676293944,24.624556185694885C24.299974876293945,24.107316585694885,18.123992946293946,21.167171085694886,18.123992946293946,21.167171085694886C18.123992946293946,21.167171085694886,17.665008996293945,20.885602085694885,18.123992946293946,20.668467185694887L25.796086276293945,17.029254075694887C26.152407676293947,16.846777065694884,26.532792076293944,16.715722478694886,26.925892876293943,16.639999985694885C27.314476976293946,16.716223940694885,27.690170276293948,16.847597835694884,28.041577076293947,17.030136315694886C28.041577076293947,17.030136315694886,35.26351307629395,20.442505685694886,35.71455407629395,20.669349785694884C36.17265507629395,20.876774885694886,35.72161507629394,21.158344385694885,35.72161507629394,21.158343885694883ZM26.925892876293943,26.719111985694887C26.396524476293948,26.722947985694887,25.876682276293945,26.578307785694886,25.425367876293947,26.301612485694886C24.078325776293944,25.665292385694883,22.731971776293946,25.027126885694884,21.386308876293946,24.387119385694884L21.386308876293946,30.185321985694884C23.063365976293944,30.974421985694885,24.871938676293944,31.836781985694884,25.425367876293947,32.09981598569489C26.345404576293944,32.65654398569488,27.498435976293948,32.65654398569488,28.418473076293946,32.09981598569489C28.980728076293943,31.835017985694883,30.779592076293945,30.983248985694885,32.457532076293944,30.185321985694884L32.457532076293944,24.387119385694884C30.780476076293944,25.176218585694883,28.971902076293944,26.038579585694883,28.418473076293946,26.301612485694886C27.969621076293947,26.577457985694885,27.452729176293943,26.722650985694884,26.925891876293946,26.720874985694884L26.925892876293943,26.719111985694887Z" fill="#FFFFFF" fill-opacity="1"/></g></svg>