<svg xmlns="http://www.w3.org/2000/svg" xmlns:xlink="http://www.w3.org/1999/xlink" fill="none" version="1.1" width="53.84000015258789" height="53.690513610839844" viewBox="0 0 53.84000015258789 53.690513610839844"><defs><filter id="master_svg0_1646_72653" filterUnits="objectBoundingBox" color-interpolation-filters="sRGB" x="-0.995555559794108" y="-0.9321860698635831" width="2.9911111195882163" height="3.0077853915187935"><feFlood flood-opacity="0" result="BackgroundImageFix"/><feColorMatrix in="SourceAlpha" type="matrix" values="0 0 0 0 0 0 0 0 0 0 0 0 0 0 0 0 0 0 127 0"/><feOffset dy="1.28000009059906" dx="0"/><feGaussianBlur stdDeviation="4.480000019073486"/><feColorMatrix type="matrix" values="0 0 0 0 0.4601770043373108 0 0 0 0 0.7084956765174866 0 0 0 0 1 0 0 0 0.75 0"/><feBlend mode="normal" in2="BackgroundImageFix" result="effect1_dropShadow"/><feBlend mode="normal" in="SourceGraphic" in2="effect1_dropShadow" result="shape"/></filter></defs><g filter="url(#master_svg0_1646_72653)"><path d="M27.941763076293945,18.605117185694887C27.963704076293944,19.742070585694886,27.038184176293946,20.667590285694885,25.901230776293946,20.645649085694885C24.826111776293946,20.625702785694884,23.956442376293946,19.758027685694884,23.936495776293945,18.680914085694887C23.914554576293945,17.543960805694887,24.840074576293944,16.618440961694887,25.977027876293945,16.640382164684887C27.052146876293946,16.660328713694884,27.921816076293943,17.528003575694886,27.941763076293945,18.605117185694887ZM32.48153307629394,27.239942985694885L35.838537076293946,33.59291898569489C36.069918076293945,33.99185098569488,35.78069107629395,34.490512985694885,35.31992707629395,34.490512985694885L26.762857476293945,34.490512985694885C26.455680876293947,34.490512985694885,26.264194476293945,34.157405985694886,26.417782776293947,33.892116985694884L28.163105076293945,30.922076985694886L23.786833276293947,27.571055985694883L23.864624976293946,27.674778985694886C23.843530676293945,27.727513985694884,23.830933576293944,27.781175985694887,23.819480876293945,27.829959985694884C23.789781576293947,27.956473985694885,23.767781776293944,28.050187985694883,23.625266076293947,28.009880985694885C22.923147676293944,27.810414985694884,21.100033276293946,26.850985985694884,20.417861476293947,26.601653685694885C20.224379776293944,26.531840885694884,20.118663276293944,26.326391785694888,20.168529476293944,26.128921185694885C20.189006076293946,26.048653285694883,20.181230976293946,26.052466985694885,20.174068476293947,26.055981285694884C20.163787876293945,26.061024285694884,20.154769376293945,26.065448385694886,20.232358476293946,25.819749485694885C20.282224876293945,25.660176885694884,20.226374576293946,25.486641485694886,20.094727276293945,25.384914085694888L18.608709636293945,24.237988085694887L18.179858806293947,23.890917885694886C17.948478870293947,23.661532485694885,17.880660608293944,23.314462785694886,18.008318513293947,23.015265085694885C18.329457936293945,22.257296185694884,18.907907786293947,21.285899285694885,19.113357176293945,20.890957485694884C19.173196776293945,20.779256985694886,19.282902876293946,20.701465285694887,19.408566076293944,20.681518685694886C20.042866276293946,20.585775285694886,22.019569376293944,20.296550385694886,22.887243776293946,20.254662585694884C23.030858976293946,20.248678585694886,23.172479676293946,20.278598385694885,23.298142876293944,20.346416585694886L25.787471776293945,21.664883685694885C25.821380576293947,21.680840585694884,25.851300676293945,21.702781785694885,25.877231076293945,21.728712685694887C26.681076976293944,22.518595785694885,27.780131376293944,27.439408985694886,28.027469076293947,28.877555985694883C28.049410076293945,29.007207985694883,28.049410076293945,29.120902985694883,28.033453076293945,29.216646985694886L28.803389076293946,29.944694985694888L30.257493076293947,27.908152985694883C30.802033076293945,26.964680985694883,31.936992076293947,26.296472185694885,32.48153307629394,27.239942985694885ZM20.928492976293946,23.845040885694885C21.155883576293945,23.258612285694884,21.331413276293944,22.847714085694886,21.522900076293944,22.494659985694884C21.664520476293944,22.233360385694887,21.481012376293947,21.914215185694886,21.185803376293947,21.908231385694886L20.354032476293945,21.884295585694886C20.202438576293947,21.880306385694887,20.062812776293946,21.960092685694885,19.991005176293946,22.093734385694887C19.783561276293945,22.478702685694884,19.446464576293945,23.206751485694884,19.486357676293945,23.240660285694887L20.282224876293945,23.988656185694886C20.487674276293944,24.184132185694885,20.826765576293944,24.110330185694885,20.928492976293946,23.845040885694885ZM24.808095976293945,25.033855085694885L24.273529076293947,26.352322185694884L26.683071176293943,28.344982985694884C26.252225876293945,27.401510985694884,25.847310976293947,25.995278985694885,25.560080976293946,25.063774685694884C25.448380476293945,24.704737285694886,24.947721976293945,24.684790285694888,24.808095976293945,25.033855085694885ZM20.280293976293944,27.253940985694886Q21.239722776293945,27.477341985694885,23.645276076293946,28.652194985694884C24.253645876293945,28.933440985694887,25.350706076293946,30.700703985694886,25.342727676293947,31.825688985694885C25.340732576293945,32.27847598569488,25.099379576293945,33.03245598569488,24.373325376293945,34.25318398569489C24.301517476293945,34.37485798569489,24.169870376293947,34.448660985694886,24.030244876293946,34.448660985694886L23.226398976293943,34.448660985694886C22.923211076293946,34.448660985694886,22.731724276293946,34.12153698569489,22.877334076293945,33.856247985694885C23.164564576293944,33.335641985694885,23.531580876293944,32.561716985694886,23.587431476293943,31.919437985694884C23.631313776293943,31.398832985694884,22.500344276293944,29.661489985694885,21.155947476293946,29.669468985694884C20.976428476293947,29.669468985694884,19.793598176293944,33.233915985694885,19.388683176293945,34.20331798569488C19.326848976293945,34.35291698569489,19.183233876293947,34.448660985694886,19.021666776293944,34.448660985694886L18.319548336293945,34.448660985694886C18.054259266293947,34.448660985694886,17.864767071293944,34.19733498569488,17.934579984293947,33.944011985694885C18.301596436293945,32.62155698569489,19.510357176293944,28.622273985694886,19.805566076293946,27.537181985694886C19.861416476293947,27.331731985694887,20.070855176293946,27.206069985694885,20.280293976293944,27.253940985694886Z" fill-rule="evenodd" fill="#FFFFFF" fill-opacity="1"/></g></svg>