<svg xmlns="http://www.w3.org/2000/svg" xmlns:xlink="http://www.w3.org/1999/xlink" fill="none" version="1.1" width="55.84000015258789" height="53.38149833679199" viewBox="0 0 55.84000015258789 53.38149833679199"><defs><filter id="master_svg0_1646_72924" filterUnits="objectBoundingBox" color-interpolation-filters="sRGB" x="-0.8960000038146972" y="-0.9486076850994971" width="2.7920000076293947" height="3.0431550245156003"><feFlood flood-opacity="0" result="BackgroundImageFix"/><feColorMatrix in="SourceAlpha" type="matrix" values="0 0 0 0 0 0 0 0 0 0 0 0 0 0 0 0 0 0 127 0"/><feOffset dy="1.28000009059906" dx="0"/><feGaussianBlur stdDeviation="4.480000019073486"/><feColorMatrix type="matrix" values="0 0 0 0 0.4601770043373108 0 0 0 0 0.7084956765174866 0 0 0 0 1 0 0 0 0.75 0"/><feBlend mode="normal" in2="BackgroundImageFix" result="effect1_dropShadow"/><feBlend mode="normal" in="SourceGraphic" in2="effect1_dropShadow" result="shape"/></filter></defs><g filter="url(#master_svg0_1646_72924)"><path d="M29.149878076293945,27.980836985694886C29.486246076293945,28.142615985694885,29.830759076293944,28.286882985694888,30.182035076293943,28.413053985694887C29.890452076293947,28.985900985694883,29.725307076293944,29.634871985694886,29.725307076293944,30.322546985694885C29.723783076293945,31.566635985694887,30.273773076293946,32.74741198569488,31.227097076293944,33.54674998569489C29.967865076293947,33.70286398569489,28.267384076293943,33.83059398569489,26.061146776293945,33.83059398569489Q20.306866176293944,33.83059398569489,17.920000076293945,32.96100098569488Q17.920000076293945,29.691638985694887,19.881100676293947,29.073634985694888C21.024215976293945,28.714959985694886,22.144106876293947,28.351123985694883,22.879519476293943,27.989867985694886C23.405920076293945,27.731827985694885,23.734920976293946,27.473789985694886,23.733630676293945,27.215748985694887L23.733630676293945,26.579682985694888C23.514671776293945,26.399139085694884,23.319575776293945,26.191470785694886,23.153041376293945,25.961677185694885C22.974994676293946,25.713959385694885,22.795656176293946,25.377217885694883,22.636962376293944,25.041766785694886C22.461494876293944,24.665029185694884,22.311832476293944,24.296032085694886,22.224098676293945,24.066377285694884C22.132494976293945,23.955420585694885,22.048632176293946,23.845753285694883,21.973801176293946,23.737376285694886C21.593191876293947,23.176141385694883,21.461591976293946,22.641999385694884,21.581580376293946,22.143982985694883C21.652541676293946,21.843367185694884,21.816396976293944,21.582747085694884,22.039600876293946,21.389216985694887C21.950577776293947,20.666707185694886,21.955738576293946,19.848721385694887,22.217648076293944,19.131372085694885C22.338604476293945,18.793770385694884,22.504372076293947,18.473950285694887,22.710504576293946,18.180495885694885C23.089687776293946,17.648328385694885,23.612307076293945,17.234885815694884,24.217454876293946,16.988353045694886C24.967059176293944,16.673545449694885,25.676667676293945,16.639999985694885,25.947608976293946,16.639999985694885L26.135977776293945,16.639999985694885C26.729693376293945,16.644154994794885,27.317071876293944,16.762418795694884,27.866132776293945,16.988353045694886C28.430047076293945,17.218795415694885,28.923162076293945,17.593972745694884,29.295671076293946,18.075989685694886C29.537542076293946,18.395881085694885,29.728991076293944,18.750931885694886,29.863357076293944,19.128791685694885C30.125269076293947,19.847431285694885,30.131719076293948,20.664126485694887,30.041405076293945,21.386636885694884C30.270256076293947,21.584041685694885,30.430988076293943,21.848619085694885,30.500715076293943,22.142693185694885C30.623283076293944,22.651031185694883,30.483942076293946,23.196785085694884,30.085272076293947,23.768341685694885C30.016890076293947,23.865105785694887,29.940770076293944,23.963161085694885,29.856906076293946,24.065086985694887C29.770463076293943,24.292161585694885,29.620799076293945,24.662448485694885,29.444042076293947,25.036605485694885C29.286639076293945,25.373347885694884,29.106011076293946,25.713960285694885,28.925383076293947,25.959097485694883C28.751609076293946,26.199976585694884,28.546365076293945,26.416503585694883,28.315121076293945,26.602906785694884L28.315121076293945,27.215748985694887C28.315121076293945,27.469919985694887,28.635089076293944,27.725378985694885,29.149878076293945,27.980836985694886ZM22.834359676293946,22.145273285694884C22.645991276293945,22.216234785694887,22.328603276293947,22.590391285694885,23.162069776293947,23.503851985694887Q23.473010576293944,24.347640185694885,23.798140476293945,24.951452885694884C23.865464176293944,25.081746685694885,23.941769076293944,25.207197785694888,24.026504976293946,25.326900085694888C24.233178176293947,25.609636885694883,24.501415276293947,25.841696385694885,24.810944576293945,26.005544285694885C25.245741876293945,26.236489885694887,25.699891076293945,26.308740285694885,26.025020576293947,26.308740285694885L26.031471276293946,26.307450885694884L26.044373476293945,26.307450885694884L26.065016776293945,26.308740285694885C26.379823676293945,26.308740285694885,26.819781276293945,26.240359885694886,27.244256976293947,26.022317485694884C27.538421676293943,25.871363285694883,27.826135676293944,25.649449985694886,28.060951076293946,25.326900085694888C28.147035076293946,25.205978085694888,28.224631076293946,25.079234685694885,28.293187076293947,24.947581885694888Q28.615736076293945,24.342479385694887,28.925383076293947,23.503851985694887C29.760141076293944,22.591681585694886,29.440172076293948,22.216234285694885,29.253095076293945,22.145273285694884C28.940865076293946,22.029155385694885,28.730563076293947,22.493626285694887,28.654442076293947,22.700058085694884C28.724113076293946,22.488465885694886,28.885387076293945,21.954323885694883,28.969250076293946,21.329868485694885Q26.015988376293947,21.364704285694884,24.577417876293946,19.647450785694886C23.912965276293946,19.753247185694885,23.351729876293945,20.409957785694886,23.071756876293946,20.803467885694886C23.113225976293947,21.448179385694885,23.234571476293944,22.085248085694886,23.433011976293947,22.700058085694884C23.356890176293945,22.493626285694887,23.146587876293946,22.029155385694885,22.834359676293946,22.145273285694884ZM37.920000076293945,30.322511985694884C37.920000076293945,32.45450598569489,36.191130076293945,34.182535985694884,34.05913507629394,34.181493985694885C31.928615076293944,34.18045498569489,30.202039076293943,32.453034985694885,30.202039076293943,30.322511985694884C30.202039076293943,28.191991985694884,31.928615076293944,26.464573485694885,34.05913507629394,26.463532085694887C36.191130076293945,26.462490685694885,37.920000076293945,28.190519985694884,37.920000076293945,30.322511985694884ZM26.043081276293947,32.85262398569489Q26.102430376293945,32.82036798569489,26.205646476293943,32.75456898569489L26.205646476293943,32.75585998569488C26.773333576293943,32.39847298569489,28.645410076293945,31.076019985694884,28.909901076293945,29.056861985694887C28.302217076293946,28.785920985694887,27.242965676293945,28.232424985694884,27.242965676293945,27.217040985694887L27.242965676293945,27.184784985694883C26.723016776293946,27.360251985694887,26.271447176293947,27.383475985694886,26.062435176293945,27.383475985694886L26.022438976293945,27.383475985694886C25.810846376293945,27.383475985694886,25.346375976293945,27.357670985694885,24.812233476293947,27.174463985694885L24.812233476293947,27.215748985694887C24.812233476293947,28.214362985694883,23.787816476293944,28.765277985694887,23.176262876293947,29.041378985694884C23.434301876293944,31.069570985694885,25.311540176293946,32.39589398569488,25.880516576293946,32.75456898569489Q25.982442876293945,32.81907898569489,26.043081276293947,32.85262398569489ZM36.510511076293945,29.098116985694887L35.284824076293944,27.872428985694885L35.284824076293944,27.871139985694885L34.05913507629394,29.096826985694886L32.833449076293945,27.871139985694885L31.607761076293947,29.096826985694886L32.833449076293945,30.322513985694883L31.607761076293947,31.548201985694885L31.607761076293947,32.773887985694884L32.833449076293945,32.773887985694884L34.05913507629394,31.548201985694885L35.284824076293944,32.773887985694884L36.510511076293945,31.548201985694885L35.284824076293944,30.323804985694885L36.510511076293945,29.098116985694887ZM32.833449076293945,32.34425198569488L32.03739807629395,31.548199985694886L35.284824076293944,28.300771985694887L36.08087507629395,29.096823985694883L32.833449076293945,32.34425198569488ZM32.86441407629395,29.925132985694887L33.385652076293944,29.403892985694885L33.171483076293946,29.188430985694886L32.650241076293945,29.709671985694886L32.46574307629395,29.526462985694884L33.017946076293946,28.975548985694886L32.77281007629394,28.760085985694886L32.25157207629395,29.312290985694887L32.03739807629395,29.098117985694884L32.833449076293945,28.300774985694886L33.843674076293944,29.310999985694885L33.047623076293945,30.108341985694885L32.86441407629395,29.925132985694887ZM36.082169076293944,31.548199985694886L35.284824076293944,32.34425198569488L35.07065607629394,32.130079985694884L35.621569076293945,31.579165985694885L35.40739607629395,31.363702985694886L34.856481076293946,31.915907985694886L34.67198207629394,31.732698985694885L35.22418807629394,31.180494985694885L34.979050076293944,30.966321985694883L34.426844076293946,31.517235985694885L34.24234807629395,31.334026985694884L35.03968807629394,30.536685985694888L36.082169076293944,31.548199985694886ZM31.914829076293945,32.46682098569489L31.914829076293945,31.855266985694886L32.527673076293944,32.46682098569489L31.914829076293945,32.46682098569489Z" fill-rule="evenodd" fill="#FFFFFF" fill-opacity="1"/></g></svg>