<svg xmlns="http://www.w3.org/2000/svg" xmlns:xlink="http://www.w3.org/1999/xlink" fill="none" version="1.1" width="15.920539855957031" height="16.78984832763672" viewBox="0 0 15.920539855957031 16.78984832763672"><g><path d="M5.2402,2.91491C5.56216,2.91491,5.82318,2.65387,5.82318,2.33193L5.82318,2.1376L10.0984,2.1376L10.0984,2.33193C10.0984,2.65389,10.3594,2.91491,10.6813,2.91491C11.0033,2.91491,11.2643,2.65387,11.2643,2.33193L11.2643,0.582978C11.2643,0.26102,11.0033,0,10.6813,0C10.3594,0,10.0984,0.261039,10.0984,0.582978L10.0984,0.971629L5.82318,0.971629L5.82318,0.582978C5.82318,0.26102,5.56214,0,5.2402,0C4.91827,0,4.65723,0.261039,4.65723,0.582978L4.65723,2.33191C4.65723,2.65387,4.91827,2.91491,5.2402,2.91491ZM12.9843,0.665406C12.6624,0.665406,12.4013,0.926445,12.4013,1.24838C12.4013,1.57032,12.6624,1.83136,12.9843,1.83136C13.9605,1.83136,14.7546,2.64121,14.7546,3.63666L14.7546,5.90624L1.16596,5.90624L1.16596,3.63532C1.16596,2.63988,1.96005,1.83002,2.93624,1.83002C3.2582,1.83002,3.51922,1.56898,3.51922,1.24704C3.51922,0.925102,3.25818,0.664062,2.93624,0.664062C1.31721,0.664062,0,1.99692,0,3.63532L0,13.8172C0,15.4556,1.31721,16.7885,2.93615,16.7885L12.9843,16.7898C14.6033,16.7898,15.9205,15.4569,15.9205,13.8185L15.9205,3.63666C15.9205,1.99827,14.6033,0.665406,12.9843,0.665406ZM12.9844,15.6239L2.93624,15.6226C1.96005,15.6226,1.16596,14.8127,1.16596,13.8172L1.16596,7.07219L14.7546,7.07219L14.7546,13.8185C14.7546,14.814,13.9605,15.6239,12.9844,15.6239ZM5.29688,9.14352C5.29688,8.82159,5.55789,8.56055,5.87985,8.56055C6.20179,8.56055,6.46283,8.82157,6.46283,9.14352L6.46283,9.71227C6.46283,10.0342,6.20179,10.2952,5.87985,10.2952C5.55791,10.2952,5.29688,10.0342,5.29688,9.71227L5.29688,9.14352ZM9.45703,9.14352C9.45703,8.82159,9.71805,8.56055,10.04,8.56055C10.362,8.56055,10.623,8.82157,10.623,9.14352L10.623,9.71227C10.623,10.0342,10.3619,10.2952,10.04,10.2952C9.71807,10.2952,9.45703,10.0342,9.45703,9.71227L9.45703,9.14352ZM8.59163,11.3645C8.77058,11.1003,9.13095,11.0257,9.39721,11.2011C9.66376,11.3766,9.74175,11.7305,9.56974,11.9991C9.35557,12.3334,8.7743,12.8992,7.95373,12.8992C7.12917,12.8992,6.55491,12.3292,6.34569,11.9923C6.17575,11.7189,6.25973,11.3594,6.53328,11.1895C6.80474,11.0206,7.16143,11.1024,7.33269,11.3717C7.34844,11.3953,7.58053,11.7333,7.95372,11.7333C8.33751,11.7333,8.58915,11.3682,8.59163,11.3645Z" fill-rule="evenodd" fill="#999999" fill-opacity="1" style="mix-blend-mode:passthrough"/></g></svg>