<svg xmlns="http://www.w3.org/2000/svg" xmlns:xlink="http://www.w3.org/1999/xlink" fill="none" version="1.1" width="18" height="18" viewBox="0 0 18 18"><defs><clipPath id="master_svg0_1324_59491/1324_59385"><rect x="0" y="0" width="18" height="18" rx="0"/></clipPath></defs><g clip-path="url(#master_svg0_1324_59491/1324_59385)"><g><path d="M8.815774984604644,15.20965525C9.093760584604645,14.74850325,11.463504684604645,10.57174015,8.686421884604645,7.47460935C8.134468584604644,6.85937505,7.234468484604645,6.24414065,6.283492184604645,5.59550765C4.748921884604645,4.54785155,3.008687284604645,3.35957025,2.5393514846046448,2.02363276C2.4690389846046448,1.82499999,2.280952984604645,1.69140625,2.070015484604645,1.69140625L2.066499984604645,1.69140625C1.8538046846046448,1.6931640506,1.6657187346046447,1.82851565,1.5989217746046447,2.03066409C1.5321249346046448,2.23105466,-0.02881252539535517,6.98593755,1.2825155246046447,11.12734315C1.3422041546046448,11.29587655,2.7922468846046447,15.27078825,8.334474184604645,15.48065225C8.346717884604644,15.48156825,8.359082284604645,15.48203125,8.371549684604645,15.48203125C8.376823484604646,15.48203125,8.382096784604645,15.48203125,8.387370184604645,15.48554625C8.576451884604644,15.47948525,8.737118284604644,15.36812125,8.815774984604644,15.20965525ZM8.543070884604646,13.51721125C9.075446184604644,12.16540025,9.551348784604645,9.92792415,7.9463825846046445,8.13730435C7.473531284604645,7.60996055,6.622749884604644,7.02988295,5.722750284604645,6.41464855C4.723575884604645,5.73409225,3.6444125846046447,4.9979875499999995,2.8173444846046447,4.16129185C3.072731284604645,5.49110105,3.760773984604645,7.73062275,5.597721684604645,9.35957005C7.353120884604645,10.91480065,8.166441484604645,12.44702725,8.543070884604646,13.51721125ZM1.9594027846046447,4.92527555C1.7051421446046446,6.58986235,1.5907909246046448,8.81037995,2.224703084604645,10.81269555C2.269349984604645,10.93461515,3.4261789846046447,14.02738725,7.781293884604644,14.44722525C7.576640184604645,13.59379625,6.935095384604645,11.86900425,4.940300084604645,10.09960935C3.124311784604645,8.49113325,2.3172861846046446,6.40667395,1.9594027846046447,4.92527555ZM11.536855684604644,15.05599025C12.014606684604646,14.93819025,15.114324684604645,14.08407025,16.473207684604645,11.62782095C17.905822684604644,9.03680515,16.884534684604645,5.15379715,16.840589684604645,4.9903204500000005C16.801917684604646,4.84617995,16.699964684604645,4.72840645,16.564613684604645,4.66688295C16.429262684604645,4.60535955,16.272815684604645,4.6088752500000005,16.139222684604647,4.67567205C15.973987684604644,4.75828935,12.078675684604645,6.72703935,10.668910084604645,9.279383150000001C9.192347584604645,11.94774225,10.876331684604645,14.73036025,10.948402684604645,14.84813425C10.978495684604646,14.89674525,11.016208684604646,14.93887925,11.059285684604644,14.97353125C11.150128684604645,15.04729725,11.261243684604645,15.08417925,11.372359684604644,15.08417925C11.428084684604645,15.08417925,11.483809684604644,15.07469725,11.536855684604644,15.05599025ZM12.938357684604645,13.47454425C13.877856684604644,13.01515325,14.982337684604644,12.27209125,15.604846684604645,11.14618015C16.252457684604643,9.97583105,16.302397684604642,8.43033935,16.200600684604645,7.21512075C15.739142684604644,8.555897250000001,14.720016684604644,11.08507535,12.938357684604645,13.47454425ZM15.487174684604645,6.18546435C14.269084684604644,6.92818545,12.366215684604645,8.26171735,11.537269684604645,9.75926585C10.709823684604645,11.25425725,11.139627684604644,12.84933425,11.489896684604645,13.70174425C14.030757684604644,10.68597505,15.227984684604644,7.04433445,15.487174684604645,6.18546435Z" fill-rule="evenodd" fill="#9E9E9E" fill-opacity="1" style="mix-blend-mode:passthrough"/></g></g></svg>