<svg xmlns="http://www.w3.org/2000/svg" xmlns:xlink="http://www.w3.org/1999/xlink" fill="none" version="1.1" width="36" height="36" viewBox="0 0 36 36"><defs><clipPath id="master_svg0_1746_73785"><rect x="0" y="0" width="36" height="36" rx="0"/></clipPath><linearGradient x1="0.5" y1="0" x2="0.5" y2="1" id="master_svg1_1746_73782"><stop offset="0%" stop-color="#FDFFD4" stop-opacity="1"/><stop offset="100%" stop-color="#F8FF62" stop-opacity="1"/></linearGradient></defs><g clip-path="url(#master_svg0_1746_73785)"><g><path d="M26.921429,6.0524287L26.916714,6.0524287L26.916714,5.2917144C26.916714,4.0260003,25.890715,3,24.625,3C23.359285,3,22.333286,4.0260003,22.333286,5.2917144L22.333286,6.0524287L13.1667147,6.0524287L13.1667147,5.2917144C13.1667147,4.0260003,12.1407146,3,10.875,3C9.6092858,3,8.5832853,4.0260003,8.5832853,5.2917144L8.5832853,6.0524287L8.5785713,6.0524287C6.05,6.0524287,4,8.1024289,4,10.631L31.5,10.631C31.5,8.1024289,29.449999,6.0524287,26.921429,6.0524287ZM16.5,22.33C16.5,18.637142,18.505857,15.412286,21.488571,13.683429L4,13.683429L4,24.360573C4,27.735571,6.736000300000001,30.471428,10.1111422,30.471428L20.704,30.471428C18.159428,28.660572,16.5,25.688856,16.5,22.33ZM19,22.330143C19,26.467999,22.357857,29.822285,26.5,29.822285C30.642143,29.822285,34,26.467999,34,22.330143C34,18.192142,30.642143,14.837857,26.5,14.837857C22.357857,14.837857,19,18.192286,19,22.330143ZM23.820284,21.259857L25.428572,21.259857L25.428572,19.655428C25.428572,19.063692,25.908268,18.583998,26.5,18.583998C27.091732,18.583998,27.571428,19.063692,27.571428,19.655428L27.571428,21.259855L29.179714,21.259855C29.770819,21.259855,30.250002,21.739037,30.250002,22.330139C30.250002,22.921242,29.770819,23.400425,29.179714,23.400425L27.571428,23.400425L27.571428,25.004713C27.571428,25.596445,27.091732,26.076139,26.5,26.076139C25.908268,26.076139,25.428572,25.596445,25.428572,25.004713L25.428572,23.400425L23.820284,23.400425C23.228607,23.401245,22.748524,22.921822,22.748524,22.330143C22.748524,21.738462,23.228605,21.259039,23.820284,21.259857Z" fill-rule="evenodd" fill="url(#master_svg1_1746_73782)" fill-opacity="1" style="mix-blend-mode:passthrough"/></g></g></svg>