<svg xmlns="http://www.w3.org/2000/svg" xmlns:xlink="http://www.w3.org/1999/xlink" fill="none" version="1.1" width="40" height="40" viewBox="0 0 40 40"><defs><clipPath id="master_svg0_1722_73808"><rect x="10" y="10" width="20" height="20" rx="0"/></clipPath><filter id="master_svg1_1722_75327" filterUnits="objectBoundingBox" color-interpolation-filters="sRGB" x="-0.5080641144757605" y="-0.457257750380641" width="2.0499991688734913" height="2.0499992740159287"><feFlood flood-opacity="0" result="BackgroundImageFix"/><feColorMatrix in="SourceAlpha" type="matrix" values="0 0 0 0 0 0 0 0 0 0 0 0 0 0 0 0 0 0 127 0"/><feOffset dy="1.2903225421905518" dx="0.32258063554763794"/><feGaussianBlur stdDeviation="2.5"/><feColorMatrix type="matrix" values="0 0 0 0 1 0 0 0 0 1 0 0 0 0 1 0 0 0 0.44999998807907104 0"/><feBlend mode="normal" in2="BackgroundImageFix" result="effect1_dropShadow"/><feBlend mode="normal" in="SourceGraphic" in2="effect1_dropShadow" result="shape"/></filter></defs><g><g><g><g><g><path d="M40,20Q40,20.490973,39.975914,20.981354Q39.95182,21.471735,39.903698,21.960344Q39.855572,22.448952,39.783527,22.934608Q39.711487,23.420265,39.615704,23.901806Q39.51992,24.383343,39.40062,24.859602Q39.281326,25.335861,39.138805,25.805693Q38.996284,26.275524,38.830879,26.737797Q38.665474,27.200066,38.477589,27.653666Q38.289703,28.107265,38.079784,28.551098Q37.869865,28.994932,37.638424,29.427933Q37.406982,29.860931,37.154568,30.282051Q36.902157,30.703171,36.629387,31.111401Q36.356617,31.51963,36.064148,31.913982Q35.771675,32.308334,35.460209,32.687862Q35.148739,33.06739,34.819019,33.431175Q34.489304,33.794964,34.142136,34.142136Q33.794964,34.489304,33.431179,34.819023Q33.06739,35.148743,32.687866,35.460213Q32.308338,35.771683,31.913984,36.064152Q31.51963,36.356621,31.111401,36.629391Q30.703171,36.902161,30.282051,37.154572Q29.860931,37.406982,29.427933,37.638424Q28.994932,37.869865,28.5511,38.079784Q28.107265,38.289703,27.653667,38.477589Q27.200068,38.665474,26.737795,38.830879Q26.275524,38.996284,25.805693,39.138805Q25.335861,39.281326,24.859602,39.400627Q24.383343,39.51992,23.901806,39.615707Q23.420265,39.711491,22.934608,39.783531Q22.448952,39.855576,21.960344,39.903698Q21.471735,39.95182,20.981354,39.97591Q20.490973,40,20,40Q19.509027,40,19.018646,39.97591Q18.528265,39.95182,18.039658,39.903698Q17.551048,39.855572,17.06539,39.783527Q16.579731,39.711487,16.098192,39.615704Q15.616653,39.51992,15.140394,39.40062Q14.664137,39.281326,14.194306,39.138805Q13.724474,38.996284,13.262202,38.830879Q12.79993,38.665474,12.346331,38.477589Q11.892731,38.289703,11.448898,38.079784Q11.005064,37.869865,10.572065,37.638424Q10.139067,37.406982,9.7179451,37.154568Q9.2968235,36.902157,8.8885946,36.629387Q8.4803658,36.356617,8.0860128,36.064148Q7.6916609,35.771675,7.3121338,35.460209Q6.9326067,35.148739,6.56882,34.819019Q6.2050338,34.489304,5.8578639,34.142136Q5.510694,33.794964,5.1809769,33.431179Q4.8512602,33.06739,4.5397906,32.687866Q4.2283211,32.308338,3.9358487,31.913984Q3.6433768,31.51963,3.3706071,31.111401Q3.0978374,30.703171,2.845427,30.282051Q2.5930171,29.860931,2.3615744,29.427933Q2.1301317,28.994932,1.9202138,28.5511Q1.7102962,28.107265,1.5224091,27.653667Q1.334522,27.200068,1.1691184,26.737795Q1.0037149,26.275524,0.86119318,25.805693Q0.71867144,25.335861,0.59937489,24.859602Q0.48007828,24.383343,0.38429433,23.901806Q0.28851038,23.420265,0.21646976,22.934608Q0.14442916,22.448952,0.09630546,21.960344Q0.048181746,21.471735,0.024090873,20.981354Q0,20.490973,0,20Q0,19.509027,0.024090873,19.018646Q0.048181746,18.528265,0.09630546,18.039658Q0.14442916,17.551048,0.21646976,17.06539Q0.28851038,16.579731,0.38429433,16.098192Q0.48007828,15.616653,0.59937483,15.140394Q0.71867144,14.664137,0.86119318,14.194306Q1.0037149,13.724474,1.1691185,13.262202Q1.334522,12.79993,1.5224091,12.346331Q1.7102962,11.892731,1.9202138,11.448898Q2.1301317,11.005064,2.3615744,10.572065Q2.5930171,10.139067,2.8454275,9.7179451Q3.0978374,9.2968235,3.3706071,8.8885946Q3.6433768,8.4803658,3.9358487,8.0860128Q4.2283211,7.6916609,4.5397906,7.3121338Q4.8512602,6.9326067,5.1809769,6.56882Q5.510694,6.2050338,5.8578639,5.8578639Q6.2050338,5.510694,6.56882,5.1809769Q6.9326072,4.8512602,7.3121343,4.5397906Q7.6916609,4.2283211,8.0860138,3.9358487Q8.4803658,3.6433768,8.8885946,3.3706071Q9.2968235,3.0978374,9.7179451,2.845427Q10.139067,2.5930171,10.572065,2.3615744Q11.005064,2.1301317,11.448896,1.9202138Q11.892731,1.7102962,12.34633,1.5224091Q12.799929,1.334522,13.262201,1.1691184Q13.724474,1.0037149,14.194306,0.86119318Q14.664138,0.71867144,15.140396,0.59937489Q15.616655,0.48007828,16.098194,0.38429433Q16.579731,0.28851038,17.06539,0.21646976Q17.551048,0.14442916,18.039658,0.09630546Q18.528265,0.048181746,19.018646,0.024090873Q19.509027,0,20,0Q20.490973,0,20.981354,0.024090873Q21.471735,0.048181746,21.960344,0.09630546Q22.448952,0.14442916,22.934608,0.21646976Q23.420265,0.28851038,23.901806,0.38429433Q24.383343,0.48007828,24.859602,0.59937483Q25.335861,0.71867144,25.805693,0.86119318Q26.275524,1.0037149,26.737797,1.1691185Q27.200066,1.334522,27.653666,1.5224091Q28.107265,1.7102962,28.551098,1.9202138Q28.994932,2.1301317,29.427933,2.3615744Q29.860931,2.5930171,30.282051,2.8454275Q30.703171,3.0978374,31.111401,3.3706071Q31.51963,3.6433768,31.913982,3.9358487Q32.308334,4.2283211,32.687862,4.5397906Q33.06739,4.8512602,33.431175,5.1809769Q33.794964,5.510694,34.142136,5.8578639Q34.489304,6.2050338,34.819023,6.56882Q35.148743,6.9326072,35.460213,7.3121343Q35.771683,7.6916609,36.064152,8.0860138Q36.356621,8.4803658,36.629391,8.8885946Q36.902161,9.2968235,37.154572,9.7179451Q37.406982,10.139067,37.638424,10.572065Q37.869865,11.005064,38.079784,11.448896Q38.289703,11.892731,38.477589,12.34633Q38.665474,12.799929,38.830879,13.262201Q38.996284,13.724474,39.138805,14.194306Q39.281326,14.664138,39.400627,15.140396Q39.51992,15.616655,39.615707,16.098194Q39.711491,16.579731,39.783531,17.06539Q39.855576,17.551048,39.903698,18.039658Q39.95182,18.528265,39.975914,19.018646Q40,19.509027,40,20ZM39.611652,20Q39.611649,19.518562,39.588028,19.037703Q39.564404,18.556843,39.517216,18.077723Q39.470024,17.598602,39.399384,17.122374Q39.328743,16.646145,39.234818,16.173956Q39.140892,15.701767,39.023914,15.234756Q38.906937,14.767746,38.767181,14.307037Q38.627426,13.846329,38.465233,13.393033Q38.30304,12.939737,38.118801,12.494946Q37.934563,12.050154,37.728722,11.614938Q37.522881,11.179723,37.295933,10.755132Q37.068985,10.33054,36.821472,9.9175959Q36.573959,9.504652,36.306488,9.1043501Q36.039017,8.7040482,35.752224,8.3173532Q35.465431,7.9306579,35.160011,7.5585003Q34.854588,7.1863427,34.531273,6.8296199Q34.207958,6.4728971,33.867531,6.1324682Q33.5271,5.7920394,33.17038,5.4687247Q32.81366,5.1454105,32.441502,4.8399887Q32.069344,4.5345669,31.682648,4.2477741Q31.29595,3.9609809,30.895647,3.6935079Q30.495346,3.4260349,30.082401,3.1785259Q29.669458,2.9310169,29.244867,2.7040679Q28.820274,2.4771194,28.385059,2.2712777Q27.949842,2.0654359,27.505051,1.8811972Q27.060261,1.6969585,26.606964,1.5347667Q26.153667,1.3725749,25.692961,1.2328206Q25.23225,1.0930662,24.765242,0.97608608Q24.298229,0.85910594,23.826042,0.76518184Q23.353855,0.67125773,22.877628,0.60061598Q22.4014,0.52997422,21.922279,0.48278499Q21.443157,0.43559569,20.962299,0.41197261Q20.48144,0.3883495,20,0.3883495Q19.518562,0.3883495,19.037703,0.41197258Q18.556843,0.43559569,18.077723,0.48278496Q17.598602,0.52997422,17.122374,0.60061598Q16.646145,0.67125773,16.173956,0.76518178Q15.701767,0.85910589,15.234756,0.97608602Q14.767746,1.0930662,14.307037,1.2328205Q13.846329,1.3725748,13.393033,1.5347667Q12.939737,1.6969585,12.494946,1.8811972Q12.050154,2.0654359,11.614938,2.2712777Q11.179723,2.4771194,10.755132,2.7040682Q10.33054,2.9310169,9.9175959,3.1785259Q9.504652,3.4260349,9.1043501,3.6935079Q8.7040482,3.9609809,8.3173532,4.2477736Q7.9306579,4.5345669,7.5585003,4.8399887Q7.1863427,5.1454105,6.8296199,5.4687247Q6.4728971,5.7920394,6.1324682,6.1324682Q5.7920394,6.4728971,5.4687247,6.8296199Q5.1454105,7.1863427,4.8399887,7.5585003Q4.5345669,7.9306579,4.2477741,8.3173532Q3.9609809,8.7040482,3.6935079,9.1043501Q3.4260349,9.504652,3.1785259,9.9175968Q2.9310169,10.330541,2.7040679,10.755133Q2.4771194,11.179724,2.2712777,11.614939Q2.0654359,12.050154,1.8811972,12.494946Q1.6969585,12.939737,1.5347667,13.393033Q1.3725748,13.846329,1.2328205,14.307037Q1.0930661,14.767746,0.97608596,15.234756Q0.85910589,15.701767,0.76518184,16.173956Q0.67125773,16.646145,0.60061598,17.122374Q0.52997422,17.598602,0.48278496,18.077723Q0.43559569,18.556843,0.41197258,19.037703Q0.38834947,19.518562,0.3883495,20Q0.38834947,20.48144,0.41197258,20.962299Q0.43559569,21.443157,0.48278496,21.922279Q0.52997422,22.4014,0.60061598,22.877626Q0.67125773,23.353855,0.76518178,23.826042Q0.85910583,24.298229,0.97608602,24.765242Q1.0930661,25.23225,1.2328205,25.692961Q1.3725748,26.153667,1.5347667,26.606964Q1.6969585,27.060261,1.8811972,27.505051Q2.0654359,27.949842,2.2712777,28.385057Q2.4771194,28.820274,2.7040682,29.244867Q2.9310169,29.669458,3.1785259,30.082401Q3.4260349,30.495344,3.6935079,30.895645Q3.9609809,31.295948,4.2477736,31.682646Q4.5345669,32.069344,4.8399887,32.441502Q5.1454105,32.81366,5.4687247,33.17038Q5.7920394,33.5271,6.1324682,33.867531Q6.4728971,34.207958,6.8296199,34.531273Q7.1863427,34.854588,7.5585003,35.160011Q7.9306579,35.465431,8.3173532,35.752224Q8.7040482,36.039017,9.1043501,36.306488Q9.504652,36.573959,9.9175968,36.821472Q10.330541,37.068985,10.755133,37.295933Q11.179724,37.522881,11.614939,37.728722Q12.050154,37.934563,12.494946,38.118801Q12.939737,38.30304,13.393033,38.465233Q13.846329,38.627426,14.307037,38.767181Q14.767746,38.906937,15.234756,39.023914Q15.701767,39.140892,16.173956,39.234818Q16.646145,39.328743,17.122374,39.399384Q17.598602,39.470024,18.077723,39.517216Q18.556843,39.564404,19.037703,39.588028Q19.518562,39.611649,20,39.611652Q20.48144,39.611649,20.962299,39.588028Q21.443157,39.564404,21.922279,39.517216Q22.4014,39.470024,22.877626,39.399384Q23.353855,39.328743,23.826042,39.234818Q24.298229,39.140892,24.765242,39.023914Q25.23225,38.906937,25.692961,38.767181Q26.153667,38.627426,26.606964,38.465233Q27.060261,38.30304,27.505051,38.118801Q27.949842,37.934563,28.385057,37.728722Q28.820274,37.522881,29.244867,37.295933Q29.669458,37.068985,30.082401,36.821472Q30.495344,36.573959,30.895645,36.306488Q31.295948,36.039017,31.682646,35.752224Q32.069344,35.465431,32.441502,35.160011Q32.81366,34.854588,33.17038,34.531273Q33.5271,34.207958,33.867531,33.867531Q34.207958,33.5271,34.531273,33.17038Q34.854588,32.81366,35.160011,32.441502Q35.465431,32.069344,35.752224,31.682648Q36.039017,31.29595,36.306488,30.895647Q36.573959,30.495346,36.821472,30.082401Q37.068985,29.669458,37.295933,29.244867Q37.522881,28.820274,37.728722,28.385059Q37.934563,27.949842,38.118801,27.505051Q38.30304,27.060261,38.465233,26.606964Q38.627426,26.153667,38.767181,25.692961Q38.906937,25.23225,39.023914,24.765242Q39.140892,24.298229,39.234818,23.826042Q39.328743,23.353855,39.399384,22.877628Q39.470024,22.4014,39.517216,21.922279Q39.564404,21.443157,39.588028,20.962299Q39.611649,20.48144,39.611652,20Z" fill="#FFFFFF" fill-opacity="1"/></g><g><path d="M34.442297249999996,26.4552425C34.31312925,26.7335205,34.43401925,27.0638545,34.71229725,27.1930775C34.99063125,27.3222445,35.32096125,27.2013535,35.45013025,26.9230785C35.45013025,26.9230785,34.442297249999996,26.4552425,34.442297249999996,26.4552425C34.442297249999996,26.4552425,34.442297249999996,26.4552425,34.442297249999996,26.4552425ZM27.87712825,34.8174095C28.14979325,34.6766925,28.25673725,34.341581500000004,28.11601825,34.0689065C27.97534925,33.7962435,27.64024125,33.6893025,27.36756925,33.8300205C27.36756925,33.8300205,27.87712825,34.8174095,27.87712825,34.8174095C27.87712825,34.8174095,27.87712825,34.8174095,27.87712825,34.8174095ZM20.16229425,35.5728535C11.47223855,35.5728535,4.42751745,28.5281295,4.42751745,19.8380755C4.42751745,19.8380755,3.31640625,19.8380755,3.31640625,19.8380755C3.31640625,29.1417985,10.85857205,36.6839635,20.16229425,36.6839635C20.16229425,36.6839635,20.16229425,35.5728535,20.16229425,35.5728535C20.16229425,35.5728535,20.16229425,35.5728535,20.16229425,35.5728535ZM4.42751745,19.8380755C4.42751745,11.1480198,11.47223855,4.1032987,20.16229425,4.1032987C20.16229425,4.1032987,20.16229425,2.9921875,20.16229425,2.9921875C10.85857205,2.9921875,3.31640625,10.5343533,3.31640625,19.8380755C3.31640625,19.8380755,4.42751745,19.8380755,4.42751745,19.8380755C4.42751745,19.8380755,4.42751745,19.8380755,4.42751745,19.8380755ZM20.16229425,4.1032987C28.85234825,4.1032987,35.89707225,11.1480198,35.89707225,19.8380755C35.89707225,19.8380755,37.00818225,19.8380755,37.00818225,19.8380755C37.00818225,10.5343533,29.46601725,2.9921875,20.16229425,2.9921875C20.16229425,2.9921875,20.16229425,4.1032987,20.16229425,4.1032987C20.16229425,4.1032987,20.16229425,4.1032987,20.16229425,4.1032987ZM35.89707225,19.8380755C35.89707225,22.2028545,35.37574425,24.4443535,34.442297249999996,26.4552425C34.442297249999996,26.4552425,35.45013025,26.9230785,35.45013025,26.9230785C36.45024125,24.7686325,37.00818225,22.3677425,37.00818225,19.8380755C37.00818225,19.8380755,35.89707225,19.8380755,35.89707225,19.8380755C35.89707225,19.8380755,35.89707225,19.8380755,35.89707225,19.8380755ZM27.36756925,33.8300205C25.20934825,34.943689500000005,22.76012425,35.5728535,20.16229425,35.5728535C20.16229425,35.5728535,20.16229425,36.6839635,20.16229425,36.6839635C22.94151725,36.6839635,25.56507525,36.0104635,27.87712825,34.8174095C27.87712825,34.8174095,27.36756925,33.8300205,27.36756925,33.8300205C27.36756925,33.8300205,27.36756925,33.8300205,27.36756925,33.8300205Z" fill="#CBF2FF" fill-opacity="1"/></g><g><ellipse cx="32.09712052345276" cy="31.12739396095276" rx="1.4516127109527588" ry="1.4516127109527588" fill="#9DD9FF" fill-opacity="1"/></g><g clip-path="url(#master_svg0_1722_73808)"><g filter="url(#master_svg1_1722_75327)"><path d="M10.509765625,19.9769249C10.509765625,14.7229166,14.779556724999999,10.453125,20.033565525,10.453125C25.287574624999998,10.453125,29.557399625,14.7229166,29.557399625,19.9769249C29.557399625,25.230933,25.287573625,29.500757,20.033565525,29.500757C14.779557225,29.500757,10.509765625,25.230933,10.509765625,19.9769249ZM21.929026625,23.612018L22.785773624999997,23.612018L22.785773624999997,16.3418655L21.929026625,16.3418655L21.929026625,23.612018ZM24.343775625,23.612018L25.213559625000002,23.612018L25.213559625000002,16.3418655L24.343775625,16.3418655L24.343775625,23.612018ZM19.358449025,21.729526999999997L20.059503525,23.612018L21.047551625,23.612018L18.423755625,16.7313333L17.476025625,16.7313333L14.853539425000001,23.612018L15.840243325,23.612018L16.502323625,21.729526999999997L19.358449025,21.729526999999997ZM17.917332625,17.6171875L17.943337425,17.6171875C17.982311225,17.8508615,18.021250725,18.0066214,18.047154925,18.097537L19.085834525,20.95373L16.774902325,20.95373L17.813514725,18.097537C17.852421725,17.980716700000002,17.891361225,17.8249235,17.917332625,17.6171875Z" fill-rule="evenodd" fill="#C9ECFF" fill-opacity="1"/></g></g></g></g></g></g></svg>