<svg xmlns="http://www.w3.org/2000/svg" xmlns:xlink="http://www.w3.org/1999/xlink" fill="none" version="1.1" width="18" height="18" viewBox="0 0 18 18"><defs><clipPath id="master_svg0_1324_59506/1324_59446"><rect x="0" y="0" width="18" height="18" rx="0"/></clipPath></defs><g clip-path="url(#master_svg0_1324_59506/1324_59446)"><g><path d="M8.358984025,16.86464775C4.470703125,16.86464775,1.306640625,13.70058575,1.306640625,9.81230445C1.306640625,5.94335935,4.454882625,2.781054687,8.323827725000001,2.76171875L8.327343424999999,2.76171875C8.474999924999999,2.76171875,8.615624924999999,2.81972656,8.719335525,2.92343749C8.824804324999999,3.02890626,8.882812525,3.16953123,8.882812525,3.3189452900000003L8.882812525,8.94746065L14.838280625,8.94746065C15.135351625,8.94746065,15.379687625,9.18124965,15.393749625,9.47832015L15.399022625,9.576757449999999C15.404296625,9.655858949999999,15.409569625,9.73496055,15.409569625,9.81406215C15.411327625,13.70058575,12.247264625,16.86464775,8.358984025,16.86464775ZM7.770116825,3.9042968499999997C4.773046725,4.20136715,2.421093725,6.74316405,2.421093725,9.81230445C2.421093725,13.08710975,5.085937525,15.75019475,8.358984025,15.75019475C11.551171625,15.75019475,14.161522625,13.21894575,14.293358625,10.060155850000001L8.327343424999999,10.060155850000001C8.019726325,10.060155850000001,7.770116825,9.81054685,7.770116825,9.502929649999999L7.770116825,3.9042968499999997Z" fill="#9E9E9E" fill-opacity="1" style="mix-blend-mode:passthrough"/></g><g><path d="M16.3337893,8.434960825000001L9.8228516,8.434960825000001C9.5152344,8.434960825000001,9.265625,8.185351325,9.265625,7.877734225L9.265625,1.6937499649999999C9.265625,1.386132805,9.5152344,1.1365234375,9.8228516,1.1365234375L9.85449225,1.134765625C13.621484800000001,1.134765625,16.7134771,4.086132725000001,16.8910165,7.853124625C16.8980474,8.004296825,16.8417974,8.153710825000001,16.7380867,8.264452925C16.632618,8.373437424999999,16.4867196,8.434960825000001,16.3337893,8.434960825000001ZM10.3783203,7.322265625L15.7220707,7.322265625C15.3283205,4.604687425,13.1152346,2.511132725,10.3783203,2.272070325L10.3783203,7.322265625Z" fill="#9E9E9E" fill-opacity="1" style="mix-blend-mode:passthrough"/></g></g></svg>