<svg xmlns="http://www.w3.org/2000/svg" xmlns:xlink="http://www.w3.org/1999/xlink" fill="none" version="1.1" width="36" height="36" viewBox="0 0 36 36"><defs><clipPath id="master_svg0_1746_74941"><rect x="0" y="0" width="36" height="36" rx="0"/></clipPath><filter id="master_svg1_1746_74942" filterUnits="objectBoundingBox" color-interpolation-filters="sRGB" x="0" y="0" width="1" height="1"><feFlood flood-opacity="0" result="BackgroundImageFix"/><feBlend mode="normal" in="SourceGraphic" in2="BackgroundImageFix" result="shape"/><feColorMatrix in="SourceAlpha" type="matrix" result="hardAlpha" values="0 0 0 0 0 0 0 0 0 0 0 0 0 0 0 0 0 0 127 0"/><feOffset dy="0" dx="0"/><feGaussianBlur stdDeviation="2.4000000953674316"/><feComposite in2="hardAlpha" operator="arithmetic" k2="-1" k3="1"/><feColorMatrix type="matrix" values="0 0 0 0 0.9125000238418579 0 0 0 0 0.984250009059906 0 0 0 0 1 0 0 0 0.4300000071525574 0"/><feBlend mode="normal" in2="shape" result="effect1_innerShadow"/></filter><linearGradient x1="0.5" y1="-0.14993490278720856" x2="0.5274980006754" y2="1.2939429220047725" id="master_svg2_1746_75444"><stop offset="0%" stop-color="#F0FBFF" stop-opacity="1"/><stop offset="99.99999403953552%" stop-color="#86C9FF" stop-opacity="1"/></linearGradient></defs><g clip-path="url(#master_svg0_1746_74941)"><g filter="url(#master_svg1_1746_74942)"><path d="M7.7250195,3L28.343578,3C28.721586,3,29.01368,3.30927825,29.01368,3.67010313L29.01368,14.254297C29.01368,14.512029,28.859041,14.735397,28.635675,14.855672L19.185501,19.460484C18.824677,19.323027,18.446671000000002,19.237116,18.034299,19.237116C17.621929,19.237116,17.243921,19.305843,16.883097,19.460484L7.4329233,14.855672C7.2095556,14.752579,7.0549164,14.512029,7.0549164,14.254297L7.0549164,3.67010313C7.0549164,3.30927843,7.3641949,3,7.7250195,3ZM20.920898,6.2817874L11.3504496,6.2817874C10.800621,6.2817874,10.3367033,6.7285223,10.3367033,7.2955332C10.3367033,7.8625441,10.800621,8.309279400000001,11.3504496,8.309279400000001L20.920898,8.309279400000001C21.487909,8.309279400000001,21.934645,7.8625436,21.934645,7.2955332C21.934645,6.728523,21.470726,6.2817874,20.920898,6.2817874ZM11.3504496,12.6735411L24.116774,12.6735411C24.666597,12.6735411,25.113333,12.2268057,25.113333,11.6597948C25.113333,11.0927839,24.649418,10.646049,24.09959,10.646049L11.3504496,10.646049C10.783438199999999,10.646049,10.3367033,11.0927839,10.3367033,11.6597948C10.3367033,12.2268057,10.800621,12.6735411,11.3504496,12.6735411ZM21.041239,22.381445C21.075602,21.848799,20.955328,21.350517,20.731958,20.920963L32.106531000000004,15.233677C32.553268,15.010308,33.068731,15.336769,33.068731,15.835052L33.068731,32.329897C33.068731,32.690723,32.759457,33,32.39863,33L3.67010313,33C3.30927825,33,3,32.690723,3,32.329897L3,15.835052C3,15.336769,3.51546395,15.010308,3.96219951,15.233677L15.319589,20.90378C15.113402,21.316153,14.993128,21.780069,14.993128,22.261169C14.993128,23.979382,16.419244,25.353951,18.137456999999998,25.285223C19.718214,25.233679,20.989691,23.945021,21.041239,22.381445ZM18.034299,23.274916C17.467288,23.274916,17.020553,22.810999,17.020553,22.261169C17.020553,21.711342,17.467288,21.247425,18.034299,21.247425C18.601309999999998,21.247425,19.048046,21.694159,19.048046,22.261169C19.048046,22.828182,18.601309999999998,23.274916,18.034299,23.274916Z" fill-rule="evenodd" fill="url(#master_svg2_1746_75444)" fill-opacity="1"/></g></g></svg>