<svg xmlns="http://www.w3.org/2000/svg" xmlns:xlink="http://www.w3.org/1999/xlink" fill="none" version="1.1" width="15.217876434326172" height="17.243776321411133" viewBox="0 0 15.217876434326172 17.243776321411133"><g><path d="M3.98807,0.90056Q4.34829,0.540336,3.98807,0.180112Q3.80795,0,3.62784,0Q3.44773,0,3.26762,0.180112L1.34642,2.10131Q0.986197,2.46153,1.34642,2.82176Q1.70664,3.18198,2.06687,2.82176L3.98807,0.90056ZM12.5149,7.57768L6.03053,1.09326C5.76562,0.828435,5.33566,0.828435,5.07041,1.0936L2.42883,3.73518C2.16344,4.00047,2.16344,4.43069,2.42883,4.69598L4.58917,6.85666C4.36837,7.27779,4.36049,7.76622,4.54439,8.18331C2.99386,9.40503,2.42053,11.0736,2.8611,13.109C3.15336,14.4596,3.80688,15.502,4.8036,16.2246L0.509434,16.2246Q0,16.2246,0,16.734Q0,17.2435,0.509434,17.2435L7.29885,17.2435C7.31022,17.2439,7.32153,17.2439,7.33278,17.2435L12.3962,17.2435Q12.9057,17.2435,12.9057,16.734Q12.9057,16.2246,12.3962,16.2246L7.36503,16.2246C5.37528,15.8028,4.22392,14.7074,3.8297,12.8879C3.46576,11.2059,3.92216,9.91226,5.23796,8.92255C5.67306,9.14859,6.20132,9.15635,6.65238,8.91986L8.9129,11.1801C9.17815,11.4452,9.60811,11.4452,9.87336,11.1801L12.5149,8.53847C12.7803,8.27318,12.7803,7.84296,12.5149,7.57768ZM3.38894,4.21507L5.5503,2.05371L11.5538,8.05756L9.39245,10.2189L7.34623,8.1727C7.59586,7.59715,7.4684,6.9275,7.0248,6.4839C6.58119,6.04029,5.91155,5.91284,5.336,6.16247L3.38894,4.21507ZM5.43381,7.56545C5.43381,7.2841,5.66189,7.05602,5.94324,7.05602C6.2246,7.05602,6.45268,7.2841,6.45268,7.56545C6.45268,7.8468,6.2246,8.07488,5.94324,8.07488C5.66189,8.07488,5.43381,7.8468,5.43381,7.56545ZM15.0378,8.87048Q15.398,8.51026,15.0378,8.15003Q14.6775,7.78981,14.3173,8.15003L9.75448,12.7129Q9.39425,13.0731,9.75448,13.4333Q10.1147,13.7935,10.4749,13.4333L15.0378,8.87048Z" fill-rule="evenodd" fill="#9E9E9E" fill-opacity="1" style="mix-blend-mode:passthrough"/></g></svg>