<svg xmlns="http://www.w3.org/2000/svg" xmlns:xlink="http://www.w3.org/1999/xlink" fill="none" version="1.1" width="16" height="16" viewBox="0 0 16 16"><defs><clipPath id="master_svg0_176_21747"><rect x="0" y="0" width="16" height="16" rx="0"/></clipPath></defs><g clip-path="url(#master_svg0_176_21747)"><g><path d="M7.89236515625,10.5718775C7.89236515625,9.5484375,8.290795156249999,8.5874975,9.01423515625,7.8640575C9.73767515625,7.1406275,10.70017515625,6.7421875,11.72203515625,6.7421875C12.01423515625,6.7421875,12.30013515625,6.7749975,12.57833515625,6.8374975C12.35333515625,5.7062475,11.79703515625,4.665627499999999,10.96111515625,3.8343775C9.86423515625,2.7468745,8.418925156250001,2.1484375,6.88454515625,2.1484375L6.84392515625,2.1484375C5.26267515625,2.1593752,3.78767515625,2.7718745,2.68923515625,3.8718775C1.59079815625,4.9734375,0.99079799625,6.4374975,0.99861049655,7.9984375C1.01736065625,11.2203075,3.63923515625,13.8437375,6.84548515625,13.8437375C7.65173515625,13.8437375,8.420485156249999,13.6796375,9.12048515625,13.3828375C9.08454515625,13.3500375,9.04861515625,13.3156375,9.01423515625,13.2812375C8.290795156249999,12.5562375,7.89236515625,11.5953075,7.89236515625,10.5718775ZM7.31423515625,9.3187475C7.31423515625,9.5765575,7.10486515625,9.7874975,6.84548515625,9.7874975C6.58767515625,9.7874975,6.37673515625,9.5781275,6.37673515625,9.3187475L5.90798515625,5.5328075000000005C5.90798515625,5.0171875,6.32673515625,4.5968775,6.84392515625,4.5968775C7.35954515625,4.5968775,7.77986515625,5.0156275,7.77986515625,5.5328075000000005L7.31423515625,9.3187475ZM8.442385156250001,10.5719275C8.442385156250001,8.760987499999999,9.91113515625,7.2922375,11.72203515625,7.2922375C13.53303515625,7.2922375,15.00173515625,8.760987499999999,15.00173515625,10.5719275C15.00173515625,12.3828375,13.53303515625,13.8516375,11.72203515625,13.8516375C9.91113515625,13.8516375,8.442385156250001,12.3828375,8.442385156250001,10.5719275ZM13.77833515625,10.9500475C13.77983515625,10.9453575,13.77983515625,10.9406775,13.78143515625,10.9328575C13.79393515625,10.8625475,13.82203515625,10.7031775,13.82053515625,10.5578575C13.82053515625,10.4219275,13.79393515625,10.2547375,13.78143515625,10.1844275C13.77983515625,10.1750475,13.77983515625,10.1687975,13.77833515625,10.1641075L13.77833515625,10.1609875L13.77673515625,10.1500475C13.74393515625,9.9875475,13.63613515625,9.8828575,13.50333515625,9.8828575L13.48143515625,9.8828575C13.25333515625,9.8828575,13.06893515625,9.696927500000001,13.06893515625,9.4703575C13.06893515625,9.417237499999999,13.09233515625,9.3437975,13.10333515625,9.317237500000001C13.16733515625,9.165677500000001,13.09863515625,8.9937975,12.93923515625,8.9062975L12.43613515625,8.6219275L12.42673515625,8.6187975C12.38923515625,8.6062975,12.34553515625,8.5922375,12.29703515625,8.5922375C12.20643515625,8.5922375,12.10333515625,8.634427500000001,12.04083515625,8.696927500000001C11.96113515625,8.7750475,11.80023515625,8.8922375,11.70483515625,8.8922375C11.60953515625,8.8922375,11.44863515625,8.7750475,11.36893515625,8.696927500000001C11.30173515625,8.631297499999999,11.20803515625,8.5922375,11.11273515625,8.5922375C11.06273515625,8.5922375,11.02053515625,8.6062975,10.98300515625,8.6187975L10.97519515625,8.6219275L10.44863515625,8.9078575L10.44550515625,8.9094275C10.31894515625,8.9891075,10.26582515625,9.1734875,10.33144515625,9.318797499999999L10.33300515625,9.3203575L10.33456515625,9.321927500000001C10.34550515625,9.3453575,10.37675515625,9.4234875,10.37675515625,9.4906775C10.37675515625,9.7187975,10.19082515625,9.9031775,9.96425515625,9.9031775L9.94238515625,9.9031775C9.80331515625,9.9031775,9.69863515625,10.006297499999999,9.66894515625,10.1719275L9.66738515625,10.1812975L9.66738515625,10.1844275C9.66738515625,10.1891075,9.66581515625,10.1969275,9.66425515625,10.2047375C9.65332515625,10.2750475,9.62519515625,10.4422375,9.62519515625,10.5781775C9.62519515625,10.7141075,9.65175515625,10.8812975,9.66425515625,10.9516075C9.66581515625,10.9609875,9.66581515625,10.9672375,9.66738515625,10.9719275L9.66738515625,10.9750475L9.66894515625,10.9859875C9.70175515625,11.1484875,9.80957515625,11.2531775,9.94238515625,11.2531775L9.95332515625,11.2531775C10.18144515625,11.2531775,10.36581515625,11.4391075,10.36581515625,11.6656775C10.36581515625,11.7187975,10.34238515625,11.7922375,10.33144515625,11.8187975C10.26894515625,11.9609875,10.32832515625,12.1422375,10.46582515625,12.2344375L10.46894515625,12.2359375L10.96738515625,12.5109375L10.97675515625,12.5141375C11.01423515625,12.5266375,11.05643515625,12.5406375,11.10483515625,12.5406375C11.20953515625,12.5406375,11.30333515625,12.5016375,11.36113515625,12.4359375C11.36583515625,12.4313375,11.37203515625,12.4266375,11.37833515625,12.4203375C11.43923515625,12.3688375,11.60023515625,12.2297375,11.70643515625,12.2297375C11.78613515625,12.2297375,11.91893515625,12.3141375,12.05173515625,12.4469375C12.11893515625,12.5125375,12.21273515625,12.5516375,12.30803515625,12.5516375C12.37363515625,12.5516375,12.42053515625,12.5344375,12.47523515625,12.5078375L12.47673515625,12.5063375L12.98613515625,12.2250375L12.98773515625,12.2234375C13.11423515625,12.1437975,13.16733515625,11.9594275,13.10173515625,11.8141075L13.09863515625,11.8109875Q13.05803515625,11.7281775,13.06583515625,11.6531775L13.06733515625,11.6484875L13.06733515625,11.6437975C13.06733515625,11.4156775,13.25333515625,11.2312975,13.47983515625,11.2312975L13.50333515625,11.2312975C13.64233515625,11.2312975,13.74703515625,11.1281775,13.77673515625,10.9625475L13.77833515625,10.9531775L13.77833515625,10.9500475ZM12.37343515625,10.5719775C12.37343515625,10.9318175,12.08173515625,11.2235375,11.72183515625,11.2235375C11.36203515625,11.2235375,11.07033515625,10.9318175,11.07033515625,10.5719775C11.07033515625,10.2121275,11.36203515625,9.9204075,11.72183515625,9.9204075C12.08173515625,9.9204075,12.37343515625,10.2121275,12.37343515625,10.5719775ZM6.84548515625,11.3937475C6.52204515625,11.3937475,6.26111515625,11.1328175,6.26111515625,10.8093775C6.26111515625,10.4859375,6.52204515625,10.2249975,6.84548515625,10.2249975C7.16892515625,10.2249975,7.42986515625,10.4859375,7.42986515625,10.8093775C7.42986515625,11.1312475,7.16892515625,11.3937475,6.84548515625,11.3937475Z" fill-rule="evenodd" fill="#FFFFFF" fill-opacity="1"/></g></g></svg>