<svg xmlns="http://www.w3.org/2000/svg" xmlns:xlink="http://www.w3.org/1999/xlink" fill="none" version="1.1" width="17.600000381469727" height="17.600000381469727" viewBox="0 0 17.600000381469727 17.600000381469727"><defs><clipPath id="master_svg0_337_29915/337_26718"><rect x="0" y="0" width="17.600000381469727" height="17.600000381469727" rx="0"/></clipPath></defs><g clip-path="url(#master_svg0_337_29915/337_26718)"><g><path d="M11.091736875,14.002010625L6.594136875,14.002010625L3.160919875,11.921270625C2.970866825,11.806350625,2.909955975,11.559130625,3.024871875,11.369070624999999C3.139787875,11.179020625,3.387014875,11.118110625,3.577067875,11.233020625L6.826216875,13.193720625000001L10.923676875,13.193720625000001L16.781796874999998,10.520770625C16.645696875,9.968570625,16.029496875,9.544424625,15.301196875,9.544424625L11.003706875,9.544424625C10.779626875,9.544424625,10.603566875,9.368361625,10.603566875,9.144282625C10.603566875,8.920202625,10.779626875,8.744140625,11.003706875,8.744140625L15.301196875,8.744140625C16.573696875,8.744140625,17.614096875,9.648461625,17.614096875,10.760860625L17.614096875,11.016950625L11.091736875,14.002010625Z" fill="#9E9E9E" fill-opacity="1"/></g><g><path d="M12.66073375,11.528085L7.81101375,11.528085C7.58693375,11.528085,7.41086375,11.352025000000001,7.41086375,11.127945C7.41086375,10.903865,7.58693375,10.727805,7.81101375,10.727805L11.82843375,10.727805C11.61236375,9.503375,10.41993375,9.055215,9.29953375,9.055215L7.10676375,9.055215L6.98671375,8.879145C6.95470375,8.831135,6.0743937500000005,7.622702,3.43345475,8.062858C3.21443475,8.101483,3.00594305,7.954101,2.96929034,7.734741C2.93727895,7.518665,3.08132975,7.310591,3.29740675,7.278579C5.882323749999999,6.846426,7.11476375,7.838778,7.50690375,8.262925L9.29953375,8.262925C11.31625375,8.262925,12.66873375,9.415334999999999,12.66873375,11.135945L12.66873375,11.528085L12.66073375,11.528085Z" fill="#9E9E9E" fill-opacity="1"/></g><g><path d="M2.63294,13.009896875L1.1364,13.009896875C0.512182,13.009896875,8.39233e-8,12.497796875,8.39233e-8,11.873496875L8.39233e-8,7.415956875C8.39233e-8,6.791726875,0.512182,6.279546875,1.1364,6.279546875L2.63294,6.279546875C3.25716,6.279546875,3.76934,6.791726875,3.76934,7.415956875L3.76934,11.881496875C3.76934,12.505796875,3.25716,13.009896875,2.63294,13.009896875ZM1.1364,7.079836875C0.952338,7.079836875,0.800284,7.231886875,0.800284,7.415956875L0.800284,11.881496875C0.800284,12.065596875,0.952338,12.217696875,1.1364,12.217696875L2.63294,12.217696875C2.817,12.217696875,2.96905,12.065596875,2.96905,11.881496875L2.96905,7.415956875C2.96905,7.231886875,2.817,7.079836875,2.63294,7.079836875L1.1364,7.079836875ZM13.0046,8.072186875C12.1003,8.072186875,11.372,7.335926875,11.372,6.439606875C11.372,5.535286875,12.1083,4.807026875,13.0046,4.807026875C13.9009,4.807026875,14.6372,5.543286875,14.6372,6.439606875C14.6372,7.335926875,13.9089,8.072186875,13.0046,8.072186875ZM13.0046,5.599306875C12.5311,5.578076875,12.1355,5.955986875,12.135,6.429966875C12.1346,6.903946875,12.5295,7.282616875,13.003,7.262296875C13.4481,7.243196875,13.7992,6.877046875,13.7996,6.431566875C13.8001,5.986096875,13.4496,5.619266875,13.0046,5.599306875ZM7.57069,4.606956875C6.66637,4.606956875,5.93811,3.870696875,5.93811,2.974376875C5.93811,2.070055875,6.67437,1.341796875,7.57069,1.341796875C8.46701,1.341796875,9.20327,2.070054875,9.20327,2.974376875C9.20327,3.878696875,8.46701,4.606956875,7.57069,4.606956875ZM7.57069,2.142080875C7.09718,2.120849875,6.70157,2.4987568749999998,6.70111,2.972736875C6.70066,3.446716875,7.09554,3.825386875,7.56909,3.805066875C8.01416,3.785976875,8.36528,3.419816875,8.3657,2.974346875C8.36613,2.5288668750000003,8.01572,2.162033875,7.57069,2.142080875Z" fill="#9E9E9E" fill-opacity="1"/></g></g></svg>