<svg xmlns="http://www.w3.org/2000/svg" xmlns:xlink="http://www.w3.org/1999/xlink" fill="none" version="1.1" width="17.600004196166992" height="17.600004196166992" viewBox="0 0 17.600004196166992 17.600004196166992"><defs><clipPath id="master_svg0_192_39353/182_37006"><rect x="0" y="0" width="17.600004196166992" height="17.600004196166992" rx="0"/></clipPath></defs><g clip-path="url(#master_svg0_192_39353/182_37006)"><g><path d="M4.63181640625,16.210557031249998C4.53918640625,16.210557031249998,4.35392640625,16.210557031249998,4.26128640625,16.11795703125C4.07602640625,16.02525703125,3.89076640625,15.84005703125,3.79813640625,15.56215703125C3.70549640625,15.46955703125,3.70549640625,15.28425703125,3.70549640625,15.19165703125L3.89076640625,11.39371703125C3.89076640625,11.20845703125,3.79813640625,10.93056703125,3.70549640625,10.74529703125L1.29707940625,7.87372703125C1.1118164901734,7.68845703125,1.1118164901734,7.41056703125,1.11181640625,7.13266703125C1.11181640625,6.85477703125,1.29707940625,6.66950703125,1.48234240625,6.48424703125C1.57497440625,6.48424703125,1.66760640625,6.39161703125,1.76023740625,6.39161703125L5.37286640625,5.37266703125C5.55813640625,5.28003703125,5.74339640625,5.18740703125,5.92865640625,5.00213703125L8.05918640625,1.85266803125C8.33708640625,1.38950973125,8.89287640625,1.29687803125,9.35602640625,1.57477303125L9.63392640625,1.85266803125L11.76441640625,5.00213703125C11.85711640625,5.18740703125,12.04231640625,5.28003703125,12.32021640625,5.37266703125L15.93291640625,6.39161703125C16.39601640625,6.48424703125,16.67391640625,7.04003703125,16.58131640625,7.50319703125C16.58131640625,7.59582703125,16.48861640625,7.68845703125,16.39601640625,7.87371703125L14.08021640625,10.83793703125C13.98761640625,11.02319703125,13.89501640625,11.20845703125,13.89501640625,11.48635703125L14.08021640625,15.28425703125C14.08021640625,15.84005703125,13.70971640625,16.210557031249998,13.15391640625,16.210557031249998C12.96861640625,16.210557031249998,12.87601640625,16.210557031249998,12.78341640625,16.11795703125L9.07813640625,14.82105703125C8.89286640625,14.72845703125,8.614976406250001,14.72845703125,8.42970640625,14.82105703125L4.909706406250001,16.11795703125C4.81707640625,16.11795703125,4.724446406249999,16.210557031249998,4.63181640625,16.210557031249998ZM8.80023640625,2.31582603125L6.66971640625,5.46529703125C6.48444640625,5.83582703125,6.11392640625,6.11371703125,5.65076640625,6.29898703125L2.03813240625,7.31793703125L4.35392640625,10.28214703125C4.63181640625,10.65266703125,4.81707640625,11.02319703125,4.724446406249999,11.48635703125L4.63181640625,15.28425703125L8.15181640625,13.89475703125C8.52234640625,13.70955703125,8.98550640625,13.70955703125,9.44865640625,13.89475703125L12.96861640625,15.19165703125L12.78341640625,11.39371703125C12.78341640625,10.93056703125,12.87601640625,10.46740703125,13.15391640625,10.18950703125L15.46971640625,7.22529703125L11.85711640625,6.20634703125C11.39391640625,6.11371703125,11.02339640625,5.83582703125,10.83813640625,5.46529703125L8.80023640625,2.31582603125Z" fill="#9E9E9E" fill-opacity="1"/></g><g><path d="M8.79994609375,11.763853749999999C7.22520609375,11.763853749999999,6.02099609375,10.55964375,6.02099609375,8.98490975L6.02099609375,8.05859375L6.94731209375,8.05859375L6.94731209375,8.98490975C6.94731209375,10.00385375,7.78099609375,10.83754375,8.79994609375,10.83754375C9.81889609375,10.83754375,10.65257609375,10.00385375,10.65257609375,8.98490975L10.65257609375,8.05859375L11.57889609375,8.05859375L11.57889609375,8.98490975C11.57889609375,10.55964375,10.37468609375,11.763853749999999,8.79994609375,11.763853749999999Z" fill="#9E9E9E" fill-opacity="1"/></g></g></svg>