<svg xmlns="http://www.w3.org/2000/svg" xmlns:xlink="http://www.w3.org/1999/xlink" fill="none" version="1.1" width="20" height="20" viewBox="0 0 20 20"><defs><clipPath id="master_svg0_1237_79885"><rect x="0" y="0" width="20" height="20" rx="0"/></clipPath><linearGradient x1="0.5" y1="0" x2="0.5" y2="1" id="master_svg1_1237_75313"><stop offset="0%" stop-color="#FFFFFF" stop-opacity="1"/><stop offset="39.423078298568726%" stop-color="#2FFFE7" stop-opacity="1"/><stop offset="73.22598099708557%" stop-color="#2FE0FF" stop-opacity="1"/><stop offset="98.80946278572083%" stop-color="#76B8C3" stop-opacity="0.7699999809265137"/></linearGradient></defs><g clip-path="url(#master_svg0_1237_79885)"><g><path d="M15.2569911875,17.331015625C15.5336581875,17.331015625,15.7569911875,17.554681625,15.7569911875,17.832013625C15.7569911875,18.108680625,15.5336581875,18.332681625,15.2603251875,18.332681625L4.7403254875,18.332681625C4.4646675875,18.332683625,4.2411641875,18.109626625,4.2403275874999995,17.834247625C4.2403220875,17.832578625,4.2403215875,17.831449625,4.2403256875,17.829780625C4.2409805875,17.554274624999998,4.4645373875,17.331015625,4.7403254875,17.331015625L15.2569911875,17.331015625ZM17.5003261875,1.666015625C18.5103261875,1.666015625,19.3336581875,2.490682425,19.3336581875,3.5023489249999997L19.3336581875,13.982349625C19.3336581875,14.994015625,18.5103241875,15.818681625,17.5003261875,15.818681625L2.5022344875,15.818681625C2.5009617875,15.818681625,2.4999515875,15.818681625,2.4986792875,15.818676625C1.4869553475,15.815221625,0.6681401057,14.994664625,0.66699262935896,13.982783625C0.666992109845296,13.982326625,0.6669921875,13.982119625,0.6669921875,13.981661625L0.6669921875,3.5026823250000003C0.6669921875,2.490682425,1.4903255675,1.666015625,2.5003255875,1.666015625L17.5003261875,1.666015625ZM13.7653241875,4.532682225L11.1553261875,4.532682225C10.8909921875,4.532682225,10.6596593875,4.766015525,10.6596593875,5.032682225L10.6596593875,5.228144425C10.6596593875,6.058931325,9.9862422875,6.732454325,9.1554545875,6.732583025L8.5119919875,6.732682725C8.2476586875,6.732682725,8.0163254875,6.966016325,8.0163254875,7.232682725L8.0163254875,7.428144425C8.0163254875,8.258931624999999,7.3429073875,8.932454625,6.5121202875,8.932583325L5.8689913875,8.932683025C5.6046580875,8.932683025,5.3733248875,9.166016625000001,5.3733248875,9.432683025L5.3730754875,11.382432925C5.3730272875,11.758828625,4.9496912875,12.149023625,4.9437164875,12.525371625C4.9436778875,12.527805625,4.9436583875,12.530241625,4.9436583875,12.532682625C4.9436583875,12.799348625,5.1749910875,13.032682625,5.4393248875,13.032682625L11.1463191875,13.032349625C11.1483231875,13.032349625,11.1503261875,13.032405625,11.1523261875,13.032516625C11.1543241875,13.032626625,11.1563261875,13.032682625,11.1583281875,13.032682625L14.1949911875,13.032682625C14.4923241875,13.032682625,14.6903251875,12.799348625,14.6903251875,12.532682625C14.6903251875,12.530238625,14.6903061875,12.527798625,14.6902661875,12.525360625C14.6843111875,12.149043625,14.2609911875,11.758797625,14.2609911875,11.382432925L14.2609911875,5.032682225C14.2609911875,4.766015525,14.0296571875,4.532682225,13.7653241875,4.532682225ZM8.016326387500001,10.741849925L8.016326387500001,11.223182725C8.016326387500001,11.670100625,7.6540770875,12.032423625,7.2071594875,12.032516625C6.7601117875,12.032608625,6.3976587875,11.670230625,6.3976587875,11.223182725L6.3976587875,10.741849925C6.3976587875,10.294932325,6.7599081875,9.932608625,7.2068256875,9.932516125C7.6538734875,9.932423625,8.016326387500001,10.294801725,8.016326387500001,10.741849925M10.6596593875,8.558682925L10.6596593875,11.206683125C10.6596593875,11.662870425,10.2898463875,12.032683625,9.8336591875,12.032683625C9.3774718875,12.032683625,9.0076589875,11.662870425,9.0076589875,11.206683125L9.0076589875,8.558682925C9.0076589875,8.102495625,9.3774718875,7.732682725,9.8336591875,7.732682725C10.2898463875,7.732682725,10.6596593875,8.102495625,10.6596593875,8.558682925M13.2696601875,6.342015725L13.2696601875,11.223350525C13.2696601875,11.670332625,12.9073091875,12.032683625,12.4603271875,12.032683625C12.0133451875,12.032683625,11.6509931875,11.670332625,11.6509931875,11.223350525L11.6509931875,6.342015725C11.6509931875,5.895033325,12.0133451875,5.532682425,12.4603271875,5.532682625C12.9073091875,5.532682925,13.2696601875,5.895033325,13.2696601875,6.342015725" fill="url(#master_svg1_1237_75313)" fill-opacity="1"/></g></g></svg>