<svg xmlns="http://www.w3.org/2000/svg" xmlns:xlink="http://www.w3.org/1999/xlink" fill="none" version="1.1" width="25.999998092651367" height="26" viewBox="0 0 25.999998092651367 26"><defs><clipPath id="master_svg0_1274_76325"><rect x="0" y="0" width="25.999998092651367" height="26" rx="0"/></clipPath></defs><g clip-path="url(#master_svg0_1274_76325)"><g><path d="M14.32279,14.402502125C14.217355,13.621931125,14.824314,12.927475125,15.611973,12.927475125C16.399632,12.927475125,17.006592,13.621931125,16.901154,14.402502125L24.716898,14.402502125C25.435358,14.402502125,26.017786,14.984929125,26.017786,15.703391125L26.017786,23.404657125C26.017786,24.123114125,25.435358,24.705545125,24.716898,24.705545125L1.3008894,24.705545125C0.58242828,24.705545125,9.4459547e-15,24.123114125,9.4459547e-15,23.404657125L9.4459547e-15,15.703391125C-8.5647258e-8,14.984929125,0.58242792,14.402502125,1.3008894,14.402502125L14.32279,14.402502125ZM2.6017787,18.128248125L2.6017787,20.730028125L5.2035575,20.730028125L5.2035575,18.128248125L2.6017787,18.128248125ZM7.8053355,18.128248125L7.8053355,20.730028125L10.407115,20.730028125L10.407115,18.128248125L7.8053355,18.128248125ZM26.017786,12.924693125L23.416004,12.924693125C23.416004,8.050260025,19.51334,5.1193568250000006,15.61067,5.1193568250000006C11.708002,5.1193568250000006,7.8053346,8.050260524999999,7.8053346,12.924693125L5.2035575,12.924693125C5.2035575,6.550334925,10.407115,2.517578125,15.610671,2.517578125C20.81423,2.517578125,26.017786,6.550334925,26.017786,12.924693125ZM20.81423,12.924693125L18.21245,12.924693125C18.21245,11.264757125,16.91156,10.322913625,15.61067,10.322913625C14.309782,10.322913625,13.008893,11.264757125,13.008893,12.924693125L10.407115,12.924693125C10.407115,9.763531725,13.008893,7.721135625,15.610671,7.721135625C18.21245,7.721135625,20.81423,9.763531725,20.81423,12.924693125Z" fill="#5CFAFF" fill-opacity="1"/></g></g></svg>