<svg xmlns="http://www.w3.org/2000/svg" xmlns:xlink="http://www.w3.org/1999/xlink" fill="none" version="1.1" width="24" height="24" viewBox="0 0 24 24"><defs><clipPath id="master_svg0_1274_76299"><rect x="0" y="0" width="24" height="24" rx="0"/></clipPath><linearGradient x1="0.5" y1="0" x2="0.5" y2="1" id="master_svg1_1237_73779"><stop offset="0%" stop-color="#FFFFFF" stop-opacity="1"/><stop offset="39.423078298568726%" stop-color="#56FFD8" stop-opacity="1"/><stop offset="73.22598099708557%" stop-color="#2FE0FF" stop-opacity="1"/><stop offset="100%" stop-color="#2FE0FF" stop-opacity="0.5"/></linearGradient></defs><g clip-path="url(#master_svg0_1274_76299)"><g><path d="M21,24L3,24C1.3508573,24,0,22.971432,0,21.714859L0,2.2851431C0,1.0285715,1.3508573,0,3,0L21,0C22.65086,0,24,1.0285715,24,2.2851431L24,21.714861C24,22.971432,22.65086,24,21,24ZM12.493716,16.705713C12.956573,17.288572,13.813715,17.288572,14.208001,16.705713L20.27486,8.9759998C20.670462,8.461544,20.670462,7.7453132,20.27486,7.2308569C19.880573,6.7337141,19.285717,6.7337141,18.889715,7.2308569L13.285716,14.37943L8.9348574,8.8097143C8.4720011,8.146286,7.6817155,8.146286,7.1537151,8.8097143L3.7251432,13.215429C3.3295429,13.729886,3.3295429,14.446115,3.7251432,14.960572C4.0934715,15.375869,4.7419586,15.375869,5.1102862,14.960572L8.0760012,11.137714L12.493716,16.705713Z" fill="url(#master_svg1_1237_73779)" fill-opacity="1"/></g></g></svg>