<svg xmlns="http://www.w3.org/2000/svg" xmlns:xlink="http://www.w3.org/1999/xlink" fill="none" version="1.1" width="24" height="24" viewBox="0 0 24 24"><g><path d="M22.800001,0L1.2,0C0.53725833,0,0,0.53725833,0,1.2L0,9.6000004C0,10.262743,0.53725833,10.8,1.2,10.8L22.800001,10.8C23.462742,10.8,24,10.262743,24,9.6000004L24,1.2C24,0.53725833,23.462742,0,22.800001,0ZM2.4000001,4.2000003L4.8000002,4.2000003L4.8000002,6.6000004L2.4000001,6.6000004L2.4000001,4.2000003ZM21.132002,6.6000004L9.1320009,6.6000004L9.1320009,4.2000003L21.132002,4.2000003L21.132002,6.6000004ZM22.800001,13.200001L1.2,13.200001C0.53725833,13.200001,0,13.737258,0,14.400001L0,22.800001C0,23.462742,0.53725833,24,1.2,24L22.800001,24C23.462742,24,24,23.462742,24,22.800001L24,14.400001C24,13.737258,23.462742,13.200001,22.800001,13.200001ZM2.4000001,17.400002L4.8000002,17.400002L4.8000002,19.800001L2.4000001,19.800001L2.4000001,17.400002ZM21.132002,19.800001L9.1320009,19.800001L9.1320009,17.400002L21.132002,17.400002L21.132002,19.800001Z" fill="#5CFAFF" fill-opacity="1"/></g></svg>