<svg xmlns="http://www.w3.org/2000/svg" xmlns:xlink="http://www.w3.org/1999/xlink" fill="none" version="1.1" width="20" height="20" viewBox="0 0 20 20"><defs><clipPath id="master_svg0_1270_72345"><rect x="0" y="0" width="20" height="20" rx="0"/></clipPath><linearGradient x1="0.5" y1="0" x2="0.5" y2="1" id="master_svg1_1237_75313"><stop offset="0%" stop-color="#FFFFFF" stop-opacity="1"/><stop offset="39.423078298568726%" stop-color="#2FFFE7" stop-opacity="1"/><stop offset="73.22598099708557%" stop-color="#2FE0FF" stop-opacity="1"/><stop offset="98.80946278572083%" stop-color="#76B8C3" stop-opacity="0.7699999809265137"/></linearGradient></defs><g clip-path="url(#master_svg0_1270_72345)"><g><path d="M10.0034418,9.074132C9.8109808,9.0742302,9.6199169,9.0413465,9.4385509,8.9769025C9.4374561,8.9765134,9.4366188,8.9762163,9.435524,8.9758291L2.0578161,6.3664503C2.0265381,6.3553877,1.99570668,6.345912,1.96410465,6.3358126C1.40089846,6.1558256,1.015634257,5.631556,1.015634257,5.0365734C1.015634622,4.4415908,1.4008984899999999,3.9173207,1.96410465,3.7373338C1.99570751,3.7272344,2.0265386000000003,3.7177589,2.0578171999999997,3.706696L9.4342594,1.097765483C9.4361963,1.09708,9.4378872,1.096484289,9.4398298,1.095809869C9.8077116,0.968063254,10.207922,0.96806325,10.5758038,1.095809869C10.5777445,1.096484289,10.5794373,1.09708,10.5813751,1.097765543L17.957817,3.706696C17.989096,3.7177589,18.019926,3.7272344,18.051529,3.7373338C18.614735,3.917321,19,4.4415908,19,5.0365734C19,5.631556,18.614735,6.1558256,18.051529,6.335813C18.019926,6.345912,17.989096,6.3553877,17.957817,6.3664503L10.5801096,8.9758291C10.5790148,8.9762163,10.5781765,8.9765134,10.5770817,8.9769025C10.3957157,9.0413465,10.2046528,9.0742302,10.0121908,9.074132C10.0090742,9.074131,10.0065594,9.074131,10.0034428,9.0741329M18.001108,7.8924623L16.850872000000003,7.4898801C16.838774,7.4856458,16.82559,7.4856801,16.813515000000002,7.4899774L15.97667,7.787787C15.530249,7.9466558,15.53196,8.578594200000001,15.979236,8.735043000000001C16.427135,8.8917103,16.428017,9.524828,15.980555,9.6827412L10.5084839,11.613889C10.1844969,11.728226,9.8311357,11.728226,9.5071487,11.613888L4.0298572,9.6808987C3.5828636,9.5231504,3.5829034,8.8909917,4.0299163,8.733299299999999C4.4764388,8.5757804,4.4771314,7.9445472,4.0309558,7.7860479L3.4120264,7.5661798C3.2539926,7.5100398,3.081511,7.5096378,2.9232173,7.5650406L2.0399077,7.8741989C2.0101446999999997,7.8846159,1.98096746,7.8935466,1.95091277,7.9030895C1.38637832,8.0823383,1,8.6072636,1,9.2031059C1.0000003627907,9.7980881,1.38526425,10.3223581,1.94847035,10.502346C1.98007238,10.5124464,2.0109038,10.5219212,2.0421817,10.5329838L9.4209843,13.142751C9.4213495,13.142879,9.4214754,13.142925,9.4218407,13.143054C9.7909088,13.273124,10.1933508,13.273135,10.5624275,13.143087C10.5628586,13.142934,10.5630484,13.142868,10.5634804,13.142715L17.942183,10.5329838C17.973461,10.5219212,18.004292,10.5124464,18.035894,10.502347C18.599098,10.3223581,18.984364,9.7980881,18.984364,9.2031059C18.984364,8.5957298,18.582882,8.0620432,18.000469,7.8930707C18.00025,7.8930058,18.000782,7.8927445,18.001007,7.8928008C18.001226,7.8928556,18.001322,7.8925366,18.001108,7.8924623M18.001961,12.063203L16.919531,11.684354C16.863003,11.664569,16.801406,11.66473,16.744982,11.68481L15.970564,11.960403C15.524704,12.119073,15.52543,12.749871,15.971653,12.907515C16.418453,13.065362,16.418409,13.697248,15.971588,13.855034L10.5090075,15.784035C10.1847029,15.898557,9.8309488,15.898502,9.5066795,15.783881L4.0408061,13.851826C3.5938325,13.693831,3.5940309,13.061645,4.0411038,12.903931C4.4878061,12.746348,4.4884989,12.114861,4.0421443,11.956299L3.4237518,11.736621C3.2657177,11.680481,3.0932362,11.680079,2.9349420999999998,11.735482L2.0516335000000003,12.044641C2.02187,12.055058,1.99269295,12.063988,1.96263784,12.073531C1.39810237,12.252781,1.011722991,12.777705,1.011722991,13.373549C1.011722991,13.968533,1.39698827,14.492804,1.96019542,14.67279C1.9917987,14.682888,2.0226297,14.692365,2.0539088000000003,14.703427L9.4326086,17.313158C9.4330416,17.313311,9.4332304,17.313377,9.4336624,17.31353C9.8027048,17.443567,10.2051105,17.443567,10.5741529,17.31353C10.574585,17.313377,10.5747738,17.313311,10.5752058,17.313158L17.953905,14.703427C17.985184,14.692365,18.016016,14.682888,18.047619,14.672789C18.610825,14.492804,18.996092,13.968533,18.996092,13.373549C18.996092,12.763001,18.590406,12.226916,18.003061,12.060897C18.002396,12.06071,18.002169,12.061602,18.002659,12.062092C18.003166,12.062598,18.002636,12.063439,18.001961,12.063203" fill="url(#master_svg1_1237_75313)" fill-opacity="1"/></g></g></svg>