<svg xmlns="http://www.w3.org/2000/svg" xmlns:xlink="http://www.w3.org/1999/xlink" fill="none" version="1.1" width="24" height="24" viewBox="0 0 24 24"><defs><clipPath id="master_svg0_1274_76475"><rect x="0" y="0" width="24" height="24" rx="0"/></clipPath><linearGradient x1="0.5" y1="0" x2="0.5" y2="1" id="master_svg1_1237_73779"><stop offset="0%" stop-color="#FFFFFF" stop-opacity="1"/><stop offset="39.423078298568726%" stop-color="#56FFD8" stop-opacity="1"/><stop offset="73.22598099708557%" stop-color="#2FE0FF" stop-opacity="1"/><stop offset="100%" stop-color="#2FE0FF" stop-opacity="0.5"/></linearGradient></defs><g clip-path="url(#master_svg0_1274_76475)"><g><path d="M4.8031645,20.405079375L19.213015,20.405079375Q20.413837,20.405079375,20.413837,21.605898375Q20.413837,22.806720375,19.213015,22.806720375L4.8031645,22.806720375Q3.6023438,22.806720375,3.6023438,21.605898375Q3.6023438,20.405079375,4.8031645,20.405079375ZM24.016418,16.443785374999997L24.016418,2.598319675C24.016418,1.823790375,23.478451,1.193359375,22.815599,1.193359375L1.2008212,1.193359375C0.53796792,1.193359375,0,1.822589875,0,2.598319675L0,16.443785374999997C-5.7220461e-7,17.106979375,0.53762513,17.644607375,1.2008212,17.644607375L22.815599,17.644607375C23.478794,17.644607375,24.016418,17.106982375,24.016418,16.443785374999997Z" fill="url(#master_svg1_1237_73779)" fill-opacity="1"/></g></g></svg>