<svg xmlns="http://www.w3.org/2000/svg" xmlns:xlink="http://www.w3.org/1999/xlink" fill="none" version="1.1" width="20" height="20" viewBox="0 0 20 20"><defs><clipPath id="master_svg0_1274_77615"><rect x="0" y="0" width="20" height="20" rx="0"/></clipPath><linearGradient x1="0.5" y1="0" x2="0.5" y2="1" id="master_svg1_1237_75313"><stop offset="0%" stop-color="#FFFFFF" stop-opacity="1"/><stop offset="39.423078298568726%" stop-color="#2FFFE7" stop-opacity="1"/><stop offset="73.22598099708557%" stop-color="#2FE0FF" stop-opacity="1"/><stop offset="98.80946278572083%" stop-color="#76B8C3" stop-opacity="0.7699999809265137"/></linearGradient></defs><g clip-path="url(#master_svg0_1274_77615)"><g><path d="M3.21106485,6.464893375C3.21106485,8.332166175000001,4.75561045,9.845802275,6.66106515,9.845802275C8.566519750000001,9.845802275,10.11197375,8.332166175000001,10.11197375,6.464893375C10.11197375,4.597620775,8.567429050000001,3.083984375,6.66106515,3.083984375C4.75561045,3.083984375,3.21106485,4.597620475,3.21106485,6.464893375ZM11.21561025,8.187620675C11.21561025,9.737621275,12.49833825,10.993984175,14.07924625,10.993984175C15.66106525,10.993984175,16.94288225,9.737621275,16.94288225,8.187620675C16.94288225,6.637620475,15.66197425,5.381257075000001,14.07924625,5.381257075000001C12.49833725,5.381257075000001,11.21561025,6.637620475,11.21561025,8.187620675ZM0.91015625,15.339438375L0.91015625,15.621255375C0.91015625,16.607620375,2.90561105,16.607620375,5.36742875,16.607620375L7.28607085,16.607620375C7.67703485,16.607620375,7.94726035,16.185342374999998,7.95371915,15.794094375Q7.95373105,15.793142375,7.95374485,15.792190375C7.95377545,15.789578375,7.95379205,15.787222375,7.95379205,15.784610375L7.95379205,15.554893375C7.95379205,14.555184375,8.25594095,13.625813375,8.77403455,12.847309075C9.26591685,12.108188675,9.13161275,10.977709775000001,8.24394135,10.973074875L5.36742875,10.973074875C2.90561065,10.973074875,0.91015625,12.927619975,0.91015625,15.339438375ZM9.30651955,15.554893375L9.30651955,15.788529375C9.30651955,16.606712375,10.96288325,16.606712375,13.00651925,16.606712375L15.39379125,16.606712375C17.43651925,16.606712375,19.09197425,16.576711375000002,19.09197425,15.788529375L19.09197425,15.554893375C19.09197425,13.553075375,17.43651925,11.930348375,15.39379125,11.930348375L13.00651925,11.930348375C10.96288325,11.930348375,9.30651955,13.553075375,9.30651955,15.554893375Z" fill="url(#master_svg1_1237_75313)" fill-opacity="1"/></g></g></svg>