<svg xmlns="http://www.w3.org/2000/svg" xmlns:xlink="http://www.w3.org/1999/xlink" fill="none" version="1.1" width="49.935546875" height="51.001953125" viewBox="0 0 49.935546875 51.001953125"><defs><filter id="master_svg0_1274_77379" filterUnits="objectBoundingBox" color-interpolation-filters="sRGB" x="0" y="0" width="1" height="1"><feFlood flood-opacity="0" result="BackgroundImageFix"/><feBlend mode="normal" in="SourceGraphic" in2="BackgroundImageFix" result="shape"/><feGaussianBlur in="BackgroundImageFix" stdDeviation="5"/><feComposite in2="SourceAlpha" operator="in" result="effect1_foregroundBlur"/><feBlend mode="normal" in="SourceGraphic" in2="effect1_foregroundBlur" result="shape"/></filter><mask id="master_svg1_1274_77381" style="mask-type:alpha" maskUnits="objectBoundingBox"><g><ellipse cx="24.460220336914062" cy="25.62699818611145" rx="24.460220336914062" ry="24.460220336914062" fill="#FFFFFF" fill-opacity="1"/></g></mask><filter id="master_svg2_1274_77382" filterUnits="objectBoundingBox" color-interpolation-filters="sRGB" x="-0.15829783729199481" y="-0.15829783729199481" width="1.3165956745839897" height="1.3165956745839897"><feFlood flood-opacity="0" result="BackgroundImageFix"/><feBlend mode="normal" in="SourceGraphic" in2="BackgroundImageFix" result="shape"/><feGaussianBlur stdDeviation="1.9359999895095825" result="effect1_foregroundBlur"/></filter></defs><g><g><g filter="url(#master_svg0_1274_77379)"><ellipse cx="24.460220336914062" cy="25.62699818611145" rx="24.460220336914062" ry="24.460220336914062" fill="#000000" fill-opacity="0.20000000298023224"/></g><g style="opacity:0.3799999952316284;"><path d="M44.377209953704835,25.626990248199462Q44.377209953704835,26.115927248199462,44.35321995370484,26.604273248199462Q44.329228953704835,27.092619248199462,44.28130495370483,27.579203248199462Q44.23338095370483,28.065783248199462,44.16163795370483,28.549425248199462Q44.089894953704835,29.033068248199463,43.99450795370483,29.51261024819946Q43.899121953704835,29.992151248199463,43.78031695370483,30.466435248199463Q43.66151995370483,30.940718248199463,43.51958995370483,31.40860224819946Q43.377656953704836,31.876482248199462,43.21293795370483,32.33683624819946Q43.04821895370483,32.797192248199465,42.861111953704835,33.24890924819947Q42.67400495370483,33.70062924819946,42.464959953704835,34.142620248199464Q42.25590995370484,34.58461424819946,42.02542995370484,35.015818248199466Q41.79494595370483,35.447020248199465,41.54358395370483,35.86639424819946Q41.29221895370483,36.28576924819946,41.020581953704834,36.69230524819946Q40.748944953704836,37.09883924819947,40.457684953704835,37.49155624819946Q40.16642495370483,37.88427624819946,39.85624795370484,38.26222824819946Q39.54607195370483,38.64018124819946,39.21772195370483,39.002459248199465Q38.889370953704834,39.36473724819946,38.543641953704835,39.710467248199464Q38.19791195370483,40.05619624819946,37.835633953704836,40.38454724819946Q37.47335595370483,40.71289724819946,37.095402953704834,41.02307724819946Q36.717450953704834,41.33325024819946,36.32473095370483,41.62451024819946Q35.93201395370484,41.915770248199465,35.52547995370483,42.18740724819946Q35.11894395370483,42.45904424819946,34.69956895370483,42.71040924819946Q34.280194953704836,42.96177124819946,33.84899295370484,43.192255248199466Q33.41778895370483,43.422735248199466,32.97579695370483,43.63178524819946Q32.53380395370483,43.84083024819946,32.08208395370484,44.027937248199464Q31.630366953704833,44.21504424819946,31.170010953704836,44.37976324819946Q30.709656953704833,44.54447824819946,30.241776953704832,44.68641124819946Q29.773892953704834,44.828341248199465,29.299609953704834,44.94714224819946Q28.825325953704834,45.065947248199464,28.345784953704833,45.16133324819946Q27.866242953704834,45.256720248199464,27.382599953704833,45.32846324819946Q26.898957953704834,45.40020624819946,26.412377953704834,45.448134248199466Q25.925793953704833,45.496054248199464,25.437447953704833,45.520045248199466Q24.949101953704833,45.544035248199464,24.460164953704833,45.544035248199464Q23.971228953704834,45.544035248199464,23.482882953704834,45.520045248199466Q22.994534953704832,45.496054248199464,22.507952953704834,45.44813024819946Q22.021370953704835,45.40020624819946,21.537726953704833,45.32846324819946Q21.054081953704834,45.256720248199464,20.574540953704833,45.16133324819946Q20.094999953704836,45.065947248199464,19.620717953704833,44.94714224819946Q19.146433953704836,44.82834524819946,18.678550953704836,44.68641524819946Q18.210667953704835,44.544482248199465,17.750311953704834,44.37976324819946Q17.289957953704835,44.21504424819946,16.838238953704835,44.027937248199464Q16.386521953704836,43.84083024819946,15.944528953704834,43.63178524819946Q15.502535953704834,43.422735248199466,15.071333953704833,43.192255248199466Q14.640130953704833,42.96177124819946,14.220756053704834,42.71040924819946Q13.801381553704834,42.45904424819946,13.394845453704834,42.18740724819946Q12.988309353704834,41.915770248199465,12.595592953704834,41.62451024819946Q12.202876553704833,41.33325024819946,11.824924453704835,41.023073248199466Q11.446971453704833,40.71289724819946,11.084693453704833,40.38454724819946Q10.722415953704834,40.05619624819946,10.376686053704834,39.710467248199464Q10.030955753704834,39.36473724819946,9.702606653704834,39.002459248199465Q9.374257553704833,38.64018124819946,9.064079753704835,38.26222824819946Q8.753901953704833,37.88427624819946,8.462643153704834,37.49155624819946Q8.171384353704834,37.09883924819947,7.899745953704834,36.69230524819946Q7.628107553704834,36.28576924819946,7.3767442537048336,35.86639424819946Q7.125380953704834,35.447020248199465,6.894898153704834,35.015818248199466Q6.664415353704834,34.58461424819946,6.455368253704834,34.14262224819946Q6.246321153704834,33.70062924819946,6.059213553704834,33.24890924819947Q5.872105853704834,32.797192248199465,5.707388253704834,32.33683624819946Q5.542670723704834,31.876482248199462,5.400740143704834,31.40860224819946Q5.258809503704834,30.940718248199463,5.140007733704834,30.466435248199463Q5.021205993704834,29.992151248199463,4.925819333704834,29.51261024819946Q4.830432653704834,29.033068248199463,4.758690863704834,28.549425248199462Q4.686949073704834,28.065783248199462,4.639024965704834,27.579203248199462Q4.591100856704834,27.092619248199462,4.567109904704834,26.604273248199462Q4.543118953704834,26.115927248199462,4.543118953704834,25.626990248199462Q4.543118953704834,25.138054248199463,4.567109904704834,24.649708248199463Q4.591100856704834,24.16136024819946,4.639024965704834,23.674778248199463Q4.686949073704834,23.188196248199464,4.758690863704834,22.704552248199462Q4.830432653704834,22.220907248199463,4.925819333704834,21.741366248199462Q5.021205993704834,21.261825248199465,5.140007733704834,20.787543248199462Q5.258809503704834,20.313259248199465,5.400740143704834,19.845376248199464Q5.542670723704834,19.377493248199464,5.707388253704834,18.917137248199463Q5.872105853704834,18.456783248199464,6.059213553704834,18.005064248199464Q6.246321153704834,17.553347248199465,6.455368253704834,17.11135424819946Q6.664415353704834,16.669361248199465,6.894898153704834,16.238159248199462Q7.125380953704834,15.806956248199462,7.3767442537048336,15.387581348199463Q7.628107553704834,14.968206848199463,7.899745953704834,14.561670748199463Q8.171384353704834,14.155134648199462,8.462643153704834,13.762418248199463Q8.753901953704833,13.369701848199462,9.064079753704835,12.991749748199464Q9.374257553704833,12.613796748199462,9.702606653704834,12.251518748199462Q10.030955753704834,11.889241248199463,10.376686053704834,11.543511348199463Q10.722415953704834,11.197781048199463,11.084693953704834,10.869431948199463Q11.446971453704833,10.541082848199462,11.824924453704835,10.230905048199464Q12.202876553704833,9.920727248199462,12.595592953704834,9.629468448199463Q12.988309353704834,9.338209648199463,13.394845453704834,9.066571248199462Q13.801381553704834,8.794932848199462,14.220756053704834,8.543569548199462Q14.640130953704833,8.292206248199463,15.071332953704834,8.061723448199462Q15.502535953704834,7.831240648199463,15.944527953704833,7.622193548199463Q16.386521953704836,7.413146448199463,16.838238953704835,7.226038848199463Q17.289957953704835,7.038931148199463,17.750311953704834,6.874213548199463Q18.210667953704835,6.709496018199463,18.678549953704835,6.567565438199463Q19.14643295370483,6.425634798199463,19.620717953704833,6.306833028199463Q20.094999953704836,6.188031288199463,20.574540953704833,6.092644628199463Q21.054081953704834,5.997257948199463,21.537726953704833,5.925516158199463Q22.021370953704835,5.8537743681994625,22.507952953704834,5.805850260199463Q22.994534953704832,5.757926151199463,23.482880953704836,5.733935199199463Q23.971228953704834,5.709944248199463,24.460164953704833,5.709944248199463Q24.949101953704833,5.709944248199463,25.437447953704833,5.733935199199463Q25.925793953704833,5.757926151199463,26.412377953704834,5.805850260199463Q26.898957953704834,5.8537743681994625,27.382599953704833,5.925516158199463Q27.866242953704834,5.997257948199463,28.345784953704833,6.092644628199463Q28.825325953704834,6.188031288199463,29.299609953704834,6.306833028199463Q29.773892953704834,6.425634798199463,30.241776953704832,6.567565438199463Q30.709656953704833,6.709496018199463,31.170010953704836,6.874213548199463Q31.630366953704833,7.038931148199463,32.08208395370484,7.226038848199463Q32.53380395370483,7.413146448199463,32.975794953704835,7.622193548199463Q33.41778895370483,7.831240648199463,33.84899295370484,8.061723448199462Q34.280194953704836,8.292206248199463,34.69956895370483,8.543569548199462Q35.11894395370483,8.794932848199462,35.52547995370483,9.066571248199462Q35.93201395370484,9.338209648199463,36.32473095370483,9.629468448199463Q36.717450953704834,9.920727248199462,37.095402953704834,10.230905048199464Q37.47335595370483,10.541082848199462,37.835633953704836,10.869431948199463Q38.19791195370483,11.197781048199463,38.543641953704835,11.543511348199463Q38.889370953704834,11.889241248199463,39.21772195370483,12.251519248199463Q39.54607195370483,12.613796748199462,39.856251953704835,12.991749748199464Q40.16642495370483,13.369701848199462,40.457684953704835,13.762418248199463Q40.748944953704836,14.155134648199462,41.020581953704834,14.561670748199463Q41.29221895370483,14.968206848199463,41.54358395370483,15.387581348199463Q41.79494595370483,15.806956248199462,42.02542995370484,16.23815824819946Q42.25590995370484,16.669361248199465,42.464959953704835,17.111353248199464Q42.67400495370483,17.553347248199465,42.861111953704835,18.005064248199464Q43.04821895370483,18.456783248199464,43.21293795370483,18.917137248199463Q43.37765295370483,19.377493248199464,43.51958595370483,19.845375248199463Q43.661515953704836,20.31325824819946,43.78031695370483,20.787543248199462Q43.899121953704835,21.261825248199465,43.99450795370483,21.741366248199462Q44.089894953704835,22.220907248199463,44.16163795370483,22.704552248199462Q44.23338095370483,23.188196248199464,44.28130895370484,23.674778248199463Q44.329228953704835,24.16136024819946,44.35321995370484,24.649706248199465Q44.377209953704835,25.138054248199463,44.377209953704835,25.626990248199462ZM42.969208953704836,25.626990248199462Q42.96920495370483,25.17261724819946,42.946911953704834,24.718794248199462Q42.92461895370484,24.264969248199463,42.880082953704836,23.812786248199462Q42.83554595370484,23.360602248199463,42.768872953704836,22.911148248199463Q42.702202953704834,22.46169524819946,42.613560953704834,22.016054248199463Q42.52491495370484,21.570414248199462,42.414513953704834,21.129658248199462Q42.304108953704834,20.688904248199464,42.17221195370483,20.254097248199464Q42.04031095370483,19.819290248199465,41.88723895370483,19.391480248199464Q41.734166953704836,18.96366824819946,41.56028495370484,18.54388424819946Q41.386403953704836,18.124098248199463,41.192135953704835,17.713351248199462Q40.99786895370483,17.302605248199463,40.78368095370483,16.901885248199463Q40.56948995370483,16.50116624819946,40.335892953704835,16.111437248199465Q40.102299953704836,15.721710248199463,39.849865953704835,15.343914548199463Q39.59743295370483,14.966118348199464,39.32676495370483,14.601163348199464Q39.05609695370483,14.236209348199463,38.76784995370483,13.884975948199463Q38.479596953704835,13.533741448199462,38.17446295370483,13.197073948199463Q37.86932495370483,12.860406448199463,37.54803595370483,12.539117848199464Q37.22674695370483,12.217828248199464,36.890076953704835,11.912691148199464Q36.553410953704834,11.607553948199463,36.20217895370483,11.319303948199462Q35.85094195370483,11.031054048199463,35.485985953704834,10.760384548199463Q35.121029953704834,10.489716048199462,34.74323595370483,10.237280348199462Q34.365437953704834,9.984844648199463,33.975712953704836,9.751251248199463Q33.58598495370484,9.517657748199463,33.185265953704835,9.303468748199464Q32.78454395370483,9.089279648199463,32.373795953704835,8.895010448199463Q31.963048953704835,8.700741748199462,31.543265953704832,8.526861148199462Q31.123478953704833,8.352980648199463,30.695670953704834,8.199907548199462Q30.267859953704836,8.046834448199462,29.833054953704835,7.914937448199463Q29.398247953704836,7.7830402481994625,28.957493953704834,7.672637148199463Q28.516737953704833,7.562233848199463,28.071097953704832,7.473590348199463Q27.625456953704834,7.384946848199463,27.176005953704834,7.318276748199462Q26.726552953704832,7.251606548199463,26.274369953704834,7.207070348199463Q25.822186953704833,7.162534148199462,25.368361953704834,7.140239148199463Q24.914536953704832,7.117944248199462,24.460164953704833,7.117944248199462Q24.005791953704833,7.117944248199462,23.551968953704833,7.140239148199463Q23.098143953704835,7.162534148199462,22.645960953704833,7.207070348199463Q22.193776953704834,7.251606448199463,21.744322953704835,7.318276648199463Q21.294869953704833,7.384946848199463,20.849228953704834,7.4735902481994625Q20.403588953704833,7.562233648199463,19.962832953704833,7.672636948199463Q19.522078953704835,7.7830402481994625,19.087271953704835,7.914937448199463Q18.652464953704836,8.046834448199462,18.224654953704835,8.199907748199463Q17.796842953704832,8.352980648199463,17.377058953704832,8.526861148199462Q16.957272953704834,8.700741748199462,16.546525953704833,8.895010448199463Q16.135779953704834,9.089279648199463,15.735059953704834,9.303468748199464Q15.334340953704833,9.517657748199463,14.944611953704834,9.751251248199463Q14.554884953704834,9.984844648199463,14.177089253704834,10.237280348199462Q13.799293053704835,10.489716048199462,13.434338053704835,10.760384548199463Q13.069384053704834,11.031054048199463,12.718150653704834,11.319303948199462Q12.366916153704834,11.607553948199463,12.030248653704835,11.912691148199464Q11.693581153704834,12.217828248199464,11.372292553704835,12.539117848199464Q11.051002953704835,12.860406448199463,10.745865853704835,13.197073448199463Q10.440728653704834,13.533740948199462,10.152478653704833,13.884974948199464Q9.864228753704834,14.236208448199463,9.593559253704834,14.601163348199464Q9.322890753704833,14.966118348199464,9.070455053704833,15.343914548199463Q8.818019353704834,15.721710248199463,8.584425953704834,16.111437248199465Q8.350832453704834,16.50116624819946,8.136643453704835,16.901885248199463Q7.922454353704834,17.302605248199463,7.728185153704834,17.713351248199462Q7.533916453704834,18.124098248199463,7.360035853704834,18.543883248199464Q7.186155353704834,18.963667248199464,7.033082253704833,19.391479248199463Q6.880009153704834,19.819290248199465,6.7481121537048345,20.254097248199464Q6.616214953704834,20.688904248199464,6.505811853704834,21.129659248199463Q6.395408553704834,21.570414248199462,6.306765053704834,22.016054248199463Q6.218121553704834,22.46169524819946,6.1514514537048335,22.911148248199463Q6.0847812537048345,23.360602248199463,6.040245053704834,23.812786248199462Q5.9957088537048335,24.264969248199463,5.973413853704834,24.718794248199462Q5.9511189537048335,25.17261724819946,5.9511189537048335,25.626990248199462Q5.9511189537048335,26.08136224819946,5.973413853704834,26.535187248199463Q5.9957088537048335,26.989010248199463,6.040245053704834,27.44119324819946Q6.084781153704834,27.89337824819946,6.151451353704834,28.342829248199465Q6.218121553704834,28.792282248199463,6.306764953704834,29.23792324819946Q6.395408353704834,29.68356224819946,6.505811653704834,30.124317248199464Q6.616214953704834,30.565071248199462,6.7481121537048345,30.99987824819946Q6.880009153704834,31.434683248199462,7.033082453704834,31.862494248199464Q7.186155353704834,32.29030424819946,7.360035853704834,32.710089248199466Q7.533916453704834,33.129874248199464,7.728185153704834,33.540621248199464Q7.922454353704834,33.95136924819946,8.136643453704835,34.35208924819946Q8.350832453704834,34.75281024819947,8.584425953704834,35.14253624819946Q8.818019353704834,35.53226324819946,9.070455053704833,35.91005924819946Q9.322890753704833,36.28785524819946,9.593559253704834,36.65281124819946Q9.864228753704834,37.01776724819946,10.152478653704833,37.369002248199465Q10.440728653704834,37.72023624819946,10.745865853704835,38.05689824819946Q11.051002953704835,38.393568248199465,11.372292553704835,38.714857248199465Q11.693581153704834,39.036146248199465,12.030248153704834,39.341284248199464Q12.366915653704833,39.646422248199464,12.718149653704835,39.93467224819946Q13.069383153704834,40.22292224819946,13.434338053704835,40.49358624819946Q13.799293053704835,40.76425824819946,14.177089253704834,41.016691248199464Q14.554884953704834,41.269125248199465,14.944611953704834,41.50272224819946Q15.334340953704833,41.73631524819946,15.735059953704834,41.95050624819946Q16.135779953704834,42.16469424819946,16.546525953704833,42.35896124819946Q16.957272953704834,42.553229248199465,17.377057953704835,42.727110248199466Q17.796841953704835,42.900992248199465,18.224653953704834,43.05406424819946Q18.652464953704836,43.20713624819946,19.087271953704835,43.33903724819946Q19.522078953704835,43.47093424819946,19.962833953704834,43.58133924819946Q20.403588953704833,43.691740248199466,20.849228953704834,43.78038624819946Q21.294869953704833,43.86902824819946,21.744322953704835,43.935698248199465Q22.193776953704834,44.002371248199466,22.645960953704833,44.046908248199465Q23.098143953704835,44.091444248199466,23.551968953704833,44.11373724819946Q24.005791953704833,44.13603024819946,24.460164953704833,44.136034248199465Q24.914536953704832,44.13603024819946,25.368361953704834,44.11373724819946Q25.822184953704834,44.091444248199466,26.274367953704832,44.046908248199465Q26.726552953704832,44.002371248199466,27.176003953704836,43.935698248199465Q27.625456953704834,43.86902824819946,28.071097953704832,43.78038624819946Q28.516736953704832,43.691740248199466,28.957491953704835,43.58133924819946Q29.398245953704834,43.47093424819946,29.833052953704833,43.33903724819946Q30.267857953704834,43.20713624819946,30.695668953704836,43.05406424819946Q31.123478953704833,42.900992248199465,31.543263953704834,42.727110248199466Q31.963048953704835,42.553229248199465,32.373795953704835,42.35896124819946Q32.78454395370483,42.16469424819946,33.18526395370483,41.95050624819946Q33.58598495370484,41.73631524819946,33.975710953704834,41.502718248199464Q34.365437953704834,41.269125248199465,34.74323395370483,41.016691248199464Q35.121029953704834,40.76425824819946,35.485985953704834,40.49359024819946Q35.85094195370483,40.22292224819946,36.202176953704836,39.93467524819946Q36.553410953704834,39.646422248199464,36.89007295370483,39.34128824819946Q37.226742953704836,39.03615024819946,37.548031953704836,38.71486124819946Q37.869320953704836,38.39357224819946,38.174458953704836,38.056902248199464Q38.479596953704835,37.72023624819946,38.76784695370483,37.36900424819946Q39.05609695370483,37.01776724819946,39.326760953704834,36.65281124819946Q39.59743295370483,36.28785524819946,39.849865953704835,35.91006124819946Q40.102299953704836,35.53226324819946,40.33589695370483,35.142538248199465Q40.56948995370483,34.75281024819947,40.78368095370483,34.352091248199464Q40.99786895370483,33.95136924819946,41.192135953704835,33.540621248199464Q41.386403953704836,33.129874248199464,41.56028495370484,32.71009124819946Q41.734166953704836,32.29030424819946,41.88723895370483,31.862496248199463Q42.04031095370483,31.434685248199465,42.17221195370483,30.999880248199464Q42.304108953704834,30.565073248199464,42.414513953704834,30.124319248199463Q42.52491495370484,29.683563248199462,42.613560953704834,29.23792324819946Q42.702202953704834,28.792282248199463,42.768872953704836,28.342831248199463Q42.83554595370484,27.89337824819946,42.880082953704836,27.441195248199463Q42.92461895370484,26.98901224819946,42.946911953704834,26.535187248199463Q42.96920495370483,26.08136224819946,42.969208953704836,25.626990248199462Z" fill="#FFFFFF" fill-opacity="1"/></g><g mask="url(#master_svg1_1274_77381)"><g filter="url(#master_svg2_1274_77382)"><ellipse cx="24.460220336914062" cy="25.62699818611145" rx="24.460220336914062" ry="24.460220336914062" fill-opacity="0" stroke-opacity="0.550000011920929" stroke="#FFFFFF" fill="none" stroke-width="2.111999988555908"/></g><g><path d="M48.920441,25.626997849197387Q48.920441,26.227461849197386,48.890976,26.827202849197388Q48.861511,27.42694384919739,48.802662,28.024519849197386Q48.743805,28.622092849197386,48.655701,29.21605584919739Q48.567593,29.810021849197387,48.450447,30.398947849197388Q48.333305,30.987875849197387,48.187405,31.570345849197388Q48.041504,32.15281584919739,47.867195,32.72742584919739Q47.692886,33.30203184919739,47.490597,33.86739684919739Q47.288303,34.43276184919739,47.058514,34.98751784919739Q46.828728,35.542273849197386,46.571995,36.08508584919739Q46.315262,36.627898849197386,46.032207,37.157465849197386Q45.749146,37.68702584919739,45.440445,38.20206384919739Q45.131744,38.71710084919739,44.798141,39.21636484919739Q44.464542,39.71563284919739,44.10685,40.19792884919739Q43.749153,40.68022884919739,43.368221,41.14439284919739Q42.987289,41.60855784919739,42.584045,42.05347384919739Q42.180794,42.49838984919739,41.756203,42.92298484919739Q41.331612,43.34757584919739,40.886696,43.75082284919739Q40.44178,44.15407084919739,39.977615,44.53500284919739Q39.513447,44.91593084919739,39.031147,45.27363084919739Q38.548851,45.631323849197386,38.049583,45.96492684919739Q37.550316,46.29852584919739,37.035278,46.60722684919739Q36.520241,46.91592684919739,35.990681,47.19898484919739Q35.461117,47.482039849197385,34.918304,47.73877284919739Q34.375492,47.995505849197386,33.820736,48.22529184919739Q33.26598,48.45508084919739,32.700615,48.65737484919739Q32.13525,48.85966384919739,31.560642,49.03397284919739Q30.986034,49.20827384919739,30.403564,49.35417884919739Q29.821096,49.50007584919739,29.23217,49.61721684919739Q28.643244,49.734366849197386,28.049278,49.82247084919739Q27.455315,49.910578849197385,26.857742,49.96943584919739Q26.260166,50.02828884919739,25.660425,50.05775384919739Q25.060684,50.087218849197384,24.46022,50.087218849197384Q23.859756,50.087218849197384,23.260015,50.05775384919739Q22.660273,50.02828884919739,22.0627,49.969439849197386Q21.465126,49.91058284919739,20.871159,49.82247884919739Q20.277195,49.73437084919739,19.688267,49.617224849197385Q19.09934,49.50008284919739,18.516872,49.354182849197386Q17.934402,49.20828184919739,17.359793,49.03397284919739Q16.785183,48.85966384919739,16.21982,48.65737484919739Q15.654455,48.45508084919739,15.099698,48.22529184919739Q14.544941,47.995505849197386,14.002129,47.73877284919739Q13.459314,47.482039849197385,12.929752,47.19898484919739Q12.400188,46.91592384919739,11.885153,46.607222849197385Q11.370117,46.298521849197385,10.870849,45.96491884919739Q10.37158,45.63131984919739,9.8892832,45.27362784919739Q9.4069862,44.91593084919739,8.9428205,44.534998849197386Q8.4786549,44.154066849197385,8.03374,43.75082284919739Q7.5888247,43.34757184919739,7.1642323,42.92298084919739Q6.7396393,42.49838984919739,6.3363924,42.05347384919739Q5.9331446,41.60855784919739,5.5522141,41.14439284919739Q5.1712832,40.68022484919739,4.8135867,40.197924849197385Q4.4558902,39.71562884919739,4.1222897,39.216360849197386Q3.7886896,38.71709384919739,3.4799888,38.202055849197386Q3.1712885,37.687018849197386,2.8882315,37.15745884919739Q2.6051743,36.62789484919739,2.3484426,36.08508184919739Q2.0917108,35.54226984919739,1.8619231,34.987513849197384Q1.6321352,34.43275784919739,1.4298449,33.86739284919739Q1.2275543,33.30202784919739,1.0532488,32.72741984919739Q0.87894309,32.15281184919739,0.73304206,31.570341849197387Q0.58714104,30.98787384919739,0.46999618,30.398947849197388Q0.35285133,29.810021849197387,0.26474491,29.21605584919739Q0.17663845,28.622092849197386,0.11778263,28.024519849197386Q0.058926802,27.42694384919739,0.029463401,26.827202849197388Q0,26.227461849197386,0,25.626997849197387Q0,25.02653384919739,0.029463401,24.426792849197387Q0.058926802,23.827050849197388,0.11778263,23.229477849197387Q0.17663845,22.63190384919739,0.26474488,22.037936849197386Q0.35285133,21.443972849197387,0.46999618,20.855044849197387Q0.58714104,20.26611784919739,0.733042,19.683649849197387Q0.87894309,19.101179849197386,1.0532488,18.526570849197388Q1.2275543,17.951960849197388,1.4298449,17.386597849197386Q1.6321352,16.821232849197386,1.8619231,16.266475849197388Q2.0917108,15.711718849197387,2.3484426,15.168906849197388Q2.6051743,14.626091849197387,2.8882315,14.096529849197388Q3.1712885,13.566965849197388,3.4799891,13.051930849197388Q3.7886896,12.536894849197388,4.1222897,12.037626849197387Q4.4558902,11.538357849197387,4.8135867,11.056061049197387Q5.1712837,10.573764049197388,5.5522146,10.109598349197388Q5.933145,9.645432749197388,6.3363924,9.200517849197388Q6.7396393,8.755602549197388,7.1642323,8.331010149197388Q7.5888247,7.906417149197388,8.0337391,7.503170249197388Q8.4786549,7.099922449197388,8.9428196,6.718991949197387Q9.4069843,6.338061049197388,9.8892822,5.980364549197388Q10.37158,5.6226680491973875,10.870848,5.289067549197387Q11.370115,4.955467449197387,11.885152,4.646766649197388Q12.400187,4.338066349197388,12.92975,4.0550093491973875Q13.459313,3.7719521491973875,14.002127,3.5152204491973875Q14.544941,3.2584886491973877,15.099697,3.028700949197388Q15.654453,2.7989130491973877,16.219818,2.5966227491973877Q16.785183,2.3943321491973877,17.359793,2.2200266491973877Q17.934402,2.0457209391973876,18.516872,1.8998199091973877Q19.09934,1.7539188891973878,19.688267,1.6367740291973876Q20.277195,1.5196291791973877,20.871161,1.4315227591973878Q21.465126,1.3434162991973877,22.0627,1.2845604791973877Q22.660273,1.2257046511973877,23.260014,1.1962412501973878Q23.859756,1.1667778491973877,24.46022,1.1667778491973877Q25.060684,1.1667778491973877,25.660425,1.1962412501973878Q26.260166,1.2257046511973877,26.857742,1.2845604791973877Q27.455315,1.3434162991973877,28.049278,1.4315227291973878Q28.643244,1.5196291791973877,29.23217,1.6367740291973876Q29.821098,1.7539188891973878,30.403568,1.8998198491973877Q30.986038,2.0457209391973876,31.560648,2.2200266491973877Q32.135254,2.3943321491973877,32.700619,2.5966227491973877Q33.265984,2.7989130491973877,33.82074,3.028700949197388Q34.375496,3.2584886491973877,34.918308,3.5152204491973875Q35.461121,3.7719521491973875,35.990688,4.0550093491973875Q36.520248,4.338066349197388,37.035286,4.646766949197388Q37.550323,4.955467449197387,38.049587,5.289067549197387Q38.548855,5.6226680491973875,39.031151,5.980364549197388Q39.513451,6.338061549197388,39.977615,6.718992449197388Q40.44178,7.099922849197387,40.886696,7.503170249197388Q41.331612,7.906417149197388,41.756207,8.331010149197388Q42.180798,8.755602549197388,42.584045,9.200516949197388Q42.987293,9.645432749197388,43.368225,10.109597449197388Q43.749153,10.573762149197387,44.106853,11.056060049197388Q44.464546,11.538357849197387,44.798149,12.037625849197388Q45.131748,12.536892849197388,45.440449,13.051929849197387Q45.749149,13.566964849197388,46.032207,14.096527849197388Q46.315262,14.626090849197388,46.571995,15.168904849197387Q46.828728,15.711718849197387,47.058514,16.266474849197387Q47.288303,16.821230849197388,47.490597,17.386595849197388Q47.692886,17.951960849197388,47.867195,18.526570849197388Q48.041496,19.101179849197386,48.187401,19.683649849197387Q48.333298,20.26611784919739,48.450439,20.855044849197387Q48.567589,21.443972849197387,48.655693,22.03793884919739Q48.743801,22.63190384919739,48.802658,23.229477849197387Q48.861511,23.827050849197388,48.890976,24.42679184919739Q48.920441,25.02653384919739,48.920441,25.626997849197387ZM47.51244,25.626997849197387Q47.51244,25.061097849197388,47.484673,24.495879849197387Q47.456905,23.930659849197387,47.401436,23.367483849197388Q47.34597,22.804308849197387,47.262932,22.244532849197387Q47.179901,21.684756849197388,47.069496,21.129731849197388Q46.959095,20.57470484919739,46.821594,20.02576384919739Q46.68409,19.476822849197386,46.519821,18.935290849197386Q46.355545,18.393755849197387,46.164898,17.860936849197387Q45.974251,17.32811684919739,45.75769,16.805292849197386Q45.54113,16.282469849197387,45.299171,15.770901849197388Q45.05722,15.259334849197387,44.790459,14.760255849197387Q44.523697,14.261175849197388,44.232765,13.775787849197387Q43.941833,13.290398849197388,43.627434,12.819869849197387Q43.313038,12.349341849197387,42.975929,11.894804849197389Q42.638828,11.440270849197388,42.279827,11.002824049197388Q41.920822,10.565377449197388,41.540787,10.146072649197388Q41.160751,9.726767749197387,40.760597,9.326616549197388Q40.360447,8.926464349197389,39.941143,8.546429349197387Q39.521839,8.166394449197387,39.084393,7.807391449197388Q38.646942,7.448387349197388,38.192406,7.111280649197388Q37.737869,6.774174449197388,37.267342,6.459777149197388Q36.796814,6.1453802491973875,36.311428,5.854449049197387Q35.826038,5.563518749197388,35.326958,5.296755049197388Q34.827881,5.029991149197388,34.316311,4.788037549197387Q33.804741,4.546083949197388,33.281918,4.3295233491973875Q32.759094,4.112962749197388,32.226276,3.9223167491973876Q31.693455,3.731670849197388,31.151924,3.5673987491973875Q30.61039,3.4031264491973876,30.061449,3.265624049197388Q29.512508,3.1281213491973876,28.957481,3.0177197491973877Q28.402454,2.907318149197388,27.842682,2.8242833491973878Q27.282907,2.741248649197388,26.719734,2.6857805491973874Q26.156559,2.6303126491973874,25.591339,2.602545149197388Q25.026121,2.5747778491973876,24.46022,2.5747778491973876Q23.89432,2.5747778491973876,23.329102,2.6025452491973877Q22.763882,2.6303126491973874,22.200706,2.6857806491973877Q21.637531,2.741248649197388,21.077755,2.8242833491973878Q20.517979,2.907318149197388,19.962954,3.0177197491973877Q19.407927,3.1281213491973876,18.858986,3.265624049197388Q18.310045,3.4031264491973876,17.768513,3.5673987491973875Q17.226978,3.731670849197388,16.694159,3.9223167491973876Q16.161339,4.112962749197388,15.638515,4.3295233491973875Q15.115692,4.546083949197388,14.604124,4.788037549197387Q14.092557,5.029990949197387,13.593478,5.296754549197388Q13.094398,5.563518249197387,12.60901,5.854449049197387Q12.123621,6.1453802491973875,11.653092,6.459777149197388Q11.182564,6.774174449197388,10.728027,7.111281149197388Q10.273493,7.448387349197388,9.8360462,7.807390949197388Q9.3985996,8.166393949197388,8.9792948,8.546428949197388Q8.5599899,8.926464349197389,8.1598387,9.326616549197388Q7.7596865,9.726767749197387,7.3796515,10.146072649197388Q6.9996166,10.565377449197388,6.6406136,11.002824049197388Q6.2816095,11.440270849197388,5.9445028,11.894805849197388Q5.6073966,12.349341849197387,5.2929993,12.819869849197387Q4.9786024,13.290398849197388,4.6876712,13.775786849197388Q4.3967409,14.261175849197388,4.1299772,14.760255849197387Q3.8632133,15.259334849197387,3.6212597,15.770901849197388Q3.3793061,16.282469849197387,3.1627455,16.805292849197386Q2.9461849,17.32811684919739,2.7555389,17.860936849197387Q2.564893,18.393755849197387,2.4006209,18.935290849197386Q2.2363486,19.47682484919739,2.0988462,20.025765849197388Q1.9613435,20.574705849197386,1.8509419,21.12973284919739Q1.7405403,21.684759849197388,1.6575055,22.244534849197386Q1.5744708,22.804308849197387,1.5190027,23.367485849197386Q1.4635348,23.930659849197387,1.4357673,24.495879849197387Q1.408,25.061097849197388,1.408,25.626997849197387Q1.408,26.192898849197388,1.4357674,26.75811684919739Q1.4635348,27.32333684919739,1.5190028,27.886511849197387Q1.5744708,28.44968484919739,1.6575055,29.009459849197388Q1.7405403,29.569231849197386,1.8509419,30.12425884919739Q1.9613435,30.679285849197388,2.0988462,31.22822884919739Q2.2363486,31.777167849197387,2.4006209,32.31870184919739Q2.564893,32.86023284919739,2.7555389,33.39305084919739Q2.9461849,33.925871849197385,3.1627455,34.448695849197385Q3.3793061,34.97151884919739,3.6212597,35.48308884919739Q3.8632131,35.994658849197386,4.1299767,36.493735849197385Q4.3967404,36.992815849197385,4.6876712,37.47820184919739Q4.9786024,37.963591849197385,5.2929993,38.43411984919739Q5.6073966,38.90464684919739,5.9445033,39.359183849197386Q6.2816095,39.81371984919739,6.6406131,40.251170849197386Q6.9996161,40.68861684919739,7.3796511,41.107920849197384Q7.7596865,41.52722484919739,8.1598387,41.927374849197385Q8.5599899,42.327528849197385,8.9792948,42.707560849197385Q9.3985996,43.08759984919739,9.8360462,43.44660084919739Q10.273493,43.805605849197384,10.728028,44.14271484919739Q11.182564,44.47981984919739,11.653092,44.794215849197386Q12.123621,45.10861084919739,12.609009,45.399546849197385Q13.094398,45.690474849197386,13.593478,45.95724384919739Q14.092557,46.224001849197386,14.604124,46.465952849197386Q15.115692,46.70790784919739,15.638515,46.924467849197384Q16.161339,47.14102884919739,16.694159,47.33167584919739Q17.226978,47.52232284919739,17.768513,47.68659884919739Q18.310047,47.850867849197385,18.858988,47.988371849197385Q19.407928,48.125872849197386,19.962955,48.23627384919739Q20.517982,48.34667884919739,21.077757,48.42970984919739Q21.637531,48.51274784919739,22.200708,48.568213849197384Q22.763882,48.62367984919739,23.329102,48.65145084919739Q23.89432,48.67921384919739,24.46022,48.679217849197386Q25.026121,48.67921384919739,25.591339,48.65145084919739Q26.156559,48.62367984919739,26.719734,48.568213849197384Q27.282907,48.51274784919739,27.842682,48.42970984919739Q28.402454,48.34667884919739,28.957481,48.23627384919739Q29.512508,48.125872849197386,30.061451,47.988371849197385Q30.61039,47.850867849197385,31.151924,47.68659884919739Q31.693455,47.52232284919739,32.226273,47.33167584919739Q32.759094,47.14102884919739,33.281918,46.924467849197384Q33.804741,46.70790784919739,34.316311,46.46594884919739Q34.827881,46.22399784919739,35.326958,45.957236849197386Q35.826038,45.690474849197386,36.311424,45.39954284919739Q36.796814,45.10861084919739,37.267342,44.79421184919739Q37.737869,44.47981584919739,38.192406,44.14270684919739Q38.646942,43.805605849197384,39.084393,43.446604849197385Q39.521839,43.08759984919739,39.941143,42.70756484919739Q40.360447,42.327528849197385,40.760597,41.927374849197385Q41.160751,41.52722484919739,41.540783,41.107920849197384Q41.920822,40.68861684919739,42.279823,40.251170849197386Q42.638828,39.81371984919739,42.975937,39.359183849197386Q43.313042,38.90464684919739,43.627438,38.43411984919739Q43.941833,37.963591849197385,44.232769,37.47820584919739Q44.523697,36.992815849197385,44.790466,36.493735849197385Q45.057224,35.994658849197386,45.299175,35.48308884919739Q45.54113,34.97151884919739,45.75769,34.448695849197385Q45.974251,33.925871849197385,46.164898,33.393053849197386Q46.355545,32.86023284919739,46.519821,32.31870184919739Q46.68409,31.777167849197387,46.821594,31.228226849197387Q46.959095,30.679285849197388,47.069496,30.12425884919739Q47.179901,29.569231849197386,47.262932,29.009459849197388Q47.34597,28.44968484919739,47.401436,27.886511849197387Q47.456905,27.32333684919739,47.484673,26.75811684919739Q47.51244,26.192898849197388,47.51244,25.626997849197387Z" fill="#979797" fill-opacity="1"/></g></g><g><g><path d="M49.935344931167606,25.497878555358888C49.935344931167606,32.17733455535888,47.3696935311676,38.24956955535889,43.1738348311676,42.79553855535889C43.1738348311676,42.79553855535889,40.9582884311676,40.70581555535888,40.9582884311676,40.70581555535888C44.645392131167604,36.70142255535889,46.702292231167604,31.356762555358888,46.893759031167605,25.497878555358888C47.0742848311676,19.978162755358888,44.415632031167604,15.224314655358887,44.415632031167604,15.224314655358887C44.415632031167604,15.224314655358887,47.101640031167605,13.801989555358887,47.101640031167605,13.801989555358887C48.9123690311676,17.308567555358888,49.935344931167606,21.280137055358885,49.935344931167606,25.497878555358888Z" fill="#A9A9A9" fill-opacity="1"/></g><g><path d="M29.00520184601593,0.41028607C29.00520184601593,0.41028607,28.43079984601593,3.3971686,28.43079984601593,3.3971686C27.134296846015932,3.161938,25.79402984601593,3.0415874,24.43187884601593,3.0415874C16.04563484601593,3.0415874,8.73160084601593,7.6367912,4.874912646015931,14.442069C4.874912646015931,14.442069,2.21078884601593,12.981451,2.21078884601593,12.981451C6.5817023460159305,5.2297792,14.89683384601593,0,24.43187884601593,0C25.99096684601593,0,27.52270184601593,0.14223249,29.00520184601593,0.41028607Z" fill="#A9A9A9" fill-opacity="1"/></g><g><path d="M25.15415405860901,50.990224447998045C24.91345205860901,50.995695447998045,24.672753058609008,51.00116744799804,24.43205105860901,51.00116744799804C13.60049805860901,51.00116744799804,4.349914358609009,44.25059344799804,0.6518690586090088,34.73195624799805C0.6518690586090088,34.73195624799805,3.501989558609009,33.65974044799805,3.501989558609009,33.65974044799805C10.542498858609008,49.13026044799805,24.83686705860901,47.95958044799805,25.03927405860901,47.95410944799805C25.03927405860901,47.95410944799805,25.15415405860901,50.990224447998045,25.15415405860901,50.990224447998045Z" fill="#A9A9A9" fill-opacity="1"/></g></g></g></g></svg>