<svg xmlns="http://www.w3.org/2000/svg" xmlns:xlink="http://www.w3.org/1999/xlink" fill="none" version="1.1" width="17.600000381469727" height="17.600000381469727" viewBox="0 0 17.600000381469727 17.600000381469727"><defs><clipPath id="master_svg0_321_78332/321_78058"><rect x="0" y="0" width="17.600000381469727" height="17.600000381469727" rx="0"/></clipPath></defs><g clip-path="url(#master_svg0_321_78332/321_78058)"><g><path d="M8.753409375,16.499609375C4.520879375,16.469409374999998,1.104334005,13.032209375,1.099609375,8.799609375C1.109888675,4.551279375,4.551279375,1.109888375,8.799609375,1.099609375C13.050209375,1.104459475,16.494809375000003,4.549029375,16.499609375,8.799609375C16.499709375000002,13.070309375,13.024009375,16.525209375,8.753409375,16.499609375ZM7.101209375,11.754209375C7.422409375,14.012509375,8.120909375,15.654809375,8.753409375,15.654809375C9.387009375,15.654809375,10.084409375,14.012509375,10.405609375,11.754209375L10.451809375,11.433009375L10.139409375,11.433009375C9.680709375,11.433009375,9.222009375,11.479209375,8.753409375,11.479209375C8.285909375,11.479209375,7.836009375,11.479209375,7.377309375,11.433009375L7.056109375,11.433009375L7.101209375,11.754209375ZM14.966209375,10.460609375C13.867309375,10.933609375,12.704609375,11.242709375,11.516609375,11.378009375L11.314209375,11.378009375L11.314209375,11.580409375C11.180309375,12.766809375,10.871129375,13.926709375,10.396809375,15.022309375L10.148209375,15.553609375L10.699309375,15.388609375C12.901109375,14.724709375,14.624109375,13.002209375,15.288509375,10.800509375L15.453509375,10.250509375L14.967309375,10.460609375L14.966209375,10.460609375ZM2.191909375,10.763109375C2.853129375,12.966509375,4.576749375,14.690609375,6.780009375,15.352309375L7.341009375,15.517309375L7.092409375,14.984909375C6.618159375,13.889609375,6.308999375,12.730109375,6.175009375,11.544109375L6.175009375,11.341709375L5.972609375,11.341709375C4.7832293749999995,11.208809375,3.620249375,10.899639375,2.521909375,10.424309375L2.0170093749999998,10.213109375L2.191909375,10.763109375ZM8.753409375,6.946109375C8.203409375,6.946109375,7.688609375,6.946109375,7.193609375,7.001109375L6.973609375,7.001109375L6.973609375,7.229909375C6.973609375,7.716109375,6.918609375,8.230909375,6.918609375,8.780909375C6.918609375,9.330909375,6.918609375,9.854509375,6.973609375,10.341809375L6.973609375,10.570609375L7.193609375,10.570609375C7.688609375,10.570609375,8.203409375,10.625609375,8.753409375,10.625609375C9.303409375,10.625609375,9.827009375,10.625609375,10.314309375,10.570609375L10.543109375,10.570609375L10.543109375,10.341809375C10.543109375,9.854509375,10.598109375,9.332009375,10.598109375,8.780909375C10.598109375,8.230909375,10.598109375,7.716109375,10.543109375,7.221109375L10.543109375,7.017609375L10.314309375,7.017609375C9.795429375,6.968979375,9.274559375,6.944749375,8.753409375,6.945009375L8.753409375,6.946109375ZM11.405509375,7.422409375L11.405509375,10.496909375L11.726709375,10.451809375C13.985009375,10.130609375,15.627309375,9.433209375,15.627309375,8.799609375C15.627309375,8.166009375,13.947609375,7.459809375,11.709109375,7.147409375L11.387909375,7.147409375L11.405509375,7.422409375ZM5.807609375,7.147409375C3.541609375,7.468609375,1.898209375,8.166009375,1.898209375,8.799609375C1.898209375,9.433209375,3.540509375,10.130609375,5.807609375,10.451809375L6.120009375,10.496909375L6.120009375,10.185609375L6.120009375,8.799609375L6.120009375,7.101209375L5.807609375,7.147409375ZM6.789909375,2.238109375C4.585229375,2.897599375,2.8601593750000003,4.621849375,2.199609375,6.826209375L2.034609375,7.387209375L2.5582093749999997,7.138609375C3.656489375,6.662899375,4.819469375000001,6.353339375,6.008909375,6.220109375L6.210209375,6.220109375L6.210209375,6.018809375C6.343309375,4.829709375,6.652409375,3.665909375,7.127609375,2.5681093749999997L7.376209375,2.044509375L6.788809375,2.238109375L6.789909375,2.238109375ZM10.414409375,2.595609375C10.890709375,3.693409375,11.199809375,4.857209375,11.332909375,6.046309375L11.332909375,6.248709375L11.534209375,6.248709375C12.723309375,6.384009375,13.886009375,6.693109375,14.984909375,7.166109375L15.508509375,7.413609375L15.343509375,6.853709375C14.681809375,4.650449375,12.957709375,2.926829375,10.754309375,2.265609375L10.204309375,2.100609375L10.414409375,2.595609375ZM8.753409375,6.110109375L10.451809375,6.110109375L10.405609375,5.798809375C10.084409375,3.586709375,9.359509375,1.9532093750000001,8.753409375,1.9532093750000001C8.148409375,1.9532093750000001,7.422409375,3.595509375,7.101209375,5.862609375L7.056109375,6.175009375L7.377309375,6.175009375C7.836009375,6.120009375,8.294709375,6.110109375,8.753409375,6.110109375Z" fill="#9E9E9E" fill-opacity="1" style="mix-blend-mode:passthrough"/></g></g></svg>