<svg xmlns="http://www.w3.org/2000/svg" xmlns:xlink="http://www.w3.org/1999/xlink" fill="none" version="1.1" width="20" height="20" viewBox="0 0 20 20"><defs><clipPath id="master_svg0_1243_71475"><rect x="0" y="0" width="20" height="20" rx="0"/></clipPath><linearGradient x1="0.5" y1="0" x2="0.5" y2="1" id="master_svg1_1237_75313"><stop offset="0%" stop-color="#FFFFFF" stop-opacity="1"/><stop offset="39.423078298568726%" stop-color="#2FFFE7" stop-opacity="1"/><stop offset="73.22598099708557%" stop-color="#2FE0FF" stop-opacity="1"/><stop offset="98.80946278572083%" stop-color="#76B8C3" stop-opacity="0.7699999809265137"/></linearGradient></defs><g clip-path="url(#master_svg0_1243_71475)"><g><path d="M11.9999275625,12.972472C12.0024695625,12.59206,11.8113635625,12.221874,11.4626885625,12.069738L7.5577621625,10.365919C7.0176167625,10.130239,6.4034347625,10.253186,5.8836231625,10.530852C4.7296295625,11.147277,3.3223695625,11.168893,2.1299276625,10.538074C0.6489265525,9.7546034,-0.1865498875,8.1309175,0.0368173715,6.4704785C0.0369304755,6.4696374,0.0369692185,6.4693484,0.0370813015,6.4685078C0.2584804025,4.8075385,1.4922565625,3.4608455,3.1276204625,3.0952566C4.3707427625,2.8173544,5.6453099625,3.1512077,6.5838565625,3.9460428C7.1092185625,4.3909612,7.8179597625,4.678823,8.4706325625,4.4597883L9.6737050625,4.0560422C9.6794051625,4.0541291,9.6846980625,4.0523047,9.6903915625,4.0503712C10.2138855625,3.8726101,10.7831975625,4.1537657,10.9595465625,4.6788874C11.1358945625,5.2040091,10.8516775625,5.7717996,10.3270015625,5.9460387C10.3213795625,5.9479041,10.3160165625,5.9496593,10.3104015625,5.9515448L8.6704511625,6.5023232C8.2703828625,6.6366863,8.0222101625,7.0316939,7.9748501625,7.451057C7.9747032625,7.4523616,7.9745550625,7.4536657,7.9744067625,7.4549699C7.9198527625,7.9338574,8.1289396625,8.4328537,8.5707387625,8.6255264L11.8206535625,10.042846C12.4434735625,10.314464,13.1576755625,10.104774,13.7152695625,9.7164831C15.4542125625,8.5055408,17.9491655625,8.8487549,19.2555595625,10.689348C20.7923185625,12.854506,19.8303795625,15.888478,17.3270375625,16.772743C17.3263055625,16.772999,17.3260535625,16.77309,17.3253235625,16.773346C16.0657115625,17.215456,14.6945325625,16.994648,13.6496585625,16.236185C13.1304395625,15.859289,12.4731115625,15.645576,11.8689455625,15.861491L8.9043025625,16.920986C8.3485402625,17.119602,7.9899020625,17.653465,7.7553572625,18.195045C7.1346239625,19.628359,5.4483513625,20.405109,3.8921744625,19.785091C2.0200817625,19.039206,1.4014093625,16.696257,2.6612136625,15.12337C3.6659085625,13.868993,5.4094509625,13.673547,6.6509451625,14.489844C7.2226447625,14.865744,7.9286093625,15.145913,8.5728740625,14.915557L11.4025265625,13.903817C11.7806475625,13.76862,11.9972425625,13.374026,11.9999275625,12.972471M14.9990115625,6.0012136C13.9272005625,6.0020437,12.9364545625,5.4305978,12.4004885625,4.5023665C11.8645265625,3.5741432,11.8649125625,2.4304192,12.4014475625,1.5025769C12.4018145625,1.501941,12.4019205625,1.5017585,12.4022875625,1.5011222C13.1300545625,0.23999035,14.6582835625,-0.31662926,16.0266975625,0.18114038C17.3953705625,0.67900485,18.2088545625,2.0878627,17.9558025625,3.5221231C17.7027965625,4.95612,16.4567065625,6.0014062,15.0006365625,6.0012126C14.9999235625,6.0012131,14.9997265625,6.0012126,14.9990115625,6.0012131" fill="url(#master_svg1_1237_75313)" fill-opacity="1"/></g></g></svg>