<svg xmlns="http://www.w3.org/2000/svg" xmlns:xlink="http://www.w3.org/1999/xlink" fill="none" version="1.1" width="49.935546875" height="51.001953125" viewBox="0 0 49.935546875 51.001953125"><defs><linearGradient x1="0.39365965127944946" y1="-0.007761874236166477" x2="0.5" y2="0.9999999999999999" id="master_svg0_1237_71486"><stop offset="0%" stop-color="#243742" stop-opacity="1"/><stop offset="13.030542433261871%" stop-color="#243742" stop-opacity="1"/><stop offset="100%" stop-color="#243742" stop-opacity="0.6100000143051147"/></linearGradient><linearGradient x1="0.39365965127944946" y1="-0.007761874236166477" x2="0.5000000000000001" y2="0.9999999999999999" id="master_svg1_1237_71483"><stop offset="0%" stop-color="#4990A4" stop-opacity="1"/><stop offset="13.030542433261871%" stop-color="#4990A4" stop-opacity="1"/><stop offset="100%" stop-color="#243742" stop-opacity="0"/></linearGradient><filter id="master_svg2_1274_77594" filterUnits="objectBoundingBox" color-interpolation-filters="sRGB" x="0" y="0" width="1" height="1"><feFlood flood-opacity="0" result="BackgroundImageFix"/><feBlend mode="normal" in="SourceGraphic" in2="BackgroundImageFix" result="shape"/><feGaussianBlur in="BackgroundImageFix" stdDeviation="5"/><feComposite in2="SourceAlpha" operator="in" result="effect1_foregroundBlur"/><feBlend mode="normal" in="SourceGraphic" in2="effect1_foregroundBlur" result="shape"/></filter><mask id="master_svg3_1274_77594" style="mask-type:alpha" maskUnits="objectBoundingBox"><g filter="url(#master_svg2_1274_77594)"><ellipse cx="24.460220336914062" cy="25.62699818611145" rx="24.460220336914062" ry="24.460220336914062" fill="#FFFFFF" fill-opacity="1"/></g></mask><filter id="master_svg4_1274_77595" filterUnits="objectBoundingBox" color-interpolation-filters="sRGB" x="-0.15829783729199481" y="-0.15829783729199481" width="1.3165956745839897" height="1.3165956745839897"><feFlood flood-opacity="0" result="BackgroundImageFix"/><feBlend mode="normal" in="SourceGraphic" in2="BackgroundImageFix" result="shape"/><feGaussianBlur stdDeviation="1.9359999895095825" result="effect1_foregroundBlur"/></filter><linearGradient x1="0.5" y1="0" x2="0.5" y2="1" id="master_svg5_1237_71475"><stop offset="0%" stop-color="#5DCBCF" stop-opacity="1"/><stop offset="100%" stop-color="#528598" stop-opacity="1"/></linearGradient><filter id="master_svg6_1274_77598" filterUnits="objectBoundingBox" color-interpolation-filters="sRGB" x="0" y="0" width="1" height="1"><feFlood flood-opacity="0" result="BackgroundImageFix"/><feBlend mode="normal" in="SourceGraphic" in2="BackgroundImageFix" result="shape"/><feColorMatrix in="SourceAlpha" type="matrix" result="hardAlpha" values="0 0 0 0 0 0 0 0 0 0 0 0 0 0 0 0 0 0 127 0"/><feOffset dy="0" dx="0"/><feGaussianBlur stdDeviation="0.7039999961853027"/><feComposite in2="hardAlpha" operator="arithmetic" k2="-1" k3="1"/><feColorMatrix type="matrix" values="0 0 0 0 0.9624999761581421 0 0 0 0 0.9909999966621399 0 0 0 0 1 0 0 0 0.8799999952316284 0"/><feBlend mode="normal" in2="shape" result="effect1_innerShadow"/></filter><linearGradient x1="0.5174996256828308" y1="-0.21808302402496338" x2="0.5158219744614045" y2="1.0000217910268907" id="master_svg7_1237_71495"><stop offset="0%" stop-color="#52D2EE" stop-opacity="1"/><stop offset="100%" stop-color="#1D8399" stop-opacity="1"/></linearGradient><filter id="master_svg8_1274_77599" filterUnits="objectBoundingBox" color-interpolation-filters="sRGB" x="0" y="0" width="1" height="1"><feFlood flood-opacity="0" result="BackgroundImageFix"/><feBlend mode="normal" in="SourceGraphic" in2="BackgroundImageFix" result="shape"/><feColorMatrix in="SourceAlpha" type="matrix" result="hardAlpha" values="0 0 0 0 0 0 0 0 0 0 0 0 0 0 0 0 0 0 127 0"/><feOffset dy="0" dx="0"/><feGaussianBlur stdDeviation="0.7039999961853027"/><feComposite in2="hardAlpha" operator="arithmetic" k2="-1" k3="1"/><feColorMatrix type="matrix" values="0 0 0 0 0.9624999761581421 0 0 0 0 0.9909999966621399 0 0 0 0 1 0 0 0 0.8799999952316284 0"/><feBlend mode="normal" in2="shape" result="effect1_innerShadow"/></filter><linearGradient x1="1.0031124353408813" y1="-0.0915275514125824" x2="-0.04895338342775198" y2="0.2855805814917366" id="master_svg9_1237_71498"><stop offset="0%" stop-color="#52D2EE" stop-opacity="1"/><stop offset="100%" stop-color="#1D8399" stop-opacity="1"/></linearGradient><filter id="master_svga_1274_77600" filterUnits="objectBoundingBox" color-interpolation-filters="sRGB" x="0" y="0" width="1" height="1"><feFlood flood-opacity="0" result="BackgroundImageFix"/><feBlend mode="normal" in="SourceGraphic" in2="BackgroundImageFix" result="shape"/><feColorMatrix in="SourceAlpha" type="matrix" result="hardAlpha" values="0 0 0 0 0 0 0 0 0 0 0 0 0 0 0 0 0 0 127 0"/><feOffset dy="0" dx="0"/><feGaussianBlur stdDeviation="0.7039999961853027"/><feComposite in2="hardAlpha" operator="arithmetic" k2="-1" k3="1"/><feColorMatrix type="matrix" values="0 0 0 0 0.9624999761581421 0 0 0 0 0.9909999966621399 0 0 0 0 1 0 0 0 0.8799999952316284 0"/><feBlend mode="normal" in2="shape" result="effect1_innerShadow"/></filter><linearGradient x1="0.5" y1="0" x2="0.5" y2="1" id="master_svgb_1237_71490"><stop offset="0%" stop-color="#52D2EE" stop-opacity="1"/><stop offset="100%" stop-color="#1D8399" stop-opacity="1"/></linearGradient></defs><g><g><ellipse cx="24.460220336914062" cy="25.626235961914062" rx="24.460220336914062" ry="24.460220336914062" fill="url(#master_svg0_1237_71486)" fill-opacity="1"/></g><g style="opacity:0.3799999952316284;"><path d="M44.37705975,25.626030375Q44.37705975,26.114967375,44.35306975,26.603313375Q44.32907875,27.091659375,44.28115475,27.578243375Q44.23323075,28.064823375,44.16148775,28.548465375Q44.08974475,29.032108375,43.99435775,29.511650375Q43.89897175,29.991191375,43.78016675,30.465475375Q43.66136975,30.939758375,43.51943975,31.407642375Q43.37750675,31.875522375,43.21278775,32.335876375Q43.04806875,32.796232375,42.86096175,33.247949375000005Q42.67385475,33.699669375,42.46480975,34.141660375Q42.25575975,34.583654374999995,42.02527975,35.014858375Q41.79479575,35.446060375,41.54343375,35.865434375Q41.29206875,36.284809374999995,41.02043175,36.691345375Q40.74879475,37.097879375000005,40.45753475,37.490596374999996Q40.16627475,37.883316375,39.85609775,38.261268375Q39.54592175,38.639221375,39.21757175,39.001499375Q38.88922075,39.363777375,38.54349175,39.709507375Q38.19776175,40.055236375,37.83548375,40.383587375Q37.47320575,40.711937375,37.09525275,41.022117375Q36.71730075,41.332290375,36.324580749999996,41.623550375Q35.931863750000005,41.914810375,35.52532975,42.186447375Q35.118793749999995,42.458084375,34.69941875,42.709449375Q34.28004475,42.960811375,33.84884275,43.191295375Q33.417638749999995,43.421775375,32.975646749999996,43.630825375Q32.53365375,43.839870375,32.081933750000005,44.026977375Q31.63021675,44.214084375,31.16986075,44.378803375Q30.70950675,44.543518375,30.24162675,44.685451375Q29.77374275,44.827381375,29.29945975,44.946182375Q28.82517575,45.064987375,28.34563475,45.160373375Q27.86609275,45.255760375,27.38244975,45.327503375Q26.89880775,45.399246375,26.41222775,45.447174375Q25.92564375,45.495094375,25.43729775,45.519085375Q24.94895175,45.543075375,24.46001475,45.543075375Q23.97107875,45.543075375,23.48273275,45.519085375Q22.99438475,45.495094375,22.50780275,45.447170375Q22.02122075,45.399246375,21.53757675,45.327503375Q21.05393175,45.255760375,20.57439075,45.160373375Q20.09484975,45.064987375,19.62056775,44.946182375Q19.146283750000002,44.827385375,18.67840075,44.685455375Q18.21051775,44.543522375,17.75016175,44.378803375Q17.28980775,44.214084375,16.83808875,44.026977375Q16.386371750000002,43.839870375,15.94437875,43.630825375Q15.50238575,43.421775375,15.07118375,43.191295375Q14.63998075,42.960811375,14.22060585,42.709449375Q13.80123135,42.458084375,13.39469525,42.186447375Q12.98815915,41.914810375,12.59544275,41.623550375Q12.202726349999999,41.332290375,11.82477425,41.022113375Q11.44682125,40.711937375,11.08454325,40.383587375Q10.72226575,40.055236375,10.37653585,39.709507375Q10.03080555,39.363777375,9.70245645,39.001499375Q9.37410735,38.639221375,9.063929550000001,38.261268375Q8.75375175,37.883316375,8.46249295,37.490596374999996Q8.17123415,37.097879375000005,7.89959575,36.691345375Q7.62795735,36.284809374999995,7.37659405,35.865434375Q7.12523075,35.446060375,6.89474795,35.014858375Q6.66426515,34.583654374999995,6.45521805,34.141662374999996Q6.24617095,33.699669375,6.05906335,33.247949375000005Q5.87195565,32.796232375,5.70723805,32.335876375Q5.54252052,31.875522375,5.40058994,31.407642375Q5.2586593,30.939758375,5.1398575300000005,30.465475375Q5.02105579,29.991191375,4.92566913,29.511650375Q4.83028245,29.032108375,4.75854066,28.548465375Q4.68679887,28.064823375,4.638874762,27.578243375Q4.590950653,27.091659375,4.566959701,26.603313375Q4.54296875,26.114967375,4.54296875,25.626030375Q4.54296875,25.137094375,4.566959701,24.648748375Q4.590950653,24.160400375,4.638874762,23.673818375Q4.68679887,23.187236375,4.75854066,22.703592375Q4.83028245,22.219947375,4.92566913,21.740406375Q5.02105579,21.260865375,5.1398575300000005,20.786583375Q5.2586593,20.312299375000002,5.40058994,19.844416375Q5.54252052,19.376533375,5.70723805,18.916177375Q5.87195565,18.455823375,6.05906335,18.004104375Q6.24617095,17.552387375000002,6.45521805,17.110394375Q6.66426515,16.668401375000002,6.89474795,16.237199375Q7.12523075,15.805996375,7.37659405,15.386621475Q7.62795735,14.967246975,7.89959575,14.560710875Q8.17123415,14.154174775,8.46249295,13.761458375Q8.75375175,13.368741974999999,9.063929550000001,12.990789875Q9.37410735,12.612836875,9.70245645,12.250558875Q10.03080555,11.888281375,10.37653585,11.542551475Q10.72226575,11.196821175,11.08454375,10.868472075Q11.44682125,10.540122975,11.82477425,10.229945175000001Q12.202726349999999,9.919767375,12.59544275,9.628508575Q12.98815915,9.337249775,13.39469525,9.065611375Q13.80123135,8.793972974999999,14.22060585,8.542609675Q14.63998075,8.291246375,15.07118275,8.060763575Q15.50238575,7.830280775,15.94437775,7.621233675Q16.386371750000002,7.412186575,16.83808875,7.225078975Q17.28980775,7.037971275,17.75016175,6.873253675Q18.21051775,6.708536145,18.67839975,6.566605565Q19.146282749999997,6.424674925,19.62056775,6.3058731550000005Q20.09484975,6.187071415,20.57439075,6.091684755Q21.05393175,5.996298075,21.53757675,5.924556285Q22.02122075,5.852814495,22.50780275,5.804890387Q22.99438475,5.756966278,23.48273075,5.732975326Q23.97107875,5.708984375,24.46001475,5.708984375Q24.94895175,5.708984375,25.43729775,5.732975326Q25.92564375,5.756966278,26.41222775,5.804890387Q26.89880775,5.852814495,27.38244975,5.924556285Q27.86609275,5.996298075,28.34563475,6.091684755Q28.82517575,6.187071415,29.29945975,6.3058731550000005Q29.77374275,6.424674925,30.24162675,6.566605565Q30.70950675,6.708536145,31.16986075,6.873253675Q31.63021675,7.037971275,32.081933750000005,7.225078975Q32.53365375,7.412186575,32.97564475,7.621233675Q33.417638749999995,7.830280775,33.84884275,8.060763575Q34.28004475,8.291246375,34.69941875,8.542609675Q35.118793749999995,8.793972974999999,35.52532975,9.065611375Q35.931863750000005,9.337249775,36.324580749999996,9.628508575Q36.71730075,9.919767375,37.09525275,10.229945175000001Q37.47320575,10.540122975,37.83548375,10.868472075Q38.19776175,11.196821175,38.54349175,11.542551475Q38.88922075,11.888281375,39.21757175,12.250559375Q39.54592175,12.612836875,39.85610175,12.990789875Q40.16627475,13.368741974999999,40.45753475,13.761458375Q40.74879475,14.154174775,41.02043175,14.560710875Q41.29206875,14.967246975,41.54343375,15.386621475Q41.79479575,15.805996375,42.02527975,16.237198375Q42.25575975,16.668401375000002,42.46480975,17.110393375Q42.67385475,17.552387375000002,42.86096175,18.004104375Q43.04806875,18.455823375,43.21278775,18.916177375Q43.37750275,19.376533375,43.51943575,19.844415375Q43.66136575,20.312298374999997,43.78016675,20.786583375Q43.89897175,21.260865375,43.99435775,21.740406375Q44.08974475,22.219947375,44.16148775,22.703592375Q44.23323075,23.187236375,44.28115875,23.673818375Q44.32907875,24.160400375,44.35306975,24.648746375Q44.37705975,25.137094375,44.37705975,25.626030375ZM42.96905875,25.626030375Q42.96905475,25.171657375,42.94676175,24.717834375Q42.92446875,24.264009375,42.87993275,23.811826375Q42.83539575,23.359642375,42.76872275,22.910188375Q42.70205275,22.460735375,42.61341075,22.015094375Q42.52476475,21.569454375,42.41436375,21.128698375Q42.30395875,20.687944375,42.17206175,20.253137375Q42.04016075,19.818330375000002,41.88708875,19.390520375Q41.73401675,18.962708375,41.56013475,18.542924375Q41.38625375,18.123138375,41.19198575,17.712391375Q40.99771875,17.301645375,40.78353075,16.900925375Q40.56933975,16.500206374999998,40.33574275,16.110477375000002Q40.10214975,15.720750375,39.84971575,15.342954675Q39.59728275,14.965158475,39.32661475,14.600203475Q39.05594675,14.235249475,38.76769975,13.884016075Q38.47944675,13.532781575,38.17431275,13.196114075Q37.86917475,12.859446575,37.54788575,12.538157975Q37.22659675,12.216868375,36.88992675,11.911731275000001Q36.55326075,11.606594075,36.20202875,11.318344074999999Q35.85079175,11.030094175,35.48583575,10.759424675Q35.12087975,10.488756174999999,34.74308575,10.236320475Q34.36528775,9.983884775,33.97556275,9.750291375Q33.585834750000004,9.516697875,33.18511575,9.302508875000001Q32.78439375,9.088319775,32.37364575,8.894050575Q31.96289875,8.699781875,31.54311575,8.525901274999999Q31.12332875,8.352020775,30.69552075,8.198947675Q30.26770975,8.045874575,29.83290475,7.9139775750000005Q29.39809775,7.782080375,28.95734375,7.671677275Q28.51658775,7.561273975,28.07094775,7.472630475Q27.62530675,7.383986975,27.17585575,7.3173168749999995Q26.72640275,7.2506466750000005,26.27421975,7.206110475Q25.82203675,7.1615742749999995,25.36821175,7.139279275Q24.91438675,7.1169843749999995,24.46001475,7.1169843749999995Q24.00564175,7.1169843749999995,23.55181875,7.139279275Q23.09799375,7.1615742749999995,22.64581075,7.206110475Q22.19362675,7.250646575,21.74417275,7.317316775Q21.29471975,7.383986975,20.84907875,7.472630375Q20.40343875,7.561273775,19.96268275,7.671677075Q19.52192875,7.782080375,19.08712175,7.9139775750000005Q18.652314750000002,8.045874575,18.22450475,8.198947875Q17.79669275,8.352020775,17.37690875,8.525901274999999Q16.95712275,8.699781875,16.54637575,8.894050575Q16.13562975,9.088319775,15.73490975,9.302508875000001Q15.33419075,9.516697875,14.94446175,9.750291375Q14.55473475,9.983884775,14.17693905,10.236320475Q13.79914285,10.488756174999999,13.43418785,10.759424675Q13.06923385,11.030094175,12.71800045,11.318344074999999Q12.36676595,11.606594075,12.03009845,11.911731275000001Q11.69343095,12.216868375,11.37214235,12.538157975Q11.05085275,12.859446575,10.745715650000001,13.196113575Q10.44057845,13.532781074999999,10.152328449999999,13.884015075Q9.86407855,14.235248575,9.59340905,14.600203475Q9.322740549999999,14.965158475,9.07030485,15.342954675Q8.81786915,15.720750375,8.58427575,16.110477375000002Q8.35068225,16.500206374999998,8.136493250000001,16.900925375Q7.92230415,17.301645375,7.72803495,17.712391375Q7.53376625,18.123138375,7.35988565,18.542923375Q7.18600515,18.962707375,7.032932049999999,19.390519375Q6.87985895,19.818330375000002,6.7479619500000005,20.253137375Q6.61606475,20.687944375,6.50566165,21.128699375Q6.39525835,21.569454375,6.30661485,22.015094375Q6.21797135,22.460735375,6.1513012499999995,22.910188375Q6.0846310500000005,23.359642375,6.04009485,23.811826375Q5.9955586499999995,24.264009375,5.97326365,24.717834375Q5.9509687499999995,25.171657375,5.9509687499999995,25.626030375Q5.9509687499999995,26.080402375,5.97326365,26.534227375Q5.9955586499999995,26.988050375,6.04009485,27.440233375Q6.08463095,27.892418375,6.15130115,28.341869375Q6.21797135,28.791322375,6.30661475,29.236963375Q6.39525815,29.682602375,6.50566145,30.123357375Q6.61606475,30.564111375,6.7479619500000005,30.998918375Q6.87985895,31.433723375,7.03293225,31.861534375Q7.18600515,32.289344375,7.35988565,32.709129375Q7.53376625,33.128914375,7.72803495,33.539661375Q7.92230415,33.950409375,8.136493250000001,34.351129375Q8.35068225,34.751850375000004,8.58427575,35.141576375Q8.81786915,35.531303375,9.07030485,35.909099375Q9.322740549999999,36.286895375,9.59340905,36.651851375Q9.86407855,37.016807375,10.152328449999999,37.368042375Q10.44057845,37.719276375,10.745715650000001,38.055938375Q11.05085275,38.392608375,11.37214235,38.713897375Q11.69343095,39.035186375,12.03009795,39.340324375Q12.366765449999999,39.645462375,12.71799945,39.933712375Q13.06923295,40.221962375,13.43418785,40.492626375Q13.79914285,40.763298375,14.17693905,41.015731375Q14.55473475,41.268165375,14.94446175,41.501762375Q15.33419075,41.735355375,15.73490975,41.949546375Q16.13562975,42.163734375,16.54637575,42.358001375Q16.95712275,42.552269375,17.37690775,42.726150375Q17.79669175,42.900032375,18.22450375,43.053104375Q18.652314750000002,43.206176375,19.08712175,43.338077375Q19.52192875,43.469974375,19.96268375,43.580379375Q20.40343875,43.690780375,20.84907875,43.779426375Q21.29471975,43.868068375,21.74417275,43.934738375Q22.19362675,44.001411375,22.64581075,44.045948375Q23.09799375,44.090484375,23.55181875,44.112777375Q24.00564175,44.135070375,24.46001475,44.135074375Q24.91438675,44.135070375,25.36821175,44.112777375Q25.82203475,44.090484375,26.27421775,44.045948375Q26.72640275,44.001411375,27.17585375,43.934738375Q27.62530675,43.868068375,28.07094775,43.779426375Q28.51658675,43.690780375,28.95734175,43.580379375Q29.39809575,43.469974375,29.83290275,43.338077375Q30.26770775,43.206176375,30.69551875,43.053104375Q31.12332875,42.900032375,31.54311375,42.726150375Q31.96289875,42.552269375,32.37364575,42.358001375Q32.78439375,42.163734375,33.18511375,41.949546375Q33.585834750000004,41.735355375,33.97556075,41.501758375Q34.36528775,41.268165375,34.74308375,41.015731375Q35.12087975,40.763298375,35.48583575,40.492630375Q35.85079175,40.221962375,36.20202675,39.933715375Q36.55326075,39.645462375,36.88992275,39.340328375Q37.22659275,39.035190375,37.54788175,38.713901375Q37.86917075,38.392612375,38.17430875,38.055942375Q38.47944675,37.719276375,38.76769675,37.368044375Q39.05594675,37.016807375,39.32661075,36.651851375Q39.59728275,36.286895375,39.84971575,35.909101375Q40.10214975,35.531303375,40.33574675,35.141578375Q40.56933975,34.751850375000004,40.78353075,34.351131375Q40.99771875,33.950409375,41.19198575,33.539661375Q41.38625375,33.128914375,41.56013475,32.709131375Q41.73401675,32.289344375,41.88708875,31.861536375Q42.04016075,31.433725375,42.17206175,30.998920375Q42.30395875,30.564113375,42.41436375,30.123359375Q42.52476475,29.682603375,42.61341075,29.236963375Q42.70205275,28.791322375,42.76872275,28.341871375Q42.83539575,27.892418375,42.87993275,27.440235375Q42.92446875,26.988052375,42.94676175,26.534227375Q42.96905475,26.080402375,42.96905875,25.626030375Z" fill="url(#master_svg1_1237_71483)" fill-opacity="1"/></g><g mask="url(#master_svg3_1274_77594)"><g filter="url(#master_svg4_1274_77595)"><ellipse cx="24.460220336914062" cy="25.62699818611145" rx="24.460220336914062" ry="24.460220336914062" fill-opacity="0" stroke-opacity="0.550000011920929" stroke="#65C6D8" fill="none" stroke-width="2.111999988555908"/></g><g><path d="M48.920441,25.626997849197387Q48.920441,26.227461849197386,48.890976,26.827202849197388Q48.861511,27.42694384919739,48.802662,28.024519849197386Q48.743805,28.622092849197386,48.655701,29.21605584919739Q48.567593,29.810021849197387,48.450447,30.398947849197388Q48.333305,30.987875849197387,48.187405,31.570345849197388Q48.041504,32.15281584919739,47.867195,32.72742584919739Q47.692886,33.30203184919739,47.490597,33.86739684919739Q47.288303,34.43276184919739,47.058514,34.98751784919739Q46.828728,35.542273849197386,46.571995,36.08508584919739Q46.315262,36.627898849197386,46.032207,37.157465849197386Q45.749146,37.68702584919739,45.440445,38.20206384919739Q45.131744,38.71710084919739,44.798141,39.21636484919739Q44.464542,39.71563284919739,44.10685,40.19792884919739Q43.749153,40.68022884919739,43.368221,41.14439284919739Q42.987289,41.60855784919739,42.584045,42.05347384919739Q42.180794,42.49838984919739,41.756203,42.92298484919739Q41.331612,43.34757584919739,40.886696,43.75082284919739Q40.44178,44.15407084919739,39.977615,44.53500284919739Q39.513447,44.91593084919739,39.031147,45.27363084919739Q38.548851,45.631323849197386,38.049583,45.96492684919739Q37.550316,46.29852584919739,37.035278,46.60722684919739Q36.520241,46.91592684919739,35.990681,47.19898484919739Q35.461117,47.482039849197385,34.918304,47.73877284919739Q34.375492,47.995505849197386,33.820736,48.22529184919739Q33.26598,48.45508084919739,32.700615,48.65737484919739Q32.13525,48.85966384919739,31.560642,49.03397284919739Q30.986034,49.20827384919739,30.403564,49.35417884919739Q29.821096,49.50007584919739,29.23217,49.61721684919739Q28.643244,49.734366849197386,28.049278,49.82247084919739Q27.455315,49.910578849197385,26.857742,49.96943584919739Q26.260166,50.02828884919739,25.660425,50.05775384919739Q25.060684,50.087218849197384,24.46022,50.087218849197384Q23.859756,50.087218849197384,23.260015,50.05775384919739Q22.660273,50.02828884919739,22.0627,49.969439849197386Q21.465126,49.91058284919739,20.871159,49.82247884919739Q20.277195,49.73437084919739,19.688267,49.617224849197385Q19.09934,49.50008284919739,18.516872,49.354182849197386Q17.934402,49.20828184919739,17.359793,49.03397284919739Q16.785183,48.85966384919739,16.21982,48.65737484919739Q15.654455,48.45508084919739,15.099698,48.22529184919739Q14.544941,47.995505849197386,14.002129,47.73877284919739Q13.459314,47.482039849197385,12.929752,47.19898484919739Q12.400188,46.91592384919739,11.885153,46.607222849197385Q11.370117,46.298521849197385,10.870849,45.96491884919739Q10.37158,45.63131984919739,9.8892832,45.27362784919739Q9.4069862,44.91593084919739,8.9428205,44.534998849197386Q8.4786549,44.154066849197385,8.03374,43.75082284919739Q7.5888247,43.34757184919739,7.1642323,42.92298084919739Q6.7396393,42.49838984919739,6.3363924,42.05347384919739Q5.9331446,41.60855784919739,5.5522141,41.14439284919739Q5.1712832,40.68022484919739,4.8135867,40.197924849197385Q4.4558902,39.71562884919739,4.1222897,39.216360849197386Q3.7886896,38.71709384919739,3.4799888,38.202055849197386Q3.1712885,37.687018849197386,2.8882315,37.15745884919739Q2.6051743,36.62789484919739,2.3484426,36.08508184919739Q2.0917108,35.54226984919739,1.8619231,34.987513849197384Q1.6321352,34.43275784919739,1.4298449,33.86739284919739Q1.2275543,33.30202784919739,1.0532488,32.72741984919739Q0.87894309,32.15281184919739,0.73304206,31.570341849197387Q0.58714104,30.98787384919739,0.46999618,30.398947849197388Q0.35285133,29.810021849197387,0.26474491,29.21605584919739Q0.17663845,28.622092849197386,0.11778263,28.024519849197386Q0.058926802,27.42694384919739,0.029463401,26.827202849197388Q0,26.227461849197386,0,25.626997849197387Q0,25.02653384919739,0.029463401,24.426792849197387Q0.058926802,23.827050849197388,0.11778263,23.229477849197387Q0.17663845,22.63190384919739,0.26474488,22.037936849197386Q0.35285133,21.443972849197387,0.46999618,20.855044849197387Q0.58714104,20.26611784919739,0.733042,19.683649849197387Q0.87894309,19.101179849197386,1.0532488,18.526570849197388Q1.2275543,17.951960849197388,1.4298449,17.386597849197386Q1.6321352,16.821232849197386,1.8619231,16.266475849197388Q2.0917108,15.711718849197387,2.3484426,15.168906849197388Q2.6051743,14.626091849197387,2.8882315,14.096529849197388Q3.1712885,13.566965849197388,3.4799891,13.051930849197388Q3.7886896,12.536894849197388,4.1222897,12.037626849197387Q4.4558902,11.538357849197387,4.8135867,11.056061049197387Q5.1712837,10.573764049197388,5.5522146,10.109598349197388Q5.933145,9.645432749197388,6.3363924,9.200517849197388Q6.7396393,8.755602549197388,7.1642323,8.331010149197388Q7.5888247,7.906417149197388,8.0337391,7.503170249197388Q8.4786549,7.099922449197388,8.9428196,6.718991949197387Q9.4069843,6.338061049197388,9.8892822,5.980364549197388Q10.37158,5.6226680491973875,10.870848,5.289067549197387Q11.370115,4.955467449197387,11.885152,4.646766649197388Q12.400187,4.338066349197388,12.92975,4.0550093491973875Q13.459313,3.7719521491973875,14.002127,3.5152204491973875Q14.544941,3.2584886491973877,15.099697,3.028700949197388Q15.654453,2.7989130491973877,16.219818,2.5966227491973877Q16.785183,2.3943321491973877,17.359793,2.2200266491973877Q17.934402,2.0457209391973876,18.516872,1.8998199091973877Q19.09934,1.7539188891973878,19.688267,1.6367740291973876Q20.277195,1.5196291791973877,20.871161,1.4315227591973878Q21.465126,1.3434162991973877,22.0627,1.2845604791973877Q22.660273,1.2257046511973877,23.260014,1.1962412501973878Q23.859756,1.1667778491973877,24.46022,1.1667778491973877Q25.060684,1.1667778491973877,25.660425,1.1962412501973878Q26.260166,1.2257046511973877,26.857742,1.2845604791973877Q27.455315,1.3434162991973877,28.049278,1.4315227291973878Q28.643244,1.5196291791973877,29.23217,1.6367740291973876Q29.821098,1.7539188891973878,30.403568,1.8998198491973877Q30.986038,2.0457209391973876,31.560648,2.2200266491973877Q32.135254,2.3943321491973877,32.700619,2.5966227491973877Q33.265984,2.7989130491973877,33.82074,3.028700949197388Q34.375496,3.2584886491973877,34.918308,3.5152204491973875Q35.461121,3.7719521491973875,35.990688,4.0550093491973875Q36.520248,4.338066349197388,37.035286,4.646766949197388Q37.550323,4.955467449197387,38.049587,5.289067549197387Q38.548855,5.6226680491973875,39.031151,5.980364549197388Q39.513451,6.338061549197388,39.977615,6.718992449197388Q40.44178,7.099922849197387,40.886696,7.503170249197388Q41.331612,7.906417149197388,41.756207,8.331010149197388Q42.180798,8.755602549197388,42.584045,9.200516949197388Q42.987293,9.645432749197388,43.368225,10.109597449197388Q43.749153,10.573762149197387,44.106853,11.056060049197388Q44.464546,11.538357849197387,44.798149,12.037625849197388Q45.131748,12.536892849197388,45.440449,13.051929849197387Q45.749149,13.566964849197388,46.032207,14.096527849197388Q46.315262,14.626090849197388,46.571995,15.168904849197387Q46.828728,15.711718849197387,47.058514,16.266474849197387Q47.288303,16.821230849197388,47.490597,17.386595849197388Q47.692886,17.951960849197388,47.867195,18.526570849197388Q48.041496,19.101179849197386,48.187401,19.683649849197387Q48.333298,20.26611784919739,48.450439,20.855044849197387Q48.567589,21.443972849197387,48.655693,22.03793884919739Q48.743801,22.63190384919739,48.802658,23.229477849197387Q48.861511,23.827050849197388,48.890976,24.42679184919739Q48.920441,25.02653384919739,48.920441,25.626997849197387ZM47.51244,25.626997849197387Q47.51244,25.061097849197388,47.484673,24.495879849197387Q47.456905,23.930659849197387,47.401436,23.367483849197388Q47.34597,22.804308849197387,47.262932,22.244532849197387Q47.179901,21.684756849197388,47.069496,21.129731849197388Q46.959095,20.57470484919739,46.821594,20.02576384919739Q46.68409,19.476822849197386,46.519821,18.935290849197386Q46.355545,18.393755849197387,46.164898,17.860936849197387Q45.974251,17.32811684919739,45.75769,16.805292849197386Q45.54113,16.282469849197387,45.299171,15.770901849197388Q45.05722,15.259334849197387,44.790459,14.760255849197387Q44.523697,14.261175849197388,44.232765,13.775787849197387Q43.941833,13.290398849197388,43.627434,12.819869849197387Q43.313038,12.349341849197387,42.975929,11.894804849197389Q42.638828,11.440270849197388,42.279827,11.002824049197388Q41.920822,10.565377449197388,41.540787,10.146072649197388Q41.160751,9.726767749197387,40.760597,9.326616549197388Q40.360447,8.926464349197389,39.941143,8.546429349197387Q39.521839,8.166394449197387,39.084393,7.807391449197388Q38.646942,7.448387349197388,38.192406,7.111280649197388Q37.737869,6.774174449197388,37.267342,6.459777149197388Q36.796814,6.1453802491973875,36.311428,5.854449049197387Q35.826038,5.563518749197388,35.326958,5.296755049197388Q34.827881,5.029991149197388,34.316311,4.788037549197387Q33.804741,4.546083949197388,33.281918,4.3295233491973875Q32.759094,4.112962749197388,32.226276,3.9223167491973876Q31.693455,3.731670849197388,31.151924,3.5673987491973875Q30.61039,3.4031264491973876,30.061449,3.265624049197388Q29.512508,3.1281213491973876,28.957481,3.0177197491973877Q28.402454,2.907318149197388,27.842682,2.8242833491973878Q27.282907,2.741248649197388,26.719734,2.6857805491973874Q26.156559,2.6303126491973874,25.591339,2.602545149197388Q25.026121,2.5747778491973876,24.46022,2.5747778491973876Q23.89432,2.5747778491973876,23.329102,2.6025452491973877Q22.763882,2.6303126491973874,22.200706,2.6857806491973877Q21.637531,2.741248649197388,21.077755,2.8242833491973878Q20.517979,2.907318149197388,19.962954,3.0177197491973877Q19.407927,3.1281213491973876,18.858986,3.265624049197388Q18.310045,3.4031264491973876,17.768513,3.5673987491973875Q17.226978,3.731670849197388,16.694159,3.9223167491973876Q16.161339,4.112962749197388,15.638515,4.3295233491973875Q15.115692,4.546083949197388,14.604124,4.788037549197387Q14.092557,5.029990949197387,13.593478,5.296754549197388Q13.094398,5.563518249197387,12.60901,5.854449049197387Q12.123621,6.1453802491973875,11.653092,6.459777149197388Q11.182564,6.774174449197388,10.728027,7.111281149197388Q10.273493,7.448387349197388,9.8360462,7.807390949197388Q9.3985996,8.166393949197388,8.9792948,8.546428949197388Q8.5599899,8.926464349197389,8.1598387,9.326616549197388Q7.7596865,9.726767749197387,7.3796515,10.146072649197388Q6.9996166,10.565377449197388,6.6406136,11.002824049197388Q6.2816095,11.440270849197388,5.9445028,11.894805849197388Q5.6073966,12.349341849197387,5.2929993,12.819869849197387Q4.9786024,13.290398849197388,4.6876712,13.775786849197388Q4.3967409,14.261175849197388,4.1299772,14.760255849197387Q3.8632133,15.259334849197387,3.6212597,15.770901849197388Q3.3793061,16.282469849197387,3.1627455,16.805292849197386Q2.9461849,17.32811684919739,2.7555389,17.860936849197387Q2.564893,18.393755849197387,2.4006209,18.935290849197386Q2.2363486,19.47682484919739,2.0988462,20.025765849197388Q1.9613435,20.574705849197386,1.8509419,21.12973284919739Q1.7405403,21.684759849197388,1.6575055,22.244534849197386Q1.5744708,22.804308849197387,1.5190027,23.367485849197386Q1.4635348,23.930659849197387,1.4357673,24.495879849197387Q1.408,25.061097849197388,1.408,25.626997849197387Q1.408,26.192898849197388,1.4357674,26.75811684919739Q1.4635348,27.32333684919739,1.5190028,27.886511849197387Q1.5744708,28.44968484919739,1.6575055,29.009459849197388Q1.7405403,29.569231849197386,1.8509419,30.12425884919739Q1.9613435,30.679285849197388,2.0988462,31.22822884919739Q2.2363486,31.777167849197387,2.4006209,32.31870184919739Q2.564893,32.86023284919739,2.7555389,33.39305084919739Q2.9461849,33.925871849197385,3.1627455,34.448695849197385Q3.3793061,34.97151884919739,3.6212597,35.48308884919739Q3.8632131,35.994658849197386,4.1299767,36.493735849197385Q4.3967404,36.992815849197385,4.6876712,37.47820184919739Q4.9786024,37.963591849197385,5.2929993,38.43411984919739Q5.6073966,38.90464684919739,5.9445033,39.359183849197386Q6.2816095,39.81371984919739,6.6406131,40.251170849197386Q6.9996161,40.68861684919739,7.3796511,41.107920849197384Q7.7596865,41.52722484919739,8.1598387,41.927374849197385Q8.5599899,42.327528849197385,8.9792948,42.707560849197385Q9.3985996,43.08759984919739,9.8360462,43.44660084919739Q10.273493,43.805605849197384,10.728028,44.14271484919739Q11.182564,44.47981984919739,11.653092,44.794215849197386Q12.123621,45.10861084919739,12.609009,45.399546849197385Q13.094398,45.690474849197386,13.593478,45.95724384919739Q14.092557,46.224001849197386,14.604124,46.465952849197386Q15.115692,46.70790784919739,15.638515,46.924467849197384Q16.161339,47.14102884919739,16.694159,47.33167584919739Q17.226978,47.52232284919739,17.768513,47.68659884919739Q18.310047,47.850867849197385,18.858988,47.988371849197385Q19.407928,48.125872849197386,19.962955,48.23627384919739Q20.517982,48.34667884919739,21.077757,48.42970984919739Q21.637531,48.51274784919739,22.200708,48.568213849197384Q22.763882,48.62367984919739,23.329102,48.65145084919739Q23.89432,48.67921384919739,24.46022,48.679217849197386Q25.026121,48.67921384919739,25.591339,48.65145084919739Q26.156559,48.62367984919739,26.719734,48.568213849197384Q27.282907,48.51274784919739,27.842682,48.42970984919739Q28.402454,48.34667884919739,28.957481,48.23627384919739Q29.512508,48.125872849197386,30.061451,47.988371849197385Q30.61039,47.850867849197385,31.151924,47.68659884919739Q31.693455,47.52232284919739,32.226273,47.33167584919739Q32.759094,47.14102884919739,33.281918,46.924467849197384Q33.804741,46.70790784919739,34.316311,46.46594884919739Q34.827881,46.22399784919739,35.326958,45.957236849197386Q35.826038,45.690474849197386,36.311424,45.39954284919739Q36.796814,45.10861084919739,37.267342,44.79421184919739Q37.737869,44.47981584919739,38.192406,44.14270684919739Q38.646942,43.805605849197384,39.084393,43.446604849197385Q39.521839,43.08759984919739,39.941143,42.70756484919739Q40.360447,42.327528849197385,40.760597,41.927374849197385Q41.160751,41.52722484919739,41.540783,41.107920849197384Q41.920822,40.68861684919739,42.279823,40.251170849197386Q42.638828,39.81371984919739,42.975937,39.359183849197386Q43.313042,38.90464684919739,43.627438,38.43411984919739Q43.941833,37.963591849197385,44.232769,37.47820584919739Q44.523697,36.992815849197385,44.790466,36.493735849197385Q45.057224,35.994658849197386,45.299175,35.48308884919739Q45.54113,34.97151884919739,45.75769,34.448695849197385Q45.974251,33.925871849197385,46.164898,33.393053849197386Q46.355545,32.86023284919739,46.519821,32.31870184919739Q46.68409,31.777167849197387,46.821594,31.228226849197387Q46.959095,30.679285849197388,47.069496,30.12425884919739Q47.179901,29.569231849197386,47.262932,29.009459849197388Q47.34597,28.44968484919739,47.401436,27.886511849197387Q47.456905,27.32333684919739,47.484673,26.75811684919739Q47.51244,26.192898849197388,47.51244,25.626997849197387Z" fill="url(#master_svg5_1237_71475)" fill-opacity="1"/></g></g><g><g filter="url(#master_svg6_1274_77598)"><path d="M49.93556618360901,25.498623375C49.93556618360901,32.178079374999996,47.369914783609005,38.250314375,43.17405608360901,42.796283375C43.17405608360901,42.796283375,40.95850968360901,40.706560374999995,40.95850968360901,40.706560374999995C44.64561338360901,36.702167375,46.70251348360901,31.357507375,46.89398028360901,25.498623375C47.07450608360901,19.978907575,44.41585328360901,15.225059475,44.41585328360901,15.225059475C44.41585328360901,15.225059475,47.10186128360901,13.802734375,47.10186128360901,13.802734375C48.912590283609006,17.309312375,49.93556618360901,21.280881875,49.93556618360901,25.498623375Z" fill="url(#master_svg7_1237_71495)" fill-opacity="1"/></g><g filter="url(#master_svg8_1274_77599)"><path d="M29.004875808609007,0.41028607C29.004875808609007,0.41028607,28.43047380860901,3.3971686,28.43047380860901,3.3971686C27.13397080860901,3.161938,25.79370380860901,3.0415874,24.43155280860901,3.0415874C16.045308808609008,3.0415874,8.731274808609008,7.6367912,4.874586608609009,14.442069C4.874586608609009,14.442069,2.210462808609009,12.981451,2.210462808609009,12.981451C6.581376308609009,5.2297792,14.896507808609009,0,24.43155280860901,0C25.990640808609008,0,27.52237580860901,0.14223249,29.004875808609007,0.41028607Z" fill="url(#master_svg9_1237_71498)" fill-opacity="1"/></g><g filter="url(#master_svga_1274_77600)"><path d="M25.15415405860901,50.99064025C24.91345205860901,50.99611125,24.672753058609008,51.001583249999996,24.43205105860901,51.001583249999996C13.60049805860901,51.001583249999996,4.349914358609009,44.251009249999996,0.6518690586090088,34.73237205C0.6518690586090088,34.73237205,3.501989558609009,33.66015625,3.501989558609009,33.66015625C10.542498858609008,49.13067625,24.83686705860901,47.95999625,25.03927405860901,47.95452525C25.03927405860901,47.95452525,25.15415405860901,50.99064025,25.15415405860901,50.99064025Z" fill="url(#master_svgb_1237_71490)" fill-opacity="1"/></g></g></g></svg>