<svg xmlns="http://www.w3.org/2000/svg" xmlns:xlink="http://www.w3.org/1999/xlink" fill="none" version="1.1" width="45.99890327453613" height="46" viewBox="0 0 45.99890327453613 46"><defs><filter id="master_svg0_1343_68761" filterUnits="objectBoundingBox" color-interpolation-filters="sRGB" x="-0.527885552412175" y="-0.4750733104619113" width="2.0909634767011385" height="2.090909090909091"><feFlood flood-opacity="0" result="BackgroundImageFix"/><feColorMatrix in="SourceAlpha" type="matrix" values="0 0 0 0 0 0 0 0 0 0 0 0 0 0 0 0 0 0 127 0"/><feOffset dy="1.5483871698379517" dx="0.3870967924594879"/><feGaussianBlur stdDeviation="3"/><feColorMatrix type="matrix" values="0 0 0 0 1 0 0 0 0 1 0 0 0 0 1 0 0 0 0.44999998807907104 0"/><feBlend mode="normal" in2="BackgroundImageFix" result="effect1_dropShadow"/><feBlend mode="normal" in="SourceGraphic" in2="effect1_dropShadow" result="shape"/></filter></defs><g filter="url(#master_svg0_1343_68761)"><path d="M19.23196610754051,13.325998930162049C13.421156007540512,15.741500730162048,11.948895577540512,23.29759383016205,16.427774507540512,27.717979830162047C20.906654907540513,32.13836283016205,28.44274120754051,30.566906830162047,30.781648207540513,24.72484883016205L33.11483920754051,24.72484883016205C30.658658207540512,32.59416083016205,20.738105407540512,35.063865830162044,14.879153807540511,29.26458983016205C9.020202707540513,23.46531283016205,11.388213857540512,13.519995130162048,19.23196610754051,10.983382280162049L19.23196610754051,13.325998930162049ZM21.43160590754051,10.516743839162048C28.367387207540514,9.767865300162049,34.23902520754051,15.582444530162048,33.55790820754051,22.52520883016205L21.433177607540514,22.52520883016205L21.433177607540514,10.516744077162048L21.43160590754051,10.516743839162048ZM31.339416207540513,20.330282530162048C30.823379207540512,16.321021930162047,27.64321620754051,13.178439730162047,23.628105207540514,12.710099330162048L23.628105207540514,20.330282530162048L31.339416207540513,20.330282530162048Z" fill="#C9ECFF" fill-opacity="1"/></g></svg>