<svg xmlns="http://www.w3.org/2000/svg" xmlns:xlink="http://www.w3.org/1999/xlink" fill="none" version="1.1" width="46" height="46.17934226989746" viewBox="0 0 46 46.17934226989746"><defs><filter id="master_svg0_1343_68397" filterUnits="objectBoundingBox" color-interpolation-filters="sRGB" x="-0.5278592367063869" y="-0.47123186535370454" width="2.090909090909091" height="2.082087994673025"><feFlood flood-opacity="0" result="BackgroundImageFix"/><feColorMatrix in="SourceAlpha" type="matrix" values="0 0 0 0 0 0 0 0 0 0 0 0 0 0 0 0 0 0 127 0"/><feOffset dy="1.5483871698379517" dx="0.3870967924594879"/><feGaussianBlur stdDeviation="3"/><feColorMatrix type="matrix" values="0 0 0 0 1 0 0 0 0 1 0 0 0 0 1 0 0 0 0.44999998807907104 0"/><feBlend mode="normal" in2="BackgroundImageFix" result="effect1_dropShadow"/><feBlend mode="normal" in="SourceGraphic" in2="effect1_dropShadow" result="shape"/></filter></defs><g filter="url(#master_svg0_1343_68397)"><path d="M22.61299120754051,10.451612830162048C27.25928220754051,10.451613180261969,31.02584620754051,14.218176530162047,31.02584620754051,18.864467030162047C31.02584620754051,21.07628283016205,30.027009207540512,23.18867483016205,28.71307720754051,24.98290683016205L29.31574420754051,24.98290683016205C30.111141207540513,24.98290683016205,30.845353207540512,25.395901830162046,31.262937207540514,26.06280983016205L31.36848020754051,26.25095283016205L33.45028120754051,30.41761283016205C33.92375120754051,31.365289830162048,33.31380220754051,32.495702830162045,32.26177520754051,32.62024883016205L32.082811207540516,32.63095483016205L13.143176807540511,32.63095483016205C12.083158347540513,32.63050483016205,11.344936787540512,31.578146830162048,11.705343469540512,30.58127983016205L11.775705497540512,30.41761283016205L13.857504907540513,26.25095283016205C14.211903207540512,25.54295083016205,14.906289907540511,25.067691830162047,15.694566307540512,24.99361483016205L15.910241707540512,24.982908830162046L16.51290810754051,24.982908830162046C15.198972507540512,23.18867483016205,14.200137507540513,21.07628283016205,14.200137507540513,18.864467030162047C14.200137007540512,14.218176530162047,17.966700207540512,10.451613180261969,22.61299120754051,10.451612830162048ZM26.059203207540513,27.919757830162048L25.54831320754051,28.374050830162048L25.052719207540513,28.78704483016205L24.58312820754051,29.157211830162048L24.14413120754051,29.48148783016205L23.74337220754051,29.756816830162048C23.682571207540512,29.796667830162047,23.621382207540513,29.835929830162048,23.559819207540514,29.874595830162047L23.230954207540513,30.07344483016205L22.95868320754051,30.218757830162048C22.851800207540514,30.279224830162047,22.73455520754051,30.31917183016205,22.61299120754051,30.336540830162047C22.49142720754051,30.319173830162047,22.374182207540514,30.279224830162047,22.26730020754051,30.218761830162048L21.995030207540513,30.07345083016205L21.666163207540514,29.874599830162047L21.28834970754051,29.62527283016205L20.867706907540512,29.32546983016205C20.792320807540513,29.26996883016205,20.71736770754051,29.213880830162047,20.64285430754051,29.157211830162048L20.17326320754051,28.788576830162047L19.67766910754051,28.375581830162048L19.166779607540512,27.919757830162048C18.677995807540512,27.47233283016205,18.209954807540512,27.002761830162047,17.76412780754051,26.51251683016205L15.910241207540512,26.51251683016205C15.671392007540511,26.51238883016205,15.446198307540513,26.623853830162048,15.301456307540512,26.813848830162048L15.224975907540513,26.936218830162048L13.144706507540512,31.10134583016205L32.08433520754051,31.10134583016205L30.00100820754051,26.93468883016205C29.89404220754051,26.721588830162048,29.693815207540514,26.57056883016205,29.459525207540512,26.526283830162047L29.317272207540512,26.51251683016205L27.461855207540513,26.51251683016205C26.996852207540513,27.02493483016205,26.522673207540514,27.49605583016205,26.059203207540513,27.919757830162048ZM22.61299120754051,11.981222730162049C18.81148060754051,11.981222230162048,15.729747407540511,15.062955230162048,15.729747407540511,18.864467030162047C15.729747407540511,21.10381783016205,17.03450450754051,23.54354383016205,19.226434807540514,25.83948783016205C20.03827060754051,26.69095483016205,20.923791507540514,27.468988830162047,21.87265920754051,28.16449583016205L22.27494820754051,28.445943830162047L22.45850020754051,28.56678383016205L22.612990207540513,28.66161983016205L22.767480207540512,28.56678383016205L22.95103320754051,28.445943830162047L23.353320207540513,28.166023830162047C24.302251207540515,27.47003183016205,25.18777520754051,26.69148683016205,25.999545207540514,25.83948783016205C28.191478207540513,23.54354383016205,29.496236207540512,21.10381783016205,29.496236207540512,18.864467030162047C29.49623820754051,15.062956230162047,26.414503207540513,11.981222530162048,22.61299120754051,11.981222730162049ZM22.61299120754051,15.040442330162048C24.72494220754051,15.040442830162048,26.437016207540513,16.75251663016205,26.437016207540513,18.86446793016205C26.437016207540513,20.976418830162046,24.72494220754051,22.688492830162048,22.61299120754051,22.68849183016205C20.501041007540515,22.688492830162048,18.788967207540512,20.976418830162046,18.788967207540512,18.86446793016205C18.788967207540512,16.75251663016205,20.50104010754051,15.040442830162048,22.61299120754051,15.040442330162048ZM22.61299120754051,16.570052530162048C21.34582100754051,16.57005303016205,20.31857640754051,17.59729663016205,20.31857640754051,18.864467030162047C20.31857640754051,20.13163693016205,21.34582100754051,21.15888183016205,22.61299120754051,21.15888183016205C23.88016220754051,21.15888183016205,24.907405207540513,20.13163693016205,24.907405207540513,18.864467030162047C24.907405207540513,17.59729663016205,23.88016220754051,16.57005303016205,22.61299120754051,16.570052530162048Z" fill="#C9ECFF" fill-opacity="1"/></g></svg>