<svg xmlns="http://www.w3.org/2000/svg" xmlns:xlink="http://www.w3.org/1999/xlink" fill="none" version="1.1" width="36" height="36" viewBox="0 0 36 36"><defs><clipPath id="master_svg0_1343_69602"><rect x="0" y="0" width="36" height="36" rx="0"/></clipPath><linearGradient x1="0.5" y1="-0.2163112610578537" x2="0.5" y2="1" id="master_svg1_989_58383"><stop offset="0%" stop-color="#7BD3E5" stop-opacity="1"/><stop offset="100%" stop-color="#FFFFFF" stop-opacity="1"/></linearGradient></defs><g clip-path="url(#master_svg0_1343_69602)"><g><path d="M19.407827,5.33677992L33.454636,11.764981299999999C34.15984,12.087443799999999,34.192989,13.0849752,33.484774,13.3742895L32.038202,14.0493565L32.038202,24.494808C32.038202,25.169872,31.492725,25.748503,30.784508,25.748503C30.109444,25.748503,29.530813,25.203024,29.530813,24.494808L29.530813,15.236751L19.694128,19.865779C18.696596,20.314819,17.572488999999997,20.314819,16.608109,19.865779L2.5311628600000002,13.3742914C1.82294585,13.0518274,1.82294585,12.0573087,2.5311628600000002,11.734844200000001L16.354959,5.33677992C17.31934,4.88773948,18.443447,4.88773948,19.407827,5.33677992ZM7.9979687,18.804983999999997L16.032468,22.406343C17.286161999999997,22.984972,18.732733,22.984972,19.986427,22.406343L27.990789,18.804983999999997L27.990789,26.423592Q26.384491,30.986319,18.027531,30.986319Q9.6705661,30.986319,7.9979687,26.423592L7.9979687,18.804983999999997Z" fill-rule="evenodd" fill="url(#master_svg1_989_58383)" fill-opacity="1"/></g></g></svg>