<svg xmlns="http://www.w3.org/2000/svg" xmlns:xlink="http://www.w3.org/1999/xlink" fill="none" version="1.1" width="36" height="36" viewBox="0 0 36 36"><defs><clipPath id="master_svg0_1343_69616"><rect x="0" y="0" width="36" height="36" rx="0"/></clipPath><linearGradient x1="0.5" y1="-0.2163112610578537" x2="0.5" y2="1" id="master_svg1_989_58383"><stop offset="0%" stop-color="#7BD3E5" stop-opacity="1"/><stop offset="100%" stop-color="#FFFFFF" stop-opacity="1"/></linearGradient></defs><g clip-path="url(#master_svg0_1343_69616)"><g><path d="M4.3304704,13.6721067C3.87415868,13.993051999999999,3.67768091,14.5721788,3.84449542,15.1045332C4.0019875,15.6370068,4.4894619,16.002986999999997,5.0444336,16.004486999999997C5.5994051,16.004486999999997,6.0883799,15.6370068,6.2443717,15.1045332C6.410997399999999,14.5725136,6.2152517,13.9937592,5.7598968,13.6721067L5.7598968,7.4549254000000005L9.1287241,7.4549254000000005L9.1287241,13.1876307C9.125394799999999,13.5855093,9.4448171,13.910969699999999,9.8426871,13.915092900000001L26.14535,13.915092900000001C26.542873,13.910152400000001,26.86182,13.5851765,26.859314,13.1876307L26.859314,7.4549254000000005L32.272535000000005,7.4549254000000005C32.670410000000004,7.450804,32.989832,7.1253413000000005,32.986502,6.72746271C32.989832,6.32958323,32.670406,6.0041205199,32.272535000000005,6L3.71400255,6C3.31613165,6.0041213781,2.9967085621,6.32958406,3.000038621827,6.72746271C2.9975402188,7.1255859,3.31739244,7.4508032,3.71550196,7.4549254000000005L4.3304704,7.4549254000000005L4.3304704,13.6721067ZM12.7900352,21.359209999999997C11.5268173,21.344386,10.5124688,20.312618,10.5191531,19.049331000000002L10.5191531,17.108431C10.5124755,15.8445654,11.52773,14.8125591,12.7915363,14.7985506L32.272535000000005,14.7985506C32.674302999999995,14.7985506,33,15.1242456,33,15.5260124C33,15.9277792,32.674302999999995,16.253474,32.272535000000005,16.253476L31.911057,16.253476L31.911057,19.905787L32.27104,19.905787C32.46303,19.905787,32.646021000000005,19.983783000000003,32.778011,20.120276C32.913005999999996,20.256769,32.988001,20.44126,32.988001,20.63325C32.989674,21.030787,32.670058999999995,21.355091,32.272538999999995,21.359214L12.7915363,21.359214L12.7900352,21.359209999999997ZM5.4449136,29.998766C4.0852536,29.984751,2.9925356884,28.874603,3.000038621827,27.514894L3.000038621827,24.786535C2.9925348302,23.426825,4.0852528,22.316675,5.4449127,22.302664L27.643774,22.302664C28.04554,22.302664,28.371233,22.628357,28.371233,23.030125C28.371233,23.43189,28.04554,23.757587,27.643774,23.757587L27.213297,23.757587L27.213297,28.543842L27.643774,28.543842C28.044985,28.544624,28.369816,28.87009,28.369816,29.271301C28.369816,29.672512,28.044985,29.997978,27.643774,29.998766L5.4449136,29.998766Z" fill="url(#master_svg1_989_58383)" fill-opacity="1"/></g></g></svg>