<svg xmlns="http://www.w3.org/2000/svg" xmlns:xlink="http://www.w3.org/1999/xlink" fill="none" version="1.1" width="36" height="36" viewBox="0 0 36 36"><defs><clipPath id="master_svg0_1615_74763"><rect x="0" y="0" width="36" height="36" rx="0"/></clipPath><linearGradient x1="0.5" y1="-0.2163112610578537" x2="0.5" y2="1" id="master_svg1_989_58383"><stop offset="0%" stop-color="#7BD3E5" stop-opacity="1"/><stop offset="100%" stop-color="#FFFFFF" stop-opacity="1"/></linearGradient></defs><g clip-path="url(#master_svg0_1615_74763)"><g><path d="M30.8590848125,4.6008067C28.7481368125,4.6008067,27.0369868125,6.730032,27.0369868125,9.355011000000001C27.0369868125,11.9205904,28.6750298125,14.0201155,30.7105868125,14.1069295L30.8773608125,14.1092145C32.2572458125,14.1389155,32.2412528125,16.702209500000002,30.8590848125,16.702209500000002L7.9150820125,16.702209500000002C4.6527071125,16.702209500000002,2.0048828125,13.4124195,2.0048828125,9.3550124C2.004882785081861,5.2976027000000006,4.6527068125,2.0078125,7.9150820125,2.0078125L30.8590808125,2.0078125C32.2526718125,2.0078125,32.2526718125,4.6008067,30.8590848125,4.6008067ZM13.4803108125,8.0596557L7.9150820125,8.0596557L7.8168454125,8.0642247C7.2822542125,8.1281924,6.8710308125,8.6879144,6.8710308125,9.355010499999999C6.8710308125,10.0700827,7.3416538125,10.6526489,7.9150820125,10.6526489L13.4803108125,10.6526489L13.5808328125,10.6457958C14.1177068125,10.5818281,14.5220768125,10.0221062,14.5220768125,9.355010499999999C14.5220768125,8.6399379,14.0560238125,8.0596557,13.4803108125,8.0596557ZM5.285534612499999,21.8927665L5.1370370125,21.8904805L5.0045316125,21.8813415C3.7799988124999997,21.7237075,3.7959907125,19.4322755,5.0205240125,19.3020555L5.1553140125,19.2974855L28.0833248125,19.2974855C31.3434158125,19.2974855,33.9843848125,22.5849935,33.9889568125,26.6401175C33.9889568125,30.6975255,31.3457008125,33.9895995,28.0833248125,33.9918865L5.1370373125,33.9918865C3.7480148125,33.9918865,3.7480148125,31.3988935,5.1370373125,31.3988935L5.2855351125,31.3943215C7.3416538125,31.2937985,8.9591336125,29.1965565,8.9591336125,26.6446875C8.9591336125,24.0791095,7.3233766125,21.9795815,5.285534612499999,21.8927665ZM22.5180948125,27.9400385L28.0787548125,27.9400385L28.1815608125,27.9354685C28.7161488125,27.8692165,29.1228068125,27.3117795,29.1228068125,26.6446835C29.1228068125,25.9273265,28.6544668125,25.3470435,28.0787548125,25.3470435L22.5180948125,25.3470435L22.4152888125,25.3538955C21.8806968125,25.4178635,21.4763278125,25.9752995,21.4763278125,26.6423965C21.4763278125,27.3597525,21.9423808125,27.9400365,22.5180948125,27.9400385Z" fill="url(#master_svg1_989_58383)" fill-opacity="1"/></g></g></svg>