<svg xmlns="http://www.w3.org/2000/svg" xmlns:xlink="http://www.w3.org/1999/xlink" fill="none" version="1.1" width="46" height="42.33341979980469" viewBox="0 0 46 42.33341979980469"><defs><filter id="master_svg0_1615_71627" filterUnits="objectBoundingBox" color-interpolation-filters="sRGB" x="-0.5278592367063869" y="-0.5700852838308647" width="2.090909090909091" height="2.3090847349852144"><feFlood flood-opacity="0" result="BackgroundImageFix"/><feColorMatrix in="SourceAlpha" type="matrix" values="0 0 0 0 0 0 0 0 0 0 0 0 0 0 0 0 0 0 127 0"/><feOffset dy="1.5483871698379517" dx="0.3870967924594879"/><feGaussianBlur stdDeviation="3"/><feColorMatrix type="matrix" values="0 0 0 0 1 0 0 0 0 1 0 0 0 0 1 0 0 0 0.44999998807907104 0"/><feBlend mode="normal" in2="BackgroundImageFix" result="effect1_dropShadow"/><feBlend mode="normal" in="SourceGraphic" in2="effect1_dropShadow" result="shape"/></filter></defs><g filter="url(#master_svg0_1615_71627)"><path d="M33.61289720754051,15.951614230162049C33.61289720754051,12.915065930162049,31.151098207540514,10.451617026326849,28.11289920754051,10.451617026326849C26.653645207540514,10.449835229762048,25.25384720754051,11.029686510162048,24.22330020754051,12.062841530162048L22.612077207540512,13.674066230162047L21.001677107540512,12.062841530162048C19.97143900754051,11.02973580016205,18.57191140754051,10.449873519762049,17.112904607540514,10.451617026326849C14.076356307540513,10.451617026326849,11.612907403705313,12.913415830162048,11.612907403705313,15.951614230162049C11.611114592140511,17.410549530162047,12.190989997540512,18.810009330162046,13.224131707540511,19.840112130162048L21.31655270754051,28.250432830162048C22.02935320754051,28.96323383016205,23.196451207540512,28.96323383016205,23.910076207540513,28.250432830162048L25.06837620754051,27.046484830162047L26.439801207540512,28.47180783016205C26.858183207540513,28.88903683016205,27.535293207540512,28.88903683016205,27.953674207540512,28.47180783016205L32.67294620754051,23.564984830162047C33.25484620754051,22.986660830162048,33.61289720754051,22.183660830162047,33.61289720754051,21.29733683016205C33.61289720754051,20.41101203016205,33.25292120754051,19.609112130162046,32.67102020754051,19.028313030162046C33.28638420754051,18.120391730162048,33.614545207540516,17.04842363016205,33.61289720754051,15.951614230162049ZM31.38044920754051,22.265061830162047L27.19632520754051,26.61390883016205L23.040802207540512,22.29448683016205C22.756176207540513,22.00986183016205,22.61290120754051,21.665286830162046,22.61290120754051,21.29733683016205C22.61411420754051,20.53857983016205,23.229145207540512,19.92391813016205,23.98790120754051,19.923161830162048C24.35392620754051,19.923161830162048,24.70042620754051,20.06726113016205,24.960851207540514,20.327137330162046L27.197149207540512,22.55958583016205L29.432348207540514,20.32438693016205C29.687942207540512,20.06710473016205,30.035764207540513,19.92264973016205,30.398422207540513,19.92316283016205C31.162921207540514,19.92316283016205,31.77947220754051,20.53998683016205,31.77947220754051,21.29733783016205C31.781686207540513,21.660383830162047,31.63790320754051,22.009086830162047,31.38044920754051,22.265061830162047ZM31.026798207540512,18.152712730162047C29.977428207540513,17.94148953016205,28.89204020754051,18.27027593016205,28.136274207540513,19.02831213016205L27.19632520754051,19.96798643016205L26.256376207540512,19.02996193016205C25.655147207540512,18.427675130162047,24.838914207540512,18.08946593016205,23.98790120754051,18.09001343016205C22.21745220754051,18.09001343016205,20.77947770754051,19.526887330162047,20.77947770754051,21.29733783016205C20.77947770754051,22.18448683016205,21.13945250754051,22.98666183016205,21.719427207540512,23.56581283016205L23.796502207540513,25.725109830162047L22.61290120754051,26.955184830162047L14.545505807540511,18.569063530162047C13.827756007540511,17.851038830162047,13.446331507540512,16.93088903016205,13.446331507540512,15.95133963016205C13.446331507540512,13.930090330162049,15.091380707540512,12.284766230162049,17.112904607540514,12.284766230162049C18.092454507540513,12.284766230162049,19.01232920754051,12.666190730162048,19.705328507540514,13.358915930162048L22.612078207540513,16.266489430162046L25.519375207540513,13.359190630162049C26.205088207540513,12.669350530162049,27.13831120754051,12.282554230162049,28.11097320754051,12.285041130162048C30.134149207540514,12.285041130162048,31.779470207540513,13.930365430162048,31.779470207540513,15.951614230162049C31.779470207540513,16.759838930162047,31.50749520754051,17.51993833016205,31.026798207540512,18.152712730162047Z" fill="#C9ECFF" fill-opacity="1"/></g></svg>