<svg xmlns="http://www.w3.org/2000/svg" xmlns:xlink="http://www.w3.org/1999/xlink" fill="none" version="1.1" width="46" height="44.44084930419922" viewBox="0 0 46 44.44084930419922"><defs><filter id="master_svg0_1343_69465" filterUnits="objectBoundingBox" color-interpolation-filters="sRGB" x="-0.5278592367063869" y="-0.5113101062789472" width="2.090909090909091" height="2.174119511515092"><feFlood flood-opacity="0" result="BackgroundImageFix"/><feColorMatrix in="SourceAlpha" type="matrix" values="0 0 0 0 0 0 0 0 0 0 0 0 0 0 0 0 0 0 127 0"/><feOffset dy="1.5483871698379517" dx="0.3870967924594879"/><feGaussianBlur stdDeviation="3"/><feColorMatrix type="matrix" values="0 0 0 0 1 0 0 0 0 1 0 0 0 0 1 0 0 0 0.44999998807907104 0"/><feBlend mode="normal" in2="BackgroundImageFix" result="effect1_dropShadow"/><feBlend mode="normal" in="SourceGraphic" in2="effect1_dropShadow" result="shape"/></filter></defs><g filter="url(#master_svg0_1343_69465)"><path d="M27.776277207540513,25.37041083016205C28.34016420754051,26.12762883016205,28.77918820754051,26.96942983016205,29.077241207540514,27.86359083016205C29.383350207540513,28.77788983016205,29.53640520754051,29.736494830162048,29.53640520754051,30.70315583016205L29.53640520754051,30.888431830162048L27.772251207540513,30.888431830162048L27.772251207540513,30.70315583016205C27.772251207540513,30.67898983016205,27.776277207540513,30.654823830162048,27.776277207540513,30.63065583016205C27.780303207540513,30.61051783016205,27.780303207540513,30.594406830162047,27.780303207540513,30.578294830162047C27.780303207540513,26.53040583016205,24.489630207540515,23.23570183016205,20.445766107540514,23.23570183016205C16.40190180754051,23.23972883016205,13.111227407540513,26.53443183016205,13.111227407540513,30.58232383016205C13.111227407540513,30.59440883016205,13.115255207540512,30.610519830162048,13.115255207540512,30.630657830162047C13.119282907540512,30.65482583016205,13.119282907540512,30.678991830162047,13.119282907540512,30.707185830162047L13.119282907540512,30.89246183016205L11.612903207540512,30.89246183016205L11.612903207540512,30.707185830162047C11.612903207540512,28.914835830162048,12.140538897540512,27.18692783016205,13.147477207540511,25.704714830162047C14.073860507540513,24.331251830162046,15.346630207540512,23.25181283016205,16.84495460754051,22.56306683016205C15.688989707540511,21.92265483016205,14.742467507540512,20.93182683016205,14.162470907540513,19.73961203016205C13.526086107540513,18.430593330162047,13.348865007540512,16.92421283016205,13.667057607540512,15.498388130162049C13.985250107540512,14.072563330162048,14.786773007540512,12.78771003016205,15.926627207540513,11.873409830162048C17.062453407540513,10.959109720162049,18.496333207540513,10.455640628962048,19.95437960754051,10.451612830162048C21.38423310754051,10.451612830162048,22.73755720754051,10.910776790162048,23.87338420754051,11.776743630162049C25.00518320754051,12.642710530162049,25.806706207540515,13.830897930162049,26.181286207540513,15.20838963016205C26.555867207540512,16.585881130162047,26.47128520754051,18.01170573016205,25.931566207540513,19.33683623016205C25.44017920754051,20.53307983016205,24.626574207540514,21.53598983016205,23.563247207540513,22.252929830162046C24.348659207540514,22.530844830162046,25.089766207540514,22.917509830162047,25.770456207540512,23.40083983016205C26.53975720754051,23.948613830162046,27.21239220754051,24.60916583016205,27.776277207540513,25.37041083016205ZM19.95035130754051,21.741404830162047C22.616724207540514,21.741404830162047,24.78365620754051,19.574473730162048,24.78365620754051,16.90810093016205C24.78365620754051,14.241727230162049,22.616724207540514,12.07479613016205,19.95035130754051,12.07479613016205C17.283979007540513,12.07479613016205,15.117047607540512,14.241727230162049,15.117047607540512,16.90810053016205C15.117047607540512,19.574472830162048,17.283979007540513,21.741404830162047,19.95035130754051,21.741404830162047ZM30.14903620754051,20.927345830162047C32.08235920754051,21.87789483016205,33.39540620754051,23.762883830162046,33.61290320754051,25.921758830162048L33.608877207540516,25.941898830162046L33.608877207540516,26.127174830162048L31.945415207540513,26.127174830162048L31.92930420754051,25.96203683016205C31.687639207540514,23.56552383016205,29.68987220754051,21.757061830162048,27.281276207540515,21.757061830162048C26.967111207540512,21.757061830162048,26.64489120754051,21.789284830162046,26.32669820754051,21.857756830162046L25.734618207540514,21.982616830162048L26.157532207540513,21.547618830162047C26.50391820754051,21.19317783016205,26.801973207540513,20.794428830162047,27.04766520754051,20.36748733016205L27.104054207540514,20.26679363016205L27.22086020754051,20.27484933016205C27.249053207540513,20.27484933016205,27.277249207540514,20.27887763016205,27.305443207540513,20.28290403016205C27.345721207540514,20.28693333016205,27.37794320754051,20.29095973016205,27.40613720754051,20.29095973016205C28.167383207540514,20.29095973016205,28.880294207540512,19.99693433016205,29.420013207540514,19.457215630162047C29.959733207540513,18.91749613016205,30.25375920754051,18.20055613016205,30.25375920754051,17.439310930162048C30.25375920754051,16.67806473016205,29.959733207540513,15.965152630162049,29.420013207540514,15.42543353016205C28.88432320754051,14.889742730162048,28.167383207540514,14.591689030162048,27.40613720754051,14.591689030162048C27.381971207540513,14.591689030162048,27.353776207540513,14.595716830162047,27.321555207540513,14.599744630162048C27.28933220754051,14.603772530162049,27.253083207540513,14.611827730162048,27.21683320754051,14.611827730162048L27.104056207540513,14.615855530162047L27.047667207540513,14.519189730162047C26.822112207540513,14.132525330162048,26.55628020754051,13.770027530162048,26.254199207540513,13.443779630162048L26.04072820754051,13.21016993016205L26.35086520754051,13.137670130162048C26.721418207540513,13.049059530162047,27.063776207540513,13.004754230162048,27.406136207540513,13.004754230162048C28.364742207540512,13.004754230162048,29.27501420754051,13.306835730162048,30.044315207540514,13.874748830162048C30.81361520754051,14.442661630162048,31.365419207540512,15.228073430162048,31.647361207540513,16.142373930162048C31.925275207540512,17.06070223016205,31.905137207540513,18.01930753016205,31.586944207540512,18.921523430162047C31.30500220754051,19.719019330162048,30.809589207540512,20.407765730162048,30.14903620754051,20.927345830162047Z" fill-rule="evenodd" fill="#C9ECFF" fill-opacity="1"/></g></svg>