<svg xmlns="http://www.w3.org/2000/svg" xmlns:xlink="http://www.w3.org/1999/xlink" fill="none" version="1.1" width="41.41666793823242" height="46" viewBox="0 0 41.41666793823242 46"><defs><filter id="master_svg0_1615_71639" filterUnits="objectBoundingBox" color-interpolation-filters="sRGB" x="-0.666769513475554" y="-0.4750733104619113" width="2.3779903300169196" height="2.090909090909091"><feFlood flood-opacity="0" result="BackgroundImageFix"/><feColorMatrix in="SourceAlpha" type="matrix" values="0 0 0 0 0 0 0 0 0 0 0 0 0 0 0 0 0 0 127 0"/><feOffset dy="1.5483871698379517" dx="0.3870967924594879"/><feGaussianBlur stdDeviation="3"/><feColorMatrix type="matrix" values="0 0 0 0 1 0 0 0 0 1 0 0 0 0 1 0 0 0 0.44999998807907104 0"/><feBlend mode="normal" in2="BackgroundImageFix" result="effect1_dropShadow"/><feBlend mode="normal" in="SourceGraphic" in2="effect1_dropShadow" result="shape"/></filter></defs><g filter="url(#master_svg0_1615_71639)"><path d="M29.029571207540513,27.093238830162047L29.029571207540513,10.451612830162048L15.416152807540513,10.451612830162048L15.287819707540512,10.453904461862049C13.258319907540512,10.520362831162048,11.612903207540512,12.16394613016205,11.612903207540512,14.17923793016205L11.612903207540512,29.489404830162048L11.615194734440513,29.603071830162047C11.676153078540512,31.18661383016205,13.012653207540513,32.45161283016205,14.629653307540512,32.45161283016205L29.029571207540513,32.45161283016205L29.029571207540513,31.121070830162047L14.629652807540513,31.121070830162047L14.532944807540511,31.118320830162048C13.639194607540512,31.06973683016205,12.928778107540513,30.348779830162048,12.928778107540513,29.489404830162048L12.928778107540513,28.72398783016205L12.931986507540511,28.63232283016205C12.981944907540512,27.783945830162047,13.722611507540512,27.093238830162047,14.629653307540512,27.093238830162047L29.029571207540513,27.093238830162047ZM14.362903207540512,12.105872030162049C13.580805307540512,12.485239430162048,13.032579707540512,13.257074930162048,12.990653107540512,14.146237930162048L12.987903007540512,14.254862930162048L12.987903007540512,26.366320830162046L13.017694607540513,26.346612830162048C13.421376907540512,26.07900483016205,13.883105407540512,25.91389783016205,14.362903207540512,25.86415183016205L14.362903207540512,12.105872030162049ZM15.737903207540512,11.855946230162049L15.737903207540512,25.84829283016205L27.654571207540513,25.84702883016205L27.654571207540513,11.855946230162049L15.737903207540512,11.855946230162049ZM29.029571207540513,30.111276830162048L29.029571207540513,28.70694383016205L14.362903207540512,28.70694383016205L14.362903207540512,30.111276830162048L29.029571207540513,30.111276830162048Z" fill-rule="evenodd" fill="#C9ECFF" fill-opacity="1"/></g></svg>