<svg xmlns="http://www.w3.org/2000/svg" xmlns:xlink="http://www.w3.org/1999/xlink" fill="none" version="1.1" width="16" height="16" viewBox="0 0 16 16"><defs><clipPath id="master_svg0_176_21760"><rect x="0" y="0" width="16" height="16" rx="0"/></clipPath></defs><g clip-path="url(#master_svg0_176_21760)"><g><path d="M13.223996362304687,11.552015625C13.351996362304687,11.544015625,13.487996362304688,11.584015625,13.591996362304688,11.648015625C13.143996362304687,11.360015625,12.863996362304688,10.864015625,12.871996362304687,10.320015625L12.871996362304687,7.224015625C12.871996362304687,4.9440156250000005,11.223996362304687,3.040015625,9.015996362304687,2.576015625L9.015996362304687,2.464015625C9.015996362304687,1.888015625,8.543996362304688,1.416015625,7.967996362304688,1.416015625C7.391996362304687,1.416015625,6.9200063623046875,1.888015625,6.9200063623046875,2.464015625L6.9200063623046875,2.576015625C4.703996362304688,3.040015625,3.0479963623046875,4.936015625,3.0479963623046875,7.224015625L3.0479963623046875,10.336015625C3.0479963623046875,10.896015625,2.7600003623046874,11.384015625,2.3200003623046874,11.664015625C2.4320003623046875,11.592015625,2.5600003623046876,11.560015625,2.6880003623046873,11.568015625C2.3040003623046874,11.552015625,1.9760002623046875,11.856015625,1.9600001523046875,12.240015625C1.9440000623046876,12.624015625,2.2480003623046874,12.952015625,2.6320003623046873,12.968015625L13.199996362304688,12.968015625C13.583996362304687,12.968015625,13.903996362304687,12.656015625,13.903996362304687,12.272015625C13.919996362304687,11.872015625,13.607996362304688,11.552015625,13.223996362304687,11.552015625ZM7.959996362304688,15.408015625C8.927996362304688,15.408015625,9.711996362304689,14.624015625,9.711996362304689,13.656015625L6.207996362304687,13.656015625C6.207996362304687,14.624015625,6.991996362304688,15.408015625,7.959996362304688,15.408015625ZM12.271996362304687,2.2960146249999998C12.127996362304687,2.2720146249999997,11.991996362304688,2.368014625,11.959996362304688,2.512015625C11.927996362304688,2.656015625,12.031996362304687,2.792015625,12.175996362304687,2.824015625C13.087996362304688,2.984015625,13.687996362304688,3.848015625,13.527996362304687,4.760015624999999C13.503996362304688,4.9040156249999995,13.599996362304687,5.0400156250000006,13.743996362304687,5.072015625000001C13.887996362304687,5.104015625000001,14.023996362304688,5.000015625,14.055996362304688,4.8560156249999995C14.263996362304688,3.648015625,13.463996362304687,2.512015625,12.271996362304687,2.2960146249999998Z" fill="#FFFFFF" fill-opacity="1" style="mix-blend-mode:passthrough"/></g><g><path d="M12.775981372070312,0.6960582725C12.631981372070312,0.6720582125,12.495981372070313,0.7680582125,12.463981372070313,0.9120578125000001C12.439981372070312,1.0560578125,12.535981372070312,1.1920578124999999,12.679981372070312,1.2240578125C14.271981372070313,1.5040578125000001,15.343981372070312,3.0240628125,15.055981372070313,4.6240628125C15.031981372070312,4.7680628125,15.127981372070312,4.9040628125,15.271981372070313,4.9360628125C15.415981372070313,4.9600628125,15.551981372070312,4.8640628125,15.583981372070312,4.7200628125C15.919981372070312,2.8240628125,14.663981372070312,1.0240578125,12.775981372070312,0.6960582725ZM3.5920013720703126,2.2960628124999998C3.5840013720703126,2.2960628124999998,3.5840013720703126,2.2960628124999998,3.5920013720703126,2.2960628124999998C2.3920003720703127,2.5040628125,1.5920003720703124,3.6480628125,1.8080004720703124,4.8480628125C1.8320004720703125,4.9920528125,1.9760003720703125,5.0880628125,2.1200003720703124,5.0640628125C2.2640003720703126,5.0400628125,2.3600003720703127,4.8960628125,2.3360003720703126,4.7520628125C2.1760003720703125,3.8400628125,2.7840013720703123,2.9760628125,3.688001372070312,2.8160628125C3.8320013720703123,2.7920628125,3.9280013720703124,2.6480628125,3.9040013720703124,2.5040628125C3.8720013720703124,2.3680628125,3.7360013720703122,2.2720628124999998,3.5920013720703126,2.2960628124999998Z" fill="#FFFFFF" fill-opacity="1" style="mix-blend-mode:passthrough"/></g><g><path d="M3.0800022094726565,0.6960670425C1.1920012094726562,1.0240668125,-0.06399879052734375,2.8240628125,0.26400090947265625,4.7120628125C0.2880009094726562,4.8560628125,0.42400120947265624,4.9520628125,0.5760012094726563,4.9280628125C0.7200012094726562,4.9040628125,0.8160012094726562,4.7680628125,0.7920012094726563,4.6160628125C0.5120012094726563,3.0240628125,1.5760022094726562,1.4960668125,3.168002209472656,1.2160668125C3.3120022094726562,1.1920668125,3.4080022094726563,1.0560668125000001,3.3840022094726563,0.9040668125C3.3600022094726563,0.7680672125,3.224002209472656,0.6720672125,3.0800022094726565,0.6960670425Z" fill="#FFFFFF" fill-opacity="1" style="mix-blend-mode:passthrough"/></g></g></svg>