<svg xmlns="http://www.w3.org/2000/svg" xmlns:xlink="http://www.w3.org/1999/xlink" fill="none" version="1.1" width="20" height="20" viewBox="0 0 20 20"><defs><clipPath id="master_svg0_416_27160"><rect x="0" y="0" width="20" height="20" rx="0"/></clipPath></defs><g clip-path="url(#master_svg0_416_27160)"><g><path d="M16.510326562499998,10.22851L14.1898265625,10.17865L14.1898265625,4.868869999999999L10.6832265625,3.0449200000000003L10.6832265625,2.488185C10.6832265625,2.201506,10.487956562499999,2,10.2054265625,2C9.924986562499999,2,9.7276265625,2.201506,9.7276265625,2.488185L9.7276265625,3.0449200000000003L6.2210065624999995,4.868869999999999L6.2210065624999995,10.17865L3.8237095625,10.17865C3.5951975625,10.17865,3.3874595625,10.2846,3.2399645625,10.47364C3.1070123625,10.64814,3.0322265625,10.87873,3.0322265625,11.12179L3.0322265625,18L17.3807265625,18L17.3807265625,11.12179C17.3807265625,10.62945,16.990126562500002,10.22851,16.510326562499998,10.22851ZM16.5040265625,11.05323L16.5040265625,17.1254L14.1898265625,17.1254L14.1898265625,13.8639C14.1898265625,13.5419,14.0132265625,13.3259,13.7515265625,13.3259C13.4897265625,13.3259,13.3132265625,13.5419,13.3132265625,13.8639L13.3132265625,17.1254L10.6437565625,17.1254L10.6396065625,7.5383C10.6396065625,7.2537,10.4609465625,7.05635,10.2054265625,7.05635C9.9499065625,7.05635,9.7712565625,7.2537,9.7712565625,7.5383L9.7671065625,17.1254L7.0976665625,17.1254L7.0935065625,13.9055C7.0935065625,13.623,6.9148565625,13.4235,6.6593365625,13.4235C6.403816562499999,13.4235,6.2251665625,13.6209,6.2251665625,13.9055L6.2210065624999995,17.1254L3.9068045625,17.1254L3.9068045625,11.05323L7.0976665625,11.05323L7.0976665625,5.325889999999999L10.2054265625,3.87588L13.3132265625,5.325889999999999L13.3132265625,11.05323L16.5040265625,11.05323Z" fill="#9E9E9E" fill-opacity="1" style="mix-blend-mode:passthrough"/></g></g></svg>