<svg xmlns="http://www.w3.org/2000/svg" xmlns:xlink="http://www.w3.org/1999/xlink" fill="none" version="1.1" width="42" height="40.87606239318848" viewBox="0 0 42 40.87606239318848"><defs><filter id="master_svg0_1624_73521" filterUnits="objectBoundingBox" color-interpolation-filters="sRGB" x="-0.6451612893078063" y="-0.6193158443394078" width="2.3333333333333335" height="2.4221326895358533"><feFlood flood-opacity="0" result="BackgroundImageFix"/><feColorMatrix in="SourceAlpha" type="matrix" values="0 0 0 0 0 0 0 0 0 0 0 0 0 0 0 0 0 0 127 0"/><feOffset dy="1.5483871698379517" dx="0.3870967924594879"/><feGaussianBlur stdDeviation="3"/><feColorMatrix type="matrix" values="0 0 0 0 1 0 0 0 0 1 0 0 0 0 1 0 0 0 0.44999998807907104 0"/><feBlend mode="normal" in2="BackgroundImageFix" result="effect1_dropShadow"/><feBlend mode="normal" in="SourceGraphic" in2="effect1_dropShadow" result="shape"/></filter></defs><g filter="url(#master_svg0_1624_73521)"><path d="M13.517986307540513,25.079475830162046L19.52534920754051,25.079475830162046C19.83651310754051,25.079475830162046,20.08734850754051,25.330311830162046,20.08734850754051,25.63830183016205C20.08734850754051,25.94946383016205,19.83651310754051,26.20030083016205,19.52534920754051,26.20030083016205L13.517986307540513,26.20030083016205C12.467015717540512,26.20030083016205,11.612903207540512,25.346189830162047,11.612903207540512,24.29521883016205L11.612903207540512,13.480694930162048C11.612903207540512,12.429724330162049,12.467015717540512,11.575612230162049,13.517986307540513,11.575612230162049L14.991250807540512,11.575612230162049L14.991250807540512,10.451612830162048L16.115249707540514,10.451612830162048L16.115249707540514,11.575612230162049L22.862419207540512,11.575612230162049L22.862419207540512,10.451612830162048L23.986419207540514,10.451612830162048L23.986419207540514,11.578786730162049L25.456509207540513,11.578786730162049C26.50748020754051,11.578786730162049,27.361591207540513,12.432899230162048,27.361591207540513,13.483870430162048L27.361591207540513,17.20195763016205L12.736902607540513,17.20195763016205L12.736902607540513,24.29839283016205C12.736902607540513,24.73021083016205,13.086167807540512,25.079475830162046,13.517986307540513,25.079475830162046ZM13.521161407540513,12.702786130162048C13.089342807540511,12.702786130162048,12.740077107540513,13.052051430162049,12.740077107540513,13.483870430162048L12.740077107540513,16.077958930162048L26.24076620754051,16.077958930162048L26.24076420754051,13.483870430162048C26.24076420754051,13.052051430162049,25.89150020754051,12.702786130162048,25.459681207540513,12.702786130162048L23.989593207540512,12.702786130162048L23.989593207540512,14.391960230162049L22.865593207540513,14.391960230162049L22.865593207540513,12.702786130162048L16.115249707540514,12.702786130162048L16.115249707540514,14.391960230162049L14.991250607540511,14.391960230162049L14.991250607540511,12.702786130162048L13.521161407540513,12.702786130162048ZM28.29520420754051,19.64701303016205C27.444267207540513,18.79607613016205,26.317091207540514,18.32932983016205,25.113715207540512,18.32932983016205C23.910338207540512,18.32932983016205,22.779988207540512,18.796075230162046,21.932226207540513,19.64701303016205C21.081289907540512,20.49794983016205,20.61454450754051,21.62512483016205,20.61454450754051,22.828501830162047C20.61454450754051,24.03188083016205,21.081289907540512,25.162229830162048,21.932226207540513,26.00998983016205C22.78316320754051,26.860927830162048,23.910338207540512,27.32767483016205,25.113715207540512,27.32767483016205C26.317091207540514,27.32767483016205,27.44744220754051,26.860927830162048,28.29520420754051,26.00998983016205C29.146140207540512,25.159053830162048,29.612886207540512,24.03188083016205,29.612886207540512,22.828501830162047C29.616062207540512,21.62512483016205,29.14614220754051,20.49477483016205,28.29520420754051,19.64701303016205ZM14.426300807540512,18.891291930162048L18.36347350754051,18.891291930162048L18.363473007540513,20.01529063016205L14.426300407540513,20.01529063016205L14.426300807540512,18.891291930162048ZM25.113715207540512,26.203675830162048C23.253083207540513,26.203675830162048,21.73854220754051,24.689134830162047,21.73854220754051,22.828501830162047C21.73854220754051,20.96787083016205,23.253083207540513,19.453330430162048,25.113715207540512,19.453330430162048C26.97434720754051,19.453330430162048,28.488885207540513,20.96787083016205,28.488885207540513,22.828501830162047C28.488885207540513,24.68913283016205,26.977521207540512,26.203675830162048,25.113715207540512,26.203675830162048ZM25.675863207540512,20.57717683016205L24.55186420754051,20.57717683016205L24.55186420754051,23.390349830162048L27.365036207540513,23.390349830162048L27.365036207540513,22.26634983016205L25.675863207540512,22.26634983016205L25.675863207540512,20.57717683016205ZM14.426300407540513,22.26511183016205L18.363473007540513,22.26511183016205L18.363473007540513,23.389110830162046L14.426300807540512,23.389110830162046L14.426300407540513,22.26511183016205Z" fill-rule="evenodd" fill="#C9ECFF" fill-opacity="1"/></g></svg>