<svg xmlns="http://www.w3.org/2000/svg" xmlns:xlink="http://www.w3.org/1999/xlink" fill="none" version="1.1" width="20" height="20" viewBox="0 0 20 20"><defs><clipPath id="master_svg0_1163_66019/1163_63676"><rect x="0" y="0" width="20" height="20" rx="0"/></clipPath></defs><g clip-path="url(#master_svg0_1163_66019/1163_63676)"><g><path d="M16.458176,10.9271879L16.458176,9.0724998C17.928801999999997,8.606874900000001,18.559425,6.9209375,17.804425000000002,5.625C17.044425,4.321562500000001,15.25755,4.029999999999999,14.11755,5.0562501L12.496613,4.1287498C12.824115,2.63375,11.6666136,1.25,10.156301,1.25C8.6391139,1.25,7.488801,2.6421875,7.8153634,4.1290627L6.1950507,5.0562501C5.0563009,4.03125,3.268801,4.3200002,2.5081758499999998,5.625C1.7525508699999999,6.921875,2.38473836,8.6071877,3.8544257,9.072812599999999L3.8544257,10.9271879C2.38380089,11.393126,1.75317591,13.079062,2.5081758499999998,14.375C3.2691134,15.680313,5.0559881,15.969376,6.1950507,14.944063L7.815989,15.871562C7.4884887,17.365625,8.6459885,18.75,10.156301,18.75C11.6672392,18.75,12.823802,17.365313,12.496302,15.871249L14.117239,14.94375C15.256614,15.969687,17.043799999999997,15.679062,17.804112,14.375C18.559736,13.078125,17.92755,11.392813,16.457863,10.9271879L16.458176,10.9271879ZM14.996302,5.5478125C15.698801,5.1456249,16.595988,5.3840623,17.001615,6.0809374C17.406302,6.7756248,17.165051,7.6674995,16.464114000000002,8.0687499C14.771615,9.0374999,13.327865,6.5012498,14.996302,5.5478125ZM10.156301,2.16468757C10.966301,2.16468757,11.6250515,2.8196877000000002,11.6250515,3.6243751C11.6250515,4.4409378,10.9553633,5.0837502,10.156301,5.0837502C9.3706765,5.0837502,8.687551,4.4515626,8.687551,3.6243751C8.687551,2.8196877000000002,9.3463016,2.16468775,10.156301,2.16468757ZM3.3109884000000003,6.0812502C3.7192656,5.3833365,4.6140783,5.145436,5.3150511,5.5484376C7.0088015,6.5178123,5.5125511,9.0243754,3.848176,8.0703125C3.14687884,7.6722612,2.90531904,6.7783504,3.310676,6.0812502L3.3109884000000003,6.0812502ZM5.3138011,14.452188C4.612947,14.854998,3.7183756,14.616771,3.310676,13.91875C2.90572262,13.221695,3.14721817,12.328161,3.848176,11.93C5.5138009,10.9746885,7.013176,13.479375,5.3138011,14.451876L5.3138011,14.452188ZM10.156301,17.835312C9.3463016,17.835312,8.687551,17.180312,8.687551,16.375312C8.687551,15.558749,9.3575511,14.916249,10.156301,14.916249C10.9519262,14.916249,11.6250515,15.555938,11.6250515,16.375625C11.6250515,17.180312,10.966301,17.834999,10.156301,17.834999L10.156301,17.835312ZM13.388488,13.692187L11.7678633,14.619687C10.8510838,13.796724,9.4615173,13.796724,8.544738299999999,14.619687L6.9241128,13.692187C7.1866126,12.488438,6.4816127,11.298438,5.3125503,10.9268751L5.3125503,9.0731254C6.4891129,8.6984382,7.1853633,7.5059381,6.9241128,6.3075004L8.544738299999999,5.3803134C9.4612985,6.2038493,10.8513041,6.2038493,11.7678633,5.3803134L13.388488,6.3078132C13.126301,7.5090632,13.8288,8.7006259,14.999738,9.0731263L14.999738,10.9268761C13.809739,11.305939,13.130988,12.507502,13.388488,13.692502L13.388488,13.692187ZM17.010675,13.923125C16.605051,14.618751,15.704425,14.866875,14.9913,14.45875C13.298488,13.492188,14.780363,10.9568739,16.469424,11.923125C17.175362,12.327188,17.418174999999998,13.224062,17.010675,13.923125ZM9.9347382,12.238125C10.2831202,12.435424,10.4031315,12.879354,10.2016134,13.225313C9.998096499999999,13.571367,9.554027099999999,13.689247,9.2056756,13.489688L7.5813003,12.560626C7.233108,12.363334,7.113122,11.919639,7.3144259,11.57375C7.5178475,11.227397,7.9621735,11.1093473,8.3106761,11.309063L9.9347382,12.238125ZM12.730989,7.4390626C13.079181,7.6363549,13.199166,8.0800486,12.997863,8.4259377C12.794337,8.772178199999999,12.350036,8.8900828,12.0016127,8.6903129L10.3775511,7.7612505C10.0293579,7.5639582,9.9093719,7.1202636,10.1106758,6.7743754C10.3141928,6.4283218,10.7582617,6.310442,11.1066132,6.5099998L12.730989,7.4390626Z" fill="#9E9E9E" fill-opacity="1" style="mix-blend-mode:passthrough"/></g></g></svg>