<svg xmlns="http://www.w3.org/2000/svg" xmlns:xlink="http://www.w3.org/1999/xlink" fill="none" version="1.1" width="36" height="36" viewBox="0 0 36 36"><defs><clipPath id="master_svg0_1173_68863"><rect x="0" y="0" width="36" height="36" rx="0"/></clipPath><linearGradient x1="0.5" y1="-0.2163112610578537" x2="0.5" y2="1" id="master_svg1_989_58383"><stop offset="0%" stop-color="#7BD3E5" stop-opacity="1"/><stop offset="100%" stop-color="#FFFFFF" stop-opacity="1"/></linearGradient></defs><g clip-path="url(#master_svg0_1173_68863)"><g><path d="M34.200001,33.11984675L14.22,33.11984675C9.3600006,31.13984475,7.0200005,25.73984575,9,20.87984475C9.54,19.61984475,10.26,18.53984475,11.34,17.45984475L12.06,17.45984475C12.42,17.45984475,12.960001,17.45984475,13.320001,17.27984475L19.08,23.21984475C19.26,23.39984475,19.620001,23.57984575,19.800001,23.57984575C20.16,23.57984575,20.34,23.39984475,20.52,23.21984475L26.460001,17.27984475C26.820002,16.91984375,26.820002,16.19984475,26.460001,15.65984475L12.42,1.79984375C12.06,1.25984385,11.34,1.25984385,10.98,1.79984375L4.8600001,7.73984385C4.5,8.09984395,4.5,8.81984425,4.8600001,9.35984425L8.8200006,13.13984375C8.6400003,13.31984375,8.6400003,13.85984375,8.6400003,14.21984375C8.6400003,14.93984375,8.8200006,15.65984475,9.3600006,16.37984475C4.8600001,21.05984475,5.04,28.25984575,9.7200003,32.75984575C9.9000006,32.93984575,10.08,32.93984575,10.08,33.11984675L1.08,33.11984675C0.54000002,33.11984675,0,33.47984675,0,34.19984475C0,34.73984575,0.54000002,35.27984575,1.08,35.27984575L34.200001,35.27984575C34.740002,35.27984575,35.280003,34.73984575,35.280003,34.19984475C35.280003,33.65984375,34.740002,33.11984675,34.200001,33.11984675ZM11.88,15.47984375C11.160001,15.47984375,10.8,14.93984375,10.8,14.39984375C10.8,13.67984375,11.34,13.31984375,11.88,13.31984375C12.6,13.31984375,12.960001,13.85984375,12.960001,14.39984375C12.960001,14.93984375,12.42,15.47984375,11.88,15.47984375ZM11.700001,4.13984395L24.120001,16.55984475L19.620001,21.05984475L14.76,15.83984475C15.120001,15.29984475,15.3,14.75984475,15.3,14.21984375C15.3,12.41984475,13.860001,10.79984375,11.88,10.79984375C11.34,10.79984375,10.8,10.97984375,10.26,11.33984375L7.2000003,8.45984365L11.700001,4.13984395ZM3.4200001,5.21984385C3.0600002,4.85984375,3.0600002,4.13984395,3.4200001,3.59984395L6.6600003,0.35984376C7.0200005,-0.00015625399999999456,7.7400002,-0.00015625399999999456,8.2800007,0.35984376C8.6400003,0.71984375,8.6400003,1.43984375,8.2800007,1.79984375L5.04,5.21984385C4.8600001,5.39984415,4.5,5.57984395,4.3200002,5.57984395C3.96,5.57984395,3.7800002,5.39984415,3.4200001,5.21984385ZM19.08,26.63984475L29.700001,16.01984375C30.060001,15.65984475,30.780001,15.65984475,31.320002,16.01984375C31.68,16.37984475,31.68,17.09984375,31.320002,17.63984475L20.700001,28.25984575C20.52,28.43984375,20.16,28.61984475,19.980001,28.61984475C19.620001,28.61984475,19.440001,28.43984375,19.26,28.25984575C18.720001,27.71984475,18.720001,26.99984575,19.08,26.63984475Z" fill="url(#master_svg1_989_58383)" fill-opacity="1"/></g></g></svg>