<svg xmlns="http://www.w3.org/2000/svg" xmlns:xlink="http://www.w3.org/1999/xlink" fill="none" version="1.1" width="42" height="40.94117546081543" viewBox="0 0 42 40.94117546081543"><defs><filter id="master_svg0_1624_73531" filterUnits="objectBoundingBox" color-interpolation-filters="sRGB" x="-0.6451612893078063" y="-0.6169355163303988" width="2.3333333333333335" height="2.416666751106585"><feFlood flood-opacity="0" result="BackgroundImageFix"/><feColorMatrix in="SourceAlpha" type="matrix" values="0 0 0 0 0 0 0 0 0 0 0 0 0 0 0 0 0 0 127 0"/><feOffset dy="1.5483871698379517" dx="0.3870967924594879"/><feGaussianBlur stdDeviation="3"/><feColorMatrix type="matrix" values="0 0 0 0 1 0 0 0 0 1 0 0 0 0 1 0 0 0 0.44999998807907104 0"/><feBlend mode="normal" in2="BackgroundImageFix" result="effect1_dropShadow"/><feBlend mode="normal" in="SourceGraphic" in2="effect1_dropShadow" result="shape"/></filter></defs><g filter="url(#master_svg0_1624_73531)"><path d="M26.96584520754051,10.451612830162048C27.783914207540512,10.451652453648048,28.46813320754051,11.073086080162048,28.546668207540513,11.887377630162048L28.554078207540513,12.03984813016205L28.554078207540513,12.660318730162048C29.188575207540513,12.884645830162048,29.61280820754051,13.484510530162048,29.612903207540512,14.157495630162048L29.612903207540512,25.80455383016205C29.612903207540512,26.681711830162048,28.90182420754051,27.39278783016205,28.024667207540514,27.39278783016205L13.201138607540512,27.39278783016205C12.323980477540513,27.39278783016205,11.612903480179172,26.681711830162048,11.612903434739392,25.80455383016205L11.612903434739392,14.157495630162048C11.612550822090512,13.48412243016205,12.036865267540511,12.883717130162049,12.671726907540512,12.659260130162048L12.671726907540512,12.03984813016205C12.671766107540511,11.221777800162048,13.293199607540512,10.537559442162049,14.107491607540512,10.459024603062048L14.259962207540513,10.451612830162048L26.96584520754051,10.451612830162048ZM28.024669207540512,13.628083630162049L13.201138607540512,13.628083630162049C12.908752807540512,13.628082830162048,12.671726907540512,13.865109130162049,12.671726907540512,14.157495630162048L12.671726907540512,25.80455383016205C12.671726907540512,26.09693983016205,12.908752507540513,26.333964830162046,13.201138607540512,26.333964830162046L28.024667207540514,26.333964830162046C28.31705420754051,26.333964830162046,28.554078207540513,26.09693983016205,28.554078207540513,25.80455383016205L28.554078207540513,14.157495630162048C28.554078207540513,13.865109130162049,28.31705420754051,13.628083630162049,28.024669207540512,13.628083630162049ZM22.854434207540514,14.951612830162048C23.075447207540513,15.07974423016205,23.173435207540514,15.34742863016205,23.08737520754051,15.587965830162048L23.048199207540513,15.67478933016205L21.783963207540513,17.863377430162046L23.78937420754051,17.863377430162046C24.081760207540512,17.863377430162046,24.318785207540515,18.100403230162048,24.318785207540515,18.39278973016205C24.318785207540515,18.68517623016205,24.081760207540512,18.92220153016205,23.78937420754051,18.92220153016205L21.142315507540513,18.92220153016205L21.142315507540513,21.03984883016205L23.78937420754051,21.03984883016205C24.082044207540513,21.039444830162047,24.319517207540514,21.27658783016205,24.319517207540514,21.569259830162046C24.319517207540514,21.86193083016205,24.082044207540513,22.09907583016205,23.78937420754051,22.09867083016205L21.142315507540513,22.09867083016205L21.142315507540513,24.745730830162046C21.142315507540513,25.038116830162046,20.90529020754051,25.27514183016205,20.61290420754051,25.27514183016205C20.32051710754051,25.27514183016205,20.083491907540512,25.038116830162046,20.083491907540512,24.745730830162046L20.083491907540512,22.09867083016205L17.43643240754051,22.09867083016205C17.14404640754051,22.09867083016205,16.90702070754051,21.861645830162047,16.90702070754051,21.569259830162046C16.90702070754051,21.27687283016205,17.14404640754051,21.039847830162046,17.43643240754051,21.039847830162046L20.083491907540512,21.039847830162046L20.083491907540512,18.922200530162048L17.43643240754051,18.922200530162048C17.14404640754051,18.922200530162048,16.90702070754051,18.685175330162046,16.90702070754051,18.39278973016205C16.90702070754051,18.100403230162048,17.14404640754051,17.863377430162046,17.43643240754051,17.863377430162046L19.49372730754051,17.863377430162046L18.23055080754051,15.67478933016205C18.08196840754051,15.421367530162048,18.168133807540514,15.095428330162047,18.422542207540513,14.948542030162049C18.67695050754051,14.801654230162049,19.00230750754051,14.889994030162049,19.147492007540514,15.145377530162047L20.63831580754051,17.72890653016205L22.13125620754051,15.145376530162048C22.27745420754051,14.892176030162048,22.601226207540513,14.80542603016205,22.854434207540514,14.951612830162048ZM26.96584520754051,11.510436530162048L14.259962207540513,11.510436530162048C14.004264207540512,11.510351330162049,13.785046407540513,11.693032930162047,13.739020907540512,11.944554330162049L13.730550607540511,12.03984813016205L13.730550607540511,12.569259530162048L27.49525720754051,12.569259530162048L27.49525720754051,12.03984813016205C27.495341207540513,11.784150530162048,27.31266020754051,11.564932630162048,27.061139207540513,11.518906830162049L26.96584520754051,11.510436530162048Z" fill="#C9ECFF" fill-opacity="1"/></g></svg>