<svg xmlns="http://www.w3.org/2000/svg" xmlns:xlink="http://www.w3.org/1999/xlink" fill="none" version="1.1" width="42" height="41.38712501525879" viewBox="0 0 42 41.38712501525879"><defs><filter id="master_svg0_1624_73072" filterUnits="objectBoundingBox" color-interpolation-filters="sRGB" x="-0.6451612893078063" y="-0.6011121919805491" width="2.3333333333333335" height="2.380331709752924"><feFlood flood-opacity="0" result="BackgroundImageFix"/><feColorMatrix in="SourceAlpha" type="matrix" values="0 0 0 0 0 0 0 0 0 0 0 0 0 0 0 0 0 0 127 0"/><feOffset dy="1.5483871698379517" dx="0.3870967924594879"/><feGaussianBlur stdDeviation="3"/><feColorMatrix type="matrix" values="0 0 0 0 1 0 0 0 0 1 0 0 0 0 1 0 0 0 0.44999998807907104 0"/><feBlend mode="normal" in2="BackgroundImageFix" result="effect1_dropShadow"/><feBlend mode="normal" in="SourceGraphic" in2="effect1_dropShadow" result="shape"/></filter></defs><g filter="url(#master_svg0_1624_73072)"><path d="M24.64765520754051,27.83564783016205C21.904019207540514,27.83678883016205,19.679045307540513,25.61335183016205,19.678287107540513,22.86971383016205C19.67790750754051,20.12569943016205,21.90195820754051,17.90103283016205,24.645595207540513,17.90103283016205C27.388852207540513,17.900652730162047,29.612903207540512,20.124703730162047,29.612903207540512,22.86833983016205C29.612903207540512,25.611707830162047,27.389886207540513,27.835645830162047,24.64765520754051,27.83564783016205ZM24.64765520754051,19.143115430162048C22.58975720754051,19.142925630162047,20.92140160754051,20.810819830162046,20.92140160754051,22.86833983016205C20.92121080754051,24.925668830162046,22.58910720754051,26.593563830162047,24.64662520754051,26.593563830162047C26.70395320754051,26.59375183016205,28.371848207540513,24.925857830162048,28.371848207540513,22.86833983016205C28.37241720754051,20.811121830162048,26.704873207540512,19.143115430162048,24.64765520754051,19.143115430162048ZM26.501513207540512,23.799388830162048L24.338679207540512,23.799388830162048C23.99739320754051,23.799388830162048,23.720726207540512,23.52272083016205,23.720726207540512,23.181434830162047L23.720726207540512,21.31933783016205C23.720726207540512,20.97663183016205,23.998546207540514,20.69881183016205,24.34125320754051,20.69881183016205C24.68395920754051,20.69881183016205,24.961780207540514,20.97663183016205,24.961780207540514,21.31933783016205L24.961780207540514,22.55524383016205L26.50666220754051,22.55524383016205C26.849999207540513,22.55754783016205,27.12655020754051,22.837578830162048,27.124561207540513,23.18091783016205C27.122570207540512,23.524255830162048,26.84279320754051,23.801064830162048,26.499452207540514,23.799388830162048L26.501513207540512,23.799388830162048ZM15.960271907540513,19.764157630162046L17.20132650754051,19.764157630162046C17.544035507540514,19.764157630162046,17.82185420754051,20.041977330162048,17.82185420754051,20.38468583016205C17.82185420754051,20.72739183016205,17.544035507540514,21.005212830162048,17.20132650754051,21.005212830162048L15.957182507540512,21.005212830162048C15.614474407540513,21.005212830162048,15.336654707540513,20.72739183016205,15.336654707540513,20.38468583016205C15.336654707540513,20.041977330162048,15.614474407540513,19.764157630162046,15.957182507540512,19.764157630162046L15.960271907540513,19.764157630162046ZM15.960271907540513,14.795819630162049L22.161427207540513,14.795819630162049C22.50441920754051,14.795820130162049,22.78246920754051,15.073869630162047,22.78246920754051,15.41686193016205C22.78246920754051,15.759854230162048,22.50441920754051,16.037904630162046,22.161427207540513,16.03790363016205L15.957182507540512,16.03790363016205C15.614189707540511,16.037904630162046,15.336140007540513,15.759854230162048,15.336140007540513,15.41686193016205C15.336140007540513,15.073869630162047,15.614189707540511,14.795820130162049,15.957182507540512,14.795819630162049L15.960271907540513,14.795819630162049ZM25.89179920754051,16.569342930162048C25.55051320754051,16.569342930162048,25.27384620754051,16.29267633016205,25.27384620754051,15.951390630162049L25.27384620754051,12.411552430162049C25.286550207540515,12.024258130162048,24.98147020754051,11.700687930162049,24.594097207540514,11.690607830162048L13.533778207540513,11.690607830162048C13.146406307540513,11.700687130162049,12.841325207540512,12.024258130162048,12.854030507540513,12.411552430162049L12.854030507540513,25.88085683016205C12.844233707540512,26.26616683016205,13.148478407540512,26.58654583016205,13.533778207540513,26.59665183016205L19.06136430754051,26.59665183016205C19.404356607540514,26.59665183016205,19.682406007540514,26.87470083016205,19.682406007540514,27.217695830162047C19.682406007540514,27.56068883016205,19.404356607540514,27.83873783016205,19.06136430754051,27.83873783016205L13.533778207540513,27.83873783016205C12.463335187540512,27.827980830162048,11.603829971540511,26.952344830162048,11.612975515716512,25.881885830162048L11.612975515716512,12.408462530162048C11.603830236940512,11.338004170162048,12.463335547540511,10.462368803162049,13.533778207540513,10.451612830162048L24.588949207540512,10.451612830162048C25.659391207540512,10.462369470162049,26.518897207540512,11.338004950162048,26.509753207540513,12.408462530162048L26.509753207540513,15.948301230162048C26.51147320754051,16.292004030162047,26.23241320754051,16.57106623016205,25.88870920754051,16.569342930162048L25.89179920754051,16.569342930162048Z" fill="#C9ECFF" fill-opacity="1"/></g></svg>