<svg xmlns="http://www.w3.org/2000/svg" xmlns:xlink="http://www.w3.org/1999/xlink" fill="none" version="1.1" width="36" height="36" viewBox="0 0 36 36"><defs><clipPath id="master_svg0_1173_68873"><rect x="0" y="0" width="36" height="36" rx="0"/></clipPath><linearGradient x1="0.5" y1="-0.2163112610578537" x2="0.5" y2="1" id="master_svg1_195_39079"><stop offset="0%" stop-color="#7BD3E5" stop-opacity="1"/><stop offset="100%" stop-color="#FFFFFF" stop-opacity="1"/></linearGradient></defs><g clip-path="url(#master_svg0_1173_68873)"><g><path d="M28,5L30,5C32.200002999999995,5,34,6.7999991,34,8.9999998L34,29C34,31.200003,32.200002999999995,33.000004000000004,30,33.000004000000004L28,33.000004000000004C25.800001,33.000004000000004,24.000004,31.200003,24.000004,29L24.000004,9.000000499999999C24.000004,6.8000001,25.800001,5,28,5ZM7.6000001,6.5999994L17.600001,5.39999944C20.000002,5.19999972,22.000002,6.9999999,22.000002,9.4000001L22.000002,28.599998C22.000002,31,20.000002,32.800001,17.600001,32.600002L7.6000001,31.400002C5.6000004,31.200001,4,29.4,4,27.4L4,10.5999999C4,8.5999992,5.6000004,6.7999991,7.6000001,6.5999994ZM31.4,30.4C31.800001,30.000004,31.999998,29.600002,31.999998,29L31.999998,8.9999998C31.999998,8.399999600000001,31.799995,8,31.4,7.5999999C31,7.1999996,30.600002,6.9999999,30,6.9999999L28,6.9999999C27.400002,6.9999999,27.000004,7.2000005,26.600002,7.5999999C26.200003,7.999999,26.000004,8.399999600000001,26.000004,8.9999998L26.000004,29C26.000004,29.600002,26.200005,29.999998,26.600002,30.4C27,30.800001,27.400002,31,28,31L30,31C30.600002,31,30.999998,30.799999,31.4,30.4ZM19.400002,29.999998C19.799999,29.600002,20.000002,29.200001,20.000002,28.599998L20.000002,9.400001C20.000002,8.8000009,19.799999,8.4000006,19.400002,7.8000007C19.000002000000002,7.4000001,18.400002,7.4000001,17.800002,7.4000001L7.800000900000001,8.600000099999999C7.4000006,8.600000099999999,7.000001,8.8000009,6.6000008999999995,9.2000003C6.2000005,9.5999994,6.0000007,10,6.0000007,10.5999999L6.0000007,27.4C6.0000007,28,6.2000005,28.400002,6.6000008999999995,28.599998Q6.9000006,29.200001,7.800000900000001,29.200001L17.800002,30.4C18.400002,30.599998,19.000002000000002,30.399998,19.400002,29.999998ZM12.0000782,18.000313L16.000078000000002,18.000313C16.600078,18.000313,17.000076,18.400312,17.000076,19.000313C17.000076,19.600313,16.600078,20.000312,16.000078000000002,20.000312L12.0000782,20.000312C11.4000778,20.000312,11.0000782,19.600313,11.0000782,19.000313C11.0000782,18.400312,11.4000778,18.000313,12.0000782,18.000313Z" fill-rule="evenodd" fill="url(#master_svg1_195_39079)" fill-opacity="1"/></g></g></svg>