<svg xmlns="http://www.w3.org/2000/svg" xmlns:xlink="http://www.w3.org/1999/xlink" fill="none" version="1.1" width="24"
     height="24" viewBox="0 0 24 24">
    <defs>
        <clipPath id="master_svg0_170_21521">
            <rect x="0" y="0" width="24" height="24" rx="0"/>
        </clipPath>
    </defs>
    <g clip-path="url(#master_svg0_170_21521)">
        <g>
            <path d="M16.41464921875,9.246632734375L4.07850921875,9.246632734375L10.07739921875,3.9144527343749997C10.36776921875,3.656360734375,10.39393921875,3.211774734375,10.13581921875,2.921403734375C9.87772921875,2.631104234375,9.43321921875,2.604841834375,9.14282921875,2.862978734375L1.79094321875,9.397802734375C1.62780621875,9.526622734375,1.52294921875,9.726022734375,1.52294921875,9.950032734375C1.52294921875,9.950342734374999,1.52297325135,9.950652734375,1.52297325135,9.950962734375C1.52297325135,9.951252734375,1.52294921875,9.951562734374999,1.52294921875,9.951852734374999C1.52294921875,9.962952734375001,1.52330902075,9.974032734375001,1.52383659375,9.985092734375C1.52386062675,9.985482734375001,1.52386062675,9.985862734375,1.52386062675,9.986242734375C1.53307041875,10.174472734375,1.61744511875,10.351762734375,1.75904521875,10.477552734375L9.14279921875,17.040702734375C9.27679921875,17.159902734375002,9.44362921875,17.218402734374997,9.60980921875,17.218402734374997C9.80373921875,17.218402734374997,9.99685921875,17.138602734375,10.13579921875,16.982302734375C10.39388921875,16.692002734375002,10.36774921875,16.247302734374998,10.07737921875,15.989302734375L4.074359218750001,10.653372734375L16.41464921875,10.653372734375C18.97444921875,10.653372734375,21.05704921875,12.735902734375,21.05704921875,15.295802734375C21.05704921875,17.855602734374997,18.97444921875,19.938102734375,16.41464921875,19.938102734375L8.30420921875,19.938202734375C7.91573921875,19.938202734375,7.60080921875,20.253102734375,7.60080921875,20.641502734375C7.60080921875,21.030002734375,7.91573921875,21.344902734375,8.30420921875,21.344902734375L16.41464921875,21.344902734375C19.75024921875,21.344902734375,22.46384921875,18.631302734374998,22.46384921875,15.295802734375C22.46384921875,11.960252734375,19.75014921875,9.246632734375,16.41464921875,9.246632734375Z"
                  fill="#D6D6D6" fill-opacity="1" style="mix-blend-mode:passthrough"/>
        </g>
    </g>
</svg>