<svg xmlns="http://www.w3.org/2000/svg" xmlns:xlink="http://www.w3.org/1999/xlink" fill="none" version="1.1" width="58.099609375" height="55.19921875" viewBox="0 0 58.099609375 55.19921875"><defs><radialGradient cx="0" cy="0" r="1" gradientUnits="userSpaceOnUse" id="master_svg0_1480_71107" gradientTransform="translate(43.60854344047516 3.345456953391917) rotate(106.65687472793104) scale(54.12573690042745 103.03648354488689)"><stop offset="0%" stop-color="#1BF2E4" stop-opacity="1"/><stop offset="100%" stop-color="#1BF2E4" stop-opacity="0.2800000011920929"/></radialGradient><filter id="master_svg1_1480_71003" filterUnits="objectBoundingBox" color-interpolation-filters="sRGB" x="-2.2083333250549106" y="-2.2083333250549106" width="5.416666650109821" height="5.416666650109821"><feFlood flood-opacity="0" result="BackgroundImageFix"/><feColorMatrix in="SourceAlpha" type="matrix" values="0 0 0 0 0 0 0 0 0 0 0 0 0 0 0 0 0 0 127 0"/><feMorphology radius="0.5" operator="dilate" in="SourceAlpha" result="effect1_dropShadow"/><feOffset dy="0" dx="0"/><feGaussianBlur stdDeviation="1.2000000476837158"/><feColorMatrix type="matrix" values="0 0 0 0 0.10687500238418579 0 0 0 0 0.4947125315666199 0 0 0 0 0.949999988079071 0 0 0 0.75 0"/><feBlend mode="normal" in2="BackgroundImageFix" result="effect1_dropShadow"/><feBlend mode="normal" in="SourceGraphic" in2="effect1_dropShadow" result="shape"/></filter></defs><g><g><path d="M27.6,55.200001C28.26272,55.200001,28.800001,54.66272,28.800001,54C28.800001,53.33728,28.26272,52.799999,27.6,52.799999C27.6,52.799999,27.6,55.200001,27.6,55.200001C27.6,55.200001,27.6,55.200001,27.6,55.200001ZM49.853603,15.764481C50.165359,16.349279,50.892162,16.570721,51.477039,16.258961C52.06184,15.9472,52.283283,15.2204,51.971523,14.63552C51.971523,14.63552,49.853603,15.764481,49.853603,15.764481C49.853603,15.764481,49.853603,15.764481,49.853603,15.764481ZM27.6,52.799999C13.682401,52.799999,2.4000001,41.517601,2.4000001,27.6C2.4000001,27.6,0,27.6,0,27.6C0,42.84304,12.35696,55.200001,27.6,55.200001C27.6,55.200001,27.6,52.799999,27.6,52.799999C27.6,52.799999,27.6,52.799999,27.6,52.799999ZM2.4000001,27.6C2.4000001,13.682401,13.682401,2.4000001,27.6,2.4000001C27.6,2.4000001,27.6,0,27.6,0C12.35696,0,0,12.35696,0,27.6C0,27.6,2.4000001,27.6,2.4000001,27.6C2.4000001,27.6,2.4000001,27.6,2.4000001,27.6ZM27.6,2.4000001C37.237759,2.4000001,45.613762,7.8099761,49.853603,15.764481C49.853603,15.764481,51.971523,14.63552,51.971523,14.63552C47.33136,5.9299121,38.159119,0,27.6,0C27.6,0,27.6,2.4000001,27.6,2.4000001C27.6,2.4000001,27.6,2.4000001,27.6,2.4000001Z" fill="url(#master_svg0_1480_71107)" fill-opacity="1"/></g><g filter="url(#master_svg1_1480_71003)"><ellipse cx="52.799609422683716" cy="18.399218797683716" rx="1.2000000476837158" ry="1.2000000476837158" fill="#FFFFFF" fill-opacity="0.8700000047683716"/></g></g></svg>