<svg xmlns="http://www.w3.org/2000/svg" xmlns:xlink="http://www.w3.org/1999/xlink" fill="none" version="1.1" width="17.600004196166992" height="17.600004196166992" viewBox="0 0 17.600004196166992 17.600004196166992"><defs><clipPath id="master_svg0_192_39252/182_36945"><rect x="0" y="0" width="17.600004196166992" height="17.600004196166992" rx="0"/></clipPath></defs><g clip-path="url(#master_svg0_192_39252/182_36945)"><g><path d="M17.30333359375,5.8666365625C17.24283359375,5.7456765625,17.12193359375,5.6851865625,17.06143359375,5.6247065625L9.56178359375,0.2418915625C9.13841359375,-0.1209950375,8.53360359375,-0.1209950375,8.04975359375,0.2418915625L0.61057759375,5.3223065625C0.30817259375,5.5037465625,0.12672899375000002,5.8666365625,0.06624789375,6.1690365625C0.005766793749999999,6.4714465625,0.06624789375,6.8948165625,0.30817259375,7.1972165625C0.36865359375,7.3181765625,0.48961559375,7.4391465625,0.67105859375,7.5601065625L8.89649359375,13.0639265625L14.82363359375,9.0721365625L14.82363359375,12.3986265625C14.70263359375,12.6405265625,14.52123359375,12.8219265625,14.21883359375,12.9429265625L14.15833359375,12.9429265625L9.31985359375,16.3298265625C9.13841359375,16.4508265625,8.95697359375,16.5113265625,8.77552359375,16.5113265625C8.59408359375,16.5113265625,8.41264359375,16.4508265625,8.23119359375,16.3298265625L2.60645359375,12.5195265625C2.36453359375,12.3381265625,2.18308359375,12.0357265625,2.18308359375,11.6728265625L2.18308359375,11.4309265625C2.18308359375,11.3704265625,2.24356359375,11.2494265625,2.30404359375,11.2494265625C2.36453359375,11.1889265625,2.42501359375,11.1889265625,2.54597359375,11.2494265625L8.53360359375,15.3621265625C8.77552359375,15.5436265625,9.07793359375,15.4831265625,9.19889359375,15.2412265625C9.38033359375,14.9993265625,9.31985359375,14.6968265625,9.07793359375,14.5759265625L3.02982359375,10.4632265625C2.66693359375,10.2212265625,2.18308359375,10.2212265625,1.75972359375,10.4027265625C1.33635359375,10.6446265625,1.09442359375,11.0680265625,1.15490359375,11.4914265625L1.15490359375,11.7333265625C1.15490359375,12.3986265625,1.45731359375,13.0034265625,2.00164359375,13.3663265625L7.68686359375,17.2371265625C8.04975359375,17.4790265625,8.41264359375,17.5999265625,8.77552359375,17.5999265625C9.19889359375,17.5999265625,9.56178359375,17.4790265625,9.92466359375,17.2371265625L14.52123359375,13.8501265625C15.06553359375,13.6082265625,15.48893359375,13.1848265625,15.67033359375,12.6405265625L15.67033359375,8.4673265625L17.00093359375,7.6205865625C17.24283359375,7.4391465625,17.42433359375,7.1972165625,17.48483359375,6.8343365625C17.60573359375,6.4714465625,17.48483359375,6.1690365625,17.30333359375,5.8666365625ZM16.57763359375,6.5924065625Q16.57763359375,6.6528865625,16.51713359375,6.7133665625L15.06553359375,7.6810665625C15.00503359375,7.6810665625,15.00503359375,7.6810665625,14.94463359375,7.7415465625L8.77552359375,11.8542265625L1.15490359375,6.7133665625C1.09442359375,6.7133665625,1.09442359375,6.6528865625,1.03394559375,6.5924065625C0.97346459375,6.5319265625,0.97346459375,6.4109665625,0.97346459375,6.3504865625C0.97346459375,6.2295165625,1.03394559375,6.1690365625,1.09442359375,6.1085565625L8.53360359375,1.0281465625C8.65456359375,0.9676645625,8.77552359375,0.9676645625,8.89648359375,1.0281465625L16.45663359375,6.4109665625L16.51713359375,6.4714465625Q16.57763359375,6.5319265625,16.57763359375,6.5924065625Z" fill="#9E9E9E" fill-opacity="1" style="mix-blend-mode:passthrough"/></g><g><path d="M11.86040234375,5.624544531250001L8.29202034375,3.08433553125C8.11057634375,2.96337343125,7.86865234375,3.08433553125,7.86865234375,3.26577853125L7.86865234375,8.34619453125C7.86865234375,8.527634531250001,8.11057634375,8.64859453125,8.29202034375,8.527634531250001L11.86040234375,5.987424531249999C11.98137234375,5.92694453125,11.98137234375,5.74550453125,11.86040234375,5.624544531250001Z" fill="#9E9E9E" fill-opacity="1" style="mix-blend-mode:passthrough"/></g></g></svg>