<svg xmlns="http://www.w3.org/2000/svg" xmlns:xlink="http://www.w3.org/1999/xlink" fill="none" version="1.1" width="17.600000381469727" height="17.600000381469727" viewBox="0 0 17.600000381469727 17.600000381469727"><defs><clipPath id="master_svg0_321_78318/321_78082"><rect x="0" y="0" width="17.600000381469727" height="17.600000381469727" rx="0"/></clipPath></defs><g clip-path="url(#master_svg0_321_78318/321_78082)"><g><path d="M15.6019,2.59778C14.7143,1.6213600000000001,13.4716,1.177532,12.1401,1.177532C10.8086,1.177532,9.56588,1.7101250000000001,8.67823,2.59778L5.21637,6.05964C5.03883,6.32594,5.03883,6.681,5.21637,6.85853C5.30513,6.9473,5.48266,7.03606,5.66019,7.03606C5.83772,7.03606,5.92649,6.9473,6.10402,6.85853L9.56588,3.39667C10.276,2.68655,11.2524,2.2427200000000003,12.2288,2.2427200000000003C13.2053,2.2427200000000003,14.1817,2.59778,14.8918,3.39667C16.4008,4.90569,16.4008,7.30236,14.8918,8.81137L9.03329,14.5811L3.26352,8.81137C1.754508,7.30236,1.754508,4.90569,3.26352,3.39667C3.97365,2.68655,4.95007,2.2427200000000003,5.92649,2.2427200000000003L6.54785,2.2427200000000003C6.81415,2.2427200000000003,7.08044,2.0651900000000003,7.08044,1.7101250000000001C7.08044,1.355063,6.90291,1.0887657,6.63662,1.0887657C6.37032,1.0887657,6.19279,1,5.92649,1C5.3939,1,4.8613,1.0887657,4.417479999999999,1.266297C3.70735,1.621359,2.99723,2.0651900000000003,2.46463,2.59778C0.511789,4.55062,0.511789,7.65742,2.46463,9.61026L8.589459999999999,15.8239C8.67823,15.9126,8.85576,16.0014,9.03329,16.0014C9.21082,16.0014,9.29959,15.9126,9.47712,15.8239L15.6019,9.61026C17.466,7.65742,17.466,4.55062,15.6019,2.59778Z" fill="#9E9E9E" fill-opacity="1" style="mix-blend-mode:passthrough"/></g></g></svg>