<svg xmlns="http://www.w3.org/2000/svg" xmlns:xlink="http://www.w3.org/1999/xlink" fill="none" version="1.1" width="14.879998207092285" height="19.038822174072266" viewBox="0 0 14.879998207092285 19.038822174072266"><g><path d="M7.32,5.11882C7.2,5.11882,7.08,5.11882,6.96,4.99882L4.56,3.07882C4.44,2.95882,4.32,2.83882,4.32,2.59882C4.32,2.35882,4.32,2.23882,4.56,1.99882L6.96,0.0788225C7.2,-0.0411775,7.44,-0.0411775,7.68,0.198822L10.08,2.11882C10.2,2.23882,10.32,2.35882,10.32,2.59882C10.32,2.83882,10.2,2.95882,10.08,3.07882L7.68,4.99882C7.56,5.11882,7.44,5.11882,7.32,5.11882ZM8.76,2.47882L7.32,1.27882L5.88,2.47882L7.32,3.67882L8.76,2.47882ZM14.76,5.47875C14.88,5.47875,14.88,5.59875,14.88,5.71875L14.88,13.5187C14.88,13.7587,14.76,13.8787,14.64,13.9987L12.24,15.9187C12.12,16.0387,12,16.0387,11.88,16.0387L11.64,16.0387C11.4,15.9187,11.28,15.6787,11.28,15.4387L11.28,7.99875L9.12,6.19875C9,6.07875,8.88,5.83875,8.88,5.71875C8.88,5.59875,9,5.47875,9.12,5.23875L11.52,3.31875C11.76,3.07875,12,3.07875,12.24,3.31875L14.64,5.23875Q14.76,5.23875,14.76,5.35875L14.76,5.47875ZM6,5.71875C6,5.95875,5.88,6.07875,5.76,6.19875L3.6,7.99875L3.6,15.4387C3.6,15.6787,3.48,15.9187,3.24,16.0387L3,16.0387C2.88,16.0387,2.76,16.0387,2.64,15.9187L0.24,13.9987C0.12,13.8787,0,13.7587,0,13.5187L0,5.83875Q0.12,5.71875,0.12,5.59875L0.12,5.47875Q0.24,5.47875,0.24,5.35875L2.64,3.31875C2.88,3.19875,3.12,3.19875,3.36,3.43875L5.76,5.35875C5.88,5.47875,6,5.47875,6,5.71875ZM4.44,5.71875L3,4.51875L1.56,5.71875L3,6.91875L4.44,5.71875ZM13.32,5.71875L11.88,4.51875L10.44,5.71875L11.88,6.91875L13.32,5.71875ZM10.2,8.47882L10.32,8.59882C10.44,8.71882,10.44,8.83882,10.44,8.95882L10.44,16.6388C10.44,16.8788,10.32,16.9988,10.2,17.1188L7.8,19.0388L7.08,19.0388L4.68,17.1188C4.56,16.9988,4.44,16.8788,4.44,16.6388L4.44,8.95882Q4.56,8.83882,4.56,8.71882L4.56,8.59882Q4.68,8.59882,4.68,8.47882L7.08,6.55882Q7.44,6.19882,7.8,6.55882L10.2,8.47882ZM1.2,7.03875L1.2,13.1587L2.4,14.1187L2.4,7.99875L1.2,7.03875ZM12.48,7.99875L12.48,14.1187L13.68,13.1587L13.68,7.03875L12.48,7.99875ZM8.88,8.95882L7.44,7.75882L6,8.95882L7.44,10.1588L8.88,8.95882ZM6.84,11.1188L5.64,10.1588L5.64,16.2788L6.84,17.2388L6.84,11.1188ZM8.04,11.1188L8.04,17.2388L9.24,16.2788L9.24,10.1588L8.04,11.1188Z" fill-rule="evenodd" fill="#9E9E9E" fill-opacity="1" style="mix-blend-mode:passthrough"/></g></svg>