<svg xmlns="http://www.w3.org/2000/svg" xmlns:xlink="http://www.w3.org/1999/xlink" fill="none" version="1.1" width="24" height="24" viewBox="0 0 24 24"><defs><clipPath id="master_svg0_159_39111"><rect x="0" y="0" width="24" height="24" rx="0"/></clipPath><linearGradient x1="0.5" y1="0" x2="0.5" y2="1" id="master_svg1_43_19738"><stop offset="0%" stop-color="#FFC2C2" stop-opacity="1"/><stop offset="100%" stop-color="#FFFFFF" stop-opacity="1"/></linearGradient></defs><g clip-path="url(#master_svg0_159_39111)"><path d="M15.8078514375,10.2418470625C15.1775494375,10.2418470625,14.6668414375,9.7311391625,14.6668414375,9.1008367625C14.6668414375,7.6042733625,13.4514904375,6.3889078625,11.9549134375,6.3889078625C10.4583492375,6.3889078625,9.2429838375,7.6042594625,9.2429838375,9.1008367625C9.2429838375,9.5081109625,9.0264177375,9.8862905625,8.6708631375,10.0899276625C8.318541037500001,10.2935638625,7.8821749375,10.2935638625,7.5298528375,10.0899276625C7.1775307375,9.8862914625,6.9577317375,9.5081109625,6.9577317375,9.1008367625C6.9577317375,6.3436732625,9.1944990375,4.106892562500001,11.9516774375,4.106892562500001C14.7088534375,4.106892562500001,16.9456254375,6.3436522625,16.9456254375,9.1008157625C16.9520894375,9.7311181625,16.4381494375,10.2418260625,15.8078514375,10.2418470625L15.8078514375,10.2418470625ZM19.3052174375,10.2418470625C18.6749174375,10.2418470625,18.1642094375,9.7311391625,18.1642094375,9.1008367625C18.1642094375,5.6713456625,15.3844044375,2.8947989625,11.9581704375,2.8947989625C8.5286793375,2.8947989625,5.7521324375,5.6746034625,5.7521324375,9.1008367625C5.7521324375,9.7311391625,5.2414245375,10.2418470625,4.6111221375,10.2418470625C3.9808194375,10.2418470625,3.4701120375,9.7311391625,3.4701120375,9.1008367625C3.4701120375,6.0689153625,5.0895071375,3.2664937625,7.7141504375,1.7473221625C10.3420324375,0.2313613625,13.5775794375,0.2313613625,16.205485437500002,1.7473221625C18.8333664375,3.2632830625,20.4495234375,6.0657048625,20.4495234375,9.1008367625C20.4462914375,9.7311391625,19.9355834375,10.2418470625,19.3052804375,10.2418470625L19.3052174375,10.2418470625ZM21.9815944375,14.1658695625L13.1347104375,14.1658695625L13.1347104375,10.2418470625C13.1347104375,9.6115445625,12.6240024375,9.1008367625,11.9937014375,9.1008367625C11.3633994375,9.1008367625,10.8526904375,9.6115445625,10.8526904375,10.2418470625L10.8526904375,14.1658695625L2.0026030375,14.1658695625C1.2139148075000001,14.1658695625,0.5771484375,14.8058705625,0.5771484375,15.5913245625L0.5771484375,21.9751835625C0.5771484375,22.7638725625,1.2171491374999999,23.4006385625,2.0026030375,23.4006385625L21.9783594375,23.4006385625C22.7670474375,23.4006385625,23.4038144375,22.7606375625,23.4038144375,21.9751835625L23.4038144375,15.5945725625C23.4070474375,14.8058855625,22.7670474375,14.1658865625,21.9815944375,14.1658695625L21.9815944375,14.1658695625ZM4.0971419375,19.9258685625C3.4668398375,19.9258685625,2.9561317375,19.4151615625,2.9561317375,18.7848585625C2.9561317375,18.1545585625,3.4668398375,17.6438505625,4.0971419375,17.6438505625C4.7274441375,17.6438505625,5.2381520375,18.1545585625,5.2381520375,18.7848585625C5.2381520375,19.0886955625,5.1185565375,19.3796085625,4.9052224375,19.5929395625C4.6886568375,19.8062725625,4.3977468375,19.9258685625,4.0971419375,19.9258685625ZM7.5557198375,19.9258685625C6.9254174375,19.9258685625,6.4147095375,19.4151615625,6.4147095375,18.7848585625C6.4147095375,18.1545585625,6.9254174375,17.6438505625,7.5557198375,17.6438505625C8.1860227375,17.6438505625,8.6967306375,18.1545585625,8.6967306375,18.7848585625C8.6967306375,19.0886955625,8.5771346375,19.3796085625,8.3638010375,19.5929395625C8.1504674375,19.8062725625,7.8595590375,19.9258685625,7.5557198375,19.9258685625Z" fill="url(#master_svg1_43_19738)" fill-opacity="1"/></g></svg>