<svg xmlns="http://www.w3.org/2000/svg" xmlns:xlink="http://www.w3.org/1999/xlink" fill="none" version="1.1" width="16" height="16" viewBox="0 0 16 16"><defs><clipPath id="master_svg0_215_001722"><rect x="0" y="0" width="16" height="16" rx="0"/></clipPath><linearGradient x1="0.5" y1="1" x2="0.5" y2="0" id="master_svg1_26_34225"><stop offset="0%" stop-color="#868686" stop-opacity="0.800000011920929"/><stop offset="50.776487588882446%" stop-color="#FFFFFF" stop-opacity="1"/></linearGradient></defs><g clip-path="url(#master_svg0_215_001722)"><g><path d="M15.788005,14.759881622104645Q15.531437,15.009268622104646,15.234681,15.209160622104644C15.472639,15.100656622104644,15.658859,14.947782622104645,15.788005,14.759881622104645ZM11.067355,15.393727622104645L1.7255679,15.393727622104645C0.18225935,15.393727622104645,-0.44041404,14.298476622104644,0.33086878,12.951332622104644L6.6036716,1.9037080221046447C6.7491093,1.467979612104645,7.0878768,1.1240003721046448,7.5213346,0.9719270321046448C8.2963676,0.7052271021046448,9.139679,1.1247088421046447,9.394557,1.9037080221046447L12.798161,7.896697122104645Q12.617971,7.905801322104645,12.439332,7.931090422104645Q12.260693,7.956379022104644,12.085054,7.997647322104645Q11.909418,8.038916622104644,11.73821,8.095829522104644Q11.567001,8.152742422104645,11.401611,8.224837322104644Q11.236223,8.296933222104645,11.077995,8.383625122104645Q10.919767,8.470317422104646,10.769987,8.570901922104646Q10.620207,8.671486922104645,10.480091,8.785147722104645Q10.339973,8.898808522104645,10.210658,9.024621022104645Q10.081343,9.150434522104645,9.9638796,9.287379322104645Q9.8464165,9.424324122104645,9.7417583,9.571287222104644Q9.6371002,9.718250322104645,9.5460978,9.874039722104644Q9.4550953,10.029827222104645,9.3784876,10.193175422104645Q9.3018808,10.356524522104644,9.2402906,10.526105922104644Q9.1786995,10.695688322104644,9.1326256,10.870125822104646Q9.0865517,11.044565622104646,9.0563698,11.222442622104644Q9.0261869,11.400319622104645,9.0121403,11.580191622104644C8.9665251,11.508015622104645,8.912693,11.439532622104645,8.850646,11.376071622104645C8.3842983,10.899134622104645,7.6169033,10.899134622104645,7.1505547,11.376071622104645C6.6739054,11.845539622104646,6.6680837,12.612518622104645,7.1375513,13.089166622104646C7.6070185,13.565815622104644,8.3739967,13.571638622104645,8.850646,13.102170622104644L8.850646,13.100684622104644C8.9541607,12.994810622104644,9.034812,12.874957622104645,9.0925999,12.747301622104645Q9.1381521,12.955306622104645,9.2055311,13.157302622104645Q9.2729092,13.359298622104644,9.3613529,13.552999622104645Q9.4497957,13.746699622104645,9.5583038,13.929916622104646Q9.6668119,14.113132622104645,9.7941589,14.283793622104644Q9.921505,14.454452622104645,10.06625,14.610628622104645Q10.210995,14.766803622104645,10.371503,14.906730622104645Q10.53201,15.046655622104645,10.706467,15.168748622104644Q10.880922,15.290843622104644,11.067355,15.393727622104645ZM8.8372707,5.015589322104645C8.3642797,4.545106422104645,7.5968289,4.5558398221046446,7.1371789,5.0393663221046445L7.136436,5.0393663221046445C6.9097233,5.291457722104645,6.7886686,5.621099022104644,6.7983499,5.960002022104645C6.7983499,6.272081922104645,7.3088236,8.597819422104646,7.4448009,10.291224522104645L8.5786915,10.291224522104645C8.724328,8.597819422104646,9.2013645,6.272081922104645,9.2013645,5.960002022104645C9.2120285,5.620399022104645,9.0896502,5.290056722104644,8.8603058,5.0393663221046445C8.853096,5.031000222104645,8.8454046,5.023060822104645,8.8372707,5.015589322104645Z" fill-rule="evenodd" fill="url(#master_svg1_26_34225)" fill-opacity="1"/></g><path d="M13,15.558269062499999C12.5833333,15.558269062499999,10,13.548435162499999,10,11.8916015625C10,10.2347681625,11.3431666,8.8916015625,13,8.8916015625C14.656833599999999,8.8916015625,16,10.2347681625,16,11.8916015625C16,13.548435162499999,13.416667,15.558269062499999,13,15.558269062499999ZM13,12.8082682625C13.5062499,12.8082682625,13.9166665,12.397851662499999,13.9166665,11.8916015625C13.9166665,11.385351462500001,13.5062499,10.9749348625,12.9999998,10.9749348625C12.493749600000001,10.9749348625,12.083333,11.385351462500001,12.083333,11.8916015625C12.083333,12.397851662499999,12.493749600000001,12.8082682625,13,12.8082682625Z" fill="#FFFFFF" fill-opacity="1" style="mix-blend-mode:passthrough"/></g></svg>