<svg xmlns="http://www.w3.org/2000/svg" xmlns:xlink="http://www.w3.org/1999/xlink" fill="none" version="1.1" width="20" height="20" viewBox="0 0 20 20"><defs><linearGradient x1="0.5" y1="0" x2="0.5" y2="1" id="master_svg0_43_19738"><stop offset="0%" stop-color="#FFC2C2" stop-opacity="1"/><stop offset="100%" stop-color="#FFFFFF" stop-opacity="1"/></linearGradient></defs><g><path d="M9.1402678,10.037804600000001C9.1427665,10.041114799999999,9.1450806,10.0441799,9.1472001,10.0470061C9.2473946,10.1805992,9.6147738,10.7483673,9.113802,11.0155525C9.113802,11.0155525,5.7071924,12.217885,5.6069982,15.190318L2,15.190318L2,3.53437024C2,3.23378691,2.50097197,3,2.50097197,3L8.8466172,3C9.0470057,3,9.347589,3.2003886599999998,9.347589,3.50097197L9.347589,5.2376746999999995C9.347589,5.2376746999999995,8.579432,5.6718504,8.546033900000001,7.4419518C8.5133429,9.2072978,9.0246511,9.8846431,9.1402678,10.037804600000001ZM4.337869400000001,6.3064165C4.6384523,6.3064165,4.8722396,6.0726297,4.8722396,5.7720462999999995L4.8722396,5.2376761C4.8722396,4.937093,4.6384528,4.7033062,4.337869400000001,4.7033062L3.8034992,4.7033062C3.502916,4.7033062,3.2691292,4.937093,3.2691292,5.2376761L3.2691292,5.7720462999999995C3.2691292,6.0726297,3.502916,6.3064165,3.8034992,6.3064165L4.337869400000001,6.3064165ZM7.3437014,6.3064165C7.6442847,6.3064165,7.8780718,6.0726297,7.8780718,5.7720462999999995L7.8780718,5.2376761C7.8780718,4.937093,7.6442847,4.7033062,7.3437014,4.7033062L6.8093314,4.7033062C6.5087481,4.7033062,6.2749615,4.937093,6.2749615,5.2376761L6.2749615,5.7720462999999995C6.2749615,6.0726297,6.5087481,6.3064165,6.8093314,6.3064165L7.3437014,6.3064165ZM14.123525,10.9153628C14.123525,11.3161411,14.290516,11.6835194,15.259062,12.0842972C16.695182000000003,12.6854649,18.064505,13.453621,17.997708,14.689353C17.997708,15.524306,17.396542,16.35926,16.561588,16.35926L9.0804071,16.35926C8.2788515,16.35926,7.6442871,15.524306,7.6442871,14.689353C7.6776853,13.420223,9.0136108,12.6854649,10.4497309,12.0842972C11.4182768,11.6835194,11.5852671,11.3161411,11.5852671,10.9153628C11.5852671,10.514585499999999,11.3180828,10.1472058,10.9841003,9.846622499999999C10.4497309,9.3122525,10.1157494,8.6442895,10.1157494,7.775938C10.1157494,6.2062259,11.1176929,4.8703003,12.854396,4.8703003C14.591099,4.8703003,15.593042,6.2396235,15.593042,7.775938C15.593042,8.610891299999999,15.292459,9.3456507,14.724691,9.846622499999999C14.39071,10.1472058,14.123525,10.5145845,14.123525,10.9153628ZM4.337869400000001,8.9448686C4.6384523,8.9448686,4.8722396,8.711082000000001,4.8722396,8.4104986L4.8722396,7.8761282C4.8722396,7.5755453,4.6384528,7.3417583,4.337869400000001,7.3417583L3.8034992,7.3417583C3.502916,7.3417583,3.2691292,7.5755453,3.2691292,7.8761282L3.2691292,8.4104986C3.2691292,8.711082000000001,3.502916,8.9448686,3.8034992,8.9448686L4.337869400000001,8.9448686ZM7.3437014,8.9448686C7.6442847,8.9448686,7.8780718,8.711082000000001,7.8780718,8.4104986L7.8780718,7.8761282C7.8780718,7.5755453,7.6442847,7.3417583,7.3437014,7.3417583L6.8093314,7.3417583C6.5087481,7.3417583,6.2749615,7.5755453,6.2749615,7.8761282L6.2749615,8.4104986C6.2749615,8.711082000000001,6.5087481,8.9448686,6.8093314,8.9448686L7.3437014,8.9448686ZM4.337869400000001,11.6167192C4.6384523,11.6167192,4.8722396,11.3829327,4.8722396,11.0823488L4.8722396,10.5479789C4.8722396,10.2473955,4.6384528,10.013608900000001,4.337869400000001,10.013608900000001L3.8034992,10.013608900000001C3.502916,10.013608900000001,3.2691292,10.2473955,3.2691292,10.5479789L3.2691292,11.0823488C3.2691292,11.3829327,3.502916,11.6167192,3.8034992,11.6167192L4.337869400000001,11.6167192ZM7.3437014,11.6167192C7.6442847,11.6167192,7.8780718,11.3829327,7.8780718,11.0823488L7.8780718,10.5479789C7.8780718,10.2473955,7.6442847,10.013608900000001,7.3437014,10.013608900000001L6.8093314,10.013608900000001C6.5087481,10.013608900000001,6.2749615,10.2473955,6.2749615,10.5479789L6.2749615,11.0823488C6.2749615,11.3829327,6.5087481,11.6167192,6.8093314,11.6167192L7.3437014,11.6167192ZM4.337869400000001,14.255172C4.6384523,14.255172,4.8722396,14.021384,4.8722396,13.720801L4.8722396,13.186431C4.8722396,12.885848,4.6384528,12.6520615,4.337869400000001,12.6520615L3.8034992,12.6520615C3.502916,12.6520615,3.2691292,12.885848,3.2691292,13.186431L3.2691292,13.720801C3.2691292,14.021384,3.502916,14.255172,3.8034992,14.255172L4.337869400000001,14.255172Z" fill-rule="evenodd" fill="url(#master_svg0_43_19738)" fill-opacity="1"/></g></svg>