<svg xmlns="http://www.w3.org/2000/svg" xmlns:xlink="http://www.w3.org/1999/xlink" fill="none" version="1.1" width="28" height="21.538461685180664" viewBox="0 0 28 21.538461685180664"><defs><clipPath id="master_svg0_91_96885"><rect x="0" y="0" width="28" height="21.538461685180664" rx="0"/></clipPath><linearGradient x1="0.5" y1="0" x2="0.5" y2="1" id="master_svg1_91_92201"><stop offset="0%" stop-color="#F7EFEF" stop-opacity="1"/><stop offset="47.88399934768677%" stop-color="#E8D1D1" stop-opacity="1"/><stop offset="100%" stop-color="#975555" stop-opacity="1"/></linearGradient></defs><g clip-path="url(#master_svg0_91_96885)"><g><path d="M5.8436866,1.4583778L5.8436866,3.9180303C5.8436866,5.0825558,5.8331575,5.5178924,4.6433611,5.5178924C4.4959536,5.5178924,0,5.5287752,0,5.5287752L0,3.4609258L3.7589126,3.4609258L3.7589126,2.0678489L0.010529405,2.0678489L0.010529405,0L4.3380165,0C5.7173371,0,5.8436866,0.3265025,5.8436866,1.4583778ZM7.2124023,0L19.47888,0L19.47888,2.0460823L14.382839,2.0460823L14.382839,3.4492192L17.731037,3.4492195C19.289354,3.4492195,19.489407,3.5145199,19.489407,5.0926151L19.489407,10.860826C19.489407,12.438922,19.289354,12.504224,17.731037,12.504224L8.9602432,12.504224C8.6654263,12.504224,8.4127264,12.49334,8.2021427,12.482456L8.0757933,12.482456L8.0757933,12.471573C7.3492818,12.384504,7.2229314,12.079769,7.2124023,10.93701L7.2124023,5.0926147C7.2124023,3.8845553,7.3282232,3.5689361,8.0757933,3.481869L8.0757933,3.4709857L8.1916142,3.4709857C8.4021978,3.4492188,8.6548977,3.4492188,8.9707727,3.4492188L12.308594,3.449219L12.308594,2.0460823L7.2124023,2.0460823L7.2124023,0ZM20.816162,3.6461246L20.816162,11.318933C20.816162,13.02763,21.174152,13.049397,22.785116,13.049397L25.0173,13.049397C25.065346,13.049397,25.112217,13.049444,25.157936,13.049491C26.665203,13.051007,26.92308,13.051267,26.92308,11.318933L26.92308,1.730643C26.92308,-0.001689408,26.665203,-0.0014299582,25.157938,0.000086801796C25.112217,0.00013281043,25.065348,0.00017997593,25.0173,0.00017997593L22.785116,0.00017997593C21.174154,0.00017997593,20.816164,0.021946892,20.816164,1.730643L20.816164,2.0680292L20.816162,3.6461246ZM24.848833,7.5639429L24.848833,10.948896L22.890408,10.948896L22.890408,7.5639429L24.848833,7.5639429ZM24.848833,5.4960938L24.848833,2.1006792L22.890408,2.1006792L22.890408,5.4960938L24.848833,5.4960938ZM9.2866478,6.9210291L17.415165,6.9210291L17.415165,5.5170679L9.2866478,5.5170679L9.2866478,6.9210291ZM0.010498047,9.37078L0.010498047,21.527557L2.0847435,21.527557L2.0847435,9.7081652L3.7799389,9.7081652L3.7483513,21.527557L5.8541842,21.527557L5.8541842,9.37078C5.8541842,7.6384468,5.5963082,7.6387062,4.0890441,7.640223C4.0433235,7.6402688,3.996453,7.640316,3.9484057,7.640316L1.8320435,7.640316C0.22108135,7.640316,0.010498047,7.6620836,0.010498047,9.37078ZM9.2866478,10.436372L17.415165,10.436372L17.415165,9.0324116L9.2866478,9.0324116L9.2866478,10.436372ZM10.318604,13.897949L12.392849,13.897949L12.392849,14.888672L17.825802,14.888672C19.036654,14.888672,19.373589,14.953971,19.457821,15.857295C19.468351,15.977014,19.489408,16.096729,19.489408,16.216448L19.478878,19.165855C19.468351,20.330379,19.152475,20.417448,17.825802,20.417448L12.392849,20.417448L12.392849,21.538107L10.318604,21.538107L10.318604,20.417448L7.2124023,20.417448L7.2124023,18.425781L10.318604,18.425781L10.318604,17.021822L7.2124023,17.021822L7.2124023,14.888672L10.318604,14.888672L10.318604,13.897949ZM12.392849,17.021822L12.392849,18.425781L17.415165,18.425781L17.415165,17.021822L12.392849,17.021822ZM20.816162,19.862534L20.816162,16.553974C20.816162,15.258849,20.942513,14.87793,22.311304,14.87793L26.92308,14.87793L26.91255,16.945778L22.890408,16.945778L22.890408,19.394548L26.91255,19.394548L26.91255,21.53858L22.490299,21.53858C22.311304,21.53858,22.153366,21.53858,22.005959,21.527697L21.732199,21.50593C20.953041,21.418861,20.826693,21.212076,20.816162,19.862534Z" fill-rule="evenodd" fill="url(#master_svg1_91_92201)" fill-opacity="1" style="mix-blend-mode:passthrough"/></g></g></svg>