<svg xmlns="http://www.w3.org/2000/svg" xmlns:xlink="http://www.w3.org/1999/xlink" fill="none" version="1.1" width="24" height="24" viewBox="0 0 24 24"><defs><clipPath id="master_svg0_159_39150"><rect x="0" y="0" width="24" height="24" rx="0"/></clipPath><linearGradient x1="0.5" y1="0" x2="0.5" y2="1" id="master_svg1_43_19738"><stop offset="0%" stop-color="#FFC2C2" stop-opacity="1"/><stop offset="100%" stop-color="#FFFFFF" stop-opacity="1"/></linearGradient></defs><g clip-path="url(#master_svg0_159_39150)"><path d="M2.3749998000000003,3L21.624998,3C22.384731,3,22.999998,3.616,22.999998,4.3749999L22.999998,8.3936663C22.999998,9.153400399999999,22.383999,9.7694001,21.624998,9.7694001L2.3749998000000003,9.7694001C1.61560839,9.7694001,1,9.153791,1,8.3944001L1,4.3749999C1,3.61526674,1.616,3,2.3749998000000003,3ZM4.4268661,5.7074666C4.0530428999999994,5.7074666,3.7499998,6.0105097,3.7499998,6.3843329C3.7499998,6.7581561,4.0530428999999994,7.0611997,4.4268661,7.0611997L8.573133,7.0611997C8.9469557,7.0611997,9.249999,6.7581561,9.249999,6.3843329C9.249999,6.0105097,8.9469557,5.7074663999999995,8.573133,5.7074663999999995L4.4268661,5.7074666ZM2.3749998000000003,13.831333L21.624998,13.831333C22.384731,13.831333,22.999998,14.447333,22.999998,15.206333L22.999998,19.225731C22.999998,19.984732,22.383999,20.599998,21.624998,20.599998L2.3749998000000003,20.599998C1.61560839,20.599998,1,19.984392,1,19.224998L1,15.206333C1,14.4466,1.616,13.8306,2.3750001000000003,13.8306L2.3749998000000003,13.831333ZM4.4268661,16.539533C4.0530434,16.539532,3.7499998,16.842576,3.7499998,17.216399C3.7499998,17.590221,4.0530428999999994,17.893265,4.4268661,17.893265L8.573133,17.893265C8.9469557,17.893265,9.249999,17.590221,9.249999,17.216399C9.249999,16.842576,8.9469557,16.539532,8.573133,16.539533L4.4268661,16.539533Z" fill="url(#master_svg1_43_19738)" fill-opacity="1"/></g></svg>