<svg xmlns="http://www.w3.org/2000/svg" xmlns:xlink="http://www.w3.org/1999/xlink" fill="none" version="1.1" width="16" height="17" viewBox="0 0 16 17"><defs><linearGradient x1="0.5" y1="0" x2="0.5" y2="1" id="master_svg0_43_19738"><stop offset="0%" stop-color="#FFC2C2" stop-opacity="1"/><stop offset="100%" stop-color="#FFFFFF" stop-opacity="1"/></linearGradient></defs><path d="M12.005817,2.0009696C12.005817,0.89586467,11.109954,0,10.004849,0L2.0009696,0C0.89586467,-1.3569945e-7,0,0.89586449,0,2.0009696L0,14.006788C0,15.111893,0.89586467,16.007757,2.0009696,16.007757L4.8923793,16.007757L12.005817,3.5016971L12.005817,2.0009696ZM4.6722732,12.676151L3.3316233,12.676151C2.9319792,12.725272,2.5795131,12.413477,2.5795131,12.010825C2.5795131,11.608173,2.9319792,11.296378,3.3316233,11.345499L4.6722732,11.345499C5.0719175,11.296378,5.4243836,11.608173,5.4243836,12.010825C5.4243836,12.413477,5.0719175,12.725272,4.6722732,12.676151ZM5.3425894,8.6742125L3.3416193,8.6742125C3.0055583,8.632906,2.7530625,8.3474751,2.7530625,8.0088863C2.7530627,7.6702957,3.0055585,7.3848648,3.3416193,7.3435593L5.3425894,7.3435593C5.6786509,7.3848648,5.9311466,7.6702957,5.9311466,8.0088863C5.9311466,8.3474751,5.6786509,8.632906,5.3425894,8.6742125ZM8.6742125,4.6722732L3.3316236,4.6722732C2.9319799,4.7213931,2.5795145,4.4095979,2.5795145,4.0069466C2.5795145,3.6042957,2.9319799,3.2924993,3.3316236,3.3416193L8.6742125,3.3416193C9.010273,3.3829248,9.2627707,3.6683555,9.2627707,4.0069466C9.2627707,4.3455367,9.010273,4.6309676,8.6742125,4.6722732ZM15.667593,4.0019393L15.087312,3.671771C14.766635,3.4910262,14.360202,3.6026886,14.17688,3.9219007L9.2344847,12.616123L10.975328,13.616607L15.917722,4.9023757C16.091793,4.5840015,15.980932,4.1849184,15.667593,4.0019393ZM8.4541054,16.007757L10.64516,14.186875L8.904315,13.196387L8.4541054,16.007757Z" fill="url(#master_svg0_43_19738)" fill-opacity="1"/></svg>