<svg xmlns="http://www.w3.org/2000/svg" xmlns:xlink="http://www.w3.org/1999/xlink" fill="none" version="1.1" width="20" height="20" viewBox="0 0 20 20"><defs><linearGradient x1="0.5" y1="0" x2="0.5" y2="1" id="master_svg0_43_19738"><stop offset="0%" stop-color="#FFC2C2" stop-opacity="1"/><stop offset="100%" stop-color="#FFFFFF" stop-opacity="1"/></linearGradient></defs><path d="M16.917873999999998,6.5681152C17.513043,6.5681152,17.998067,6.0850239,17.998067,5.4898551L17.998067,3.0782608C17.998067,2.48309174,17.513043,2,16.917873999999998,2L14.50628,2C13.911111,2,13.426085,2.48309174,13.426085,3.0782608L13.426085,3.2830918000000002L6.5661831,3.2830918000000002L6.5661831,3.0782608C6.5661831,2.48309174,6.0830908,2,5.4879222,2L3.0782609,2C2.48309177,2,2,2.48309174,2,3.0782608L2,5.4898551C2,6.0850239,2.48502409,6.5681152,3.0782609,6.5681152L3.2657005,6.5681152L3.2657005,13.429952L3.0782609,13.429952C2.48309177,13.429952,2,13.914975,2,14.510144L2,16.921739000000002C2,17.516908,2.48502409,18.001932,3.0782609,18.001932L5.4898553,18.001932C6.0850244,18.001932,6.5681157,17.51691,6.5681157,16.921739000000002L6.5681157,16.624153L13.42802,16.624153L13.42802,16.921739000000002C13.42802,17.516908,13.913043,18.001932,14.508213,18.001932L16.919806,18.001932C17.514976,18.001932,18,17.51691,18,16.921739000000002L18,14.510144C18,13.914975,17.514976,13.429951,16.919806,13.429951L16.606763,13.429951L16.606763,6.5681152L16.917873999999998,6.5681152ZM16.452174,3.5458938L16.452174,5.0241544000000005L14.973912,5.0241544000000005L14.973912,3.5458938L16.452174,3.5458938ZM5.022222,3.5458938L5.022222,5.0241544000000005L3.5439613999999997,5.0241544000000005L3.5439613999999997,3.5458938L5.022222,3.5458938ZM5.022222,14.975844L5.022222,16.454105L3.5439613999999997,16.454105L3.5439613999999997,14.975844L5.022222,14.975844ZM12.583574,8.3710141L8.405796500000001,12.546858C8.1043468,12.848308,7.615458,12.848308,7.3120761,12.546858C7.1613522,12.396133,7.0859895,12.199033,7.0859895,11.9999981C7.0859895,11.8028975,7.1613522,11.6038637,7.3120761,11.4531393L11.4879217,7.2772932C11.7893715,6.9758444,12.280193,6.9758444,12.581641,7.2772932C12.732366,7.4280181,12.807729,7.6251197,12.807729,7.8241529C12.80966,8.021254500000001,12.734299,8.218356100000001,12.583574,8.3710141ZM16.452174,16.454104L14.973912,16.454104L14.973912,14.975843L16.452174,14.975843L16.452174,16.454104Z" fill="url(#master_svg0_43_19738)" fill-opacity="1"/></svg>