<svg xmlns="http://www.w3.org/2000/svg" xmlns:xlink="http://www.w3.org/1999/xlink" fill="none" version="1.1" width="17.521728515625" height="17.521484375" viewBox="0 0 17.521728515625 17.521484375"><defs><linearGradient x1="0.5" y1="0" x2="0.5" y2="1" id="master_svg0_43_19738"><stop offset="0%" stop-color="#FFC2C2" stop-opacity="1"/><stop offset="100%" stop-color="#FFFFFF" stop-opacity="1"/></linearGradient></defs><path d="M15.3387724375,5.2087402C15.9339414375,5.2087402,16.4189654375,4.7256489,16.4189654375,4.1304801L16.4189654375,1.7188858C16.4189654375,1.1237167399999999,15.9339414375,0.640625,15.3387724375,0.640625L12.9271784375,0.640625C12.3320094375,0.640625,11.8469834375,1.1237167399999999,11.8469834375,1.7188858L11.8469834375,1.9237168L4.9870815375,1.9237168L4.9870815375,1.7188858C4.9870815375,1.1237167399999999,4.5039892375,0.640625,3.9088206375,0.640625L1.4991593375,0.640625C0.9039902074999999,0.640625,0.4208984375,1.1237167399999999,0.4208984375,1.7188858L0.4208984375,4.1304801C0.4208984375,4.7256489,0.9059225275,5.2087402,1.4991593375,5.2087402L1.6865989375,5.2087402L1.6865989375,12.070577L1.4991593375,12.070577C0.9039902074999999,12.070577,0.4208984375,12.5556,0.4208984375,13.150769L0.4208984375,15.562364C0.4208984375,16.157533,0.9059225275,16.642557,1.4991593375,16.642557L3.9107537375,16.642557C4.5059228375,16.642557,4.9890141375,16.157535,4.9890141375,15.562364L4.9890141375,15.264778L11.8489184375,15.264778L11.8489184375,15.562364C11.8489184375,16.157533,12.3339414375,16.642557,12.9291114375,16.642557L15.3407044375,16.642557C15.9358744375,16.642557,16.4208984375,16.157535,16.4208984375,15.562364L16.4208984375,13.150769C16.4208984375,12.5556,15.9358744375,12.070576,15.3407044375,12.070576L15.0276614375,12.070576L15.0276614375,5.2087402L15.3387724375,5.2087402ZM14.8730724375,2.1865188L14.8730724375,3.6647794L13.3948104375,3.6647794L13.3948104375,2.1865188L14.8730724375,2.1865188ZM3.4431204375,2.1865188L3.4431204375,3.6647794L1.9648598375,3.6647794L1.9648598375,2.1865188L3.4431204375,2.1865188ZM3.4431204375,13.616469L3.4431204375,15.09473L1.9648598375,15.09473L1.9648598375,13.616469L3.4431204375,13.616469ZM11.0044724375,7.0116391L6.8266949375,11.187483C6.5252452375,11.488933,6.0363564375,11.488933,5.7329745375,11.187483C5.5822506375,11.036758,5.5068879375,10.839658,5.5068879375,10.6406231C5.5068879375,10.4435225,5.5822506375,10.2444887,5.7329745375,10.0937643L9.9088201375,5.9179182C10.2102699375,5.6164694,10.7010914375,5.6164694,11.0025394375,5.9179182C11.1532644375,6.0686431,11.2286274375,6.2657447,11.2286274375,6.4647779C11.2305584375,6.6618795,11.1551974375,6.8589811,11.0044724375,7.0116391ZM14.8730724375,15.094729L13.3948104375,15.094729L13.3948104375,13.616468L14.8730724375,13.616468L14.8730724375,15.094729Z" fill="url(#master_svg0_43_19738)" fill-opacity="1"/></svg>