<svg xmlns="http://www.w3.org/2000/svg" xmlns:xlink="http://www.w3.org/1999/xlink" fill="none" version="1.1" width="5.767251014709473" height="7.995096206665039" viewBox="0 0 5.767251014709473 7.995096206665039"><path d="M3.0125587,8.053191479665038L5.7251596,11.161588206665039C5.7691054,11.211768106665039,5.7796249,11.283019806665038,5.7520556,11.34375830666504C5.7244864,11.404497106665039,5.663928,11.443486206665039,5.5972252,11.44344280666504L4.2639132,11.44344280666504C4.1791263,11.44271350666504,4.1070995,11.505307906665038,4.0959997,11.58936760666504C3.9960508,12.31299400666504,3.3923621,15.513343806665038,0.53383648,15.987099606665039C0.45700121,16.001930206665037,0.37997282,15.962367106665038,0.34727025,15.891274406665039C0.31456757,15.82018180666504,0.33464861,15.73594760666504,0.39590764,15.687253906665038C0.88565511,15.303452506665039,1.5253252,14.559835406665039,1.7052324,13.23651790666504C1.7743014,12.69892880666504,1.8076905,12.157355806665038,1.8051808,11.61535430666504C1.8052056,11.52084640666504,1.7297515,11.443616906665039,1.6352684,11.44144390666504L0.17002439,11.44144390666504C0.10332191,11.44148710666504,0.042764306,11.402497806665039,0.015195131,11.34175940666504C-0.012374163,11.281020906665038,-0.0018547773,11.209769706665039,0.042090416,11.159589306665039L2.7566905,8.053191479665038C2.8243923,7.975731115665039,2.9448566,7.975731115665039,3.0125587,8.053191479665038Z" fill="#83F4C2" fill-opacity="1" style="mix-blend-mode:passthrough" transform="matrix(1,0,0,-1,0,15.990192413330078)"/></svg>