<svg xmlns="http://www.w3.org/2000/svg" xmlns:xlink="http://www.w3.org/1999/xlink" fill="none" version="1.1" width="40" height="40" viewBox="0 0 40 40"><defs><linearGradient x1="0.5" y1="0" x2="0.5" y2="1" id="master_svg0_43_19738"><stop offset="0%" stop-color="#FFC2C2" stop-opacity="1"/><stop offset="100%" stop-color="#FFFFFF" stop-opacity="1"/></linearGradient></defs><g><path d="M29.162987,7.4696827C29.162987,11.058233,23.305546,13.952228,16.080851,13.952228C8.8574424,13.952228,3,11.045372,3,7.4696827C3,3.8939934,8.856154400000001,1,16.080849,1C23.305546,1,29.162987,3.8811321,29.162987,7.4696827ZM19.563932,18.466858C18.409925,18.628502,17.246122,18.710157,16.080851,18.711239C8.8574452,18.711239,3.000002156193,15.804383,3.000002156193,12.228694C3.0048051481,11.739231,3.11537343,11.256593,3.32412943,10.8138533C4.6334997,13.707846,9.841402500000001,15.868693,16.080852,15.868693C22.320301,15.868693,27.530775,13.707846,28.837574,10.8138533C29.047316,11.256304,29.15835,11.739068,29.162987,12.228694C29.070421,13.595971,28.352379,14.844122,27.216938,15.61145C24.420876,15.693387,21.73031,16.697263,19.563932,18.466858ZM17.558715,20.563395C16.872594,21.447704,16.310065,22.42131,15.88663,23.457388C8.7532587,23.405937,3,20.524807,3.0038591542,16.974842000000002C3.010100327,16.485549,3.12059947,16.003211999999998,3.3279864200000002,15.56C4.6373568,18.453995,9.846545200000001,20.627707,16.084708,20.627707C16.58762,20.627707,17.071239,20.589121,17.558715,20.563395ZM17.462276,24.259117C19.074461,20.090536,22.999786,17.390381,27.382788,17.390381C33.151201,17.390381,37.996002,22.540838,38.00013,28.677553C38.00013,33.091602,35.229309,37.260185,31.308109,38.978466C27.386909,40.69236,22.773005,39.71487,19.77129,36.523781C16.76957,33.332691,15.845964,28.4277,17.462276,24.259117ZM14.972129,28.126366L14.972129,28.190678L14.970841,28.190678C8.2670679,27.907711,3,25.129477,3.010289785,21.733858C3.015092775,21.244392,3.12566091,20.761757,3.33441705,20.319016C4.5807632,23.084387,9.4169474,25.168062,15.296256,25.33527C15.083338,26.250443,14.974604,27.186756,14.972129,28.126366ZM31.996693,29.900509C31.996693,29.409573,31.534887,29.164108,31.303989,29.164108L28.075495,29.164108L28.075495,27.691296L31.073086,27.691296C31.534893,27.691296,31.765793,27.200357,31.765793,26.954887C31.765793,26.463951,31.303989,26.218483,31.073086,26.218483L29.465023,26.218483L31.081337,23.763796C31.312235,23.51833,31.312235,23.272858,31.312235,23.027391C31.081337,22.781923,30.850435,22.536453,30.619535,22.536453C30.388636,22.536453,30.15773,22.781925,29.92683,23.027391L27.848717,25.973017L26.92511,25.973017L24.846996,23.027391C24.616095,22.781925,24.154289,22.781925,23.923389,23.027391C23.46159,23.027391,23.46159,23.51833,23.692488,23.763796L25.0779,26.463957L23.46159,26.463957C23.230686,26.218489,22.999788,26.463955,22.768885,26.709427C22.537985,26.954893,22.537985,27.200363,22.768885,27.445831C22.999786,27.691298,23.230686,27.691298,23.46159,27.691298L26.690086,27.691298L26.690086,29.164108L23.46159,29.164108C23.230688,28.918642,22.999792,29.164103,22.768885,29.409575C22.537985,29.655045,22.537985,29.900513,22.768885,30.145981C22.999786,30.391449,23.230686,30.391449,23.46159,30.391449L26.690086,30.391449L26.690086,33.823624C26.690086,34.069096,27.151888,34.31456,27.382788,34.31456C27.613688,34.31456,28.075495,34.069092,28.075495,33.823624L28.075495,30.636917L31.303989,30.636917C31.765793,30.636917,31.996693,30.145979,31.996693,29.900509ZM15.140623,30.094282C15.295267,31.079435,15.567757,32.042427,15.952229,32.962551000000005L15.950941,32.962553C8.7867012,32.923964999999995,3,30.042835,3.0012866722,26.480007C3.0089260638,25.990883,3.11935908,25.508835,3.32541394,25.065166C4.5653296,27.817673,9.3307714,29.875624,15.140623,30.094282ZM3.32412827,29.824175C4.6334985,32.718166,9.8426871,34.879013,16.080851,34.879013C16.279531,34.879017,16.471428,34.86771,16.664412,34.856342C16.762524,34.850563,16.860916,34.844769,16.960625,34.840431C17.599786,35.838829,18.379537,36.739876,19.275818,37.515766C18.216166,37.650967,17.14909,37.7197,16.080851,37.721561C8.8574433,37.721561,3,34.814705,3,31.239016C3.0048041418,30.749552,3.11537228,30.266912,3.32412827,29.824175Z" fill-rule="evenodd" fill="url(#master_svg0_43_19738)" fill-opacity="1"/></g></svg>