<svg xmlns="http://www.w3.org/2000/svg" xmlns:xlink="http://www.w3.org/1999/xlink" fill="none" version="1.1" width="32" height="32" viewBox="0 0 32 32"><defs><clipPath id="master_svg0_215_86337"><rect x="0" y="0" width="32" height="32" rx="0"/></clipPath><linearGradient x1="0.5" y1="0" x2="0.5" y2="1" id="master_svg1_43_19738"><stop offset="0%" stop-color="#FFC2C2" stop-opacity="1"/><stop offset="100%" stop-color="#FFFFFF" stop-opacity="1"/></linearGradient></defs><g clip-path="url(#master_svg0_215_86337)"><path d="M17.7985,6.96724579375C18.2875,8.33974599375,18.6295,9.97174549375,18.801999000000002,11.75674529375C20.223999,11.80924509375,21.567999,11.97124579375,22.830999,12.24274539375C22.886497,11.87974549375,22.968998,11.56174559375,23.059,11.293245293750001C23.324499,10.495245893749999,23.757999,9.80074639375,24.314501,9.28324559375C24.692499,8.93224529375,25.109499,8.677245593750001,25.544498,8.52874569375C25.218868,8.10209699375,24.86508,7.69769499375,24.485498,7.31824569375C23.382999,6.21574569375,22.1005,5.35174599375,20.670998,4.74724590375C19.2025,4.12474608375,17.643999,3.80674609355,16.036001,3.80224609375C16.7395,4.59424603375,17.3305,5.65324609375,17.7985,6.96724579375ZM26.349998,9.85924579375C25.591002,9.92074629375,24.8155,10.70224619375,24.464499,11.75824599375C24.386499,11.99224569375,24.316,12.27724549375,24.275499,12.60724549375C25.579,12.99274539375,26.783497,13.50724599375,27.887501,14.14774609375C27.745142,13.10991569375,27.465702,12.09556389375,27.056498,11.13124559375C26.869822,10.69190649375,26.657969,10.26369719375,26.421999,9.84874539375C26.399498,9.85324529375,26.375498,9.85624549375,26.349998,9.85924579375ZM10.2519984,8.798746093750001C11.400998099999999,9.43774609375,12.2199993,10.43974589375,12.6219988,11.69824599375C12.6657495,11.83674809375,12.7042761,11.97684769375,12.7374992,12.11824609375C14.001998,11.93524549375,15.227499,11.81674579375,16.407999,11.76424599375C16.712499,11.75224589375,17.013999,11.743246593750001,17.312497999999998,11.740246293750001C17.147499,10.141246293750001,16.838498,8.68624639375,16.403498,7.46524639375C15.809499,5.79874659375,14.990499,4.60774672375,14.036498,4.02274656375C14.010998,4.00774654375,13.9884977,3.99124655375,13.9659986,3.97324654375C13.0629988,4.12774652375,12.1809988,4.38574653375,11.328999,4.74574649375C9.8994985,5.35024659375,8.6169987,6.21574659375,7.5144987,7.31674669375C7.293581,7.537845093750001,7.0814185,7.767521893750001,6.8784986,8.00524659375C8.1714988,8.00674679375,9.3039989,8.272246393749999,10.2519984,8.798746093750001ZM27.983498,15.95674509375C26.853996,15.18574609375,25.626997,14.60074609375,24.332499,14.17474509375C24.387999,14.48224409375,24.473497,14.80774609375,24.593498,15.15274509375C25.085499,16.55824509375,26.058998,17.94724609375,27.486998,19.28524609375C27.812498,18.21424609375,27.984999,17.102745093750002,28,15.96724609375C27.994173,15.96428909375,27.988646,15.96077209375,27.983498,15.95674509375ZM17.436999,13.55374619375C17.432499999999997,13.44124599375,17.427999,13.32874579375,17.423501,13.21774579375C15.922,13.23574639375,14.4025,13.37224669375,12.8995008,13.59274579375C12.8965006,13.90774609375,12.8725004,14.22874409375,12.8260012,14.55724509375C12.6835012,15.56974609375,12.3370008,16.59274709375,11.798501,17.60074609375C10.6690016,19.71124409375,8.7970014,21.56524509375,6.3760011,22.97224609375C6.722500999999999,23.43574709375,7.102001,23.87524609375,7.5160012,24.28774609375C8.6185012,25.39024509375,9.9010015,26.25424609375,11.3305011,26.85874509375C12.3580017,27.29374709375,13.4305019,27.57874309375,14.533002,27.71374709375C16.522002,23.77474809375,17.608003,18.481245093749997,17.436999,13.55374619375ZM11.2704997,12.35824589375C11.252500099999999,12.28774549375,11.2330003,12.21724609375,11.210499800000001,12.14824579375C10.589499499999999,10.20274589375,8.6665001,9.25024609375,5.932,9.53674599375C5.875,9.54274609375,5.8195001,9.54274609375,5.7640001000000005,9.53524589375C5.4505912,10.04576249375,5.1763064,10.579289393749999,4.94350016,11.13124609375C4.5280000000000005,12.11524579375,4.24750002,13.13824459375,4.10650001,14.18974609375C6.6025,13.38124559375,8.996500000000001,12.76924609375,11.2704997,12.35824589375ZM26.869001,20.72374509375C25.0495,19.11574409375,23.813501,17.40424609375,23.197001,15.64174509375C22.956999,14.95324509375,22.830999,14.31874609375,22.784502,13.74424549375C21.5305,13.45774649375,20.23,13.29724599375,18.907001,13.24024579375C18.910001,13.32724669375,18.9145,13.41424559375,18.9175,13.50124649375C19.003,15.96124509375,18.788501,18.58024609375,18.295,21.07924509375C17.810499999999998,23.53324509375,17.084499,25.79074509375,16.136499999999998,27.80224609375C17.708501,27.78424609375,19.233999,27.46774509375,20.672501,26.86024709375C22.102001,26.25574709375,23.384501,25.39024509375,24.487001,24.28924609375C25.511499,23.26474609375,26.331999,22.08124509375,26.9275,20.77174609375C26.9065,20.75674609375,26.887001,20.74174509375,26.869001,20.72374509375ZM10.4919996,16.90174609375C11.0424995,15.87274609375,11.3530002,14.81674709375,11.407000100000001,13.83874609375C8.870500100000001,14.30524509375,6.4180002,14.98474609375,4.22200036,15.71074609375C4.15025267,15.73411809375,4.075444005,15.74675509375,4.00000035762787,15.74824609375L4.00000035762787,15.80224609375C4.00000035762787,17.422247093750002,4.31800035,18.99424609375,4.94350028,20.47324609375C5.1265002,20.90524709375,5.3335003,21.32524709375,5.5645003,21.73024509375C8.3575001,20.12524609375,9.785499999999999,18.22324609375,10.4919996,16.90174609375Z" fill="url(#master_svg1_43_19738)" fill-opacity="1"/></g></svg>