<svg xmlns="http://www.w3.org/2000/svg" xmlns:xlink="http://www.w3.org/1999/xlink" fill="none" version="1.1" width="16" height="16" viewBox="0 0 16 16"><defs><clipPath id="master_svg0_159_79935"><rect x="0" y="0" width="16" height="16" rx="0"/></clipPath><filter id="master_svg1_159_79936" filterUnits="objectBoundingBox" color-interpolation-filters="sRGB" x="-0.31384450812666664" y="-0.33846571233355033" width="1.6276890162533333" height="1.6769314246671005"><feFlood flood-opacity="0" result="BackgroundImageFix"/><feColorMatrix in="SourceAlpha" type="matrix" values="0 0 0 0 0 0 0 0 0 0 0 0 0 0 0 0 0 0 127 0"/><feOffset dy="0" dx="0"/><feGaussianBlur stdDeviation="1"/><feColorMatrix type="matrix" values="0 0 0 0 1 0 0 0 0 0.5221238732337952 0 0 0 0 0.5221238732337952 0 0 0 1 0"/><feBlend mode="normal" in2="BackgroundImageFix" result="effect1_dropShadow"/><feBlend mode="normal" in="SourceGraphic" in2="effect1_dropShadow" result="shape"/></filter></defs><g clip-path="url(#master_svg0_159_79935)"><path d="M14.221986171875,4.7616052812500005L8.424698871875,2.22210026125C8.418313971875001,2.21890783125,8.410333671875,2.21571565125,8.403948771875001,2.21252322125C8.364044171875001,2.18858075125,8.193254471875001,2.09440660475,8.008098571875,2.08642578125L7.987348571875,2.08642578125C7.800596671875,2.09600281715,7.631402971875,2.18858051125,7.589902371875,2.21252322125C7.583517571875,2.21571565125,7.577133171875,2.22050404125,7.569152371875,2.22210026125L1.784635421875,4.7616052812500005C1.682480573875,4.80150938125,1.621826171875,4.90366408125,1.621826171875,5.00422288125L1.621826171875,5.31068758125C1.621826171875,5.41603468125,1.706423163875,5.50063178125,1.811770321875,5.50063178125L2.437468531875,5.50063178125C2.523661611875,5.50063178125,2.598681691875,5.5564975812499995,2.621027941875,5.63949868125C2.699240171875,5.93798258125,3.031243371875,5.92042448125,3.083917171875,5.91723208125L12.900358171875,5.91723208125C12.953031171875,5.92202048125,13.285035171875,5.93957858125,13.363247171875,5.63949868125C13.385593171875,5.55649808125,13.460613171875,5.50063178125,13.546806171875,5.50063178125L14.172504171875,5.50063178125C14.277852171875,5.50063178125,14.362449171875,5.41603468125,14.362449171875,5.31068758125L14.362449171875,5.02018448125C14.362449171875,5.01060768125,14.364045171875,4.99943448125,14.365640171875,4.9898571812500006C14.376814171875,4.89568328125,14.317756171875,4.811086181249999,14.221986171875,4.7616052812500005ZM13.805385171875,12.73925878125L2.199639321875,12.73925878125C1.754308101875,12.73925878125,1.763885141875,13.17501278125,1.763885141875,13.17501278125L1.763885141875,13.71451778125C1.763885141875,13.81986478125,1.848482131875,13.90446178125,1.953829291875,13.90446178125L14.049599171875,13.90446178125C14.154946171875,13.90446178125,14.239543171875,13.81986478125,14.239543171875,13.71451778125L14.239543171875,13.17501278125C14.241139171875,13.17501278125,14.252312171875,12.73925878125,13.805385171875,12.73925878125ZM3.4574208718749997,6.55410338125L3.4574208718749997,11.46232418125L2.9610121718749998,11.46232418125C2.593893291875,11.46232418125,2.542815681875,11.81028938125,2.536431071875,11.87732788125C2.536431071875,11.88371278125,2.534834861875,11.89009758125,2.534834861875,11.89488598125L2.534834861875,12.11196478125C2.534834861875,12.21731278125,2.6194317318750002,12.30190978125,2.724778871875,12.30190978125L13.300996171875,12.30190978125C13.406343171875,12.30190978125,13.490940171875,12.21731278125,13.490940171875,12.11196478125L13.490940171875,11.89488598125C13.490940171875,11.88850118125,13.490940171875,11.88211628125,13.489343171875,11.87732788125C13.482959171875,11.81028838125,13.431882171875,11.46232418125,13.064763171875,11.46232418125L12.568354171875,11.46232418125L12.568354171875,6.55410338125C12.568354171875,6.44875618125,12.483758171875,6.36415908125,12.378410171875,6.36415908125L11.158937471875,6.36415908125C11.053589771875,6.36415908125,10.968993171875,6.44875618125,10.968993171875,6.55410338125L10.968993171875,11.46232418125L9.995329871875,11.46232418125L9.995329871875,6.55410338125C9.995329871875,6.44875618125,9.910733271875,6.36415908125,9.805385571875,6.36415908125L8.595489471875,6.36415908125C8.490141871875,6.36415908125,8.405545271874999,6.44875618125,8.405545271874999,6.55410338125L8.405545271874999,11.47190098125L7.615441371875,11.47190098125L7.615441371875,6.55410338125C7.615441371875,6.44875618125,7.530844171875,6.36415908125,7.425497071875,6.36415908125L6.215600971875,6.36415908125C6.110253771875,6.36415908125,6.025656671875,6.44875618125,6.025656671875,6.55410338125L6.025656671875,11.46232418125L5.051993371875,11.46232418125L5.051993371875,6.55410338125C5.051993371875,6.44875618125,4.967396271875,6.36415908125,4.862049071875,6.36415908125L3.652152971875,6.36415908125C3.542017471875,6.36415908125,3.457420371875,6.44875618125,3.4574208718749997,6.55410338125Z" fill="#FFFFFF" fill-opacity="1" style="mix-blend-mode:passthrough" filter="url(#master_svg1_159_79936)"/></g></svg>