<svg xmlns="http://www.w3.org/2000/svg" xmlns:xlink="http://www.w3.org/1999/xlink" fill="none" version="1.1" width="32" height="32" viewBox="0 0 32 32"><defs><clipPath id="master_svg0_215_86215"><rect x="0" y="0" width="32" height="32" rx="0"/></clipPath><linearGradient x1="0.5" y1="0" x2="0.5" y2="1" id="master_svg1_43_19738"><stop offset="0%" stop-color="#FFC2C2" stop-opacity="1"/><stop offset="100%" stop-color="#FFFFFF" stop-opacity="1"/></linearGradient></defs><g clip-path="url(#master_svg0_215_86215)"><path d="M20.844086,15.948623C20.844086,15.948623,20.844086,15.967669,20.844086,15.948623L19.28211,17.529647L16.34864,20.444067L14.691422,22.101286L18.653508000000002,23.891844C18.996381,24.044233,19.320205,24.272816,19.586885000000002,24.539492L19.872612,24.82522L24.844269,19.853563L24.558542,19.567836C24.291861,19.301157,24.082331,18.977332,23.910894,18.63446L22.120335,14.672373L20.844086,15.948623ZM14.748566,6.0243559L20.634552,15.053343L21.77746,13.9104328L18.520169,6.7101016L17.682035,5.0147854C17.167727,3.967118487,16.101008999999998,3.66234255,15.339069,4.42428237C14.9581,4.80525231,14.72952,5.376707,14.691422,5.9672104C14.72952,5.986259,14.748566,6.0053072,14.748566,6.0243559ZM26.977701,22.006044L25.377626,20.40597L20.40597,25.377626L22.006044,26.977701L22.044142,27.015797L26.996752,22.063189C26.996752,22.044142,26.996752,22.025091,26.977701,22.006044ZM19.034480000000002,16.672463999999998L20.082146,15.624798L14.291404,6.7481987C13.7199488,6.5577137,13.072299,6.6910532,12.6151361,7.1482174C12.1960688,7.5672846,12.0055838,8.157787800000001,12.0246334,8.7673397L19.034480000000002,16.672463999999998ZM15.434314,20.253584L6.0434041,14.767614C6.0243559,14.748566,5.9862586,14.729518,5.9672104,14.710471C5.3767068,14.748568,4.80525196,14.9581,4.42428216,15.358118C3.66234237,16.120060000000002,3.967118293,17.167727,5.0147855,17.701083L6.7101016,18.539217999999998L13.9294815,21.796511L15.434314,20.253584ZM17.567743999999998,18.139200000000002L18.482070999999998,17.224871L11.548418,9.3768911C10.9579153,9.2816482,10.3293152,9.4340367,9.8911982,9.8721523C9.453083,10.3102674,9.2816467,10.938868,9.3768888,11.5103226L17.567743999999998,18.139200000000002ZM22.672739,27.49201C24.025185,28.311094,25.815742,28.158707,26.977701,26.977701C28.139658,25.815742,28.311094,24.025185,27.49201,22.672739L22.672739,27.49201ZM16.005768,19.682126L16.996289,18.691606L8.7673392,12.0436802C8.176836,12.0246325,7.5672841,12.2151165,7.1672652,12.6151352C6.7101016,13.072299,6.5767622,13.7008991,6.7481985,14.272355L16.005768,19.682126Z" fill="url(#master_svg1_43_19738)" fill-opacity="1"/></g></svg>