<svg xmlns="http://www.w3.org/2000/svg" xmlns:xlink="http://www.w3.org/1999/xlink" fill="none" version="1.1" width="24" height="24" viewBox="0 0 24 24"><defs><clipPath id="master_svg0_170_96870"><rect x="0" y="0" width="24" height="24" rx="0"/></clipPath><filter id="master_svg1_170_96871" filterUnits="objectBoundingBox" color-interpolation-filters="sRGB" x="-0.3" y="-0.3272727499717539" width="1.6" height="1.6545454999435079"><feFlood flood-opacity="0" result="BackgroundImageFix"/><feColorMatrix in="SourceAlpha" type="matrix" values="0 0 0 0 0 0 0 0 0 0 0 0 0 0 0 0 0 0 127 0"/><feOffset dy="0" dx="0"/><feGaussianBlur stdDeviation="1.5"/><feColorMatrix type="matrix" values="0 0 0 0 1 0 0 0 0 0.8156862854957581 0 0 0 0 0.8156862854957581 0 0 0 0.30000001192092896 0"/><feBlend mode="normal" in2="BackgroundImageFix" result="effect1_dropShadow"/><feBlend mode="normal" in="SourceGraphic" in2="effect1_dropShadow" result="shape"/></filter><linearGradient x1="0.5" y1="1" x2="0.5" y2="0" id="master_svg2_119_22697"><stop offset="0%" stop-color="#FFDBDB" stop-opacity="0.800000011920929"/><stop offset="45.873382687568665%" stop-color="#FFFFFF" stop-opacity="1"/></linearGradient></defs><g clip-path="url(#master_svg0_170_96870)"><path d="M3.2160025275,3.0205078125C2.7551692475,3.0205078125,2.3818359375,3.3938411225,2.3818359375,3.8546744025L2.3818359375,21.3538398125L4.0510023375,21.3538398125L4.0510023375,18.8480068125L20.7126679375,18.8480068125L20.7126679375,21.3538398125L22.3818359375,21.3538398125L22.3793349375,8.0096745125C22.3793349375,7.5494370125,22.0062389375,7.1763410125,21.5460009375,7.1763410125C21.0857639375,7.1763410125,20.7126679375,7.5494370125,20.7126679375,8.0096745125L20.7126679375,15.5096748125L4.0510023375,15.5096748125L4.0510023375,3.8538410625C4.0510023375,3.3938411225,3.6776691374999997,3.0205078125,3.2151691875,3.0205078125L3.2160025275,3.0205078125ZM5.7110021374999995,9.6505070125C5.2507648375,9.6505070125,4.8776691375,10.0236029125,4.8776688375,10.483840512499999L4.8776688375,13.8171728125C4.8776691375,14.2774118125,5.2507648375,14.6505068125,5.7110021374999995,14.6505068125L19.0443339375,14.6505068125C19.5045719375,14.6505068125,19.8776679375,14.2774118125,19.8776679375,13.8171728125L19.8776679375,10.483840512499999C19.8776679375,10.0236029125,19.5045719375,9.6505070125,19.0443339375,9.6505070125L5.7110021374999995,9.6505070125ZM5.7110021374999995,7.1871743125C5.2507648375,7.1871743125,4.8776691375,7.5602703125,4.8776691375,8.0205078125C4.8776691375,8.4807443125,5.2507648375,8.853840312500001,5.7110021374999995,8.853840312500001L10.7101688375,8.853840312500001C11.1704063375,8.853840312500001,11.5435028375,8.4807443125,11.5435028375,8.0205078125C11.5435028375,7.5602703125,11.1704063375,7.1871743125,10.7101688375,7.1871738125L5.7110021374999995,7.1871743125Z" fill="url(#master_svg2_119_22697)" fill-opacity="1" filter="url(#master_svg1_170_96871)"/></g></svg>