<svg xmlns="http://www.w3.org/2000/svg" xmlns:xlink="http://www.w3.org/1999/xlink" fill="none" version="1.1" width="20" height="20.720733642578125" viewBox="0 0 20 20.720733642578125"><defs><linearGradient x1="0.5" y1="0" x2="0.5" y2="1" id="master_svg0_43_19738"><stop offset="0%" stop-color="#FFC2C2" stop-opacity="1"/><stop offset="100%" stop-color="#FFFFFF" stop-opacity="1"/></linearGradient></defs><g><path d="M19.999992,10.004286C19.999992,4.4820118,15.505085,0,9.9942732,0L9.9942732,0.0014328216C4.4848948,0.0014328216,-0.01001333,4.4820118,0.000016744025,9.9928236C-0.00045989719,13.319095,1.6525462,16.428013,4.4103851,18.287697L5.2027617,17.112747C2.8370955,15.5151,1.4257202,12.852828,1.4257202,10.005719C1.4257202,5.2743874,5.2658076,1.4228377,9.9942732,1.4228377C14.731058,1.4291528,18.569407,5.2675004,18.575722,10.004286C18.583673,12.928727,17.093393,15.653516,14.626737,17.22451L15.39332,18.425253C18.266968,16.589872,20.004297,13.414044,19.999992,10.004286ZM12.569154,4.8703308L8.3593874,5.3661032L5.8217773,14.158183L9.227705,14.219796L6.6256161,20.720718L14.118085,11.928639L10.154772,11.805412L12.569154,4.8703308Z" fill-rule="evenodd" fill="url(#master_svg0_43_19738)" fill-opacity="1"/></g></svg>