<svg xmlns="http://www.w3.org/2000/svg" xmlns:xlink="http://www.w3.org/1999/xlink" fill="none" version="1.1" width="18" height="18" viewBox="0 0 18 18"><defs><linearGradient x1="0.5" y1="0" x2="0.5" y2="1" id="master_svg0_43_19738"><stop offset="0%" stop-color="#FFC2C2" stop-opacity="1"/><stop offset="100%" stop-color="#FFFFFF" stop-opacity="1"/></linearGradient></defs><path d="M14.1,0.80078125L4,0.80078125C2.89999998,0.80078125,2,1.70078123,2,2.80078125L2,16.80078125L2.9000000999999997,16.80078125L4.8000001999999995,15.40078125C4.9000001,15.30078125,5.1000004,15.30078125,5.2000003,15.40078125L6.9000001,16.60078125C7,16.70078225,7.2000003,16.70078225,7.3000002,16.60078125L9.000000499999999,15.40078125C9.100000900000001,15.30078125,9.3000007,15.30078125,9.4000001,15.40078125L11.1000004,16.60078125C11.2000008,16.70078225,11.3999996,16.70078225,11.5,16.60078125L13.199999,15.40078125C13.299999,15.30078125,13.5,15.30078125,13.599998,15.40078125L15.499998,16.80078125L16.399998,16.80078125L16.399998,2.80078125C16.099998,1.70078123,15.199999,0.80078125,14.1,0.80078125ZM11.1000004,8.60078145L11.5,10.80078125C11.5,11.10078125,11.2999992,11.30078125,11.1000004,11.10078125L9.2000003,10.10078145L8.9000001,10.10078145L7,11.10078125C6.8000002,11.20078225,6.5,11.00078125,6.5999999,10.80078125L7,8.80078125C7,8.70078135,7,8.60078145,6.9000001,8.50078105L5.3000001999999995,7.00078105C5.1000004,6.80078125,5.2000003,6.50078105,5.5,6.50078105L7.5999999,6.20078085C7.6999998,6.20078085,7.7999997,6.10078095,7.7999997,6.00078105L8.6999998,4.10078095C8.7999997,3.90078095,9.0999999,3.90078095,9.2999997,4.10078095L10.1999989,6.00078105C10.1999989,6.10078095,10.2999992,6.20078085,10.3999996,6.20078085L12.499998,6.50078105C12.799999,6.50078105,12.899998,6.90078115,12.699999,7.00078105L11.1000004,8.60078145Z" fill="url(#master_svg0_43_19738)" fill-opacity="1"/></svg>