<svg xmlns="http://www.w3.org/2000/svg" xmlns:xlink="http://www.w3.org/1999/xlink" fill="none" version="1.1" width="20" height="20" viewBox="0 0 20 20"><defs><linearGradient x1="0.5" y1="0" x2="0.5" y2="1" id="master_svg0_43_19738"><stop offset="0%" stop-color="#FFC2C2" stop-opacity="1"/><stop offset="100%" stop-color="#FFFFFF" stop-opacity="1"/></linearGradient></defs><path d="M16.999997999999998,12.9473696L5.9153313999999995,12.9473696Q5.739129800000001,12.9473696,5.5469100000000005,13.04348Q5.3546906,13.13959,5.1864984,13.331809Q5.018306,13.524028,4.9141872,13.788331Q4.8100684000000005,14.052633,4.8100681000000005,14.389016Q4.8100677,14.7254,4.8981688000000005,15.013731Q4.9862698000000005,15.302061,5.1304343,15.526317Q5.2745988,15.750571,5.482837,15.87872Q5.6910753,16.006868,5.9313495,16.006866000000002L16.999997,16.006866000000002Q16.807778,15.814647,16.663614000000003,15.574371Q16.535467,15.366135,16.431348,15.077804Q16.327229000000003,14.789474,16.327229000000003,14.421054Q16.327229000000003,14.004578,16.431348,13.732266Q16.535467,13.459955,16.663614000000003,13.283754Q16.807778,13.091535,16.999997999999998,12.9473696ZM16.999997999999998,17.320366Q16.999997999999998,17.592677000000002,16.647595000000003,17.592677000000002L4.938215,17.592677000000002Q4.3935926,17.592677000000002,4.0251715,17.368422000000002Q3.65675062,17.144164,3.42448509,16.751716000000002Q3.19221953,16.359268,3.09610983,15.814645Q3.0000001217326,15.270022,3,14.645309L3,5.354691Q3,4.1212814,3.65675062,3.56864989Q4.3135014,3.016018372,5.5308926,3.016018312L6.075515,3.016018312L7.1647596,3.016018312L8.654462299999999,3.016018312Q9.471396,3.016018312,10.328375300000001,3.0080091562Q11.1853542,3,12.0022879,3L13.508009,3L14.629291,3L15.189932,3Q15.638444,3,15.974828,3.1842105099999998Q16.311213000000002,3.36842102,16.535469,3.69679624Q16.759726,4.0251715,16.879862,4.4736841Q16.999997999999998,4.9221969,17,5.4347825L17,11.9221964Q13.940503,11.9221964,11.4897032,11.9061785L9.4393606,11.9061785Q8.4141889,11.9061785,7.6052642,11.8981695Q6.7963395,11.8901596,6.267735699999999,11.8901596L5.6750581,11.8901596Q5.3386741,11.8901596,5.018307699999999,12.0903893Q4.6979415,12.290617,4.4416488,12.6350117Q4.1853559,12.9794054,4.0251728,13.435927Q3.86498982,13.892448,3.86498982,14.389016Q3.86498982,14.997713,4.0331817999999995,15.486271Q4.2013739,15.974828,4.4736854,16.311213000000002Q4.7459967,16.647598000000002,5.0743721,16.831808000000002Q5.4027472,17.016018000000003,5.7231133,17.016018000000003L16.663615,17.016018000000003Q16.791761,17.016018000000003,16.895882,17.088101Q17,17.160184,16.999997999999998,17.320366ZM10.0961094,3.0000018944634L10.0961094,9.199085700000001L11.3295183,7.4691095L12.5469103,9.199085700000001L12.5469103,3.0000018944634L10.0961094,3.0000018944634Z" fill="url(#master_svg0_43_19738)" fill-opacity="1"/></svg>