<svg xmlns="http://www.w3.org/2000/svg" xmlns:xlink="http://www.w3.org/1999/xlink" fill="none" version="1.1" width="17.521484375" height="17.521484375" viewBox="0 0 17.521484375 17.521484375"><defs><linearGradient x1="0.5" y1="0" x2="0.5" y2="1" id="master_svg0_43_19738"><stop offset="0%" stop-color="#FFC2C2" stop-opacity="1"/><stop offset="100%" stop-color="#FFFFFF" stop-opacity="1"/></linearGradient></defs><path d="M0.4208984375,8.740234375L8.4208984375,13.311663375L8.4208984375,12.175950375L0.4208984375,7.599163575L0.4208984375,8.740234375ZM0.4208984375,12.168806375L8.4208984375,16.740234375L8.4208984375,15.599163375L0.4208984375,11.027734375L0.4208984375,12.168806375ZM8.4351844375,0.740234375L0.4208984375,5.311663175L8.4208984375,9.883091975L16.4208984375,5.311663175L8.4351844375,0.740234375ZM13.8083984375,9.600949275L12.6316114375,9.600949275L12.6316114375,12.218807375L10.0173282375,12.218807375L10.0173282375,13.390235375L12.6298274375,13.390235375L12.6298274375,16.002735375L13.8066134375,16.002735375L13.8066134375,13.390235375L16.4208984375,13.390235375L16.4208984375,12.218807375L13.8083994375,12.218807375L13.8083984375,9.600949275Z" fill="url(#master_svg0_43_19738)" fill-opacity="1"/></svg>