<svg xmlns="http://www.w3.org/2000/svg" xmlns:xlink="http://www.w3.org/1999/xlink" fill="none" version="1.1" width="24" height="24" viewBox="0 0 24 24"><defs><clipPath id="master_svg0_159_64049"><rect x="0" y="0" width="24" height="24" rx="0"/></clipPath><filter id="master_svg1_159_64050" filterUnits="objectBoundingBox" color-interpolation-filters="sRGB" x="-0.27185107702433353" y="-0.2923884954047073" width="1.543702154048667" height="1.5847769908094145"><feFlood flood-opacity="0" result="BackgroundImageFix"/><feColorMatrix in="SourceAlpha" type="matrix" values="0 0 0 0 0 0 0 0 0 0 0 0 0 0 0 0 0 0 127 0"/><feOffset dy="0" dx="0"/><feGaussianBlur stdDeviation="1.5"/><feColorMatrix type="matrix" values="0 0 0 0 1 0 0 0 0 0.8156862854957581 0 0 0 0 0.8156862854957581 0 0 0 0.30000001192092896 0"/><feBlend mode="normal" in2="BackgroundImageFix" result="effect1_dropShadow"/><feBlend mode="normal" in="SourceGraphic" in2="effect1_dropShadow" result="shape"/></filter><linearGradient x1="0.5" y1="1" x2="0.5" y2="0" id="master_svg2_123_04455"><stop offset="0%" stop-color="#FFDBDB" stop-opacity="0.800000011920929"/><stop offset="45.873382687568665%" stop-color="#FFFFFF" stop-opacity="1"/></linearGradient></defs><g clip-path="url(#master_svg0_159_64049)"><path d="M22.12104628125,10.0985450890625L19.16691628125,10.0985450890625C18.74489828125,10.0985450890625,18.42838428125,10.4150590890625,18.42838428125,10.8370767890625L18.42838428125,19.6994627890625L16.95132028125,19.6994627890625L16.95132028125,5.6673521890625L19.16691628125,5.6673521890625L12.20361328125,0.8141407190625C11.99260428125,0.6031315140625,11.57058628125,0.6031315140625,11.35957728125,0.8141407190625L4.39627388125,5.6673521890625L6.61187078125,5.6673521890625L6.61187078125,19.6994627890625L5.13480618125,19.6994627890625L5.13480618125,10.8370767890625C5.13480618125,10.4150590890625,4.81829258125,10.0985450890625,4.39627388125,10.0985450890625L1.44214547125,10.0985450890625C1.02012712125,10.0985450890625,0.70361328125,10.4150590890625,0.70361328125,10.8370767890625L0.70361328125,21.1765267890625L22.75407228125,21.1765267890625L22.75407228125,10.8370767890625C22.85957728125,10.4150590890625,22.54306228125,10.0985450890625,22.12104628125,10.0985450890625ZM4.39627598125,17.4838657890625L1.44214547125,17.4838657890625L1.44214547125,16.7453347890625L4.39627388125,16.7453347890625L4.39627598125,17.4838657890625ZM4.39627598125,15.2682707890625L1.44214547125,15.2682707890625L1.44214547125,14.5297387890625L4.39627388125,14.5297387890625L4.39627598125,15.2682707890625ZM4.39627598125,13.0526747890625L1.44214547125,13.0526747890625L1.44214547125,12.3141407890625L4.39627388125,12.3141407890625L4.39627598125,13.0526747890625ZM11.78159728125,10.8370777890625C10.51554198125,10.8370777890625,9.56600098125,9.8875360890625,9.56600098125,8.621481889062501C9.56600098125,7.3554272890625,10.62104698125,6.4058861890625,11.78159728125,6.4058861890625C13.04765228125,6.4058861890625,13.99719428125,7.3554272890625,13.99719428125,8.621481889062501C13.99719428125,9.7820319890625,13.04765228125,10.8370777890625,11.78159728125,10.8370777890625ZM22.12104628125,17.4838677890625L19.16691628125,17.4838677890625L19.16691628125,16.7453367890625L22.12104628125,16.7453367890625L22.12104628125,17.4838677890625ZM22.12104628125,15.2682727890625L19.16691628125,15.2682727890625L19.16691628125,14.5297407890625L22.12104628125,14.5297407890625L22.12104628125,15.2682727890625ZM22.12104628125,13.0526757890625L19.16691628125,13.0526757890625L19.16691628125,12.3141427890625L22.12104628125,12.3141427890625L22.12104628125,13.0526757890625Z" fill="url(#master_svg2_123_04455)" fill-opacity="1" filter="url(#master_svg1_159_64050)"/></g></svg>