<svg xmlns="http://www.w3.org/2000/svg" xmlns:xlink="http://www.w3.org/1999/xlink" fill="none" version="1.1" width="24" height="24" viewBox="0 0 24 24"><defs><clipPath id="master_svg0_170_96962"><rect x="0" y="0" width="24" height="24" rx="0"/></clipPath><filter id="master_svg1_170_96963" filterUnits="objectBoundingBox" color-interpolation-filters="sRGB" x="-0.375" y="-0.32871095397011313" width="1.75" height="1.6574219079402264"><feFlood flood-opacity="0" result="BackgroundImageFix"/><feColorMatrix in="SourceAlpha" type="matrix" values="0 0 0 0 0 0 0 0 0 0 0 0 0 0 0 0 0 0 127 0"/><feOffset dy="0" dx="0"/><feGaussianBlur stdDeviation="1.5"/><feColorMatrix type="matrix" values="0 0 0 0 1 0 0 0 0 0.8156862854957581 0 0 0 0 0.8156862854957581 0 0 0 0.30000001192092896 0"/><feBlend mode="normal" in2="BackgroundImageFix" result="effect1_dropShadow"/><feBlend mode="normal" in="SourceGraphic" in2="effect1_dropShadow" result="shape"/></filter><linearGradient x1="0.5" y1="1" x2="0.5" y2="0" id="master_svg2_119_22697"><stop offset="0%" stop-color="#FFDBDB" stop-opacity="0.800000011920929"/><stop offset="45.873382687568665%" stop-color="#FFFFFF" stop-opacity="1"/></linearGradient></defs><g clip-path="url(#master_svg0_170_96962)"><path d="M16.8586629375,4.7210427125C16.780231937499998,4.7210427125,16.7160609375,4.6568714125,16.7160609375,4.5784401125L16.7160609375,3.3057127925C16.7160609375,3.1488500525,16.587717937500003,3.0205078125,16.4308559375,3.0205078125L7.329251337500001,3.0205078125C7.1723888375,3.0205078125,7.0440466375,3.1488500525,7.0440466375,3.3057127925L7.0440466375,4.5784401125C7.0440466375,4.6568714125,6.9798751375000005,4.7210427125,6.9014439375,4.7210427125L3.8818359375,4.7210427125L3.8818359375,21.2736268125L9.8747053375,21.2736268125L9.8747053375,19.7156948125C9.8747053375,19.6372638125,9.9388775375,19.5730938125,10.017308737499999,19.5730938125L13.7499294375,19.5730938125C13.8283605375,19.5730938125,13.8925309375,19.6372638125,13.8925309375,19.7156948125L13.8925309375,21.2736268125L19.8818359375,21.2736268125L19.8818359375,4.7210427125L16.8586629375,4.7210427125ZM8.949572037500001,16.6390468125L8.949572037500001,14.9563348125C8.949572037500001,14.9171198125,8.9816570375,14.8850358125,9.0208730375,14.8850358125L10.8337073375,14.8850358125C10.8729233375,14.8850358125,10.905008837499999,14.9171198125,10.905008837499999,14.9563348125L10.905008837499999,16.6390468125C10.905008837499999,16.6782628125,10.8729233375,16.7103468125,10.8337073375,16.7103468125L9.0208730375,16.7103468125C8.9816570375,16.7103468125,8.949572037500001,16.6782628125,8.949572037500001,16.6390468125ZM14.7427989375,9.4091000125L12.9299640375,9.4091000125C12.8907480375,9.4091000125,12.8586626375,9.3770146125,12.8586626375,9.3377981125L12.8586626375,7.6550889125C12.8586626375,7.6158733125,12.8907480375,7.5837874125,12.9299640375,7.5837874125L14.7427989375,7.5837874125C14.7820149375,7.5837874125,14.8140989375,7.6158733125,14.8140989375,7.6550889125L14.8140989375,9.3377981125C14.8140989375,9.3770146125,14.7820149375,9.4091000125,14.7427989375,9.4091000125ZM14.8140989375,11.2344112125L14.8140989375,12.9884224125C14.8140989375,13.0276388125,14.7820149375,13.0597228125,14.7427989375,13.0597228125L12.9299640375,13.0597228125C12.8907480375,13.0597228125,12.8586626375,13.0276388125,12.8586626375,12.9884224125L12.8586626375,11.3057127125C12.8586626375,11.2664976125,12.8907480375,11.2344122125,12.9299640375,11.2344122125L14.8140989375,11.2344112125ZM10.8337073375,9.4091000125L9.0208730375,9.4091000125C8.9816570375,9.4091000125,8.949572037500001,9.3770146125,8.949572037500001,9.3377981125L8.949572037500001,7.6550889125C8.949572037500001,7.6158733125,8.9816570375,7.5837874125,9.0208730375,7.5837874125L10.8337073375,7.5837874125C10.8729233375,7.5837874125,10.905008837499999,7.6158733125,10.905008837499999,7.6550889125L10.905008837499999,9.3377981125C10.905008837499999,9.3770146125,10.8729233375,9.4091000125,10.8337073375,9.4091000125ZM10.905008837499999,11.3057127125L10.905008837499999,12.9884224125C10.905008837499999,13.0276388125,10.8729233375,13.0597228125,10.8337073375,13.0597228125L9.0208730375,13.0597228125C8.9816570375,13.0597228125,8.949572037500001,13.0276388125,8.949572037500001,12.9884224125L8.949572037500001,11.3057127125C8.949572037500001,11.2664976125,8.9816570375,11.2344122125,9.0208730375,11.2344122125L10.8337073375,11.2344122125C10.8729233375,11.2344122125,10.905008837499999,11.2664976125,10.905008837499999,11.3057127125ZM12.8586626375,16.6390468125L12.8586626375,14.9563348125C12.8586626375,14.9171198125,12.8907480375,14.8850358125,12.9299640375,14.8850358125L14.7427989375,14.8850358125C14.7820149375,14.8850358125,14.8140989375,14.9171198125,14.8140989375,14.9563348125L14.8140989375,16.6390468125C14.8140989375,16.6782628125,14.7820149375,16.7103468125,14.7427989375,16.7103468125L12.9299640375,16.7103468125C12.8907480375,16.7103468125,12.8586626375,16.6782628125,12.8586626375,16.6390468125Z" fill="url(#master_svg2_119_22697)" fill-opacity="1" filter="url(#master_svg1_170_96963)"/></g></svg>