<svg xmlns="http://www.w3.org/2000/svg" xmlns:xlink="http://www.w3.org/1999/xlink" fill="none" version="1.1" width="25" height="23.134033203125" viewBox="0 0 25 23.134033203125"><defs><filter id="master_svg0_170_000866" filterUnits="objectBoundingBox" color-interpolation-filters="sRGB" x="-0.375" y="-0.4245069942427502" width="1.75" height="1.8490139884855004"><feFlood flood-opacity="0" result="BackgroundImageFix"/><feColorMatrix in="SourceAlpha" type="matrix" values="0 0 0 0 0 0 0 0 0 0 0 0 0 0 0 0 0 0 127 0"/><feOffset dy="0" dx="0"/><feGaussianBlur stdDeviation="1.5"/><feColorMatrix type="matrix" values="0 0 0 0 1 0 0 0 0 0.8156862854957581 0 0 0 0 0.8156862854957581 0 0 0 0.30000001192092896 0"/><feBlend mode="normal" in2="BackgroundImageFix" result="effect1_dropShadow"/><feBlend mode="normal" in="SourceGraphic" in2="effect1_dropShadow" result="shape"/></filter><linearGradient x1="0.5" y1="0" x2="0.5" y2="1" id="master_svg1_43_19738"><stop offset="0%" stop-color="#FFC2C2" stop-opacity="1"/><stop offset="100%" stop-color="#FFFFFF" stop-opacity="1"/></linearGradient></defs><path d="M20.1,18.634043L4.9000001,18.634043C4.6787236,18.634043,4.5,18.455319,4.5,18.234042000000002C4.5,18.012767,4.67872328,17.834043,4.9000001,17.834043L5.16595757,17.834043L5.16595757,5.8340425C5.16595757,5.0978722,5.7638301,4.5,6.5,4.5L13.1659575,4.5C13.9021273,4.5,14.5,5.0978725,14.5,5.8340425L14.5,8.4999998L18.5,8.4999998C19.23617,8.4999998,19.834044,9.097872299999999,19.834044,9.834043000000001L19.834044,17.834043L20.1,17.834043C20.321279,17.834043,20.5,18.012767,20.5,18.234042000000002C20.5,18.455319,20.321277000000002,18.634043,20.1,18.634043ZM8.9000001,7.034042400000001L7.034042400000001,7.034042400000001L7.034042400000001,8.899999600000001L8.9000001,8.899999600000001L8.9000001,7.034042400000001ZM8.9000001,10.834043000000001L7.034042400000001,10.834043000000001L7.034042400000001,12.7000008L8.9000001,12.7000008L8.9000001,10.834043000000001ZM8.9000001,14.634043L7.034042400000001,14.634043L7.034042400000001,16.5L8.9000001,16.5L8.9000001,14.634043ZM12.6340427,7.0340419L10.768085,7.0340419L10.768085,8.899999600000001L12.6340427,8.899999600000001L12.6340427,7.0340419ZM12.6340427,10.834041599999999L10.768085,10.834041599999999L10.768085,12.6999998L12.6340427,12.6999998L12.6340427,10.834041599999999ZM12.6340427,14.634043L10.768085,14.634043L10.768085,16.5L12.6340427,16.5L12.6340427,14.634043ZM18.234042000000002,10.9021273L16.368085,10.9021273L16.368085,12.7680845L18.234042000000002,12.7680845L18.234042000000002,10.9021273ZM18.234042000000002,14.634043L16.368085,14.634043L16.368085,16.5L18.234042000000002,16.5L18.234042000000002,14.634043Z" fill="url(#master_svg1_43_19738)" fill-opacity="1" filter="url(#master_svg0_170_000866)"/></svg>