<svg xmlns="http://www.w3.org/2000/svg" xmlns:xlink="http://www.w3.org/1999/xlink" fill="none" version="1.1" width="16" height="16" viewBox="0 0 16 16"><defs><clipPath id="master_svg0_159_35560"><rect x="0" y="0" width="16" height="16" rx="0"/></clipPath></defs><g clip-path="url(#master_svg0_159_35560)"><path d="M8.156033,1C8.3840322,1,8.6110325,1.042000055,8.821031999999999,1.12300003L13.954033,3.095C14.588033,3.3380001,15.000032,3.9030001,15.000032,4.5290003L15.000032,13.443C15.000032,14.302999,14.234033,15,13.289032,15L8.156033,15L8.0610323,14.998C8.422141100000001,14.977251,8.7190604,14.705808,8.7720327,14.348001L8.7780323,14.258L8.7780323,3.2980001C8.7781034,3.248945,8.7730765,3.2000155,8.763031999999999,3.1520002C8.684031000000001,2.7790002,8.3260322,2.5280001,7.9370317,2.5580002L7.8470316,2.5700002L6.4440317,2.8370001L6.4440317,2.5570002C6.4440317,1.69700015,7.2110319,1.00000011920929,8.156033,1ZM7.9800324,4.7309999000000005C7.9928632,4.7874476999999995,7.9995689,4.8451145,8.0000324,4.9029999Q8.0000324,7.22925,8.0000324,9.5555Q8.0000324,11.88175,8.0000324,14.208C8.0039158,14.64155,7.6555839,14.996152,7.2220325,15L1.77803224,15C1.34448117,14.996152,0.9961487055,14.64155,1.000032246113,14.208L1.000032246113,6.1350007C1.000032246113,5.763,1.25303227,5.4420004,1.61003226,5.3620005L7.0520325,4.1300004C7.4746647,4.0374546,7.8916163,4.3074846,7.9800324,4.7309999000000005ZM5.0000324,9L4.0000322,9C3.493057,9.0000668,3.0663476,9.3795071,3.0070322,9.8830004L3.0000322,10L3.0000322,13L6.0000324,13L6.0000324,10C6.0000324,9.4477148,5.5523171,9,5.0000324,9Z" fill="#FFFFFF" fill-opacity="1" style="mix-blend-mode:passthrough"/></g></svg>