<svg xmlns="http://www.w3.org/2000/svg" xmlns:xlink="http://www.w3.org/1999/xlink" fill="none" version="1.1" width="21.90185546875" height="21.90185546875" viewBox="0 0 21.90185546875 21.90185546875"><defs><linearGradient x1="0.5" y1="0" x2="0.5" y2="1" id="master_svg0_43_19738"><stop offset="0%" stop-color="#FFC2C2" stop-opacity="1"/><stop offset="100%" stop-color="#FFFFFF" stop-opacity="1"/></linearGradient></defs><path d="M5.8218524875,6.5291351875C6.4235705875,6.5291351875,6.9112791875,5.9084157875,6.9112791875,5.1399051875L6.9112791875,3.5796600874999998C6.9112791875,2.8132609175,6.4235705875,2.1904296875,5.8218524875,2.1904296875C5.220133987500001,2.1904296875,4.7324251875000005,2.8111496575,4.7324251875000005,3.5796600874999998L4.7324251875000005,5.1399046875C4.7324251875000005,5.9063036874999995,5.220133987500001,6.5291351875,5.8218524875,6.5291351875ZM15.1432076875,6.5291351875C15.7449256875,6.5291351875,16.232633687499998,5.9084157875,16.232633687499998,5.1399051875L16.232633687499998,3.5796600874999998C16.232633687499998,2.8132609175,15.7027006875,2.1904296875,15.1009816875,2.1904296875C14.4992626875,2.1904296875,14.0516686875,2.8111496575,14.0516686875,3.5796600874999998L14.0516686875,5.1399046875C14.0537796875,5.9063036874999995,14.5414886875,6.5291351875,15.1432076875,6.5291351875ZM18.7640746875,5.1251260875C18.7640746875,3.7654541875,17.5796396875,3.8520170875,17.5796396875,3.8520170875L16.9779206875,3.8520170875C16.9779206875,3.8520170875,16.980030687499998,5.1251260875,16.9779206875,6.0709848875C16.9758096875,7.0189547875,16.084844687500002,7.0274004875,16.084844687500002,7.0274004875C16.084844687500002,7.0274004875,15.2149926875,7.0252885875,14.2374636875,7.0274004875C13.2620466875,7.0295114875,13.3063836875,6.0815412875,13.3063836875,6.0815412875L13.3063836875,3.8520165875L7.7114605875,3.8520165875L7.7114605875,6.0604283875C7.7114605875,7.0506243875,6.7846035875,7.0295114875,6.7846035875,7.0295114875C6.7846035875,7.0295114875,5.857746587499999,7.0316223875,4.9520015875,7.0295114875C4.0462572875,7.0274004875,4.0314786875,6.0604283875,4.0314786875,6.0604283875L4.0314786875,3.8520165875L3.4213151875000003,3.8520165875C2.2601044845,3.8520165875,2.1904317815247,5.1209032875,2.1904317815247,5.1209032875C2.1904317815247,5.1209032875,2.1904317815247,6.8120483875,2.1925430414,8.9423422875L18.7682976875,8.9423422875L18.7640746875,5.1251260875ZM16.232633687499998,11.4695596875C17.1742696875,11.4695596875,18.0483456875,11.7735862875,18.7704086875,12.2908526875L18.7682976875,9.886090787499999L2.1904296875,9.886090787499999L2.1904296875,17.3832896875C2.1904296875,18.6437296875,3.4234244875,18.6563986875,3.4234244875,18.6563986875L12.4998696875,18.6563986875C12.0332746875,17.9237806875,11.7588071875,17.047593687499997,11.7588071875,16.1080686875C11.7588071875,13.5512946875,13.7666456875,11.4695596875,16.232633687499998,11.4695596875ZM9.9219822875,16.1080686875L4.369283487500001,16.1080686875L4.369283487500001,14.9489686875L9.9219822875,14.9489686875L9.9219822875,16.1080686875ZM9.9219822875,13.2092636875L4.369283487500001,13.2092636875L4.369283487500001,12.0501641875L9.9219822875,12.0501641875L9.9219822875,13.2092636875ZM16.232633687499998,12.4998696875C14.3134686875,12.4998696875,12.7532256875,14.1192306875,12.7532256875,16.1080686875C12.7532256875,18.096906687500002,14.3134696875,19.7162666875,16.232633687499998,19.7162666875C18.1517976875,19.7162666875,19.7120436875,18.096906687500002,19.7120436875,16.1080686875C19.7120436875,14.1192306875,18.151799687500002,12.4998696875,16.232633687499998,12.4998696875ZM18.111683687499998,16.5957766875L15.7618156875,16.5957766875L15.7618156875,14.1593446875L16.701341687499998,14.1593446875L16.701341687499998,15.6203596875L18.1095736875,15.6203596875L18.1095736875,16.5957766875L18.111683687499998,16.5957766875Z" fill="url(#master_svg0_43_19738)" fill-opacity="1"/></svg>