<svg xmlns="http://www.w3.org/2000/svg" xmlns:xlink="http://www.w3.org/1999/xlink" fill="none" version="1.1" width="20" height="20" viewBox="0 0 20 20"><defs><linearGradient x1="0.5" y1="0" x2="0.5" y2="1" id="master_svg0_43_19738"><stop offset="0%" stop-color="#FFC2C2" stop-opacity="1"/><stop offset="100%" stop-color="#FFFFFF" stop-opacity="1"/></linearGradient></defs><path d="M14.444625,9.111155499999999L14.444625,17.110944L13.555584,17.110944L13.555584,5.555365800000001L15.333481,5.555365800000001L10.0002098,2L4.6667407,5.5553612999999995L6.4444151,5.5553612999999995L6.4444151,17.110944L5.555794199999999,17.110944L5.555794199999999,9.111155499999999L2,9.111155499999999L2,18.000011L18,18.000011L18,9.111155499999999L14.444625,9.111155499999999ZM2.8890533400000002,10.8888426L4.6667407,10.8888426L4.6667407,11.7779083L2.8890533400000002,11.7779083L2.8890533400000002,10.8888426ZM2.8890533400000002,12.66653L4.6667407,12.66653L4.6667407,13.555151L2.8890533400000002,13.555151L2.8890533400000002,12.66653ZM2.8890533400000002,14.444637L4.6667407,14.444637L4.6667407,15.333263L2.8890533400000002,15.333261L2.8890533400000002,14.444637ZM10.0002098,6.444428C10.9820738,6.444428,11.7778969,7.2400284,11.7778969,8.2221017C11.7778969,9.204175,10.9820738,9.999788299999999,10.0002098,9.999788299999999C9.0181355,9.999788299999999,8.2225351,9.2041793,8.2225351,8.2221017C8.2225351,7.2400241,9.0181313,6.444428,10.0002098,6.444428ZM8.2225304,17.110950000000003L8.2225304,12.66653L11.7778969,12.66653L11.7778969,17.110944L8.2225304,17.110950000000003ZM15.333481,10.8888426L17.111148999999997,10.8888426L17.111148999999997,11.7779083L15.333481,11.7779083L15.333481,10.8888426ZM15.333481,12.66653L17.111148999999997,12.66653L17.111148999999997,13.555151L15.333481,13.555151L15.333481,12.66653ZM15.333481,14.444637L17.111148999999997,14.444637L17.111148999999997,15.333263L15.333481,15.333263L15.333481,14.444637Z" fill="url(#master_svg0_43_19738)" fill-opacity="1"/></svg>