<svg xmlns="http://www.w3.org/2000/svg" xmlns:xlink="http://www.w3.org/1999/xlink" fill="none" version="1.1" width="32" height="32" viewBox="0 0 32 32"><defs><clipPath id="master_svg0_170_62265"><rect x="0" y="0" width="32" height="32" rx="0"/></clipPath><linearGradient x1="0.5" y1="1" x2="0.5" y2="0" id="master_svg1_29_17013"><stop offset="0%" stop-color="#868686" stop-opacity="0.800000011920929"/><stop offset="50.776487588882446%" stop-color="#FFFFFF" stop-opacity="1"/></linearGradient></defs><g clip-path="url(#master_svg0_170_62265)"><path d="M8.0293441,13.742372L28.279207,13.742372C29.775192,13.742372,31,15.076323,31,16.709105L31,28.033239C31,29.664017,29.775164,31,28.279207,31L8.0293431,31C6.5333295,31,5.3105264,29.664015,5.3105264,28.033237L5.3105264,16.709103C5.3105264,15.076291,6.5332704,13.74237,8.0293441,13.742372ZM6.9981461,1.060760286C6.0194855,0.87127833,5.0586314,1.13490798,4.3027081,1.71302402C3.5429525,2.2882214000000003,2.9863586,3.1808238,2.8106446,4.2482261999999995L1.056690913,15.005979C0.88094764,16.073320000000002,1.1230847800000001,17.121119,1.65447152,17.949184C1.97078586,18.445311,2.3926167,18.862394,2.892664,19.157215L2.892664,16.709017C2.892664,16.435510999999998,2.9102354,16.167017,2.9454666,15.903297C2.9278657,15.730502,2.9318752999999997,15.552725,2.9590578,15.375979L4.714987,4.6172838C4.7949722,4.1230446999999995,5.0549164,3.7110312,5.408349,3.4423897C5.7598357,3.1728637,6.2050757,3.0488615,6.6583343,3.136807L24.669941,6.6318598C25.122965,6.7178001,25.502047,7.0010653,25.748133,7.386692C25.994072,7.7705793,26.107433,8.2577724,26.025414,8.7519531L25.820307,10.0107536L7.2734523,6.4131908L6.4629579,11.373155C6.9590249,11.200359,7.484427,11.104572,8.0294051,11.104572L27.607517,11.104572L27.929728,9.1211586C28.103437,8.0538449,27.861359,7.0060191,27.334011,6.1787782C26.802742,5.3536019,25.986322,4.7442644000000005,25.007837,4.5547233L6.9982066,1.060672391L6.9981461,1.060760286ZM22.61916,15.893716C21.158142,15.893716,19.97455,17.183798,19.97455,18.778431C19.97455,20.371235,21.158112,21.664175,22.61916,21.664175C23.275286,21.664175,23.876959,21.404408,24.337795,20.972788C24.800753,21.404377,25.400362,21.664175,26.056517,21.664175C27.517506,21.664175,28.703014,20.371204,28.703014,18.778431C28.703014,17.183769,27.517506,15.893716,26.056517,15.893716C25.400391,15.893716,24.800783,16.152540000000002,24.337795,16.584101C23.876959,16.152512,23.275316,15.893716,22.61916,15.893716ZM24.558498,25.535244L24.558498,27.496162L28.999901,27.496162L28.999901,25.535244L24.558498,25.535244ZM18.970682,25.535244L18.970682,27.496162L23.412083,27.496162L23.412083,25.535244L18.970682,25.535244ZM13.212872,25.535244L13.212872,27.496162L17.654272,27.496162L17.654272,25.535244L13.212872,25.535244ZM7.6231093,25.535244L7.6231093,27.496162L12.064512,27.496162L12.064512,25.535244L7.6231093,25.535244Z" fill="url(#master_svg1_29_17013)" fill-opacity="1"/></g></svg>