<svg xmlns="http://www.w3.org/2000/svg" xmlns:xlink="http://www.w3.org/1999/xlink" fill="none" version="1.1" width="24" height="24" viewBox="0 0 24 24"><defs><clipPath id="master_svg0_159_44337"><rect x="0" y="0" width="24" height="24" rx="0"/></clipPath><filter id="master_svg1_159_44338" filterUnits="objectBoundingBox" color-interpolation-filters="sRGB" x="-0.3000001430512157" y="-0.3862524951723472" width="1.6000002861024314" height="1.7725049903446946"><feFlood flood-opacity="0" result="BackgroundImageFix"/><feColorMatrix in="SourceAlpha" type="matrix" values="0 0 0 0 0 0 0 0 0 0 0 0 0 0 0 0 0 0 127 0"/><feOffset dy="0" dx="0"/><feGaussianBlur stdDeviation="1.5"/><feColorMatrix type="matrix" values="0 0 0 0 1 0 0 0 0 0.8156862854957581 0 0 0 0 0.8156862854957581 0 0 0 0.30000001192092896 0"/><feBlend mode="normal" in2="BackgroundImageFix" result="effect1_dropShadow"/><feBlend mode="normal" in="SourceGraphic" in2="effect1_dropShadow" result="shape"/></filter><linearGradient x1="0.5" y1="1" x2="0.5" y2="0" id="master_svg2_29_17001"><stop offset="0%" stop-color="#FFDBDB" stop-opacity="0.800000011920929"/><stop offset="45.873382687568665%" stop-color="#FFFFFF" stop-opacity="1"/></linearGradient></defs><g clip-path="url(#master_svg0_159_44337)"><path d="M20.95173231640625,7.8982281375C19.56833431640625,6.8310361375,17.84896831640625,6.1788632375,15.97150131640625,6.1788632375C12.05846431640625,6.1788632375,8.797599316406249,8.9456577375,8.066374816406249,12.6413049375L1.80156202640625,12.6413049375L1.80156202640625,5.8231322375C1.80156202640625,5.0721451675,2.51302349640625,4.4990234375,3.42211301640625,4.4990234375L19.33118031640625,4.4990234375C20.22050831640625,4.4990234375,20.95173231640625,5.0721451675,20.95173231640625,5.8231322375L20.95173231640625,7.8982281375ZM10.16125491640625,14.2423982375C10.16125491640625,11.0210580375,12.76994731640625,8.4321289375,15.97152331640625,8.4321289375C19.17309931640625,8.4321284375,21.78178931640625,11.0012941375,21.78178931640625,14.2226352375C21.78178931640625,17.4439744375,19.17309931640625,20.0329034375,15.97152331640625,20.0329034375C12.76994731640625,20.0329034375,10.16125491640625,17.4637374375,10.16125491640625,14.2423982375ZM14.70670331640625,17.5230264375C14.92409331640625,17.720654437500002,15.26006131640625,17.720654437500002,15.45768931640625,17.5230264375L20.20076531640625,12.7799492375C20.39839331640625,12.5625572375,20.39839331640625,12.2265901375,20.20076531640625,12.028962137499999L19.78574731640625,11.6139431375C19.56835531640625,11.4163150375,19.23238731640625,11.4163150375,19.03475931640625,11.6139431375L15.08219731640625,15.5665074375L12.98733831640625,13.4716472375C12.76994831640625,13.2740192375,12.43397931640625,13.2740192375,12.23635131640625,13.4716472375L11.82133231640625,13.8866672375C11.62370391640625,14.1040582375,11.62370391640625,14.4400253375,11.82133231640625,14.6376544375L14.29168331640625,17.108006437500002L14.70670331640625,17.5230264375ZM1.78179931640625,13.8468370375L7.90827271640625,13.8468370375C7.90827271640625,13.9654131375,7.90827271640625,14.1037521375,7.88850971640625,14.2420930375C7.88850971640625,14.7954514375,7.94779821640625,15.3488104375,8.046612216406249,15.8626434375L3.40235041640625,15.8626434375C2.51302355640625,15.8626434375,1.78179931640625,15.2697584375,1.78179931640625,14.5187724375L1.78179931640625,13.8468370375ZM3.2640107164062497,18.8073034375L9.33119531640625,18.8073034375C9.62763781640625,19.242085437500002,9.96360681640625,19.6373404375,10.33909991640625,19.9930714375L3.2640107164062497,19.9930714375C2.86875441640625,19.9930714375,2.53278642640625,19.716392437499998,2.53278642640625,19.4001874375C2.53278642640625,19.083982437499998,2.86875441640625,18.8073034375,3.2640107164062497,18.8073034375Z" fill-rule="evenodd" fill="url(#master_svg2_29_17001)" fill-opacity="1" filter="url(#master_svg1_159_44338)"/></g></svg>