<svg xmlns="http://www.w3.org/2000/svg" xmlns:xlink="http://www.w3.org/1999/xlink" fill="none" version="1.1" width="24" height="24" viewBox="0 0 24 24"><defs><clipPath id="master_svg0_170_63417"><rect x="0" y="0" width="24" height="24" rx="0"/></clipPath><filter id="master_svg1_170_68702" filterUnits="objectBoundingBox" color-interpolation-filters="sRGB" x="-0.3333333333333333" y="-0.3333333333333333" width="1.6666666666666667" height="1.6666666666666667"><feFlood flood-opacity="0" result="BackgroundImageFix"/><feColorMatrix in="SourceAlpha" type="matrix" values="0 0 0 0 0 0 0 0 0 0 0 0 0 0 0 0 0 0 127 0"/><feOffset dy="0" dx="0"/><feGaussianBlur stdDeviation="1.5"/><feColorMatrix type="matrix" values="0 0 0 0 1 0 0 0 0 0.9262745380401611 0 0 0 0 0.8156862854957581 0 0 0 0.30000001192092896 0"/><feBlend mode="normal" in2="BackgroundImageFix" result="effect1_dropShadow"/><feBlend mode="normal" in="SourceGraphic" in2="effect1_dropShadow" result="shape"/></filter><linearGradient x1="0.5" y1="1" x2="0.5" y2="0" id="master_svg2_154_41908"><stop offset="0%" stop-color="#FFECD9" stop-opacity="0.800000011920929"/><stop offset="45.873382687568665%" stop-color="#FFFFFF" stop-opacity="1"/></linearGradient></defs><g clip-path="url(#master_svg0_170_63417)"><path d="M7.2176065,10.886633437499999L19.367523,10.886633437499999C20.265116,10.886633437499999,21,11.6870041375,21,12.6666736375L21,19.4611529375C21,20.4396209375,20.265099,21.2412109375,19.367523,21.2412109375L7.2176061,21.2412109375C6.3199974999999995,21.2412109375,5.5863159,20.4396189375,5.5863159,19.4611529375L5.5863159,12.6666727375C5.5863159,11.6869850375,6.319962,10.886632437500001,7.2176065,10.886633437499999ZM6.598887400000001,3.2776671055C6.0116911,3.1639779355,5.4351788,3.3221557215,4.9816248000000005,3.6690252975C4.5257715,4.0141437075,4.1918150999999995,4.5497051375,4.0863867,5.1901465375L3.034014545,11.6447973375C2.928568587,12.2852029375,3.07385087,12.9138822375,3.39268291,13.4107209375C3.58247149,13.7083969375,3.83557004,13.9586469375,4.1355983,14.1355399375L4.1355983,12.6666202375C4.1355983,12.5025167375,4.1461412,12.3414211375,4.16728,12.1831884375C4.1567193,12.0795116375,4.1591252,11.9728450375,4.1754346,11.8667984375L5.2289922,5.4115812375C5.2769832999999995,5.1150376375,5.432949799999999,4.8678296375,5.6450093,4.7066446375C5.8559012,4.5449290375,6.1230452,4.4705278375,6.3950005,4.5232950375000005L17.201963,6.6203267375C17.473778,6.671890937500001,17.701227,6.8418498375,17.848879,7.0732259375C17.996443,7.3035583375,18.064459,7.5958743375,18.015247000000002,7.8923826375L17.892183,8.6476626375L6.7640712,6.4891252375L6.2777746,9.4651031375C6.5754149,9.3614263375,6.890656,9.3039541375,7.2176428,9.3039541375L18.964509,9.3039541375L19.157837,8.1139059375C19.262062,7.4735179375,19.116816,6.8448221375,18.800406000000002,6.3484778375C18.481645,5.8533718375,17.991793,5.4877693375,17.404702,5.3740449375L6.5989239,3.2776143695L6.598887400000001,3.2776671055ZM15.971496,12.1774397375C15.094885,12.1774397375,14.384729,12.9514894375,14.384729,13.9082689375C14.384729,14.8639509375,15.094867,15.6397149375,15.971496,15.6397149375C16.365171,15.6397149375,16.726174999999998,15.4838549375,17.002676,15.2248829375C17.280452,15.4838369375,17.640217,15.6397149375,18.03391,15.6397149375C18.910503,15.6397149375,19.621807,14.8639329375,19.621807,13.9082689375C19.621807,12.9514722375,18.910503,12.1774397375,18.03391,12.1774397375C17.640234,12.1774397375,17.280469,12.3327350375,17.002676,12.5916710375C16.726174999999998,12.3327179375,16.365189,12.1774397375,15.971496,12.1774397375ZM17.135098,17.962356937499997L17.135098,19.1389079375L19.79994,19.1389079375L19.79994,17.962356937499997L17.135098,17.962356937499997ZM13.782409,17.962356937499997L13.782409,19.1389079375L16.447248000000002,19.1389079375L16.447248000000002,17.962356937499997L13.782409,17.962356937499997ZM10.327722999999999,17.962356937499997L10.327722999999999,19.1389079375L12.9925632,19.1389079375L12.9925632,17.962356937499997L10.327722999999999,17.962356937499997ZM6.9738653,17.962356937499997L6.9738653,19.1389079375L9.6387067,19.1389079375L9.6387067,17.962356937499997L6.9738653,17.962356937499997Z" fill="url(#master_svg2_154_41908)" fill-opacity="1" filter="url(#master_svg1_170_68702)"/></g></svg>