<svg xmlns="http://www.w3.org/2000/svg" xmlns:xlink="http://www.w3.org/1999/xlink" fill="none" version="1.1" width="30" height="30" viewBox="0 0 30 30"><defs><clipPath id="master_svg0_159_68092"><rect x="0" y="0" width="30" height="30" rx="0"/></clipPath><linearGradient x1="0.5" y1="1" x2="0.5" y2="0" id="master_svg1_29_17013"><stop offset="0%" stop-color="#868686" stop-opacity="0.800000011920929"/><stop offset="50.776487588882446%" stop-color="#FFFFFF" stop-opacity="1"/></linearGradient></defs><g clip-path="url(#master_svg0_159_68092)"><path d="M22.310781,23.52351L7.6892204,23.52351C6.57110083,23.52351,5.625,22.577408,5.625,21.373281L5.625,16.470758L24.375,16.470758L24.375,21.373283C24.375,22.57741,23.4289,23.523512,22.310781,23.52351ZM17.322248000000002,18.879013999999998L7.947248,18.879013999999998L7.947248,21.201263L17.322248000000002,21.201263L17.322248000000002,18.879013999999998ZM22.052753,18.879013999999998L19.730505,18.879013999999998L19.730505,21.201263L22.052753,21.201263L22.052753,18.879013999999998ZM5.625,6.8377295C5.625,5.63360083,6.57110083,4.6875,7.6892204,4.6875L22.310781,4.6875C23.4289,4.6875,24.375,5.63360083,24.375,6.8377295L24.375,15.266628L5.625,15.266628L5.625,6.8377295ZM9.4094038,13.2884178L11.1295877,10.3641062L15.08601,13.0303917L17.236238999999998,9.676033L21.450687000000002,12.0842905L22.39679,10.3641071L16.548164,6.6657121L14.5699539,10.106079600000001L10.269495,7.7838316L7.6892195,12.3423181L9.4094038,13.2884178Z" fill="url(#master_svg1_29_17013)" fill-opacity="1"/></g></svg>