<svg xmlns="http://www.w3.org/2000/svg" xmlns:xlink="http://www.w3.org/1999/xlink" fill="none" version="1.1" width="14" height="16" viewBox="0 0 14 16"><defs><linearGradient x1="0.5" y1="0" x2="0.5" y2="1" id="master_svg0_43_19738"><stop offset="0%" stop-color="#FFC2C2" stop-opacity="1"/><stop offset="100%" stop-color="#FFFFFF" stop-opacity="1"/></linearGradient></defs><path d="M3.8888891,1.5555556L1.4194446,1.5555556C0.63777786,1.5555556,0,2.1913888,0,2.9750001L0,14.136111C0,14.917778,0.63583332,15.555556,1.4194446,15.555556L12.580556,15.555556C13.362223,15.555556,14,14.919723,14,14.136111L14,2.9750001C14,2.1933336,13.364167,1.5555556,12.580556,1.5555556L10.111112,1.5555556L10.111112,1.6955556C10.111112,2.477222,9.4811106,3.1111112,8.6994448,3.1111112L5.3005557,3.1111112C4.5208335,3.1111112,3.8888891,2.477222,3.8888891,1.6955556L3.8888891,1.5555556ZM10.636111,7.394722L6.9883332,11.579166C6.8911109,11.728889,6.6966667,11.833889,6.4808335,11.833889C6.3116665,11.833889,6.1133332,11.789166,5.977222,11.662778L3.8150005,9.8213892C3.5291667,9.5375004,3.5019448,9.1311111,3.7313895,8.8122215C4.0386114,8.497221,4.460556,8.4758329,4.752223,8.7188883L6.3913894,10.103333L9.5666666,6.4536109C9.8525,6.1638889,10.274445,6.1444445,10.566113,6.3875003C10.857779,6.6811113,10.879167,7.105,10.636111,7.394722ZM4.666667,1.1666667C4.666667,0.52305543,5.1838889,0,5.831389,0L8.166667,0C8.8102779,0,9.3313894,0.51722234,9.3313894,1.1666667C9.3313894,1.8102779,8.814168,2.3333335,8.166667,2.3333335L5.831389,2.3333335C5.1877775,2.3333335,4.666667,1.8161111,4.666667,1.1666667Z" fill="url(#master_svg0_43_19738)" fill-opacity="1"/></svg>