<svg xmlns="http://www.w3.org/2000/svg" xmlns:xlink="http://www.w3.org/1999/xlink" fill="none" version="1.1" width="24" height="24" viewBox="0 0 24 24"><defs><clipPath id="master_svg0_159_68027"><rect x="0" y="0" width="24" height="24" rx="0"/></clipPath><filter id="master_svg1_159_68028" filterUnits="objectBoundingBox" color-interpolation-filters="sRGB" x="-0.28841238358789806" y="-0.28841241003065177" width="1.5768247671757962" height="1.5768248200613035"><feFlood flood-opacity="0" result="BackgroundImageFix"/><feColorMatrix in="SourceAlpha" type="matrix" values="0 0 0 0 0 0 0 0 0 0 0 0 0 0 0 0 0 0 127 0"/><feOffset dy="0" dx="0"/><feGaussianBlur stdDeviation="1.5"/><feColorMatrix type="matrix" values="0 0 0 0 0 0 0 0 0 0 0 0 0 0 0 0 0 0 0.20000000298023224 0"/><feBlend mode="normal" in2="BackgroundImageFix" result="effect1_dropShadow"/><feBlend mode="normal" in="SourceGraphic" in2="effect1_dropShadow" result="shape"/></filter><linearGradient x1="0.5" y1="1" x2="0.5" y2="0" id="master_svg2_29_17013"><stop offset="0%" stop-color="#868686" stop-opacity="0.800000011920929"/><stop offset="50.776487588882446%" stop-color="#FFFFFF" stop-opacity="1"/></linearGradient></defs><g clip-path="url(#master_svg0_159_68027)"><path d="M11.999917246505737,22.40168753125Q12.255267246505737,22.40168753125,12.510308246505737,22.38915853125Q12.765350246505736,22.37662853125,13.019470246505737,22.35160053125Q13.273589246505738,22.32657253125,13.526174246505738,22.28910253125Q13.778759246505738,22.25163653125,14.029202246505736,22.20182053125Q14.279644246505738,22.15200453125,14.527342246505738,22.08995853125Q14.775038246505737,22.02791453125,15.019392246505737,21.95379053125Q15.263747246505737,21.87966553125,15.504169246505738,21.79364053125Q15.744591246505736,21.70761453125,15.980503246505737,21.60989753125Q16.216414246505735,21.51218053125,16.44724724650574,21.40300353125Q16.678080246505736,21.29383053125,16.90327924650574,21.17345953125Q17.128476246505738,21.05308953125,17.34749724650574,20.92181353125Q17.566516246505735,20.79053653125,17.778832246505736,20.64867253125Q17.991147246505736,20.50680753125,18.196246246505737,20.35469653125Q18.401345246505738,20.20258553125,18.598732246505737,20.04059453125Q18.796120246505737,19.87860153125,18.98532224650574,19.70711853125Q19.174521246505737,19.53563653125,19.355080246505736,19.35507753125Q19.535637246505736,19.17451853125,19.707121246505736,18.98531753125Q19.878603246505737,18.79611753125,20.040596246505736,18.59873053125Q20.202588246505737,18.40134053125,20.35469924650574,18.19624353125Q20.506810246505736,17.99114453125,20.64867424650574,17.77882953125Q20.790539246505737,17.56651353125,20.921814246505736,17.34749453125Q21.053090246505736,17.128473531250002,21.173460246505737,16.90327653125Q21.293831246505736,16.67807753125,21.403006246505736,16.44724453125Q21.512181246505737,16.21641153125,21.609900246505738,15.98050053125Q21.707617246505738,15.74458853125,21.793643246505738,15.50416753125Q21.879668246505737,15.26374453125,21.953793246505736,15.01939153125Q22.027916246505736,14.77503753125,22.08995924650574,14.52733953125Q22.152005246505738,14.27964353125,22.201821246505737,14.02920053125Q22.251637246505737,13.77875753125,22.289103246505736,13.52617253125Q22.32657324650574,13.27358753125,22.351601246505737,13.01946853125Q22.376629246505736,12.76534853125,22.389161246505736,12.51030653125Q22.401690246505737,12.25526553125,22.401690246505737,11.99991653125Q22.401690246505737,11.74456753125,22.389161246505736,11.48952583125Q22.376631246505738,11.23448373125,22.351603246505736,10.98036483125Q22.32657324650574,10.72624393125,22.289105246505738,10.47365953125Q22.251637246505737,10.22107313125,22.201821246505737,9.97063063125Q22.152005246505738,9.72018813125,22.08995924650574,9.47249123125Q22.02791524650574,9.22479483125,21.953791246505737,8.98044113125Q21.87966624650574,8.736086831249999,21.793643246505738,8.495664631250001Q21.707617246505738,8.255242331249999,21.609900246505738,8.01933003125Q21.512181246505737,7.78341813125,21.403006246505736,7.55258563125Q21.293831246505736,7.32175253125,21.173462246505736,7.09655473125Q21.053092246505738,6.87135693125,20.92181624650574,6.65233663125Q20.790539246505737,6.43331623125,20.64867424650574,6.22100113125Q20.506810246505736,6.00868603125,20.35469924650574,5.80358793125Q20.202588246505737,5.59848973125,20.040596246505736,5.40110203125Q19.878603246505737,5.20371433125,19.707119246505737,5.01451303125Q19.535637246505736,4.82531163125,19.355080246505736,4.64475273125Q19.174521246505737,4.46419363125,18.985320246505736,4.29271173125Q18.796120246505737,4.121229631249999,18.598732246505737,3.95923803125Q18.401345246505738,3.79724623125,18.196246246505737,3.64513493125Q17.991147246505736,3.49302343125,17.778832246505736,3.35115893125Q17.566516246505735,3.2092945312500003,17.34749724650574,3.07801893125Q17.128476246505738,2.94674323125,16.90327924650574,2.82637253125Q16.678080246505736,2.7060017312499998,16.44724724650574,2.59682590125Q16.216414246505735,2.48765004125,15.980502246505738,2.38993215125Q15.744590246505737,2.2922142712499998,15.504168246505737,2.20618975125Q15.263747246505737,2.12016523125,15.019392246505737,2.04604128125Q14.775038246505737,1.97191733125,14.527340246505737,1.90987253125Q14.279644246505738,1.84782776125,14.029201246505737,1.79801163125Q13.778759246505738,1.74819548125,13.526173246505737,1.71072799125Q13.273589246505738,1.67326049525,13.019469246505738,1.64823190125Q12.765349246505737,1.62320330725,12.510308246505737,1.61067391925Q12.255267246505737,1.59814453125,11.999917246505737,1.59814453125Q11.744568246505738,1.59814453125,11.489527446505738,1.61067391925Q11.234485346505737,1.62320330725,10.980366446505737,1.64823190125Q10.726246546505738,1.67326049525,10.473660246505737,1.71072799125Q10.221074846505738,1.74819548125,9.970632346505738,1.79801163125Q9.720189846505738,1.84782776125,9.472492946505739,1.90987253125Q9.224796546505736,1.97191733125,8.980442746505737,2.0460413112499998Q8.736088546505737,2.12016523125,8.495666246505738,2.20618975125Q8.255243046505736,2.2922142712499998,8.019331246505736,2.38993215125Q7.783419346505737,2.48765004125,7.552586346505738,2.59682590125Q7.321753246505737,2.7060017312499998,7.096555446505738,2.82637253125Q6.8713576465057375,2.94674323125,6.652337346505737,3.07801893125Q6.433316946505737,3.2092945312500003,6.221001846505738,3.35115893125Q6.008686746505737,3.49302343125,5.803588646505737,3.64513493125Q5.598490446505737,3.79724623125,5.401103046505737,3.95923803125Q5.203715546505737,4.121229631249999,5.014514246505737,4.29271173125Q4.825312846505737,4.46419363125,4.6447536465057375,4.64475273125Q4.4641945465057375,4.82531163125,4.292712446505737,5.01451303125Q4.121230646505737,5.20371433125,3.9592387465057373,5.40110203125Q3.7972469465057372,5.59848973125,3.645135646505737,5.80358793125Q3.4930241465057374,6.00868603125,3.3511598465057375,6.22100113125Q3.209295346505737,6.43331623125,3.0780197465057375,6.65233663125Q2.9467440465057373,6.87135693125,2.8263733465057372,7.09655473125Q2.706002446505737,7.32175253125,2.5968266765057373,7.55258513125Q2.487650816505737,7.78341813125,2.3899329265057374,8.01933003125Q2.292214986505737,8.255242331249999,2.2061904665057375,8.495664631250001Q2.1201659465057374,8.736086831249999,2.0460420565057373,8.98044113125Q1.9719180765057374,9.22479483125,1.9098732765057373,9.47249123125Q1.8478285065057374,9.72018813125,1.7980123565057373,9.97063063125Q1.7481962165057374,10.22107313125,1.7107287165057372,10.47365853125Q1.6732612105057374,10.72624393125,1.6482326205057374,10.98036483125Q1.6232040245057373,11.23448373125,1.6106746355057373,11.48952583125Q1.5981452465057373,11.74456753125,1.5981452465057373,11.99991653125Q1.5981452465057373,12.25526553125,1.6106746355057373,12.51030753125Q1.6232040245057373,12.76534853125,1.6482326205057374,13.01946853125Q1.6732612105057374,13.27358753125,1.7107287165057372,13.52617153125Q1.7481962165057374,13.77875753125,1.7980123565057373,14.02919953125Q1.8478285065057374,14.27964253125,1.9098733065057374,14.52733853125Q1.9719180765057374,14.77503553125,2.0460420565057373,15.01939053125Q2.1201659465057374,15.26374453125,2.2061904665057375,15.50416553125Q2.292214986505737,15.74458753125,2.3899329265057374,15.98049953125Q2.487650816505737,16.21641153125,2.5968266765057373,16.44724453125Q2.706002446505737,16.67807653125,2.8263733465057372,16.90327453125Q2.9467440465057373,17.12847253125,3.0780197465057375,17.347492531249998Q3.209295346505737,17.56651353125,3.3511598465057375,17.77882753125Q3.4930241465057374,17.99114253125,3.645135646505737,18.19624353125Q3.7972469465057372,18.40134053125,3.9592387465057373,18.59873053125Q4.121230646505737,18.79611753125,4.292712446505737,18.98531953125Q4.4641945465057375,19.17451853125,4.6447536465057375,19.35507753125Q4.825312846505737,19.53563653125,5.014514246505737,19.70711853125Q5.203715546505737,19.87860153125,5.401103246505738,20.04059453125Q5.598490446505737,20.20258553125,5.803589146505737,20.35469653125Q6.008687246505738,20.50680753125,6.221002346505737,20.64867253125Q6.433316946505737,20.79053653125,6.652337746505737,20.92181353125Q6.8713576465057375,21.05308953125,7.096555946505737,21.17345953125Q7.321753246505737,21.29383053125,7.552586346505738,21.40300353125Q7.783419346505737,21.51218053125,8.019331246505736,21.60989753125Q8.255243046505736,21.70761453125,8.495665746505736,21.79364053125Q8.736088546505737,21.87966553125,8.980442746505737,21.95379053125Q9.224796546505736,22.02791453125,9.472492946505739,22.08995853125Q9.720189846505738,22.15200453125,9.970632346505738,22.20182053125Q10.221074846505738,22.25163653125,10.473660246505737,22.28910253125Q10.726246546505738,22.32657253125,10.980366446505737,22.35160053125Q11.234485346505737,22.37662853125,11.489527446505738,22.38915853125Q11.744568246505738,22.40168753125,11.999917246505737,22.40168753125ZM15.925782246505737,6.70019533125L17.26757924650574,8.04199223125L13.324707246505737,11.98535153125L17.26538124650574,15.92578153125L15.925538246505738,17.265624531249998L11.984864246505737,13.32519553125L8.041992946505736,17.267578531250003L6.700196046505737,15.92578153125L10.656739046505738,11.98339853125L6.700196046505737,8.04003903125L8.040039746505737,6.70019533125L11.982911246505738,10.65722653125L15.925782246505737,6.70019533125Z" fill-rule="evenodd" fill="url(#master_svg2_29_17013)" fill-opacity="1" filter="url(#master_svg1_159_68028)"/></g></svg>