<svg xmlns="http://www.w3.org/2000/svg" xmlns:xlink="http://www.w3.org/1999/xlink" fill="none" version="1.1" width="20" height="20" viewBox="0 0 20 20"><defs><clipPath id="master_svg0_219_40739"><rect x="0" y="0" width="20" height="20" rx="0"/></clipPath><filter id="master_svg1_219_53038" filterUnits="objectBoundingBox" color-interpolation-filters="sRGB" x="-0.3261452317237854" y="-0.32890144405516936" width="1.6522904634475708" height="1.6578028881103388"><feFlood flood-opacity="0" result="BackgroundImageFix"/><feColorMatrix in="SourceAlpha" type="matrix" values="0 0 0 0 0 0 0 0 0 0 0 0 0 0 0 0 0 0 127 0"/><feOffset dy="0" dx="0"/><feGaussianBlur stdDeviation="1.3045809268951416"/><feColorMatrix type="matrix" values="0 0 0 0 1 0 0 0 0 0.5221238732337952 0 0 0 0 0.5221238732337952 0 0 0 1 0"/><feBlend mode="normal" in2="BackgroundImageFix" result="effect1_dropShadow"/><feBlend mode="normal" in="SourceGraphic" in2="effect1_dropShadow" result="shape"/></filter></defs><g clip-path="url(#master_svg0_219_40739)"><path d="M9.442052887500001,5.56059928125C10.4406089875,5.60177228125,11.2775249875,4.81332658125,11.2959270875,3.81409058125C11.3143291875,2.81485480125,10.5070123875,1.99612814005,9.5076174875,2.000505565802C8.5399264875,2.00474384565,7.7527255875,2.78097325125,7.7349066875,3.74850928125C7.7170886875,4.71604538125,8.4751748875,5.52073338125,9.442052887500001,5.56059928125ZM7.4363193875,12.67779228125C7.4363193875,12.67779228125,5.2979268875,11.63330938125,4.4450947875,11.43459698125C4.2597694875,11.39237218125,4.0739543875,11.50315478125,4.0229736875,11.68626498125C3.7602099874999997,12.65106228125,2.6864748875,16.20611228125,2.3596749545,17.38172528125C2.2972361815,17.60768728125,2.4676805775,17.83084828125,2.7021095475,17.83007228125L3.3259845974999998,17.83007228125C3.4690119875,17.830826281249998,3.5981506875,17.74460228125,3.6522800875000003,17.612211281249998C4.0118782875,16.75030128125,5.0634064875,13.58206728125,5.2227797875,13.58206728125C6.4180621875,13.57450328125,7.4232067875,15.11928028125,7.3843717875,15.58226928125C7.3344416875,16.15315628125,7.0081300875,16.84108328125,6.7529315875,17.30355228125C6.6233300875,17.539892281249998,6.7935638875,17.82886528125,7.0631036875,17.83007228125L7.7777447875,17.83007228125C7.9018139875,17.83007228125,8.018821687500001,17.764508281250002,8.0823692875,17.65659328125C8.7274112875,16.57125828125,8.942262187499999,15.90150428125,8.9442796875,15.49853228125C8.952349187500001,14.49843128125,7.9774660875,12.92742828125,7.4363193875,12.67779228125ZM18.274980687499998,17.069536281250002L15.2913376875,11.42249298125C14.8066786875,10.58378218125,13.7980036875,11.17788598125,13.3143366875,12.01659628125L12.0217313875,13.82716328125L11.3373517875,13.18010528125C11.3517789875,13.07991328125,11.3497352875,12.97803828125,11.3312997875,12.87850628125C11.1114043875,11.60002328125,10.1345042875,7.22591638125,9.4198627875,6.52337928125C9.396789587499999,6.50005718125,9.369822987500001,6.48094128125,9.3401760875,6.46689228125L7.1281656875,5.2948255812500005C7.0159344875,5.2349688812499995,6.8895492875,5.20672868125,6.7625150875,5.21312168125C5.9913868875,5.25044298125,4.2342799875,5.50764318125,3.6709419875,5.59237338125C3.5590440875000002,5.60983848125,3.4617912875,5.67871808125,3.4081781875,5.77847668125C3.2256210475,6.12950088125,2.7111889375000002,6.99290848125,2.4257453305,7.66671328125C2.3122081755,7.93305638125,2.3727765235,8.241720181249999,2.5785461375,8.445406881250001L2.9598311175000003,8.75354578125L4.2806795875,9.772811381250001C4.3976876874999995,9.86359358125,4.447113487499999,10.01741888125,4.4027309875,10.15964408125C4.2862273875,10.52981758125,4.3906266875,10.26051328125,4.3462442875,10.43451218125C4.3012716875,10.61061958125,4.3969561875,10.79217338125,4.5676519875,10.85461618125C5.1738590875,11.07602308125,6.7948088875,11.92934418125,7.4186682875,12.10636928125C7.5941643875,12.15579528125,7.5639037875,11.97675228125,7.6314859875,11.80831718125L7.5623902875,11.71602158125L11.4523410875,14.69462128125L9.900502687500001,17.33431628125C9.8370766875,17.44396528125,9.836966087499999,17.57912228125,9.9002132875,17.68887628125C9.9634604875,17.79862828125,10.0804566875,17.86630128125,10.2071284875,17.86640028125L17.813520687500002,17.86640028125C18.003747687500002,17.867333281249998,18.1799156875,17.766353281249998,18.2752486875,17.60173728125C18.3705786875,17.43711928125,18.3704836875,17.23406228125,18.2749966875,17.069535281249998L18.274980687499998,17.069536281250002ZM5.5500998875,7.20422888125C5.3796312875000005,7.51793148125,5.2237884875,7.88306138125,5.0215615875,8.40455488125C4.9302191875000005,8.63991408125,4.6289381875,8.70677708125,4.4466082875,8.532154081249999L3.7395317875,7.86742688125C3.7042276875,7.83716588125,4.0033042875,7.19010688125,4.1883989875,6.84817698125C4.2519229875,6.72988128125,4.3769757875,6.65778068125,4.5111796875,6.66207318125L5.2505182875,6.68325568125C5.5127777875,6.68829918125,5.6756813875,6.97174118125,5.5500998875,7.20422888125ZM7.9951023875,10.63320828125L8.470179587499999,9.46112588125C8.5942487875,9.15095328125,9.0390810875,9.168605281249999,9.1384367875,9.487856381250001C9.3936199875,10.31647968125,9.7537221875,11.56623168125,10.1365041875,12.40443728125L7.9951023875,10.63320828125Z" fill="#FFFFFF" fill-opacity="1" style="mix-blend-mode:passthrough" filter="url(#master_svg1_219_53038)"/></g></svg>