<svg xmlns="http://www.w3.org/2000/svg" xmlns:xlink="http://www.w3.org/1999/xlink" fill="none" version="1.1" width="26.282421112060547" height="26.282421112060547" viewBox="0 0 26.282421112060547 26.282421112060547"><defs><clipPath id="master_svg0_215_83125"><rect x="0" y="0" width="26.282421112060547" height="26.282421112060547" rx="0"/></clipPath><filter id="master_svg1_215_88034" filterUnits="objectBoundingBox" color-interpolation-filters="sRGB" x="-0.41066282987594604" y="-0.39985587316002363" width="1.821325659751892" height="1.7997117463200472"><feFlood flood-opacity="0" result="BackgroundImageFix"/><feColorMatrix in="SourceAlpha" type="matrix" values="0 0 0 0 0 0 0 0 0 0 0 0 0 0 0 0 0 0 127 0"/><feOffset dy="0" dx="0"/><feGaussianBlur stdDeviation="1.6426513195037842"/><feColorMatrix type="matrix" values="0 0 0 0 1 0 0 0 0 0.9262745380401611 0 0 0 0 0.8156862854957581 0 0 0 0.30000001192092896 0"/><feBlend mode="normal" in2="BackgroundImageFix" result="effect1_dropShadow"/><feBlend mode="normal" in="SourceGraphic" in2="effect1_dropShadow" result="shape"/></filter><linearGradient x1="0.5" y1="1" x2="0.5" y2="0" id="master_svg2_215_70216"><stop offset="0%" stop-color="#FFECD9" stop-opacity="0.800000011920929"/><stop offset="45.873382687568665%" stop-color="#FFFFFF" stop-opacity="1"/></linearGradient></defs><g clip-path="url(#master_svg0_215_83125)"><path d="M20.057011,10.891700784375L13.1380901,10.891700784375C12.6604376,10.891700784375,12.273225799999999,11.278913984375,12.273225799999999,11.756565084375L12.273225799999999,12.621430384375L20.921872999999998,12.621430384375L20.921872999999998,11.756565084375C20.921872999999998,11.278913984375,20.534661,10.891700784375,20.057011,10.891700784375ZM12.273225799999999,16.080890484375C12.273226300000001,16.558542484375,12.660439499999999,16.945755484375,13.1380911,16.945755484375L20.057011,16.945755484375C20.534663000000002,16.945755484375,20.921877,16.558542484375,20.921875,16.080890484375L20.921875,13.486295684375L12.273226300000001,13.486295684375L12.273225799999999,16.080890484375ZM13.5705233,9.594403284375L17.029984,9.594403284375L17.029984,6.567376384375C17.029984,5.6120730043750005,16.255557,4.837646484375,15.300254,4.837646484375L6.6516049,4.837646484375C5.69630128,4.8376463297251,4.9218748453501,5.612072764375,4.921875,6.567376384375L4.921875,19.540350484375C4.9218748453501,20.495655484375,5.69630128,21.270080484375,6.6516049,21.270080484375L15.300254,21.270080484375C16.255557,21.270080484375,17.029984,20.495655484375,17.029984,19.540350484375L17.029984,18.243054484375L13.5705233,18.243054484375C12.376394699999999,18.243054484375,11.408361,17.275021484375,11.408361,16.080890484375L11.408361,11.756566084374999C11.408361,10.562436084375001,12.376394699999999,9.594403284375,13.5705233,9.594403284375ZM10.111063,11.756565084375C10.111063,12.114804784375,9.820653400000001,12.405214284374999,9.4624147,12.405214284374999C9.1041756,12.405214284374999,8.8137658,12.114804784375,8.8137658,11.756565084375C8.8137653,9.129481284375,10.9434385,6.999808784375,13.5705233,6.999808584375C13.9287615,6.999808584375,14.2191715,7.290218384375001,14.2191715,7.6484572843750005C14.2191715,8.006696184375,13.9287615,8.297105784374999,13.5705233,8.297105784374999C11.6599159,8.297105784374999,10.111063,9.845958684374999,10.111063,11.756565084375Z" fill="url(#master_svg2_215_70216)" fill-opacity="1" filter="url(#master_svg1_215_88034)"/></g></svg>