<svg xmlns="http://www.w3.org/2000/svg" xmlns:xlink="http://www.w3.org/1999/xlink" fill="none" version="1.1" width="26.282421112060547" height="26.282421112060547" viewBox="0 0 26.282421112060547 26.282421112060547"><defs><clipPath id="master_svg0_219_60462"><rect x="0" y="0" width="26.282421112060547" height="26.282421112060547" rx="0"/></clipPath><filter id="master_svg1_219_68077" filterUnits="objectBoundingBox" color-interpolation-filters="sRGB" x="-0.41066282987594604" y="-0.3301151741228932" width="1.821325659751892" height="1.6602303482457865"><feFlood flood-opacity="0" result="BackgroundImageFix"/><feColorMatrix in="SourceAlpha" type="matrix" values="0 0 0 0 0 0 0 0 0 0 0 0 0 0 0 0 0 0 127 0"/><feOffset dy="0" dx="0"/><feGaussianBlur stdDeviation="1.6426513195037842"/><feColorMatrix type="matrix" values="0 0 0 0 1 0 0 0 0 0.9262745380401611 0 0 0 0 0.8156862854957581 0 0 0 0.30000001192092896 0"/><feBlend mode="normal" in2="BackgroundImageFix" result="effect1_dropShadow"/><feBlend mode="normal" in="SourceGraphic" in2="effect1_dropShadow" result="shape"/></filter><linearGradient x1="0.5" y1="1" x2="0.5" y2="0" id="master_svg2_134_45383"><stop offset="0%" stop-color="#FFECD9" stop-opacity="0.800000011920929"/><stop offset="45.873382687568665%" stop-color="#FFFFFF" stop-opacity="1"/></linearGradient></defs><g clip-path="url(#master_svg0_219_60462)"><path d="M8.24252698125,7.2285628625L5.90720653125,6.2797350625C5.55306661125,6.1360742625,5.55306661125,5.6315922625,5.90720653125,5.4845907625L11.93092918125,3.0323375425C12.572557881249999,2.7717727725,13.29052348125,2.7717727725,13.93215368125,3.0323375425L19.95253528125,5.4845893624999995C20.31001528125,5.6315908624999995,20.31001528125,6.1360735625,19.95253528125,6.2797343625L17.617215281249997,7.2285623625L17.617215281249997,8.4546885625C17.617215281249997,9.0326723625,17.296484281250002,9.5571999625,16.781979281250003,9.8177938625C16.75859328125,9.8311581625,16.72852428125,9.8445219625,16.701796281249997,9.8578858625L16.701796281249997,10.5427784625C16.701796281249997,12.6275272625,15.01462028125,14.3147040625,12.92987058125,14.3147040625C10.84512188125,14.3147040625,9.15794518125,12.6241874625,9.15794518125,10.5427794625L9.15794518125,9.8578863625C9.134558681249999,9.8445219625,9.101149581249999,9.8311581625,9.07776308125,9.817794362499999C8.56325768125,9.557200462499999,8.24252698125,9.032673362499999,8.24252698125,8.4546899625L8.24252698125,7.2285628625ZM16.37772428125,9.022650262500001C16.59154628125,8.9123992625,16.72518328125,8.6952376625,16.72518328125,8.4546899625L16.721843281250003,8.4546899625L16.721843281250003,7.5960669625L13.92881108125,8.735330062500001C13.28735068125,8.995923962500001,12.56904698125,8.995923962500001,11.92758608125,8.735330062500001L9.13455678125,7.5960674625L9.13455678125,8.4580311625C9.13455678125,8.6952376625,9.26819518125,8.9157395625,9.48201468125,9.022650262500001C10.146862981249999,9.3600849625,11.47321848125,9.9280457625,12.92987058125,9.9280457625C14.38652138125,9.9280457625,15.71621828125,9.360085962500001,16.37772428125,9.022650262500001ZM16.73260228125,13.7470700625C17.96860828125,14.2711140625,19.08321328125,15.0445130625,20.00672828125,16.018911062500003C20.59807428125,16.6403280625,20.93216728125,17.4655420625,20.92214528125,18.327505062500002L20.92214528125,21.1439210625C20.92214528125,22.0259040625,20.207157281249998,22.7408920625,19.325173281250002,22.7408920625L6.5193344812500005,22.7408920625C5.6373516312500005,22.7408920625,4.92236328125,22.0259040625,4.92236328125,21.1439210625L4.92236328125,18.3308460625C4.92253413975,17.4725740625,5.25267619125,16.6472200625,5.8444640012499995,16.025595062500003C6.76864048125,15.0487860625,7.8843774812500005,14.2731150625,9.12193008125,13.7470700625C9.84691528125,14.6023520625,10.85253998125,15.2037210625,11.99514248125,15.4208830625L11.99180218125,15.4242240625L12.45619298125,15.8886150625L11.99514248125,17.2951520625L12.92726608125,22.2263830625L13.85939028125,17.2951520625L13.39833928125,15.8886150625L13.86273098125,15.4242240625L13.85939028125,15.4208830625C14.98086128125,15.2092830625,15.99538428125,14.6182670625,16.73260228125,13.7470700625Z" fill-rule="evenodd" fill="url(#master_svg2_134_45383)" fill-opacity="1" filter="url(#master_svg1_219_68077)"/></g></svg>