<svg xmlns="http://www.w3.org/2000/svg" xmlns:xlink="http://www.w3.org/1999/xlink" fill="none" version="1.1" width="32" height="32" viewBox="0 0 32 32"><defs><clipPath id="master_svg0_219_60549"><rect x="0" y="0" width="32" height="32" rx="0"/></clipPath><linearGradient x1="0.5" y1="1" x2="0.5" y2="0" id="master_svg1_29_17013"><stop offset="0%" stop-color="#868686" stop-opacity="0.800000011920929"/><stop offset="50.776487588882446%" stop-color="#FFFFFF" stop-opacity="1"/></linearGradient></defs><g clip-path="url(#master_svg0_219_60549)"><path d="M26.955919,24.939028C26.311522,22.471455,24.488342,20.569693,21.56497,19.265178C21.229488,19.113624,20.835776,19.178725,20.566938,19.430205C19.679724,20.254438,18.570563999999997,20.800825,17.376378000000003,21.001909C17.419491,21.067474,17.443939999999998,21.143541,17.447104,21.221947C17.447104,21.221947,17.447104,22.715071,16.661251999999998,22.715071L15.325304,22.715071C14.5394506,22.715071,14.5394506,21.221947,14.5394506,21.221947C14.5437298,21.143745,14.5680885,21.067963,14.610178,21.001909C13.415266,20.810288999999997,12.3060007,20.262506000000002,11.4274755,19.430205C11.158629900000001,19.173952999999997,10.7628226,19.102829,10.4215837,19.24946C7.490354099999999,20.561832000000003,5.7064691199999995,22.463598,5.038494613,24.946892C4.906461664,25.532866,5.11995691,26.142853,5.5885914,26.518593C5.97740072,26.854889,6.4733545,27.041565,6.9874088,27.045116L24.999149,27.045116C25.519943,27.047298,26.024387,26.863356,26.421541,26.526453C26.890265,26.144209,27.098068,25.526913,26.955919,24.939028ZM17.399954,24.939028C17.234925,25.473408,16.897009,26.337849,16.72412,26.337849L15.270293,26.337849C15.097406,26.337849,14.7594881,25.449835,14.5944605,24.923315C14.5123434,24.692013,14.5123434,24.439495,14.5944605,24.208189C14.7594881,23.823122,15.042397,23.241592,15.231,23.241592L16.684829,23.241592C16.881290999999997,23.241592,17.164199,23.823122,17.329226,24.208189C17.4429,24.440136,17.468048,24.705585,17.399954,24.95475L17.399954,24.939028ZM24.645514,7.3988043999999995L16.205458999999998,5.041247327C16.061210000000003,4.986250921,15.901772,4.986250921,15.757522,5.041247327L7.3567588,7.3988043999999995C7.3196753999999995,7.4175088,7.2962861,7.4555023,7.2962861,7.497036C7.2962861,7.538569900000001,7.3196753999999995,7.5765636,7.3567588,7.595268L10.1386766,9.0255194L10.1386766,13.6777649C11.963180999999999,12.7554312,13.9596548,12.2228594,16.001137,12.1139193C18.043587000000002,12.2227855,20.040601000000002,12.7581778,21.863594,13.6856241L21.863594,13.5205956L21.863594,9.0805287L21.863594,9.0255194L22.649446,8.6325929L22.649446,13.1433859C22.604551,13.5746241,22.942791,13.9499083,23.376362,13.9499083C23.809931,13.9499083,24.148172,13.5746231,24.103275,13.1433859L24.103275,7.9017503L24.645514,7.6109849999999994C24.704023,7.6108699,24.751396,7.5634060000000005,24.751396,7.5048952C24.751396,7.4463835,24.704023,7.3989191000000005,24.645514,7.3988043999999995ZM16.001137,12.8997712C13.9708662,13.0270481,11.9898267,13.5785265,10.1858277,14.5186262C10.4734497,17.542015,12.965529400000001,19.879182,16.001137,19.972443C19.035138,19.878753,21.524715,17.540771,21.808586,14.5186262C20.007754,13.5776176,18.029077,13.0260506,16.001137,12.8997712Z" fill="url(#master_svg1_29_17013)" fill-opacity="1"/></g></svg>