<svg xmlns="http://www.w3.org/2000/svg" xmlns:xlink="http://www.w3.org/1999/xlink" fill="none" version="1.1" width="40" height="36.1153564453125" viewBox="0 0 40 36.1153564453125"><defs><linearGradient x1="0.5" y1="0" x2="0.5" y2="1" id="master_svg0_43_19738"><stop offset="0%" stop-color="#FFC2C2" stop-opacity="1"/><stop offset="100%" stop-color="#FFFFFF" stop-opacity="1"/></linearGradient></defs><g><path d="M33.681084,0C34.404633,0,34.988636,0.57625389,34.988636,1.2920489L34.988636,12.142676L18.993071,28.39665L15.517462,36.112762L2.3075539000000003,36.112762C1.59068978,36.117062,1.005688115,35.540154,1,34.823299L1,1.2920489C1,0.57625389,1.58400601,0,2.3075539000000003,0L33.681084,0ZM3.6151078,2.7210548L3.6151078,12.897233L32.376114,12.897233L32.376114,2.7339754L3.6151078,2.7210548ZM11.786981,10.318645L11.786981,5.1582031L9.171875,5.1582031L9.171875,10.318645L11.786981,10.318645ZM19.632301,5.1582031L17.013672,5.1582031L17.013672,10.318645L19.632301,10.318645L19.632301,5.1582031ZM24.858994,5.1582031L27.471897,5.1582031L27.471897,10.318645L24.858994,10.318645L24.858994,5.1582031ZM37.198868,14.278901L39.064583,16.072266L39.062004,16.077435C39.578819,16.568413,39.493546,17.459927,38.873363,18.059437L26.591146,30.30806C25.958042,30.904987,25.045855,30.982508,24.529036,30.491529L22.673653,28.692999C22.159416,28.19685,22.242107,27.310505,22.862291,26.716164L35.147091,14.459788C35.769859,13.862863,36.682045,13.782755,37.198868,14.278901ZM8.0753603,25.790543L4.6407039,25.790543C4.1922789,25.790543,3.8829463,25.431461,4.0425191,25.096445L7.4554157,17.929825C7.549942,17.731323,7.7878637,17.60013,8.0533862,17.600098L13.812514,17.600098C14.266913,17.600098,14.576673,17.968395,14.405156,18.30512L12.417961,22.207235L16.158962000000002,22.207235C16.709149,22.207235,17.002693,22.726059,16.639815,23.056812L7.4677896,31.417753C7.021924,31.82428,6.19526,31.472023,6.3682728,30.949272L8.0753603,25.790543ZM34.988636,24.755659L34.988636,34.823299C34.988636,35.536507,34.404633,36.115349,33.681084,36.115349L21.236071,36.112759L25.884863,33.781906L34.988636,24.755659ZM17.663086,35.967232L20.332458,30.031559C20.693726,29.22645,21.737873,29.012371,22.386818,29.61035L23.85717,30.96442C24.523502,31.580288,24.364128,32.673126,23.54966,33.073044L17.663086,35.967232Z" fill-rule="evenodd" fill="url(#master_svg0_43_19738)" fill-opacity="1"/></g></svg>