<svg xmlns="http://www.w3.org/2000/svg" xmlns:xlink="http://www.w3.org/1999/xlink" fill="none" version="1.1" width="24" height="24" viewBox="0 0 24 24"><defs><clipPath id="master_svg0_170_63371"><rect x="0" y="0" width="24" height="24" rx="0"/></clipPath><filter id="master_svg1_170_68687" filterUnits="objectBoundingBox" color-interpolation-filters="sRGB" x="-0.37609066457714657" y="-0.37607807510758784" width="1.7521813291542931" height="1.7521561502151757"><feFlood flood-opacity="0" result="BackgroundImageFix"/><feColorMatrix in="SourceAlpha" type="matrix" values="0 0 0 0 0 0 0 0 0 0 0 0 0 0 0 0 0 0 127 0"/><feOffset dy="0" dx="0"/><feGaussianBlur stdDeviation="1.5"/><feColorMatrix type="matrix" values="0 0 0 0 1 0 0 0 0 0.8156862854957581 0 0 0 0 0.8156862854957581 0 0 0 0.30000001192092896 0"/><feBlend mode="normal" in2="BackgroundImageFix" result="effect1_dropShadow"/><feBlend mode="normal" in="SourceGraphic" in2="effect1_dropShadow" result="shape"/></filter><linearGradient x1="0.5" y1="1" x2="0.5" y2="0" id="master_svg2_154_28325"><stop offset="0%" stop-color="#FFDBDB" stop-opacity="0.800000011920929"/><stop offset="45.873382687568665%" stop-color="#FFFFFF" stop-opacity="1"/></linearGradient></defs><g clip-path="url(#master_svg0_170_63371)"><path d="M6.6607692375,4.0205078125L18.0570359375,4.0205078125C19.3153259375,4.02109689545,20.3351409375,5.0411513125,20.3354359375,6.2994413125L20.3354359375,17.6957078125C20.335141937499998,18.9542068125,19.315000937500002,19.9743478125,18.056501937500002,19.9746418125L6.6607692375,19.9746418125C5.4022708375,19.9743478125,4.38212978933,18.9542068125,4.3818359375,17.6957078125L4.3818359375,6.2994413125C4.382130187,5.0409428125,5.4022708375,4.02080206107,6.6607692375,4.0205078125ZM14.5770359375,18.2658418125L18.0570359375,15.7010408125L14.5770369375,13.1373081125L14.5770369375,14.6093078125L6.6607692375,14.6093078125L6.6607692375,16.8194418125L14.5770359375,16.8194418125L14.5770359375,18.265308812500002L14.5770359375,18.2658418125ZM18.0570359375,9.981575012499999L18.0570359375,7.7714412125L10.1407690375,7.7714412125L10.1407690375,6.2994413125L6.6607692375,8.8637080125L10.1407690375,11.4279747125L10.1407690375,9.9815745125L18.0570359375,9.981575012499999Z" fill="url(#master_svg2_154_28325)" fill-opacity="1" filter="url(#master_svg1_170_68687)"/></g></svg>