<svg xmlns="http://www.w3.org/2000/svg" xmlns:xlink="http://www.w3.org/1999/xlink" fill="none" version="1.1" width="24" height="24" viewBox="0 0 24 24"><defs><clipPath id="master_svg0_159_60404"><rect x="0" y="0" width="24" height="24" rx="0"/></clipPath><filter id="master_svg1_159_60405" filterUnits="objectBoundingBox" color-interpolation-filters="sRGB" x="-0.3" y="-0.3004790409209323" width="1.6" height="1.6009580818418647"><feFlood flood-opacity="0" result="BackgroundImageFix"/><feColorMatrix in="SourceAlpha" type="matrix" values="0 0 0 0 0 0 0 0 0 0 0 0 0 0 0 0 0 0 127 0"/><feOffset dy="0" dx="0"/><feGaussianBlur stdDeviation="1.5"/><feColorMatrix type="matrix" values="0 0 0 0 1 0 0 0 0 0.8156862854957581 0 0 0 0 0.8156862854957581 0 0 0 0.30000001192092896 0"/><feBlend mode="normal" in2="BackgroundImageFix" result="effect1_dropShadow"/><feBlend mode="normal" in="SourceGraphic" in2="effect1_dropShadow" result="shape"/></filter><linearGradient x1="0.5" y1="1" x2="0.5" y2="0" id="master_svg2_29_17001"><stop offset="0%" stop-color="#FFDBDB" stop-opacity="0.800000011920929"/><stop offset="45.873382687568665%" stop-color="#FFFFFF" stop-opacity="1"/></linearGradient></defs><g clip-path="url(#master_svg0_159_60404)"><path d="M15.62638928125,10.4593134125C15.07413928125,10.4593134125,14.62667228125,10.011848412500001,14.62667228125,9.4595976125C14.62667228125,8.1483564125,13.56182228125,7.0834927125,12.25056838125,7.0834927125C10.93932818125,7.0834927125,9.87446408125,8.1483445125,9.87446408125,9.4595976125C9.87446408125,9.8164377125,9.68471578125,10.1477871125,9.37318988125,10.3262071125C9.064496981249999,10.5046263125,8.68216708125,10.5046263125,8.373473681250001,10.3262071125C8.06478028125,10.1477871125,7.87219998125,9.8164377125,7.87219998125,9.4595976125C7.87219998125,7.0438595125,9.83198308125,5.0840642124999995,12.24773408125,5.0840642124999995C14.66348328125,5.0840642124999995,16.62326928125,7.0438409125,16.62326928125,9.4595785125C16.62893328125,10.0118294125,16.17863528125,10.4592953125,15.62638928125,10.4593134125L15.62638928125,10.4593134125ZM18.69067028125,10.4593134125C18.138419281250002,10.4593134125,17.69095328125,10.011848412500001,17.69095328125,9.4595976125C17.69095328125,6.4547877125,15.25537828125,4.0220671125,12.25342368125,4.0220671125C9.24861338125,4.0220671125,6.81589218125,6.4576421125,6.81589218125,9.4595976125C6.81589218125,10.011848412500001,6.36842678125,10.4593134125,5.81617598125,10.4593134125C5.26392508125,10.4593134125,4.8164596812500005,10.011848412500001,4.8164596812500005,9.4595976125C4.8164596812500005,6.8031254125,6.235321781250001,4.3477340125,8.53494928125,3.0166848325C10.83741568125,1.6884488125,13.67229728125,1.6884488125,15.97478328125,3.0166848325C18.27724828125,4.3449209125,19.69327128125,6.8003125125,19.69327128125,9.4595976125C19.69043928125,10.011848412500001,19.24297528125,10.4593134125,18.69072528125,10.4593134125L18.69067028125,10.4593134125ZM21.03562328125,13.8974158125L13.28426928125,13.8974158125L13.28426928125,10.4593134125C13.28426928125,9.9070630125,12.83680328125,9.4595976125,12.28455328125,9.4595976125C11.73230358125,9.4595976125,11.28483768125,9.9070630125,11.28483768125,10.4593134125L11.28483768125,13.8974158125L3.53067568125,13.8974158125C2.83965248125,13.8974158125,2.28173828125,14.4581638125,2.28173828125,15.1463538125L2.28173828125,20.7396848125C2.28173828125,21.4307078125,2.84248626125,21.9886228125,3.53067568125,21.9886228125L21.03278928125,21.9886228125C21.72381228125,21.9886228125,22.28172728125,21.4278738125,22.28172728125,20.7396848125L22.28172728125,15.1491998125C22.28455928125,14.4581768125,21.72381228125,13.8974318125,21.03562328125,13.8974158125L21.03562328125,13.8974158125ZM5.36584308125,18.9441418125C4.81359268125,18.9441418125,4.36612678125,18.4966758125,4.36612678125,17.9444258125C4.36612678125,17.3921758125,4.81359268125,16.9447098125,5.36584308125,16.9447098125C5.918093681249999,16.9447098125,6.36555958125,17.3921758125,6.36555958125,17.9444258125C6.36555958125,18.2106378125,6.26077338125,18.4655248125,6.07385728125,18.6524388125C5.88410928125,18.8393558125,5.62922338125,18.9441418125,5.36584308125,18.9441418125ZM8.39613768125,18.9441418125C7.84388688125,18.9441418125,7.39642098125,18.4966758125,7.39642098125,17.9444258125C7.39642098125,17.3921758125,7.84388688125,16.9447098125,8.39613768125,16.9447098125C8.94838858125,16.9447098125,9.39585398125,17.3921758125,9.39585398125,17.9444258125C9.39585398125,18.2106378125,9.29106808125,18.4655248125,9.10415218125,18.6524388125C8.91723628125,18.8393558125,8.66235158125,18.9441418125,8.39613768125,18.9441418125Z" fill="url(#master_svg2_29_17001)" fill-opacity="1" filter="url(#master_svg1_159_60405)"/></g></svg>