<svg xmlns="http://www.w3.org/2000/svg" xmlns:xlink="http://www.w3.org/1999/xlink" fill="none" version="1.1" width="16" height="16" viewBox="0 0 16 16"><defs><clipPath id="master_svg0_219_43930"><rect x="0" y="0" width="16" height="16" rx="0"/></clipPath><linearGradient x1="0.5" y1="0" x2="0.5" y2="1" id="master_svg1_43_19738"><stop offset="0%" stop-color="#FFC2C2" stop-opacity="1"/><stop offset="100%" stop-color="#FFFFFF" stop-opacity="1"/></linearGradient></defs><g clip-path="url(#master_svg0_219_43930)"><path d="M1.2681251,7.1053157L0,11.755003L0,2.83333647C0.00051645399,2.37331331,0.37331006,2.0005197525,0.83333331,2.0000030994415L4.7929168,2.0000030994415C5.0140524,1.9993956089,5.2262411,2.08727932,5.3821878,2.24406564L7.0892711,3.9511488999999997C7.1204195,3.9825467000000003,7.1628566,4.000144000000001,7.2070837,4.0000029L13.166667,4.0000029C13.626691,4.0005188,13.999485,4.373313,14,4.8333364L14,6.0000029L2.7152083,6.0000029C2.0391715,6.001102,1.447042,6.453383,1.2681251,7.1053157ZM15.674376,6.9941697C15.517349,6.7869844,15.272049,6.6656842,15.012084,6.6666698L2.7152083,6.6666698C2.3394923,6.6673822,2.0104969,6.9188819,1.9112499,7.2812533L0.18395832,13.614587C0.03979513,14.144522,0.43872333,14.666571,0.98791671,14.66667L13.284792,14.66667C13.660508,14.665957,13.989503,14.414458,14.08875,14.052087L15.816042,7.7187533C15.885141,7.4683623,15.832644,7.2000551,15.674271,6.9941702L15.674376,6.9941697Z" fill="url(#master_svg1_43_19738)" fill-opacity="1"/></g></svg>