<svg xmlns="http://www.w3.org/2000/svg" xmlns:xlink="http://www.w3.org/1999/xlink" fill="none" version="1.1" width="24" height="24" viewBox="0 0 24 24"><defs><clipPath id="master_svg0_159_60374"><rect x="0" y="0" width="24" height="24" rx="0"/></clipPath><filter id="master_svg1_159_60375" filterUnits="objectBoundingBox" color-interpolation-filters="sRGB" x="-0.2727272727272727" y="-0.4247058411350752" width="1.5454545454545454" height="1.8494116822701505"><feFlood flood-opacity="0" result="BackgroundImageFix"/><feColorMatrix in="SourceAlpha" type="matrix" values="0 0 0 0 0 0 0 0 0 0 0 0 0 0 0 0 0 0 127 0"/><feOffset dy="0" dx="0"/><feGaussianBlur stdDeviation="1.5"/><feColorMatrix type="matrix" values="0 0 0 0 1 0 0 0 0 0.8156862854957581 0 0 0 0 0.8156862854957581 0 0 0 0.30000001192092896 0"/><feBlend mode="normal" in2="BackgroundImageFix" result="effect1_dropShadow"/><feBlend mode="normal" in="SourceGraphic" in2="effect1_dropShadow" result="shape"/></filter><linearGradient x1="0.5" y1="1" x2="0.5" y2="0" id="master_svg2_29_17001"><stop offset="0%" stop-color="#FFDBDB" stop-opacity="0.800000011920929"/><stop offset="45.873382687568665%" stop-color="#FFFFFF" stop-opacity="1"/></linearGradient></defs><g clip-path="url(#master_svg0_159_60374)"><path d="M3.29132508125,8.8767171125C3.95675518125,9.0058186125,4.46078538125,9.5926657125,4.46078538125,10.295270912500001L4.46078538125,12.1909842125L11.81460828125,12.1909842125L11.81460828125,5.0205078125L3.71046848125,5.0205078125C3.53253558125,5.02077925156,3.36228868125,5.0930570965,3.23850668125,5.2208776925C3.12711878125,5.3365906725,3.0689630812499997,5.4847400525,3.07485218125,5.6380424525C3.0981789812500002,6.2509301125,3.1709195812499997,7.3391385125,3.29141758125,8.8763955125L3.29132508125,8.8767171125ZM21.54784028125,9.7838335125C21.26585428125,9.7838335125,21.03644928125,10.0132356125,21.03644928125,10.295225112499999L21.03644928125,12.3836717125C21.44919928125,12.6268301125,21.72695328125,13.0756492125,21.72695328125,13.5883283125L21.72695328125,15.2829838125C21.72695328125,15.3974998125,21.71968628125,15.5106368125,21.68647028125,15.6152158125C21.59983228125,15.8878648125,21.42085828125,16.291042812500002,20.98280328125,16.517730812499998L21.58230428125,18.7995528125C21.63737728125,19.009215812500003,21.82652128125,19.147932812500002,22.03360528125,19.147932812500002C22.07285328125,19.147932812500002,22.11278728125,19.1429658125,22.15258628125,19.1324748125C22.40200228125,19.0669578125,22.55107328125,18.8116078125,22.48555328125,18.5622378125L21.76979028125,15.8379908125L22.27561528125,15.8379908125C22.55254528125,15.8379908125,22.77260628125,15.6083138125,22.78755528125,15.3037338125C22.84722928125,14.0870199125,23.23729728125,10.660997912500001,23.28173828125,10.2727718125C23.26996428125,10.0011797125,23.04530128125,9.7838330125,22.77085328125,9.7838330125L21.54784028125,9.7838335125ZM1.7926237012500001,9.7838335125C1.51817919125,9.7838335125,1.29351662125,10.0011806125,1.28173828125,10.272772312499999C1.32613709225,10.660997912500001,1.71615654125,14.0870199125,1.77583039125,15.3037338125C1.79078328125,15.6083148125,2.01089108125,15.8379908125,2.28781998125,15.8379908125L2.79355238125,15.8379908125L2.07792628125,18.5622378125C2.0124093312499998,18.8116518125,2.16152495125,19.0669578125,2.41089428125,19.1324748125C2.4506461812499998,19.1429188125,2.49058208125,19.147932812500002,2.5298739812499997,19.147932812500002C2.7369150812500003,19.147932812500002,2.92605868125,19.0091718125,2.98117758125,18.7995068125L3.58058448125,16.517730812499998C3.1751061812500003,16.211355812500003,2.9280370812500003,15.8553348125,2.87692098125,15.6155848125C2.85400818125,15.5081528125,2.8363406812500003,15.3976378125,2.83634078125,15.2829358125L2.83634078125,13.5882835125C2.83634078125,13.0754652125,3.11418998125,12.626600312499999,3.52703018125,12.3834882125L3.52703018125,10.295178912499999C3.52703018125,10.0131903125,3.29762838125,9.7837872125,3.01563868125,9.7837872125L1.7926237012500001,9.7837872125L1.7926237012500001,9.7838335125ZM20.10265128125,10.295225112499999C20.10265128125,9.5927567125,20.60653828125,9.0060029125,21.27183328125,8.8767631125L21.27174228125,8.876487212499999C21.39219428125,7.3392298125,21.46498128125,6.2509298125,21.48830828125,5.6380883425C21.49414828125,5.4847400525,21.43599128125,5.3365903525,21.32455828125,5.2208773625C21.20079828125,5.0930584075,21.03055928125,5.02079367579,20.85264228125,5.020553707989L12.74850328125,5.020553707989L12.74850328125,12.1910314125L20.10265128125,12.1910314125L20.10265128125,10.295225112499999ZM20.32961128125,13.1248331125L4.23359208125,13.1248331125C3.97805758125,13.1248331125,3.77014188125,13.3327484125,3.77014188125,13.5883283125L3.77014188125,15.2829838125C3.77014188125,15.4371128125,3.84605738125,15.5735298125,3.96218418125,15.6578648125L3.96255258125,15.6578198125C3.96443888125,15.6591988125,3.96604918125,15.6608108125,3.96793528125,15.6621888125C4.04565668125,15.7170498125,4.13845968125,15.7464948125,4.23359208125,15.7464778125L20.32961128125,15.7464778125C20.42839028125,15.7464778125,20.51985928125,15.7151928125,20.59513128125,15.6623278125C20.59706528125,15.6609008125,20.59872028125,15.6591978125,20.60069828125,15.6578198125L20.60111228125,15.6578648125C20.71719028125,15.5735748125,20.79311028125,15.4371578125,20.79311028125,15.2830298125L20.79311028125,13.5883741125C20.79311028125,13.3327474125,20.58519328125,13.1248331125,20.32961128125,13.1248331125Z" fill="url(#master_svg2_29_17001)" fill-opacity="1" filter="url(#master_svg1_159_60375)"/></g></svg>