<svg xmlns="http://www.w3.org/2000/svg" xmlns:xlink="http://www.w3.org/1999/xlink" fill="none" version="1.1" width="20" height="20" viewBox="0 0 20 20"><defs><linearGradient x1="0.5" y1="0" x2="0.5" y2="1" id="master_svg0_43_19738"><stop offset="0%" stop-color="#FFC2C2" stop-opacity="1"/><stop offset="100%" stop-color="#FFFFFF" stop-opacity="1"/></linearGradient></defs><path d="M16.545454,16.09091L18,16.09091L18,17.545454L2,17.545454L2,16.09091L3.4545453999999998,16.09091L3.4545453999999998,3.72727281C3.4545453999999998,3.3256112,3.7801565,3.0000001300465,4.1818182,3L15.818183,3C16.219844000000002,3.0000001300465,16.545454,3.32561097,16.545456,3.72727281L16.545454,16.09091ZM9.272728,7.3636365L7.8181825,7.3636365L7.8181825,8.818182499999999L9.272728,8.818182499999999L9.272728,10.272728L10.727273,10.272728L10.727273,8.8181815L12.181818,8.8181815L12.181818,7.3636365L10.727273,7.3636365L10.727273,5.909091200000001L9.272728,5.909091200000001L9.272728,7.3636365ZM11.454546,16.090911L12.909091,16.090911L12.909091,11.7272739L7.0909095,11.7272739L7.0909095,16.090911L8.5454555,16.090911L8.5454555,13.181819L11.454546,13.181819L11.454546,16.090911Z" fill="url(#master_svg0_43_19738)" fill-opacity="1"/></svg>