<svg xmlns="http://www.w3.org/2000/svg" xmlns:xlink="http://www.w3.org/1999/xlink" fill="none" version="1.1" width="24" height="24" viewBox="0 0 24 24"><defs><clipPath id="master_svg0_170_96764"><rect x="0" y="0" width="24" height="24" rx="0"/></clipPath><filter id="master_svg1_170_96765" filterUnits="objectBoundingBox" color-interpolation-filters="sRGB" x="-0.3" y="-0.32770136886009443" width="1.6" height="1.6554027377201888"><feFlood flood-opacity="0" result="BackgroundImageFix"/><feColorMatrix in="SourceAlpha" type="matrix" values="0 0 0 0 0 0 0 0 0 0 0 0 0 0 0 0 0 0 127 0"/><feOffset dy="0" dx="0"/><feGaussianBlur stdDeviation="1.5"/><feColorMatrix type="matrix" values="0 0 0 0 1 0 0 0 0 0.8156862854957581 0 0 0 0 0.8156862854957581 0 0 0 0.30000001192092896 0"/><feBlend mode="normal" in2="BackgroundImageFix" result="effect1_dropShadow"/><feBlend mode="normal" in="SourceGraphic" in2="effect1_dropShadow" result="shape"/></filter><linearGradient x1="0.5" y1="1" x2="0.5" y2="0" id="master_svg2_119_22697"><stop offset="0%" stop-color="#FFDBDB" stop-opacity="0.800000011920929"/><stop offset="45.873382687568665%" stop-color="#FFFFFF" stop-opacity="1"/></linearGradient></defs><g clip-path="url(#master_svg0_170_96764)"><path d="M13.0067299375,3.2079755825L21.7552259375,8.707030812500001C22.8800319375,9.331923012499999,22.3801169375,10.956644512499999,21.1303329375,10.956644512499999L19.6307679375,10.956644512499999L19.6307679375,20.3300328125C19.6307679375,20.8299488125,19.2558329375,21.3298608125,18.6309399375,21.3298608125L5.8831288375,21.3298608125C5.3832149375,21.3298608125,4.8833007375,20.9549258125,4.8833007375,20.3300328125L4.8833007375,10.956644512499999L3.6333390375,10.956644512499999C2.3835538792,10.956644512499999,1.8836397575000001,9.331923012499999,3.0084470475,8.707031212499999L11.7569446375,3.2079755825C12.1318798375,2.9580185335,12.6317939375,2.9580185335,13.0067299375,3.2079755825ZM10.0074205375,20.4550128125L14.6316269375,20.4550128125L14.6316259375,15.9557848125C14.6316259375,14.7059998125,13.5068199375,13.7061708125,12.2570343375,13.7061708125C11.0072488375,13.7061708125,10.0074205375,14.7059998125,10.0074205375,15.9557848125L10.0074205375,20.4550128125Z" fill-rule="evenodd" fill="url(#master_svg2_119_22697)" fill-opacity="1" filter="url(#master_svg1_170_96765)"/></g></svg>