<svg xmlns="http://www.w3.org/2000/svg" xmlns:xlink="http://www.w3.org/1999/xlink" fill="none" version="1.1" width="18" height="18" viewBox="0 0 18 18"><defs><linearGradient x1="0.5" y1="0" x2="0.5" y2="1" id="master_svg0_43_19738"><stop offset="0%" stop-color="#FFC2C2" stop-opacity="1"/><stop offset="100%" stop-color="#FFFFFF" stop-opacity="1"/></linearGradient></defs><g><path d="M17.43605,6.11787018079071L9.5624037,1.1687210807907105C9.2249613,0.9437593217907104,8.7750387,0.9437593217907104,8.4375973,1.1687210807907105L0.56394994,6.11787018079071C-0.44837642,6.68027298079071,0.0015461445,8.14252218079071,1.1263527,8.14252218079071L2.2514648,8.14252218079071L2.2514648,16.57855988079071C2.2514648,17.140964880790712,2.7013876,17.47840488079071,3.1513102,17.47840488079071L14.624338,17.47840488079071C15.186742,17.47840488079071,15.524185,17.02848188079071,15.524185,16.57855988079071L15.524185,8.14252218079071L16.873646,8.14252218079071C17.998451,8.14252218079071,18.448376,6.68027298079071,17.43605,6.11787018079071ZM10.948,15.06399988079071C9.6280003,15.06399988079071,8.9720001,14.33599988079071,8.9720001,12.863999880790711L8.9720001,11.59999988079071C8.9720001,10.13599958079071,9.6359997,9.39999948079071,10.98,9.39999948079071C11.588,9.39999948079071,12.076,9.57600008079071,12.436,9.91999998079071C12.788,10.26399978079071,12.972,10.82399928079071,12.972,11.59999988079071L12.972,12.863999880790711C12.972,13.64799988079071,12.788,14.20799988079071,12.42,14.55199988079071C12.052,14.895999880790711,11.564,15.06399988079071,10.948,15.06399988079071ZM7.052,9.47999938079071L8.1000004,9.47999938079071L8.1000004,14.99999988079071L7.052,14.99999988079071L5.02,11.55199988079071L5.02,14.99999988079071L3.9720001,14.99999988079071L3.9720001,9.47999938079071L5.02,9.47999938079071L7.052,12.93599988079071L7.052,9.47999938079071ZM10.98,14.12799988079071C11.3,14.12799988079071,11.532,14.03199988079071,11.692,13.82399988079071C11.844,13.61599988079071,11.924,13.29599988079071,11.924,12.847999880790711L11.924,11.655999880790711C11.924,11.19199888079071,11.844,10.84799948079071,11.692,10.639999280790711C11.532,10.43199908079071,11.3,10.31999958079071,10.98,10.31999958079071C10.644,10.31999958079071,10.396,10.423999680790711,10.252,10.63199988079071C10.1,10.84000008079071,10.028,11.17599988079071,10.028,11.655999880790711L10.028,12.847999880790711C10.028,13.30399988079071,10.1,13.63199988079071,10.252,13.831999880790711C10.396,14.03199988079071,10.644,14.12799988079071,10.98,14.12799988079071ZM13.444,14.99999988079071L13.444,13.863999880790711L14.556001,13.863999880790711L14.556001,14.99999988079071L13.444,14.99999988079071Z" fill-rule="evenodd" fill="url(#master_svg0_43_19738)" fill-opacity="1"/></g></svg>