<svg xmlns="http://www.w3.org/2000/svg" xmlns:xlink="http://www.w3.org/1999/xlink" fill="none" version="1.1" width="23.82666015625" height="23.8271484375" viewBox="0 0 23.82666015625 23.8271484375"><defs><filter id="master_svg0_219_53050" filterUnits="objectBoundingBox" color-interpolation-filters="sRGB" x="-0.32615998717726874" y="-0.32615001397749416" width="1.6523199743545374" height="1.6523000279549882"><feFlood flood-opacity="0" result="BackgroundImageFix"/><feColorMatrix in="SourceAlpha" type="matrix" values="0 0 0 0 0 0 0 0 0 0 0 0 0 0 0 0 0 0 127 0"/><feOffset dy="0" dx="0"/><feGaussianBlur stdDeviation="1.3045809268951416"/><feColorMatrix type="matrix" values="0 0 0 0 1 0 0 0 0 0.5221238732337952 0 0 0 0 0.5221238732337952 0 0 0 1 0"/><feBlend mode="normal" in2="BackgroundImageFix" result="effect1_dropShadow"/><feBlend mode="normal" in="SourceGraphic" in2="effect1_dropShadow" result="shape"/></filter></defs><g filter="url(#master_svg0_219_53050)"><path d="M14.75190121875,7.67557431875C14.71912421875,6.24399681875,13.74406531875,5.0064233187500005,12.35990141875,4.63957422875C12.13790131875,4.57257419875,11.67190171875,7.133574218750001,11.67190171875,7.133574218750001L11.67190171875,4.31357422875C11.67231511875,4.10206617875,11.50799651875,3.92679308775,11.29690171875,3.91357421875L10.732901618749999,3.91357421875C10.51851131875,3.92064658975,10.34984781875,4.09912615875,10.354901818750001,4.31357422875L10.354901818750001,7.133574218750001C10.354901818750001,7.133574218750001,9.88690141875,4.57257419875,9.66390181875,4.63757419875C8.28070451875,5.00589321875,7.30633521875,6.24259231875,7.27190141875,7.67357421875C7.27190141875,8.03057431875,6.40390131875,7.52557421875,6.40390131875,9.07357401875L15.62090121875,9.07357401875C15.61890121875,7.51357411875,14.75190021875,8.02857401875,14.75190121875,7.67557431875ZM14.53190121875,18.87557421875C14.00406021875,18.01078821875,13.95797421875,16.93534521875,14.40990121875,16.028574218750002C14.25290221875,15.96657321875,14.27590221875,15.82257321875,14.00990221875,15.71657321875C13.77773091875,15.62667021875,13.56186861875,15.49931421875,13.37090201875,15.33957421875C13.22758291875,15.21681521875,13.11086181875,15.06606521875,13.02790161875,14.89657421875C12.96103281875,14.74935321875,12.92204001875,14.59101121875,12.91290191875,14.42957421875C12.90365501875,14.27563221875,12.91339491875,14.12113621875,12.94190211875,13.96957421875C12.95966811875,13.86284251875,12.99057001875,13.75871851875,13.03390211875,13.65957351875C13.06922721875,13.57861991875,13.11942861875,13.50501251875,13.18190191875,13.44257351875C13.24596501875,13.37875271875,13.31594661875,13.32116031875,13.39090151875,13.27057361875C13.47950361875,13.20992091875,13.56371311875,13.14308831875,13.64290141875,13.07057381875C13.73114871875,12.98584751875,13.80391021875,12.88635161875,13.85790161875,12.77657411875C13.91890121875,12.65257451875,13.97690221875,12.52457431875,14.02490121875,12.39357371875C14.07490121875,12.24557401875,14.12490221875,12.08857341875,14.15890121875,11.92757411875C14.26436721875,11.89455221875,14.36084421875,11.837760418750001,14.44090121875,11.761574218749999C14.52914721875,11.67684741875,14.60190821875,11.57735111875,14.65590121875,11.46757411875C14.72789521875,11.30905911875,14.77511221875,11.14042611875,14.79590121875,10.96757411875C14.81620621875,10.83249421875,14.81417921875,10.69499631875,14.78990221875,10.56057401875C14.77046521875,10.466020618750001,14.73674521875,10.37497711875,14.68990121875,10.290574118750001C14.65708321875,10.213421318750001,14.60027621875,10.14889911875,14.52790121875,10.106574018749999C14.53390121875,9.90657421875,14.52790121875,9.70657391875,14.51590121875,9.50157401875L7.55690141875,9.50157401875C7.544901418749999,9.70157381875,7.54290151875,9.90157411875,7.54890151875,10.101573918749999C7.46942281875,10.195611518749999,7.40713691875,10.302918918749999,7.36490151875,10.41857381875C7.32101611875,10.53171781875,7.29373331875,10.65061661875,7.28390141875,10.77157401875C7.26871821875,10.926714918750001,7.285740418750001,11.083319218749999,7.33390141875,11.231574018749999C7.39189551875,11.46612831875,7.52285141875,11.67621801875,7.70790151875,11.83157391875C7.76973751875,11.87731171875,7.839124218749999,11.91183611875,7.91290111875,11.93357471875L8.06090161875,12.39957431875C8.110901818750001,12.53057381875,8.16090151875,12.65657421875,8.22290181875,12.78257461875C8.27218201875,12.89357951875,8.34325411875,12.99355601875,8.43190191875,13.07657431875C8.60390181875,13.21857451875,8.75090221875,13.35257431875,8.885901918750001,13.48357391875C9.02732041875,13.63328071875,9.10881521875,13.82972331875,9.11490201875,14.03557421875C9.12290191875,14.18957421875,9.12890191875,14.32957321875,9.12890191875,14.45957421875C9.12878081875,14.58819121875,9.10610391875,14.71579121875,9.06190201875,14.83657321875C9.00780531875,14.97235721875,8.92685511875,15.09582221875,8.82390211875,15.19957321875C8.68034691875,15.34528921875,8.51869491875,15.47198921875,8.34290221875,15.57657321875C8.066816818749999,15.75620421875,7.76261491875,15.88836321875,7.44290181875,15.96757321875C7.09990191875,16.05957321875,5.60290191875,16.579572218750002,5.2849020187499995,16.69157321875C4.98078311875,16.79139521875,4.69649064875,16.94369421875,4.44490199875,17.14157321875C4.20056384875,17.36161121875,4.04365461875,17.66229521875,4.00290199375,17.98857321875C3.93206369875,18.30508021875,3.90314922075,18.62952821875,3.91690199075,18.95357321875L9.612901718749999,18.95357321875L14.53190121875,18.87557421875Z" fill="#FFFFFF" fill-opacity="1" style="mix-blend-mode:passthrough"/><path d="M17.4178514625,14.92333984375C16.0399007625,14.92333984375,14.9228515625,16.04038904375,14.9228515625,17.41833974375C14.9228515625,18.79629044375,16.0399007625,19.91333964375,17.4178514625,19.91333964375C18.7958021625,19.91333964375,19.9128522625,18.79628944375,19.912850362500002,17.41833974375C19.912850362500002,16.04038904375,18.7958011625,14.92333984375,17.4178514625,14.92333984375ZM18.5498514625,18.64134024375L18.4948510625,18.68834014375C18.3677215625,18.795752543749998,18.1774539625,18.77914904375,18.0708513625,18.65134044375L17.5238513625,18.000340443749998C17.5154971625,17.99041364375,17.5081291625,17.97969624375,17.501851062500002,17.96834084375C17.1605520625,18.15788654375,16.7346267625,18.095635443749998,16.4618511625,17.81634044375C16.2727107625,17.56796744375,16.2431430625,17.23300454375,16.3858508625,16.95534034375C16.4166192625,16.88500504375,16.4544820625,16.81799224375,16.4988508625,16.755340543750002L16.6288509625,16.91034034375L16.8908510625,17.22234054375C16.9252681625,17.261244743749998,16.9850463625,17.26396174375,17.0228509625,17.22834014375L17.3668508625,16.93934054375C17.4084672625,16.90829374375,17.416164362499998,16.84898184375,17.3838510625,16.80834104375L17.1238508625,16.49734114375L16.9938506625,16.34134104375C17.0596513625,16.31015394375,17.1283016625,16.28537274375,17.1988506625,16.26734064375C17.4983167625,16.17413904375,17.8246917625,16.26127624375,18.0378503625,16.49134064375C18.2637567625,16.806322143750002,18.2531413625,17.23298354375,18.0118503625,17.53634074375C18.0225295625,17.54493714375,18.032252262500002,17.55466084375,18.0408506625,17.56534104375L18.5878505625,18.21734144375C18.6950683625,18.34379104375,18.6793928625,18.533233643750002,18.5528507625,18.64034174375L18.5498514625,18.64134024375Z" fill="#FFFFFF" fill-opacity="1" style="mix-blend-mode:passthrough"/></g></svg>