<svg xmlns="http://www.w3.org/2000/svg" xmlns:xlink="http://www.w3.org/1999/xlink" fill="none" version="1.1" width="18" height="18" viewBox="0 0 18 18"><defs><linearGradient x1="0.5" y1="0" x2="0.5" y2="1" id="master_svg0_43_19738"><stop offset="0%" stop-color="#FFC2C2" stop-opacity="1"/><stop offset="100%" stop-color="#FFFFFF" stop-opacity="1"/></linearGradient></defs><path d="M9.5069485,8.97778085C9.3341212,8.97831775,9.1625061,8.948931250000001,8.9997039,8.890923950000001L2.3985657700000003,6.55620625C1.87541473,6.40927695,1.51389712,5.93223905,1.51389712,5.38884665C1.513897451,4.84545445,1.87541473,4.36841655,2.3985657700000003,4.22148795L8.9997039,1.886769906C9.3281493,1.772118254,9.6857481,1.772118254,10.0141935,1.886769906L16.615332000000002,4.22148795C17.138482,4.36841655,17.5,4.84545445,17.5,5.38884665C17.5,5.93223905,17.138482,6.40927695,16.615332000000002,6.55620625L10.0141935,8.890923950000001C9.8513908,8.948931250000001,9.6797762,8.97831775,9.5069485,8.97778085ZM16.615332000000002,7.92854735L15.573047,7.56374785L13.620501,8.258604550000001L16.014281,9.095906750000001L9.5069485,11.39240835L2.9996166,9.095906750000001L5.3829750999999995,8.25513075L3.4269536,7.56027415L2.38466865,7.92507365C1.86151761,8.07200145,1.5,8.549039350000001,1.5,9.09243155C1.50000033133347,9.63582375,1.86151761,10.11286165,2.38466865,10.25979135L8.985806499999999,12.59451025C9.3140631,12.71026825,9.672039,12.71026825,10.0002966,12.59451025L16.601435000000002,10.25979135C17.124585,10.11286165,17.486100999999998,9.63582375,17.486100999999998,9.09243155C17.486100999999998,8.549039350000001,17.124585,8.07200145,16.601435000000002,7.92507365L16.615332000000002,7.92854735ZM16.615332000000002,11.63560775L15.573047,11.27080825L13.620501,11.96566525L16.000383,12.80644125L9.5069485,15.09946725L3.010039,12.80296625L5.3933976,11.96219025L3.437376,11.26733395L2.39509106,11.63213345C1.87193903,11.77906135,1.510420438,12.25609825,1.510420438,12.79949325C1.510420438,13.34288625,1.87193903,13.81992425,2.39509106,13.96685225L8.9962287,16.301571250000002C9.3244863,16.41732925,9.6824627,16.41732925,10.0107193,16.301571250000002L16.611857,13.96685225C17.135009,13.81992425,17.496527999999998,13.34288625,17.496527999999998,12.79949325C17.496527999999998,12.25609825,17.135009,11.77906135,16.611857,11.63213345L16.615332000000002,11.63560775Z" fill="url(#master_svg0_43_19738)" fill-opacity="1"/></svg>