<svg xmlns="http://www.w3.org/2000/svg" xmlns:xlink="http://www.w3.org/1999/xlink" fill="none" version="1.1" width="16" height="16" viewBox="0 0 16 16"><defs><clipPath id="master_svg0_215_91045"><rect x="0" y="0" width="16" height="16" rx="0"/></clipPath><linearGradient x1="0.5" y1="1" x2="0.5" y2="0" id="master_svg1_26_34225"><stop offset="0%" stop-color="#868686" stop-opacity="0.800000011920929"/><stop offset="50.776487588882446%" stop-color="#FFFFFF" stop-opacity="1"/></linearGradient></defs><g clip-path="url(#master_svg0_215_91045)"><path d="M14.125462,1L1.8767185,1C1.3411354,1,0.90787888,1.4332561799999999,0.90787888,1.96883929L0.90787888,12.179753C0.90787888,12.715337,1.3411351,13.148593,1.8767182,13.148593L14.127638,13.148593C14.663221,13.148593,15.096478,12.715337,15.096478,12.179753L15.096478,1.96883929C15.0943,1.43543339,14.661044,1,14.125462,1ZM13.052118,6.65628C12.984626,6.8152132,12.893185,6.9523749,12.773441,7.0721192C12.655873,7.1896868,12.516536,7.2833047,12.357602,7.3507972C12.198668,7.4182897,12.033204,7.4509463,11.856853,7.4509463L11.636959,7.4509463L10.770448,9.0293932C10.903255,9.1513138,11.009935,9.2928305,11.09049,9.4582949C11.168868,9.621582,11.208057,9.8022871,11.208057,9.9960546C11.208057,10.1724052,11.175399,10.3400469,11.107908,10.4968033C11.040417,10.6557369,10.948974,10.7928982,10.82923,10.9126425C10.711664,11.03021,10.574503,11.123828,10.417747,11.191319C10.263168,11.258811,10.093349,11.29147,9.9126453,11.29147C9.7297621,11.29147,9.5621214,11.258811,9.405364,11.191319C9.2507858,11.123828,9.1158018,11.032386,9.000412,10.9126425C8.8850231,10.7950764,8.793581,10.6557369,8.7260885,10.4968033C8.658597,10.3378706,8.6259394,10.1724052,8.6259394,9.9960546C8.6259394,9.8022871,8.6629505,9.621582,8.7391529,9.4582949C8.8153543,9.2950077,8.919858,9.1513138,9.0548429,9.0293932L7.485105,5.5176225C7.4241447,5.5306854,7.3762474,5.5350399,7.3392348,5.5350399C7.2412624,5.5350399,7.1498208,5.5219765,7.0605569,5.4980278C6.9712934,5.4740787,6.8885612,5.4435987,6.810183,5.4065866L5.2513313,7.3769231C5.3122921,7.47925,5.3601894,7.5902848,5.397202,7.7100291C5.4342141,7.8275967,5.4516311,7.951695,5.4516311,8.080147700000001C5.4516311,8.2564983,5.4189734,8.424140000000001,5.3514814,8.5808964C5.283989,8.739830000000001,5.1925488,8.8748136,5.0728035,8.9923801C4.9552369,9.10777,4.8180752,9.1992121,4.6613188,9.2667036C4.5067406,9.3341951,4.3369212,9.3668537,4.1562161,9.3668537C3.9798656,9.3668537,3.8122239,9.3341951,3.6554675,9.2667036C3.4965348,9.1992121,3.3615501,9.10777,3.2461603,8.9923801C3.1307709,8.8769913,3.0393298,8.7398286,2.9718373,8.583072699999999C2.904345,8.424139499999999,2.8716879,8.258674599999999,2.8716879,8.082324C2.8716879,7.9059734,2.9043455,7.7405081,2.9718373,7.5859303C3.0393298,7.4313517,3.1307702,7.2963667,3.2461603,7.1809773C3.3615501,7.0655875,3.4987116,6.9741464,3.6554675,6.9066539C3.8144007,6.8391619,3.9798656,6.8065047,4.1562161,6.8065047C4.1932282,6.8065047,4.2258854,6.808681,4.2563658,6.8108587C4.2868457,6.813036,4.3173261,6.8152132,4.3478069,6.8152132L6.1265521,4.6619952C6.0960722,4.6010346,6.076478,4.533542199999999,6.0677691,4.4616954C6.0590601,4.3876717,6.0547056,4.3136485,6.0547056,4.2330925C6.0547056,4.0567422,6.0873632,3.8891003,6.1548553,3.7323442C6.2223477,3.5734112,6.3137879,3.4384265,6.4291782,3.3208594C6.5445681,3.2054698,6.6817298,3.1140287,6.8384852,3.0465362C6.9974189,2.9790441999999997,7.1628838,2.9463865,7.3392344,2.9463865C7.5155849,2.9463865,7.6832266,2.979044,7.8399825,3.0465362C7.9989157,3.1140287,8.1338997,3.2054691,8.2514668,3.3208594C8.3668566,3.4362488,8.4582977,3.5734105,8.5257902,3.7323442C8.5932817,3.8912771,8.6259394,4.0567422,8.6259394,4.2330925C8.6259394,4.378963000000001,8.6041679,4.5183015,8.5584478,4.648932C8.5127277,4.7795622,8.4495888,4.9036605,8.3712111,5.0190501L9.9126463,8.4655056L10.796576,6.8870597C10.729084,6.7847323,10.674655,6.669343,10.633288,6.5452437C10.589746,6.4211454,10.57015,6.2883387,10.57015,6.1489992C10.57015,5.9726486,10.602809,5.805007,10.6703,5.6482506C10.737791,5.4893179,10.829234,5.3543329,10.944623,5.2367659C11.060012,5.1213765,11.197175,5.0299354,11.356107,4.9624429C11.515041,4.8949504,11.680506,4.8622935,11.856855,4.8622935C12.033206,4.8622935,12.200849,4.8949511,12.357604,4.9624429C12.516538,5.0299354,12.653699,5.1213756,12.773443,5.2367659C12.89101,5.3521557,12.984629,5.4893169,13.05212,5.6482506C13.119612,5.8071837,13.15227,5.9726486,13.15227,6.1489992C13.15227,6.327527,13.119612,6.4973464,13.052118,6.65628ZM15.270651,15.89618L0.73152822,15.89618C0.32875228,15.89618,0,15.569605,0,15.164652C0,14.761876,0.3265751,14.433125,0.73152822,14.433125L15.268474,14.433125C15.671249,14.433125,16,14.759699,16,15.164652C16,15.567427,15.673427,15.89618,15.270651,15.89618Z" fill="url(#master_svg1_26_34225)" fill-opacity="1"/></g></svg>