<svg xmlns="http://www.w3.org/2000/svg" xmlns:xlink="http://www.w3.org/1999/xlink" fill="none" version="1.1" width="28" height="28" viewBox="0 0 28 28"><defs><clipPath id="master_svg0_166_28403"><rect x="0" y="0" width="28" height="28" rx="0"/></clipPath><clipPath id="master_svg1_166_28408"><rect x="1" y="1" width="26" height="25.999996185302734" rx="0"/></clipPath></defs><g clip-path="url(#master_svg0_166_28403)"><g clip-path="url(#master_svg1_166_28408)"><path d="M18.9942824225,6.3961522125000005C18.88415650735,6.3051154125,18.8606624415,6.2287586125,18.9047154955,6.1685605125C18.9942824225,6.0437504125,19.1778256025,6.2375729125,19.3114456525,6.0775237125L20.5991830625,4.5357606725C20.7342729625,4.3727763925,20.5140210625,4.2332817725,20.6212073625,4.1128763405C20.6711307625,4.0556087045,20.7460176625,4.0600180445,20.8546738625,4.1510547695L22.2070188625,5.2802130125C22.3802826625,5.4270478125,22.3817522625,5.5591978125,22.1629705625,5.8308430125C22.110112162500002,5.8954502125,22.0381600625,5.9453735125,21.9882366625,5.8939805125C21.9383134625,5.8425876125,21.9632727625,5.7603606124999995,21.9353783625,5.6179308125C21.9226477625,5.5007294125,21.8614058625,5.3942195125,21.7665197625,5.3242617125L21.3436353625,4.9718595125C21.2357139625,4.8811454725,21.0744237625,4.8963495525,20.9853589625,5.0056331125L20.5242961625,5.5562627125L21.1116342625,6.0452201125C21.2467241625,6.1582811125,21.4053032625,6.0070416125,21.4890000625,6.0745888125C21.5726971625,6.142135812499999,21.443481662499998,6.2933707125,21.3421656625,6.4211161125C21.1953308625,6.5929143125,21.0617110625,6.735344212499999,20.9956383625,6.6766069125000005C20.9295654625,6.6178694125,21.0543713625,6.4313910125,20.8957917625,6.2992408125L20.3084535625,5.8146887125L19.8488606225,6.363848412499999C19.7589620325,6.4719982125,19.7727055525,6.6323209125,19.8796945825,6.7235951125L20.3569071625,7.1229851125C20.4502066625,7.2045760125000005,20.5756217625,7.239174112500001,20.6975642625,7.2169616125000005C20.8297145625,7.2022772125,20.9090065625,7.1699734125,20.9692089625,7.2008121124999995C21.0294115625,7.2316506125,21.0220672625,7.3226828125,20.9692089625,7.3726103125C20.7269328625,7.6295712125,20.5815636625,7.7206075125,20.4200491625,7.5869877125L18.9942824225,6.3961522125000005Z" fill="#FFF3F3" fill-opacity="1" style="mix-blend-mode:passthrough"/><path d="M13.99926215625,27.00000415625C6.81915755625,27.00000415625,0.99853515625,21.17937615625,0.99853515625,13.99926915625C0.99853515625,6.81916285625,6.81915995625,0.99853515625,13.99926615625,0.99853515625C21.17937315625,0.99853515625,27.00000015625,6.81916285625,26.99999415625,13.99926915625C26.99189715625,21.17602015625,21.17601215625,26.99190915625,13.99926215625,27.00000415625ZM13.99926215625,1.65782546625C7.18253615625,1.65755206625,1.65634667625,7.18374445625,1.65634667625,14.00073815625C1.65607553625,20.81746715625,7.18226715625,26.34365415625,13.99926215625,26.34365415625C20.81598315625,26.34392515625,26.34217615625,20.81707915625,26.34217615625,13.99927415625C26.33408115625,7.18606045625,20.81247515625,1.6651071262500001,13.99926215625,1.65782546625Z" fill="#FFF3F3" fill-opacity="1" style="mix-blend-mode:passthrough"/><path d="M13.999213175,22.6820408125C9.204827775,22.6817668125,5.318359375,18.794633812500003,5.318359375,13.9997072125C5.31863271812,9.2045102125,9.205759775,5.3173828125,14.000687575,5.3173828125C18.795881375,5.31765167462,22.683015375,9.2047839125,22.683010375,13.9997120125C22.677345375,18.7930518125,18.792557375,22.6771868125,13.999213175,22.6820408125ZM13.999213175,5.9752033325C9.568132375000001,5.9754721525,5.976173045,9.568088012499999,5.976173045,13.9997120125C5.976441915,18.4316028125,9.569059875,22.0242198125,14.000681875,22.0242198125C18.432573375,22.0239508125,22.025190375,18.4313338125,22.025190375,13.9997120125C22.019531375,9.569670712499999,18.429253375000002,5.9800518125,13.999213175,5.9752033325Z" fill="#FFF3F3" fill-opacity="1" style="mix-blend-mode:passthrough"/><path d="M23.4849422,13.992096485C23.27496986,14.000906405,23.32636282,14.219688375,23.20008281,14.238777675C23.125195742,14.249057175,23.07821209,14.190324175,23.072337454,14.047894475L23.04296875,13.337215725C23.04296875,13.202125925,23.070867674,13.144862775,23.14722005,13.150737405C23.26909077,13.158077345,23.24853626,13.384203854999999,23.45997834,13.375394105L25.515661950000002,13.290232035C25.72563485,13.281422345,25.68452095,13.049421206,25.83282565,13.0303364752C25.91064735,13.0200569788,25.95469645,13.086134322,25.96057085,13.227094235L25.98993965,13.936303255C25.98993965,14.083137875,25.95029565,14.130125975,25.87834405,14.127186275C25.73150895,14.127186275,25.75206805,13.898124815,25.54062585,13.906934555L23.4849422,13.992096485Z" fill="#FFF3F3" fill-opacity="1" style="mix-blend-mode:passthrough"/><path d="M25.562315275,10.7312763925C25.616522275,10.9320894125,25.631973075,11.1413898125,25.607833575,11.3479833125C25.600493675,11.4448947125,25.571125275,11.5491458125,25.668036475,11.6093486125C25.814871075,11.695980412499999,25.742923475,11.8105112125,25.625453274999998,11.8751187125C25.450428475,11.968776912500001,25.267073675,12.0459537125,25.077758575,12.1056502125C25.004341575,12.1276743125,24.930924175,12.1320794125,24.898620375,12.0527921125C24.854571575,11.9250467125,25.038114775,11.8516292125,25.184949375,11.5608952125C25.300340675,11.3386762125,25.321504875,11.0793900125,25.243682175,10.8414067625C25.151175775,10.5403977025,24.957353375,10.4097127625,24.740040975,10.5169036425C24.242269875,10.7621192325,24.991126775,12.2040312125,23.919236275,12.5241344125C23.350987435,12.6944630125,22.866430725,12.416943312499999,22.671142725,11.6945195125C22.614453155,11.4637287125,22.606947415,11.2235944125,22.649118435,10.9897156125C22.669677405,10.8663750925,22.515498448,10.8663750925,22.4934741633,10.7621237625C22.471449876,10.6578726125,22.565421656,10.5976697825,22.662332995,10.5242525925C22.839123275,10.3945086025,23.030902565,10.2865425625,23.233521525,10.2026844625C23.390635725,10.1424817625,23.474332455,10.1733157625,23.500761475,10.2687618425C23.553619775,10.4640498125,22.900208715,10.8384805925,23.032358885,11.5374145125C23.110181035,11.9426794125,23.326027985,12.0997889125,23.593267875,12.0263717125C24.211440475,11.8589783125,23.381825925,10.3612683125,24.402327775,9.9706878255C24.883940475,9.7930013425,25.384646675,10.0793305325,25.562315275,10.7312763925Z" fill="#FFF3F3" fill-opacity="1" style="mix-blend-mode:passthrough"/><path d="M25.42464373125,17.1064651375C25.51025393125,17.1072807375,25.58316923125,17.0444247375,25.59497193125,16.9596302375L25.96793343125,14.9847036875C25.98873453125,14.9005946175,25.94421073125,14.814047907500001,25.86368223125,14.7820712475C25.72431283125,14.7276177035,25.58097363125,14.6839276035,25.43492343125,14.6513863243C25.36884573125,14.6396415308,25.30423803125,14.6513863243,25.28074833125,14.7262733875C25.23082563125,14.8892576075,25.61700083125,15.1153840675,25.57441783125,15.3444457075L25.55239363125,15.4619114375C25.53607823125,15.5478128775,25.45331313125,15.6043009175,25.36738033125,15.5881869775L23.37923926125,15.2181745175C23.17220196125,15.1785308075,23.24708906125,14.9597443075,23.13402355125,14.9245054675C23.06207608125,14.9010113475,23.01068304125,14.9377199975,22.98718901125,15.0713399975L22.84769437225,15.8172575375C22.82420030425,15.9391285375,22.85797386825,15.997865837500001,22.93432622425,16.002270737499998C23.04592192125,16.002270737499998,23.06207158125,15.7776138375,23.26910886125,15.8157923375L25.25578023125,16.1902188375C25.34227303125,16.2058351375,25.39957213125,16.2888147375,25.38352563125,16.3752316375L25.361501431249998,16.4912322375C25.31745263125,16.7217636375,24.87694933125,16.7849011375,24.86373023125,16.9625702375C24.86373023125,17.0403924375,24.91365333125,17.0741655375,24.97973033125,17.0873801375C25.127290931250002,17.1055865375,25.27607033125,17.1119675375,25.42464373125,17.1064651375Z" fill="#FFF3F3" fill-opacity="1" style="mix-blend-mode:passthrough"/><path d="M22.42336660875,17.27359002625C22.48063426875,17.14290508896,22.53642761875,17.12675543525,22.60544004875,17.15465436525C22.76255410875,17.22366680225,22.57901084875,17.38518576625,22.77283358875,17.46888252625L23.47470256875,17.77723604625L24.97535226875,17.56285881625C25.03775476875,17.55038362625,25.09875086875,17.53168874625,25.15742516875,17.50706097625C25.28811026875,17.43804854625,25.35418296875,17.37197118625,25.429070468749998,17.39106041625C25.49333716875,17.41299056625,25.52056386875,17.48894414625,25.48486826875,17.54670470625L25.12071706875,18.38072390625C25.08694336875,18.46001600625,25.01793076875,18.48644510625,24.95773246875,18.44680140625C24.89753416875,18.40715770625,24.915149468750002,18.29996690625,24.84760666875,18.22361440625C24.81065606875,18.18899850625,24.75907036875,18.17473100625,24.70958156875,18.18543600625L23.68173976875,18.33227060625L24.31166126875,19.19859380625Q24.36451956875,19.27348110625,24.42325706875,19.26467130625C24.505483868749998,19.25145650625,24.59358546875,19.08993770625,24.68902726875,19.10315230625C24.74482516875,19.10315230625,24.78153366875,19.16922950625,24.74042056875,19.26320150625L24.45262126875,19.91661260625C24.421787268750002,19.98562500625,24.36158446875,20.02967360625,24.30578656875,19.97828530625C24.24998906875,19.92689660625,24.26467296875,19.80208180625,24.20594046875,19.65084220625C24.18741126875,19.59831140625,24.16118386875,19.54882690625,24.12811826875,19.50400780625L23.23830116875,18.32933120625L22.53349256875,18.00776290625C22.33966983875,17.92406618625,22.34554448875,18.16781210625,22.18843042075,18.09879976625C22.11941799455,18.06943100625,22.09592392675,18.01510304625,22.15172177975,17.88442247625L22.42336660875,17.27359002625Z" fill="#FFF3F3" fill-opacity="1" style="mix-blend-mode:passthrough"/><path d="M2.517059085,13.555530975C2.293869945,13.527632275,2.261566165,13.762568675,2.108859241,13.739074275C2.044251669,13.730264675,1.995795999,13.668592175,2.0134176684,13.530567175L2.144100325,12.502725375C2.271845635,11.502782345,2.931133685,11.170934789,3.7357863250000003,11.273720782C4.607984025,11.385316495,5.151271325,11.972654815,5.041145525,12.840447575L4.904590325,13.897658575C4.886971024999999,14.044492675,4.828235625,14.076796575,4.766565525,14.075326675C4.612388825,14.067986475,4.659376625,13.825706275,4.4508719249999995,13.799277275L2.517059085,13.555530975ZM4.381857425,13.197254575C4.512000325,13.214636575,4.631612325,13.123281575,4.649097225,12.993152475L4.6769964250000005,12.777305475C4.721046925,12.429308175,4.465554024999999,12.010828674999999,3.6902679249999997,11.910982315C2.956095155,11.817005995,2.549362895,12.057816925000001,2.496502365,12.470421675Q2.477413145,12.617256274999999,2.465666175,12.714167475C2.450123665,12.844247475,2.542683955,12.962412475,2.672703325,12.978468175L4.381857425,13.197254575Z" fill="#FFF3F3" fill-opacity="1" style="mix-blend-mode:passthrough"/><path d="M2.2820380675,16.4146528625C2.2658861574999998,16.3162715625,2.3055321275,16.247259262500002,2.3745445575,16.2428545625C2.5213791175,16.2311094625,2.5566201775,16.4396121625,2.7254790675000002,16.4102477625L4.1483060875,16.1679719625C4.5330123874999995,16.1018943625,4.8384284875,15.915416262499999,4.7488588875,15.3970903125C4.6754417875000005,14.9683313925,4.3083555874999995,14.824436392500001,3.9177749875,14.8890439525L2.5272514175,15.1269152125C2.4683819375000002,15.1330094325,2.4149388075,15.1640092725,2.3804169575,15.2120773225C2.3319612475,15.3001789425,2.3128720475,15.411770282500001,2.2335824075,15.4367340225C2.1712668575,15.4588928225,2.1045442475,15.417281922499999,2.0970273275,15.3515719225L1.9913062518,14.7275250225C1.9736868225,14.6262087925,2.0162678545,14.5806904525,2.0794078935,14.5806904525C2.1425479175,14.5806904525,2.1968759875,14.6717271625,2.3011272575,14.7275250225C2.3540348675000002,14.7451041025,2.4112083875,14.7451041025,2.4641137075,14.7275250225L3.8208660875,14.4955283665C4.3626858875,14.4030218725,4.9808578875,14.5263623665,5.1320998875,15.4132444225C5.2789342875,16.2502032625,4.8164064875,16.6965770625,4.2114464875,16.7993628625L2.8312023875,17.0357644625C2.6461916575,17.0665984625,2.6931774575,17.3000650625,2.5580900275,17.3294336625C2.4861402475,17.3441181625,2.4303446375,17.291255262500002,2.4112554475,17.1899392625L2.2820380675,16.4146528625Z" fill="#FFF3F3" fill-opacity="1" style="mix-blend-mode:passthrough"/><path d="M6.62371209375,8.756856875C6.51945849375,8.875792475,6.45338349375,8.875792475,6.40933249375,8.819995174999999C6.3388528937499995,8.730427975,6.5429524937500005,8.526325974999999,6.38437129375,8.388301375000001L4.83086127375,7.024206375C4.67227968375,6.884711875,4.53719218375,7.153421375000001,4.39769981075,7.055040075C4.34334485675,7.007106975,4.34334485675,6.922365975,4.39769981075,6.874432475L4.72367268375,6.504410875C4.89106398375,6.313527675,5.00412720375,6.295903675,5.24787300375,6.328207475Q5.59880749375,6.375195575,7.07302519375,6.549929175L6.05693069375,5.6571769750000005C5.89834909375,5.517682255,5.73095789375,5.751153235,5.61642709375,5.671861295C5.56062909375,5.633682845,5.55328919375,5.561735455,5.64726329375,5.456014275L6.03931119375,5.015510581C6.1083237937499995,4.936218658,6.18614579375,4.931813801,6.22432209375,4.993486293C6.29773929375,5.094802495,6.12594299375,5.266596405,6.28452479375,5.406091095L7.98193149375,6.896461175C8.09733149375,6.968426474999999,8.11980439375,7.127131175000001,8.02891989375,7.228308475C7.96601919375,7.295747974999999,7.8726527937499995,7.325757475,7.78223869375,7.307600475L5.28605157375,6.968413075L6.61784199375,8.143089575C6.77642349375,8.282584175,6.92472549375,8.065267575,7.03044679375,8.143089575C7.08624459375,8.179798375,7.08624459375,8.254685175,6.99667339375,8.357466675L6.62371209375,8.756856875Z" fill="#FFF3F3" fill-opacity="1" style="mix-blend-mode:passthrough"/><path d="M16.09462041,4.750017193750001C16.059381600000002,4.95852419375,16.2825686,4.98348329375,16.2766937,5.096544493750001C16.2766937,5.17289689375,16.2120863,5.20814009375,16.07259172,5.18317629375L15.36484799,5.06424019375C15.22682314,5.0407464937499995,15.181304784,4.98788809375,15.1989242143,4.9174060937499995C15.228292916,4.79847049375,15.45001006,4.8586728937500006,15.48525336,4.65016599375L15.82737595,2.63119056375C15.86261487,2.42415325375,15.63795814,2.40506401375,15.64823762,2.27438355975C15.64823762,2.20537113075,15.71725005,2.16866248475,15.85233986,2.19215655515L16.5600834,2.31256199375C16.6966386,2.33605605375,16.7450966,2.38744905375,16.7245375,2.45939657375C16.6848936,2.59448635375,16.4719819,2.52547392375,16.4308684,2.7339764837500002L16.09462041,4.750017193750001Z" fill="#FFF3F3" fill-opacity="1" style="mix-blend-mode:passthrough"/><path d="M20.91672192525,8.0482458C20.84036956525,7.9293103,20.85211435825,7.8647027000000005,20.91672192525,7.8309292C21.01069818125,7.7824758,21.11347970125,7.9660189,21.28380832125,7.8573583L22.99149493125,6.75756878C23.16916343125,6.64303797,23.02673363125,6.456559695,23.16182353125,6.374332695C23.22790103125,6.334688975,23.29984833125,6.374332695,23.37620093125,6.48739371L24.08394433125,7.5857179C24.38789323125,8.0570557,24.38642363125,8.6135597,23.91361573125,8.8837352C23.55680873125,9.0937073,23.18825293125,8.9571521,22.92982243125,8.7692041Q22.52309223125,9.503377,22.44967513125,9.650211800000001C22.35129393125,9.8352246,22.47610413125,10.012893,22.36157333125,10.1009951C22.30962933125,10.139689,22.23527993125,10.1212761,22.20739913125,10.062816399999999L21.70816237125,9.286060299999999C21.66741627125,9.235604,21.68301028125,9.1604881,21.74046612125,9.1304159C21.82562828125,9.0951772,21.88730073125,9.2111733,21.97980723125,9.199428300000001C22.07231383125,9.1876836,22.08259323125,9.128946299999999,22.10608283125,9.0863674L22.524562231250002,8.3213606L22.27641143125,7.9322455000000005L21.60831594125,8.3624697C21.43064731125,8.477000199999999,21.57013756125,8.6326444,21.47910076125,8.7075319C21.42477274125,8.7530503,21.35723010125,8.7398355,21.28087324125,8.619429799999999L20.91672192525,8.0482458ZM22.56273593125,7.7545768Q22.68901153125,7.9483995,22.76683853125,8.0702701C22.96212623125,8.374218899999999,23.25726513125,8.5372031,23.60526223125,8.3125464C23.846073431249998,8.1569021,23.92536063125,7.8999416,23.65812083125,7.485867C23.511286031250002,7.25680548,23.38501043125,7.22450167,23.24551583125,7.31553841L22.56273593125,7.7545768Z" fill="#FFF3F3" fill-opacity="1" style="mix-blend-mode:passthrough"/><path d="M9.42528379375,2.9499751925C9.51779031375,2.9162016525,9.59267739375,2.9426352424999997,9.61029659375,3.0101779125C9.64700539375,3.1496725725,9.44877785375,3.2245551925,9.50751072375,3.3860740625L9.99940739375,4.7428243625C10.13302739375,5.1099107625,10.36502409375,5.3609964625,10.85839059375,5.1833279625C11.26806049375,5.0364932625000005,11.34881709375,4.656192262499999,11.21666689375,4.2905757625C11.11535119375,4.0130562625,10.74385949375,2.9852140525,10.73651959375,2.9690644125C10.71981449375,2.9118505725,10.67909499375,2.8647056225,10.624924193750001,2.8398492925C10.52948249375,2.8060757225,10.41788669375,2.8075455125,10.37970839375,2.7370632625C10.34776309375,2.6806022225,10.37637009375,2.6090849225,10.43844129375,2.5902287025L11.034589293749999,2.3743816875C11.13150049375,2.3391428195,11.18142389375,2.3743816875,11.19463849375,2.4345844015C11.20785309375,2.4947871225,11.12709549375,2.5667346225,11.084512193750001,2.6798001525C11.07631209375,2.7350781825,11.08554769375,2.7915391925,11.11094169375,2.8413190225C11.13443589375,2.9044568525,11.42223019375,3.6988323625,11.58081409375,4.1349313625C11.76729249375,4.6517875625,11.75554779375,5.2817089625,10.90977879375,5.588592762499999C10.11099879375,5.882261962499999,9.58826799375,5.5063657625,9.38123065375,4.9278371624999995C9.20356214375,4.4374103625,8.94072702375,3.7267314625,8.90401837375,3.6063259624999997C8.84088057375,3.4301226625,8.61915896875,3.5167590625000003,8.56776597445,3.3890092625C8.54133682875,3.3214665625,8.58391562675,3.2568590025,8.67936167375,3.2216156725L9.42528379375,2.9499751925Z" fill="#FFF3F3" fill-opacity="1" style="mix-blend-mode:passthrough"/><path d="M12.338480205,5.03939465C12.181366115,5.03939465,12.134377994,4.99681135,12.144657485,4.92633395C12.162276905,4.813272749999999,12.450071365,4.82208255,12.438326565,4.61210565L12.360504505,2.54614216C12.353164525,2.33470002,12.066835348,2.41839683,12.04187150259,2.25247304C12.0330617884,2.18052553,12.093264494,2.1306023,12.171086625,2.127662756L12.664448615,2.108573541C12.918474015,2.099763818,13.008040965,2.16877624,13.153405825,2.36846912Q13.360443025,2.6621382799999997,14.247324725,3.84562455L14.195931925,2.49474469C14.188591725,2.28330256,13.902262825,2.32294628,13.881703725,2.18345611C13.869959025,2.115913473,13.916942625,2.061585397,14.059372425,2.057180541L14.646710625,2.03515625C14.750961825000001,2.03515625,14.803824925,2.079204831,14.793545524999999,2.15409189C14.771520825,2.27743238,14.527774825,2.27009246,14.536584625,2.4815346L14.620281425,4.73838135C14.627621125000001,4.90870975,14.540989425,4.9909367499999995,14.413244025000001,5.001216449999999C14.320025225,5.00221135,14.233106625,4.9542911499999995,14.184182425,4.87494115L12.715837185,2.82806653L12.781914415,4.6003608499999995C12.781914415,4.811803149999999,13.049154425,4.76921965,13.075583425,4.89403005C13.085863025,4.9601073499999995,13.033000235,5.01149585,12.896445155,5.0173707499999995L12.338480205,5.03939465Z" fill="#FFF3F3" fill-opacity="1" style="mix-blend-mode:passthrough"/><path d="M18.785929187500003,8.584443768749999C18.3119021875,8.54187366875,17.8354481875,8.53304166875,17.3601671875,8.55801466875C16.0386552875,8.60059796875,15.4513177875,8.82671976875,14.1298064875,8.91188616875C13.934518287500001,8.91188616875,13.8361367875,8.65933086875,13.8904656875,8.46257316875C14.0152759875,8.02940926875,14.2061590875,7.8517405687499995,14.261956187500001,7.40095752875C14.295478787499999,7.14360713875,14.1939038875,6.88716640875,13.9932517875,6.72258245175C13.6173548875,6.48764624875,13.0241427875,6.71377273675,12.9433846875,7.16308611875C12.8705458875,7.51607972875,12.733152387499999,7.85258756875,12.538120787499999,8.15568946875C12.2062730875,8.67695046875,11.7496189875,9.09836916875,11.3634438875,9.57411196875C11.260953387499999,9.673639968749999,11.1904129875,9.80143046875,11.1608109875,9.94119806875C11.1913947875,10.21858786875,11.443430387500001,10.41703966875,11.7202505875,10.38170196875C12.1769041875,10.32149956875,12.5674838875,10.04544926875,12.8949269875,9.74150536875C12.9686541875,9.77918196875,13.0356316875,9.82879586875,13.093155387500001,9.88833996875C12.7422179875,10.39638666875,12.2547311875,10.80458596875,11.9405026875,11.34200096875C11.8827643875,11.48115156875,11.802934687499999,11.610066368750001,11.7040962875,11.723767268749999C11.646828687500001,11.30675746875,11.596905187499999,10.842759568750001,11.1916455875,10.61076356875C10.4501328875,10.17906926875,9.0596091875,10.10712216875,8.1081195875,10.49182776875C7.9172230875,10.56732466875,7.7378157975,10.66913366875,7.5751094175,10.794306268749999C7.3637121875,10.97824856875,7.2140231775,11.22277836875,7.1463505875,11.49470566875C6.8771882607,12.40483136875,6.8036275805,13.36160846875,6.9305036175,14.30218216875C7.0445146075,15.06705476875,7.5697278375,15.70735456875,8.297532887500001,15.96875476875C8.7380367875,16.12293056875,9.1976294875,16.061262168749998,9.6469430875,16.04951286875C10.2886089875,16.030423168749998,10.9229354875,15.89386936875,11.394273287499999,15.42253116875C11.7804493875,14.99671176875,11.8347768875,14.39468856875,11.893509887499999,13.85139846875C11.9184736875,13.41089586875,12.2708758875,13.06436826875,12.4309248875,12.67672296875C12.5777597875,12.341940368749999,12.740744087500001,11.94254966875,12.8875784875,11.81920906875C12.923802887499999,11.76851126875,12.994177387499999,11.75659556875,13.0450739875,11.79254676875C13.0959691875,11.82849356875,13.108264887499999,11.89880556875,13.0725912875,11.94989396875C12.4456095875,13.25231596875,12.291429987499999,15.04810426875,12.2840904875,16.47386646875C11.5235514875,16.43862816875,10.7615873875,16.44892496875,10.0022801875,16.50470066875C9.416460987499999,16.52087406875,8.8325372875,16.57877256875,8.2549497875,16.677962968750002C8.0086181875,16.737535968750002,7.7671263175,16.81557796875,7.5325216675,16.91143096875C7.1595606775,17.12434296875,7.3284195375,17.660287968749998,7.6206234075,17.91430996875C7.7953569275,18.06848396875,8.5295296875,17.92311896875,8.6646149875,17.89815996875C10.147644787499999,17.58099696875,10.906776887500001,17.57659196875,12.2385677875,17.604489968750002C12.2405442875,18.41289096875,12.3048557875,19.21993396875,12.430920587500001,20.01845196875C12.4984626875,20.45161396875,12.5131473875,20.89945896875,12.8185658875,21.24598696875C12.9654001875,21.43393396875,13.239980187499999,21.435403968750002,13.4528922875,21.37960596875C13.692233587499999,21.29737996875,13.736282387500001,21.00370896875,13.7465610875,20.78345796875C13.7201323875,20.38553696875,13.6364354875,20.058094968749998,13.611472087500001,19.66017396875C13.5556740875,19.07283696875,13.5219053875,18.46934696875,13.513090587499999,17.87173096875C13.498406387500001,16.940798968750002,13.4132442875,16.00692936875,13.513090587499999,15.08187296875C13.5204305875,14.86309146875,13.558608487499999,14.64136986875,13.5791673875,14.432862768749999C13.6252684875,14.00035806875,13.698833987499999,13.571221868750001,13.7994193875,13.14806076875C13.9256953875,12.68993706875,14.126862087500001,12.25530816875,14.2149600875,11.78690576875C14.2428578875,11.37577056875,13.9330348875,11.04245276875,13.8889865875,10.64453266875C13.8776220875,10.46239616875,13.9734048875,10.29032916875,14.1342024875,10.204028868750001C14.3773970875,10.07550836875,14.6352543875,9.97689846875,14.9021482875,9.91035966875C15.2765750875,9.78261446875,15.6745004875,9.79142406875,16.0636109875,9.75471566875C16.7801637875,9.72975186875,17.1604651875,9.62550046875,17.8755481875,9.68717266875C18.3160521875,9.69745206875,18.7183771875,9.76205996875,19.1559461875,9.75765516875C19.3908811875,9.76646496875,19.587641187499997,9.64312436875,19.6096651875,9.42727706875C19.633162187499998,9.05137686875,19.2719521875,8.62555726875,18.785929187500003,8.584443768749999ZM8.410598587500001,11.703208468749999C8.7204173875,11.45799306875,9.0728234875,11.40953966875,9.4545900875,11.39632506875C9.7086155875,11.42128846875,9.9655761875,11.422753768749999,10.2166616875,11.46680686875C10.4353186875,11.497968168749999,10.619489187500001,11.64609336875,10.6968094875,11.85298256875C10.7904491875,12.094931568749999,10.8183123875,12.35737276875,10.7775661875,12.61358496875C9.8334214875,12.65322826875,8.9480089875,12.73839476875,8.0038638875,12.72224046875C8.0068033875,12.308166068750001,8.0802207875,11.98806806875,8.410598587500001,11.703208468749999ZM10.3825852875,14.77792546875C10.2247769875,14.88538546875,10.0375368875,14.94129946875,9.846640087499999,14.93797496875C9.4120561875,15.00824546875,8.9665112875,14.95743946875,8.5589028875,14.79113956875C8.2211849875,14.56648346875,8.1551076875,14.259599668749999,8.1037147875,13.87635896875C9.0243656875,13.75448746875,9.8657297875,13.55479046875,10.7849151875,13.760358368750001C10.789316187499999,14.14947316875,10.7158979875,14.52389906875,10.3825852875,14.77792546875Z" fill="#FFF3F3" fill-opacity="1" style="mix-blend-mode:passthrough"/><path d="M19.63324018125,10.463359085C19.132534481249998,10.1315115504,18.50261308125,10.094802909,17.92114948125,10.137386189C17.44687268125,10.149130981,16.97406478125,10.1271066936,16.50125768125,10.150600763C15.95796788125,10.238702395,15.55270768125,10.1300417716,15.03291207125,10.360573115C14.78035653125,10.489788265,14.52780092125,10.698290825,14.47640793675,10.991959985C14.45520368125,11.229145675,14.48115335325,11.468186575,14.55276029525,11.695298775C14.61659263125,11.913359675,14.79567271125,12.078310975,15.01822775125,12.124057775C16.11508188125,12.251803175,17.04601268125,12.134337475,18.14580178125,12.178385975C18.68028168125,12.178385975,19.27055498125,12.146082375,19.705183981250002,11.795149775C19.83050538125,11.681085075,19.90768668125,11.523576775,19.92103198125,11.354645975C19.97976778125,11.037482855,19.90635108125,10.665991545,19.63324018125,10.463359085ZM18.44241498125,11.382545075C17.41457318125,11.414848675,16.58055398125,11.473581575,15.55271208125,11.450087675C15.480011781249999,11.451669575,15.41146546125,11.416287075,15.37063873125,11.356111275C15.30965185125,11.280345875,15.32738334125,11.168485875,15.40881717125,11.115300535C15.57621078125,11.002239405,15.81848688125,11.030138495,16.01083978125,11.019858955C16.91240568125,10.978745465,17.61280488125,10.961125965,18.51583668125,10.975810285C18.61146638125,10.973847625,18.70712278125,10.978265945,18.80216548125,10.989024935C18.93814708125,10.999739175,19.02153968125,11.143015775,18.96368458125,11.266544375C18.899067881249998,11.384014775,18.61861368125,11.369330275,18.43654008125,11.382545075L18.44241498125,11.382545075Z" fill="#FFF3F3" fill-opacity="1" style="mix-blend-mode:passthrough"/><path d="M20.01052714375,13.10640507625C19.938261543750002,12.84977167625,19.73254584375,12.65248960625,19.47311254375,12.59101428625C19.03260854375,12.47648350945,18.40709254375,12.46032937625,17.67732404375,12.47648350945C17.08998584375,12.48969808225,16.37637214375,12.51172237125,16.02984034375,12.53815600325C15.68330824375,12.56458962725,15.467465743750001,12.574864646249999,15.20756572375,12.61450834625C14.94815415375,12.64632372625,14.70784518375,12.76725789625,14.52772101375,12.95663091625C14.41813282375,13.07108104625,14.33449432275,13.20780640625,14.28250534475,13.35749089625C14.16650478575,13.79799460625,14.26194635375,14.21353420625,14.62316259375,14.47489980625C14.84389835375,14.60763240625,15.10054522375,14.66820260625,15.35733544375,14.64816360625C16.65388274375,14.57327650625,17.95630934375,14.65990830625,19.24992084375,14.51601340625C19.56106614375,14.47403500625,19.83366494375,14.28648570625,19.98409414375,14.01090220625C20.11532064375,13.72549140625,20.12486074375,13.39899420625,20.01052714375,13.10640507625ZM18.689016343749998,13.71430230625C18.61559914375,13.72311210625,18.47904344375,13.73339150625,18.41443584375,13.73779640625C17.62593574375,13.78331470625,17.30730244375,13.83177270625,16.17667944375,13.82736320625C15.893043143749999,13.83407160625,15.609254643749999,13.82573660625,15.32650594375,13.80239950625C15.22665947375,13.78771510625,15.13708800375,13.75541150625,15.13708800375,13.68786870625C15.13812315375,13.61910720625,15.18040621375,13.55771240625,15.24427874375,13.53222440625C15.46838894375,13.47316430625,15.69979404375,13.44646185625,15.93146344375,13.45293247625C16.53495124375,13.45293247625,17.13844374375,13.40888392625,17.74193164375,13.39860439625C18.070539243749998,13.36630511625,18.40152214375,13.36630511625,18.73012974375,13.39860439625C18.94744684375,13.42797314625,18.95772124375,13.57186820625,18.92101284375,13.61738660625C18.85434384375,13.67277200625,18.77240374375,13.70657710625,18.68607664375,13.71430230625L18.689016343749998,13.71430230625Z" fill="#FFF3F3" fill-opacity="1" style="mix-blend-mode:passthrough"/><path d="M19.735968087499998,15.1002703025C19.5524243875,15.0356627425,19.3806261875,15.1619428125,19.2381963875,15.2617892025C19.0399689875,15.4379925125,18.8857941875,15.7786452125,18.650857487499998,15.8021394025C18.3087358875,15.8359128225,17.7801305875,15.9093302625,17.402764587500002,15.9401641625C17.4941508875,15.7901077825,17.5962199875,15.6468176825,17.7081782875,15.5114052925C17.9078712875,15.3028982025,17.9710135875,15.1399140025,17.8829121875,14.9989540925C17.8094501875,14.9027283435,17.6870505875,14.8575460635,17.5686838875,14.8829535353C16.7302593875,14.9431562345,15.7802399875,14.9490308765,14.9051071875,15.0297880725C14.6231828375,15.0562172425,14.6760455375,15.5657333725,14.9388806875,15.6802641125C15.2560438875,15.8168192525,15.8345725875,15.6729241625,16.150265887499998,15.6802641125C16.1355812875,15.8270987825,16.1150266875,15.9739332625,16.1150266875,16.0635002625C15.7068271875,16.145727162500002,15.5438383875,16.1501321625,15.1062740875,16.2235492625C14.6143775575,16.313116162500002,14.2120522575,16.3468897625,14.0167597975,16.5304330625C13.8551960795,16.6726295625,13.7969695065,16.8991327625,13.8699252435,17.1016216625C14.0036527775,17.3418454625,14.2861327875,17.4571556625,14.5497699375,17.3791410625C14.8001881275,17.300727362499998,15.045403887500001,17.206567262500002,15.2839427875,17.0972165625C15.5467733875,16.9923291625,15.8231054875,16.9251000625,16.1047474875,16.897524162499998C16.1325969875,17.0653700625,16.1443955875,17.2354881625,16.1399862875,17.4055700625C15.769189687499999,17.4702002625,15.4032144875,17.5599777625,15.0446015875,17.6742751625C14.7794454675,17.7543065625,14.5257605275,17.8683133625,14.2898699675,18.0134630625C14.1430353775,18.1265241625,13.9404029575,18.2645485625,13.9198484495,18.4378170625C13.8376214597,18.803433662499998,14.1591894875,19.1631798625,14.3515424775,19.1367502625C14.6275920875,19.1000428625,14.9770589875,18.8783211625,15.2046507875,18.7461705625C15.5820167875,18.5288538625,15.9035849875,18.3585250625,16.3235296875,18.3276910625C16.3866672875,18.4745261625,16.4439348875,18.8416123625,16.5173523875,19.0398392625C16.6729426875,19.4385084625,16.8824133875,19.8139786625,17.1399292875,20.155782662500002C17.3220026875,20.402464362499998,17.6611902875,20.5522379625,17.8946609875,20.4186181625C18.1281318875,20.2849988625,18.0723294875,19.8503689625,18.013596087499998,19.6330523625C17.8462032875,19.0882973625,17.7096483875,19.0780176625,17.5730928875,18.5244536625C17.5329970875,18.4035458625,17.4996621875,18.2805058625,17.4732465875,18.1558971625C17.7472264875,18.0747680625,18.031825587500002,18.0351736625,18.3175453875,18.0384311625C18.7683281875,18.0663299625,18.9166278875,18.1588368625,19.1985525875,18.0707349625C19.3113355875,18.0404972625,19.4013061875,17.9554962625,19.4378938875,17.8446082625C19.6816396875,17.1500794625,19.8783969875,16.5230975625,20.0678152875,15.8138886725C20.1515473875,15.5264750125,20.009705087500002,15.2214509225,19.735968087499998,15.1002703025ZM18.5304574875,17.180917762500002C18.2265085875,17.2176263625,17.7199320875,17.2792992625,17.3719303875,17.3145377625C17.3601853875,17.0884115625,17.3645901875,16.9445164625,17.3719303875,16.7183902625C17.7537011875,16.6919609625,18.2779011875,16.5715557625,18.6626076875,16.6156039625C18.6493887875,16.832916462500002,18.659667487500002,16.9914955625,18.5304574875,17.180917762500002Z" fill="#FFF3F3" fill-opacity="1" style="mix-blend-mode:passthrough"/><path d="M4.6241353,10.4647078125Q4.9574503,10.7892109125,5.0499544,10.8831872125C5.196789,11.0300221125,5.2892954,10.7671867125,5.4141034999999995,10.8053651125C5.4875207,10.8288592125,5.4948628,10.8978716125,5.462559199999999,10.9698193125L5.220283,11.5131090125C5.1923840000000006,11.5777166125,5.1424608,11.6173603125,5.0822585,11.5924008125C4.9706649,11.5468824125,5.0499544,11.3559995125,4.9104621,11.2150347125L3.094119288,9.3869426225C3.0115808658,9.3049665425,2.991947211,9.1788388525,3.045663621,9.0756540425C3.09976092,8.9651875455,3.21697135,8.9001363505,3.3393327,8.9126698077C3.58601373,8.9214795245,5.7944067,9.0433547325,5.9192169,9.0477595925C6.0440273,9.0521644525,6.1306593,8.9009250135,6.2349107,8.9464433715C6.3083279,8.9728725255,6.3127325,9.0624439425,6.2804289,9.1343914225L5.9456463,9.8861838025C5.911875,9.9640059125,5.7841272,9.9757508125,5.7650404,9.8377303525C5.7474208,9.7246692825,5.7180519,9.6527173525,5.5756247000000005,9.6424423425L5.0073757,9.6057336925L4.6241353,10.4647078125ZM4.6843379,9.5837004825L3.65649587,9.519092862499999L4.3906687,10.2371161125L4.6843379,9.5837004825Z" fill="#FFF3F3" fill-opacity="1" style="mix-blend-mode:passthrough"/><path d="M19.9843709625,3.6064278625C20.1033060625,3.6592862625,20.1429502625,3.7209586625,20.1135854625,3.7855661625000003C20.0665976625,3.8824776625,19.9344475625,3.8296147625000003,19.7832081625,3.9000970625C19.7152261625,3.9428057625,19.6547100625,3.9963765625,19.6040651625,4.0586765625000005L18.0255937625,5.6811964625C17.9183983225,5.8302852625,17.7169713725,5.8762378625,17.5557213325,5.788387262500001C17.3921814635,5.713706262500001,17.2993657825,5.538323162499999,17.3295948445,5.3610985625000005Q17.3295948445,5.2230734625,17.4573402125,3.2378718225C17.4635061025,3.1513475225,17.4635061025,3.0644959825,17.4573402125,2.9779762025C17.4382509725,2.7856233125,17.2679223605,2.6666876625000002,17.3251899885,2.5521568955C17.3574937695,2.4860795462,17.4279759725,2.4758045335,17.5292921625,2.5198531095L18.3060482725,2.8634454325C18.4147043625,2.9118989125,18.4396681625,2.9662314025,18.411769262500002,3.0323042225C18.3750606625,3.1204059125,18.2208861125,3.1115962225000002,18.1474688625,3.1673941025Q18.0740516225,3.2231919125,18.0564322425,3.3891156925L17.9448364925,5.1966485625L19.234043862500002,3.8619230625C19.2805210625,3.8136130625,19.3121213625,3.7529576625,19.3250803625,3.6871896625C19.3250803625,3.5565048624999998,19.1488771625,3.4786826325,19.2076147625,3.3714962625C19.2355135625,3.3186379625,19.3015909625,3.3039535925,19.3838181625,3.3406623625L19.9843709625,3.6064278625Z" fill="#FFF3F3" fill-opacity="1" style="mix-blend-mode:passthrough"/><path d="M6.2126104875,18.6600081875C6.271342987500001,18.7892232875,6.2537238875,18.8611707875,6.1817738875,18.8875999875C6.0657758875,18.9301832875,5.990888587500001,18.7055264875,5.7985360875000005,18.7921582875L3.9586989875,19.623242587500002C3.7663459775,19.7098745875,3.8852817875000003,19.9169118875,3.7457892875,19.9859242875C3.6826514575,20.013823487499998,3.6136391175,19.9947340875,3.5549039875,19.8655187875L2.8280732985,18.250338437499998C2.7164798305,18.0036574575,2.9616932675,17.8744422775,3.1041229975,17.8098346875C3.2083765275,17.7599114875,3.2979457075,17.7525670675,3.3317169575,17.8377336575C3.3493364475,17.8832520275,3.3229072674999998,17.9478595275,3.2685792175,18.0726698675C3.1991052375,18.1779114575,3.1934568875,18.3129250975,3.2538948975,18.4236066375L3.4844261375,18.9360578875C3.5337399874999997,19.0440464875,3.6610103875,19.0919397875,3.7692856775,19.0432487875L4.4417881875,18.7407698875L4.1686756875,18.1299374675C4.0849789874999995,17.9434591875,3.8412353875000003,18.0888239775,3.8015893875,17.9258352775C3.7795650375,17.8377336575,3.9484238874999997,17.7378872175,4.0761692875,17.6806195675C4.3052306875,17.5778335645,4.5049259875,17.500011421499998,4.5533816875,17.5881130655C4.6209264875,17.7099837975,4.3845228875,17.7892756775,4.4755594875,17.9919081075L4.7501391875,18.6027406875L5.5547918875,18.2400589575C5.7353982875,18.1593016975,5.6032478875,17.9346449975,5.7280556874999995,17.8788471475C5.7956008875,17.8480131375,5.8602063875,17.8905919175,5.9189412875,18.0256816775L6.2126104875,18.6600081875Z" fill="#FFF3F3" fill-opacity="1" style="mix-blend-mode:passthrough"/><path d="M8.3433466875,23.8605947125C8.235631487500001,23.9866640125,8.2535869875,24.1768532125,8.3829904875,24.2805395125C8.5033958875,24.4068153125,8.5459745875,24.4963865125,8.498990987500001,24.5742090125C8.4520072875,24.6520309125,8.3433466875,24.6182573125,8.2728644875,24.5742090125L7.1128722575,23.8591249125C6.9807220465,23.7783677125,6.9660376945,23.7049508125,7.0086209715,23.6388733125C7.0512042565,23.5727959125,7.2127231675,23.5977597125,7.3419338175,23.6285937125C7.6003641475,23.6917314125,7.6620321275,23.6080351125,7.7325143175,23.4935040125L8.5151406875,22.2248511325C8.6516955875,22.0045992725,8.551849087499999,21.9223723125,8.4681526875,21.8518901125C8.4094196875,21.8034366325,8.3609616875,21.7667279825,8.3022287875,21.7197398725C8.2434959875,21.6727517425,8.1979775875,21.5934642925,8.2669897875,21.5200470075C8.3360021875,21.4466297175,8.5136708875,21.5200470075,8.7339226875,21.5787799435C9.096604387500001,21.6683468825,9.2302243875,21.6154885725,9.3814634875,21.7021204525C9.5085908875,21.7566904725,9.5545210875,21.9135715325,9.4769050875,22.0280933425L8.3433466875,23.8605947125Z" fill="#FFF3F3" fill-opacity="1" style="mix-blend-mode:passthrough"/><path d="M11.36039609,24.665802525C10.75249892,24.533652025,10.429465618,24.125452325,10.555741169,23.521959905C10.70257573,22.787787028,11.37507594,22.611583747,11.95360445,22.731989168C12.70833635,22.890568555,13.088637349999999,23.510210695,12.93592815,24.244383425C12.71861105,25.272225625,11.70985855,25.828729625,10.72019514,25.674550725C10.61594388,25.658401225,10.4720444046,25.614348125,10.48085411897,25.527716425C10.491133614,25.420525525,10.71725558,25.413185325,10.9360421,25.351512624999998C11.57036855,25.172374525,11.81704935,24.921288725,11.93892025,24.646708925C11.75172045,24.707395525,11.55118955,24.714013825,11.36039609,24.665802525ZM12.24140345,23.815629125C12.30454095,23.510215105,12.28398655,23.124039415,11.90515105,23.043277715C11.52631535,22.962516035,11.35305172,23.253250065,11.28697878,23.615931685C11.2370556,23.890511625,11.28697878,24.273752125,11.63791565,24.350104425C11.98885235,24.426456825,12.16651605,24.192994925,12.24580825,23.815629125L12.24140345,23.815629125Z" fill="#FFF3F3" fill-opacity="1" style="mix-blend-mode:passthrough"/><path d="M18.84638196,23.048825375C18.9644751,22.851010075,19.12249885,22.679982275,19.31037965,22.546649075C19.78906195,22.191307475,20.391079949999998,22.119359975,20.75229625,22.612726575C21.23978785,23.279356975,20.88004135,23.975351075,20.17229775,24.386486075C19.73179425,24.640511475,19.27660595,24.602333275,19.07691335,24.402635575C18.95469308,24.272838075,18.99141515,24.062036775,19.15033045,23.981221474999998C19.28454635,23.915076775,19.44577875,23.939699875,19.55412555,24.042893675000002C19.69474945,24.171445575,19.90397795,24.190082075,20.06511135,24.088412075C20.35878035,23.919553475,20.43219785,23.577426175,20.13852885,23.163356274999998C19.91974675,22.856472275,19.62460785,22.806549075,19.33387375,23.029736075C19.09306285,23.216214375,18.99615605,23.520162775,18.86106622,23.603859875C18.76415497,23.665532075,18.6922074,23.592114975,18.64521933,23.512822875L17.990338417,22.330806575C17.955543177,22.270872675,17.97358382435,22.194197675,18.031451918,22.156073075L19.526226649999998,21.157599768C19.58640255,21.116943331,19.66876865,21.1446406147,19.69215055,21.213397615L19.82430075,21.570204615C19.84800085,21.635358875,19.82290255,21.708215955,19.76409805,21.744938134999998L18.570332229999998,22.542248875L18.84638196,23.048825375Z" fill="#FFF3F3" fill-opacity="1" style="mix-blend-mode:passthrough"/><path d="M15.5715759625,22.78595446425C16.3821009625,22.62297025125,17.0061480625,23.09871283125,17.1955654625,24.03992293125C17.3688292625,24.90184093125,17.0854399625,25.66244313125,16.2088373625,25.85333083125C15.4511706225,26.01925493125,14.7404919825,25.55966183125,14.5554790235,24.56118853125C14.3704660725,23.56271511125,14.8682373425,22.92691441125,15.5715759625,22.78595446425ZM16.1339502625,25.54497743125C16.4716679625,25.47596483125,16.5656442625,25.02224633125,16.4041254625,24.21612623125C16.2426065625,23.41000587125,15.978306162500001,23.01942536125,15.6405839625,23.08843779125C15.3028618725,23.15745023125,15.1927404425,23.62291783125,15.3557245125,24.42756833125C15.5099080825,25.20285013125,15.8153219625,25.60811493125,16.1339502625,25.54497743125Z" fill="#FFF3F3" fill-opacity="1" style="mix-blend-mode:passthrough"/></g></g></svg>