<svg xmlns="http://www.w3.org/2000/svg" xmlns:xlink="http://www.w3.org/1999/xlink" fill="none" version="1.1" width="24" height="24" viewBox="0 0 24 24"><defs><clipPath id="master_svg0_91_96877"><rect x="-0.30000001192092896" y="-0.30000001192092896" width="24.600000023841858" height="24.600000023841858" rx="0"/></clipPath><linearGradient x1="0.5" y1="0" x2="0.5" y2="1" id="master_svg1_91_92201"><stop offset="0%" stop-color="#F7EFEF" stop-opacity="1"/><stop offset="47.88399934768677%" stop-color="#E8D1D1" stop-opacity="1"/><stop offset="100%" stop-color="#975555" stop-opacity="1"/></linearGradient><linearGradient x1="0.5" y1="0" x2="0.5" y2="1" id="master_svg2_91_92201"><stop offset="0%" stop-color="#F7EFEF" stop-opacity="1"/><stop offset="47.88399934768677%" stop-color="#E8D1D1" stop-opacity="1"/><stop offset="100%" stop-color="#975555" stop-opacity="1"/></linearGradient></defs><g clip-path="url(#master_svg0_91_96877)"><g transform="matrix(-1,0,0,1,44,0)"><path d="M36.519401,2.7969576099999998C35.245173,2.26915154,33.879214,1.9983150898,32.5,2.0000076979404C26.7008495,2.0000076979404,22,6.7008576,22,12.500009C22,18.299158,26.7008495,23.000008,32.5,23.000008C38.29915,23.000008,43,18.299158,43,12.500007C43,11.103507,42.727001,9.7437568,42.203051,8.4806066C42.08803,8.2192264,41.785181,8.0977192,41.521399,8.2071176C41.257614000000004,8.316514999999999,41.129652,8.6166925,41.233376,8.882757699999999C41.708237,10.0295181,41.951777,11.2588196,41.950001,12.500009C41.950001,17.719033,37.719026,21.950008,32.5,21.950008C27.2809753,21.950008,23.05,17.719033,23.05,12.500009C23.05,7.2809834,27.2809749,3.0500077,32.5,3.0500077C33.7579,3.0500077,34.980625,3.2957075,36.117250999999996,3.7666326000000003C36.383316,3.870352,36.683488,3.7423871,36.792885,3.4786064999999997C36.902281,3.2148262,36.780776,2.91198117,36.519401,2.7969576099999998ZM28.5289001,11.9765825L32.822351,7.6826072C33.025467,7.477911,33.023347,7.1470594,32.817625,6.9449821C32.615547,6.7392602,32.284696,6.7371416,32.080000999999996,6.9402575L26.9549508,12.065309C26.8570967,12.162824,26.8027644,12.295719,26.8042755,12.433859C26.805325500000002,12.567208,26.8567753,12.700559,26.9596753,12.802933L32.156651,18.000433C32.358582,18.206303,32.689436,18.208658,32.894276,18.005684C33.097249,17.800841,33.094893,17.469988999999998,32.889027,17.268059L28.640726100000002,13.019758L37.869177,13.083808C38.157026,13.088596,38.391617,12.854009,38.386827,12.566158C38.384823,12.277043,38.150942,12.04316,37.861827,12.041157L28.5289001,11.9765825Z" fill="url(#master_svg1_91_92201)" fill-opacity="1" style="mix-blend-mode:passthrough"/><path d="M36.002421,4.043786Q36.760653,4.3394375,37.069998999999996,3.5935324Q37.379343,2.84762889,36.640238,2.52237028Q34.648714999999996,1.69737053,32.499632,1.70000798Q28.0263724,1.70000771,24.8631861,4.8631945000000005Q21.69999942,8.026382,21.69999924,12.500009Q21.69999999,16.973635,24.8631866,20.136822Q28.0263748,23.300009,32.5,23.300009Q36.973627,23.300009,40.136814,20.136822Q43.300001,16.973635,43.300001,12.500008Q43.300001,10.3421507,42.480158,8.3656635Q42.152388,7.6206503,41.406470999999996,7.9300041Q40.660559,8.2393508,40.953863,8.9917231Q41.652605,10.6793089,41.65,12.499579Q41.65,16.290015,38.970003,18.970013Q36.290006,21.650009,32.5,21.650009Q28.7099948,21.650009,26.0299978,18.970013Q23.35,16.290015,23.35,12.50001Q23.35,8.7100039,26.0299978,6.0300055Q28.7099962,3.3500072999999997,32.5,3.3500077Q34.327914,3.3500078,36.002421,4.043786ZM36.398562,3.071545Q36.600139,3.1602525,36.515772,3.3636802Q36.431404,3.5671093000000003,36.232081,3.4894789Q34.44729,2.75000775,32.5,2.75000763Q28.4614677,2.75000745,25.6057339,5.605741500000001Q22.75,8.461475400000001,22.75,12.50001Q22.75,16.538543,25.6057339,19.394278Q28.4614673,22.25001,32.5,22.25001Q36.538534999999996,22.25001,39.394268,19.394278Q42.25,16.538544,42.25,12.500438Q42.252775,10.5604086,41.512888000000004,8.7737923Q41.432896,8.568599200000001,41.636328,8.484231000000001Q41.839758,8.399862299999999,41.925943000000004,8.5955501Q42.700001,10.4616575,42.700001,12.500008Q42.700001,16.725105,39.712548999999996,19.712557Q36.725098,22.700008,32.5,22.70001Q28.2749038,22.70001,25.2874506,19.712557Q22.30000001,16.725107,22.29999924,12.500009Q22.2999998,8.2749095,25.2874501,5.2874584Q28.2749,2.3000077,32.500369,2.30000755Q34.529721,2.29751697,36.398562,3.071545ZM38.686786999999995,12.561168Q38.681156,11.7468271,37.863906,11.7411642L29.2481341,11.681551L33.034495,7.8947263Q33.27548,7.6518707,33.273295,7.3108912Q33.271111,6.9699125,33.027854,6.7309632Q32.792695,6.4914956,32.451715,6.4893117Q32.110736,6.4871278,31.8686914,6.7273064L26.742818800000002,11.8531761Q26.5005469,12.094609,26.5042934,12.43714Q26.5069575,12.77571,26.7480869,13.015608L31.9445076,18.212555Q32.181258,18.453939,32.522238,18.456367Q32.863218,18.458796,33.105435,18.218784Q33.347385,17.974624,33.344958,17.633644Q33.342532,17.292665,33.099101,17.053888999999998L29.3700571,13.324828L37.867095,13.383801Q38.207254,13.389474,38.449873,13.146855Q38.692495,12.904235,38.686786999999995,12.561168ZM27.8096671,12.271613L37.859752,12.34115Q38.085272,12.342712,38.086867999999996,12.57115Q38.088345000000004,12.659856,38.02561,12.72259Q37.962874,12.785325,37.871261000000004,12.783815L27.9113927,12.71469L32.678952,17.482228Q32.744323,17.546349,32.744974,17.637914000000002Q32.745625000000004,17.729480000000002,32.683116,17.792583999999998Q32.618073,17.857035,32.526508,17.856383Q32.434942,17.855731,32.368793,17.788311999999998L27.1712637,12.590259Q27.1049972,12.52433,27.1042576,12.430578Q27.1032782,12.341025,27.1670828,12.277441L32.291311,7.1532092Q32.356308,7.0887132,32.447873,7.0892997Q32.539439,7.0898857,32.607398,7.1590014Q32.672720999999996,7.2231679,32.673308,7.3147349Q32.673895,7.4063005,32.610206,7.4704885L27.8096671,12.271613Z" fill-rule="evenodd" fill="url(#master_svg2_91_92201)" fill-opacity="1" style="mix-blend-mode:passthrough"/></g></g></svg>