<svg xmlns="http://www.w3.org/2000/svg" xmlns:xlink="http://www.w3.org/1999/xlink" fill="none" version="1.1" width="16" height="16" viewBox="0 0 16 16"><defs><clipPath id="master_svg0_159_79989"><rect x="0" y="0" width="16" height="16" rx="0"/></clipPath><filter id="master_svg1_159_79990" filterUnits="objectBoundingBox" color-interpolation-filters="sRGB" x="-0.3153327756392488" y="-0.33641714756100405" width="1.6306655512784975" height="1.672834295122008"><feFlood flood-opacity="0" result="BackgroundImageFix"/><feColorMatrix in="SourceAlpha" type="matrix" values="0 0 0 0 0 0 0 0 0 0 0 0 0 0 0 0 0 0 127 0"/><feOffset dy="0" dx="0"/><feGaussianBlur stdDeviation="1"/><feColorMatrix type="matrix" values="0 0 0 0 1 0 0 0 0 0.5221238732337952 0 0 0 0 0.5221238732337952 0 0 0 1 0"/><feBlend mode="normal" in2="BackgroundImageFix" result="effect1_dropShadow"/><feBlend mode="normal" in="SourceGraphic" in2="effect1_dropShadow" result="shape"/></filter></defs><g clip-path="url(#master_svg0_159_79989)"><path d="M6.010087990625,3.29517558125L8.560088190624999,3.29517558125C8.855088190625,3.29517558125,9.105088190625,3.01517558125,9.105088190625,2.67517567125C9.105088190625,2.33517575125,8.855088190625,2.05517578125,8.545087790625,2.05517578125L6.015088090625,2.05517578125C5.705088390625,2.05517578125,5.455088390625,2.33017588125,5.455088390625,2.67517567125C5.4500882906250006,3.01517558125,5.7000882906250006,3.29517558125,6.010087990625,3.29517558125ZM8.505087890625,11.17017558125C8.505087890625,11.00517558125,8.515088090625,10.84017558125,8.540087690625,10.67517568125L4.510088190625,10.67517568125C4.310088390624999,10.67517568125,4.110088090625,10.42517568125,4.110088090625,10.22517588125C4.115088190625,10.02017598125,4.2800881906249995,9.85517598125,4.485088090625,9.85017588125L8.780088390625,9.85017588125C9.015088090625,9.30017568125,9.400088290625,8.82517628125,9.880088790624999,8.47517588125L4.535087790625,8.47517588125C4.335087990625,8.47517588125,4.205087890625,8.26017568125,4.205087890625,8.05517578125C4.205087890625,7.85517598125,4.3750879906249995,7.65017558125,4.580087890625,7.65017558125L10.050087890625,7.65017558125C10.250087690625,7.65017558125,10.425087890625,7.84017558125,10.440088290625,8.05517578125C10.440088290625,8.09517578125,10.435088190625,8.13017558125,10.420087790625,8.16517548125C11.130087890625,7.83017538125,11.940088290625,7.76017518125,12.700087890625,7.96517558125L12.700087890625,3.8901755812500003C12.700087890625,3.05017567125,12.245087890625,2.47017574125,11.300087890625,2.47017574125L10.040087690625,2.47017574125C10.055088090625,2.53517580125,10.060088190625,2.60517573125,10.060088190625,2.67517567125C10.060088190625,3.1951756812500003,9.685088190624999,3.79017568125,9.235088390625,3.79017568125L5.350087890625,3.79017568125C4.880088090625,3.78517558125,4.5000879906249995,3.19517538125,4.5000879906249995,2.67517543125C4.5000879906249995,2.60517549125,4.505088090625,2.54017544125,4.520087990625,2.47517538125L3.2450878906250002,2.47517538125C2.220087770625,2.47517538125,1.965087890625,3.06017538125,1.965087890625,3.89517548125L1.965087890625,12.20517578125C1.965087890625,13.11017478125,2.325087790625,13.61017478125,3.320087890625,13.61017478125L9.575087590625,13.61017478125C8.892890890625,12.98226678125,8.504836090625,12.09735478125,8.505087890625,11.17017558125ZM4.575087790625,5.39017538125L10.045087790625,5.39017538125C10.245087590625,5.39017538125,10.420087790625,5.57517528125,10.435088190625,5.79517558125C10.415087690625,6.01517538125,10.240088490625,6.19517568125,10.020088190625,6.21517558125L4.535087790625,6.21517558125C4.335087990625,6.21517558125,4.200087790625,5.99517588125,4.200087790625,5.79517558125C4.200087790625,5.59517578125,4.3750879906249995,5.39017538125,4.575087790625,5.39017538125ZM11.935087190625,8.51017568125C10.435087190625,8.51017568125,9.215086890624999,9.72517588125,9.215086890624999,11.22517588125C9.215086890624999,12.72517578125,10.430087090625,13.94517578125,11.930087090625,13.94517578125C13.430086890625,13.94517578125,14.645086890625,12.73017578125,14.650086890625,11.23017598125C14.654518890625,9.728082681250001,13.437184890625,8.50850678125,11.935087190625,8.51017568125ZM13.060086890625,10.08017538125L12.510086890625,10.63017558125L12.750086890625,10.63017558125C12.882451890625,10.63043498125,12.989617890625,10.73781108125,12.989617890625,10.87017628125C12.989617890625,11.00254158125,12.882451890625,11.10991768125,12.750086890625,11.11017518125L12.175086890625,11.11017518125L12.175086890625,11.41517548125L12.750086890625,11.41517548125C12.882451890625,11.41543388125,12.989617890625,11.52280998125,12.989617890625,11.65517518125C12.989617890625,11.78754048125,12.882451890625,11.89491658125,12.750086890625,11.89517498125L12.175086890625,11.89517498125L12.175086890625,12.55517478125C12.180086890625,12.68517478125,12.080086890625,12.80017478125,11.950086590625,12.80517478125C11.819250090625,12.81114878125,11.707879990625,12.71091578125,11.700086590625,12.58017478125L11.700086590625,11.89517398125L11.125086790625,11.89517398125C10.992722490625,11.89491658125,10.885556190625,11.78754048125,10.885556190625,11.65517518125C10.885556190625,11.52280898125,10.992721590625,11.41543288125,11.125086790625,11.41517448125L11.700086590625,11.41517448125L11.700086590625,11.11017418125L11.125086790625,11.11017418125C10.992722490625,11.10991578125,10.885556190625,11.00253968125,10.885556190625,10.87017438125C10.885556190625,10.73780918125,10.992721590625,10.63043308125,11.125086790625,10.63017468125L11.365086590625,10.63017468125L10.815086390625,10.08017448125C10.730086290625,9.98017408125,10.740086590625,9.830174481250001,10.840085990625,9.74517438125C10.930086090625,9.66517448125,11.065086390625,9.66517448125,11.155085590625,9.74517438125L11.940085390625,10.53517438125L12.725084890625,9.75017448125C12.810084890625,9.65017418125,12.965084890625,9.640174881250001,13.060084890625,9.73017408125C13.155085890625,9.82017328125,13.170084890625,9.97017388125,13.080085890625,10.06517408125C13.070085890625,10.06517408125,13.065085890625,10.07017418125,13.060086890625,10.08017538125Z" fill="#FFFFFF" fill-opacity="1" style="mix-blend-mode:passthrough" filter="url(#master_svg1_159_79990)"/></g></svg>