<svg xmlns="http://www.w3.org/2000/svg" xmlns:xlink="http://www.w3.org/1999/xlink" fill="none" version="1.1" width="16" height="15.469785690307617" viewBox="0 0 16 15.469785690307617"><defs><clipPath id="master_svg0_159_85731"><rect x="0" y="0" width="16" height="15.469785690307617" rx="0"/></clipPath></defs><g clip-path="url(#master_svg0_159_85731)"><path d="M5.796983753125,1.4226811Q6.198908853125,1.4226811,6.484894753125,1.6922418Q6.770880653125,1.9618025,6.770880253125,2.3511677L6.770880253125,6.0950656Q6.770880253125,6.4844313,6.484894753125,6.7614799Q6.198909253125,7.0385284,5.796983753125,7.038528L1.9323148731250002,7.038528Q1.5303893131250002,7.038528,1.252133133125,6.7614799Q0.973876953125,6.4844317,0.973876953125,6.0950656L0.973876953125,2.3511679Q0.973876953125,1.9618025,1.252133133125,1.6922419Q1.5303893131250002,1.4226813,1.9323148731250002,1.4226812L5.796983753125,1.4226811ZM5.796983753125,8.9104767Q6.198908853125,8.9104767,6.484894753125,9.1800375Q6.770880653125,9.4495983,6.770880253125,9.8389635L6.770880253125,13.597836Q6.770880253125,13.987202,6.484894753125,14.256763Q6.198909253125,14.526323,5.796983753125,14.526324L1.9323148731250002,14.526324Q1.5303893131250002,14.526324,1.252133133125,14.256763Q0.973876953125,13.987201,0.973876953125,13.597836L0.973876953125,9.8389635Q0.973876953125,9.4495974,1.252133133125,9.1800375Q1.5303893131250002,8.9104776,1.9323148731250002,8.9104767L5.796983753125,8.9104767ZM13.541779953125,8.9104767Q13.943705953125,8.9104767,14.221960953125,9.1800375Q14.500216953125,9.4495983,14.500216953125,9.8389635L14.500216953125,13.597836Q14.500216953125,13.987202,14.221960953125,14.256763Q13.943704953125,14.526323,13.541779953125,14.526324L9.677110653125,14.526324Q9.275184653125,14.526324,8.989199653125,14.256763Q8.703214153125,13.987201,8.703214153125,13.597836L8.703214153125,9.8389635Q8.703214153125,9.4495974,8.989199653125,9.1800375Q9.275184653125,8.9104776,9.677110653125,8.9104767L13.541779953125,8.9104767ZM15.690534953125,3.0699959Q15.999707953125,3.3695078,15.999707953125,3.7738488Q15.999707953125,4.1781898,15.690534953125,4.4627261L12.815221953125,7.2481861Q12.506047953125,7.5476975,12.096393953125,7.5476975Q11.686738953125,7.5476975,11.377564953125,7.2481861L8.502252553125,4.4627261Q8.208537553125,4.1781898,8.208537553125,3.7738488Q8.208537553125,3.369508,8.502252553125,3.0699959L11.377564953125,0.28453624Q11.686738953125,0,12.096393953125,0Q12.506047953125,0,12.815221953125,0.28453624L15.690534953125,3.0699959Z" fill="#FFFFFF" fill-opacity="1" style="mix-blend-mode:passthrough"/></g></svg>