<svg xmlns="http://www.w3.org/2000/svg" xmlns:xlink="http://www.w3.org/1999/xlink" fill="none" version="1.1" width="24" height="24" viewBox="0 0 24 24"><defs><clipPath id="master_svg0_91_96880"><rect x="0" y="0" width="24" height="24" rx="0"/></clipPath><linearGradient x1="0.5" y1="0" x2="0.5" y2="1" id="master_svg1_91_92201"><stop offset="0%" stop-color="#F7EFEF" stop-opacity="1"/><stop offset="47.88399934768677%" stop-color="#E8D1D1" stop-opacity="1"/><stop offset="100%" stop-color="#975555" stop-opacity="1"/></linearGradient></defs><g clip-path="url(#master_svg0_91_96880)"><path d="M9.06276225625,11.061816175L3.89459185625,11.061816175C3.18691682625,11.061816175,2.60791015625,10.482808075,2.60791015625,9.775133575L2.60791015625,4.606963374999999C2.60791015625,3.8992883750000003,3.18691682625,3.3202817749999998,3.89459185625,3.3202817749999998L9.073484856250001,3.3202817749999998C9.78115935625,3.3202817749999998,10.36016605625,3.8992883750000003,10.36016605625,4.606963374999999L10.36016605625,9.785856275C10.34944395625,10.493530275,9.78115935625,11.061816175,9.06276225625,11.061816175ZM3.89459185625,4.606963374999999L3.89459185625,9.785856275L9.073484856250001,9.785856275L9.073484856250001,4.606963374999999L3.89459185625,4.606963374999999ZM16.664907156250003,12.134050375C16.32179115625,12.134050375,16.00012215625,12.005382575,15.75350715625,11.758768075L12.09718795625,8.102447975C11.85057255625,7.855834475,11.72190575625,7.534163975,11.72190575625,7.191048575C11.72190575625,6.847933775,11.85057255625,6.526263675,12.09718795625,6.279649275L15.75350715625,2.623329015C16.00012215625,2.376715005,16.32179115625,2.248046875,16.664907156250003,2.248046875C17.00802215625,2.248046875,17.329693156250002,2.376715005,17.57630615625,2.623329015L21.23262615625,6.279649275C21.47924215625,6.526263675,21.60791015625,6.847933775,21.60791015625,7.191048575C21.60791015625,7.534163975,21.47924215625,7.855834475,21.23262615625,8.102447975L17.57630615625,11.758768075C17.329693156250002,12.005382575,17.00802215625,12.134050375,16.664907156250003,12.134050375ZM16.664907156250003,3.5240056749999997L13.00858615625,7.180325975L16.664907156250003,10.836645175L20.32122815625,7.180325975L16.664907156250003,3.5240056749999997ZM9.06276225625,21.248046875L3.89459185625,21.248046875C3.18691682625,21.248046875,2.60791015625,20.669040875,2.60791015625,19.961364875L2.60791015625,14.782469875C2.60791015625,14.074795875,3.18691682625,13.495788875,3.89459185625,13.495788875L9.073484856250001,13.495788875C9.78115935625,13.495788875,10.36016605625,14.074795875,10.36016605625,14.782469875L10.36016605625,19.961364875C10.34944395625,20.679761875,9.78115935625,21.248046875,9.06276225625,21.248046875ZM3.89459155625,14.793193875L3.89459155625,19.972087875L9.073484856250001,19.972087875L9.073484856250001,14.793193875L3.89459155625,14.793193875ZM19.24899315625,21.248046875L14.07009915625,21.248046875C13.36242415625,21.248046875,12.78341815625,20.669040875,12.78341815625,19.961364875L12.78341815625,14.782469875C12.78341815625,14.074795875,13.36242415625,13.495788875,14.07009915625,13.495788875L19.24899315625,13.495788875C19.95666715625,13.495788875,20.53567515625,14.074795875,20.53567515625,14.782469875L20.53567515625,19.961364875C20.53567515625,20.679761875,19.96739015625,21.248046875,19.24899315625,21.248046875ZM14.08082115625,14.793193875L14.08082115625,19.972087875L19.25971615625,19.972087875L19.25971615625,14.793193875L14.08082115625,14.793193875Z" fill="url(#master_svg1_91_92201)" fill-opacity="1" style="mix-blend-mode:passthrough"/></g></svg>