<svg xmlns="http://www.w3.org/2000/svg" xmlns:xlink="http://www.w3.org/1999/xlink" fill="none" version="1.1" width="26.282421112060547" height="26.282421112060547" viewBox="0 0 26.282421112060547 26.282421112060547"><defs><clipPath id="master_svg0_215_83187"><rect x="0" y="0" width="26.282421112060547" height="26.282421112060547" rx="0"/></clipPath><filter id="master_svg1_215_88011" filterUnits="objectBoundingBox" color-interpolation-filters="sRGB" x="-0.41064863346770936" y="-0.35670037325827303" width="1.8212972669354186" height="1.713400746516546"><feFlood flood-opacity="0" result="BackgroundImageFix"/><feColorMatrix in="SourceAlpha" type="matrix" values="0 0 0 0 0 0 0 0 0 0 0 0 0 0 0 0 0 0 127 0"/><feOffset dy="0" dx="0"/><feGaussianBlur stdDeviation="1.6426513195037842"/><feColorMatrix type="matrix" values="0 0 0 0 1 0 0 0 0 0.8156862854957581 0 0 0 0 0.8156862854957581 0 0 0 0.30000001192092896 0"/><feBlend mode="normal" in2="BackgroundImageFix" result="effect1_dropShadow"/><feBlend mode="normal" in="SourceGraphic" in2="effect1_dropShadow" result="shape"/></filter><linearGradient x1="0.5" y1="1" x2="0.5" y2="0" id="master_svg2_215_71545"><stop offset="0%" stop-color="#FFDBDB" stop-opacity="0.800000011920929"/><stop offset="45.873382687568665%" stop-color="#FFFFFF" stop-opacity="1"/></linearGradient></defs><g clip-path="url(#master_svg0_215_83187)"><path d="M17.493117625,3.69140625L20.079284625,6.27757385L18.786430625,7.57042865L18.139394625,6.92339375L17.722872625,7.33984205C18.171813625,8.16879655,18.227957625000002,9.15412665,17.891305625,10.02219395C18.176895625,10.428691350000001,18.354929625,10.91624255,18.384056625,11.44349525C20.036217625,12.43787865,21.130479625,14.30162025,21.130479625,16.39739025C21.130479625,17.885786250000002,20.578567624999998,19.25715425,19.666866625,20.28320325L21.588443625,20.28320325L21.588443625,22.11185225L15.672231625,22.11185225L15.644531625,22.11192325L15.644531625,22.11185225L6.044921875,22.11185225L6.044921875,20.28320325L15.666322625,20.28320325C17.634988625,20.27079625,19.301830625,18.578242250000002,19.301830625,16.39739025C19.301830625,15.09889025,18.710913625,13.97349625,17.817207625,13.27278805C17.315571625,13.92206225,16.529274625,14.34019625,15.645317625,14.34019625C15.158637025,14.34019625,14.701560025,14.21344825,14.305295025,13.99116025L13.614251125,14.68220325L13.614551525,14.68250325C13.971488025,15.03954925,13.971488025,15.61831525,13.614551525,15.97536025L11.674811824999999,17.91509925C11.317715625,18.27233925,10.738595925,18.27233925,10.381499725000001,17.91509925L5.855592285,13.38919065C5.498656735,13.03214745,5.498656735,12.45337965,5.855592285,12.09633635L7.795332225,10.15659615L7.795332225,10.15705345C8.152263925,9.79997685,8.731015724999999,9.79981235,9.088151225,10.15655995L12.644452525,6.600645549999999L12.644452525,6.600187549999999C13.669461225,5.57517945,15.216782525,5.39082275,16.429675625,6.0471172499999994L16.846397625,5.63039635L16.200260625,4.98426075L17.493117625,3.69140625ZM8.441759625,12.09633635L7.795332225,12.74276445L11.027927425,15.97536025L11.674812325000001,15.32893225L8.441759625,12.09633635Z" fill-rule="evenodd" fill="url(#master_svg2_215_71545)" fill-opacity="1" filter="url(#master_svg1_215_88011)"/></g></svg>