<svg xmlns="http://www.w3.org/2000/svg" xmlns:xlink="http://www.w3.org/1999/xlink" fill="none" version="1.1" width="24" height="24" viewBox="0 0 24 24"><defs><clipPath id="master_svg0_159_71660"><rect x="0" y="0" width="24" height="24" rx="0"/></clipPath><filter id="master_svg1_159_71661" filterUnits="objectBoundingBox" color-interpolation-filters="sRGB" x="-0.3" y="-0.3" width="1.6" height="1.6"><feFlood flood-opacity="0" result="BackgroundImageFix"/><feColorMatrix in="SourceAlpha" type="matrix" values="0 0 0 0 0 0 0 0 0 0 0 0 0 0 0 0 0 0 127 0"/><feOffset dy="0" dx="0"/><feGaussianBlur stdDeviation="1.5"/><feColorMatrix type="matrix" values="0 0 0 0 1 0 0 0 0 0.9262745380401611 0 0 0 0 0.8156862854957581 0 0 0 0.30000001192092896 0"/><feBlend mode="normal" in2="BackgroundImageFix" result="effect1_dropShadow"/><feBlend mode="normal" in="SourceGraphic" in2="effect1_dropShadow" result="shape"/></filter><linearGradient x1="0.5" y1="1" x2="0.5" y2="0" id="master_svg2_134_45383"><stop offset="0%" stop-color="#FFECD9" stop-opacity="0.800000011920929"/><stop offset="45.873382687568665%" stop-color="#FFFFFF" stop-opacity="1"/></linearGradient></defs><g clip-path="url(#master_svg0_159_71660)"><path d="M12,2.2421875C6.492353,2.2421875,2,6.7345405,2,12.2421875C2,14.9960105,3.1230881999999998,17.4960105,4.9346323000000005,19.3075545C6.7461767,21.1190985,9.2461767,22.2421875,12,22.2421875C17.507647,22.2421875,22,17.7498345,22,12.2421875C22,6.7345409,17.507647,2.2421875,12,2.2421875ZM16.430588999999998,13.7257175C17.380589,13.7257175,17.382353000000002,15.0592465,16.430588999999998,15.0592465L12.604118,15.0592465L12.604118,18.141011499999998C12.604118,19.0910115,11.2705889,19.0927755,11.2705889,18.141011499999998L11.2705889,15.0592465L7.5694113,15.0592465C6.6199999,15.0592465,6.6176472,13.7257155,7.5694113,13.7257155L11.2699995,13.7257155L11.2699995,12.3168925L7.5694113,12.3168925C6.6199999,12.3168925,6.6176472,10.9833632,7.5694113,10.9833632L10.559412,10.9833632L7.2888241,6.7433629C6.7082357,5.9910102,7.7594118,5.1774807,8.3405886,5.9304217999999995L11.9370584,10.5921869L15.534118,5.9304217999999995C16.114705999999998,5.1780691,17.167059000000002,5.9898337999999995,16.585881999999998,6.7433629L13.314706,10.9833632L16.430588,10.9833632C17.380588,10.9833632,17.382351999999997,12.3168925,16.430588,12.3168925L12.604116,12.3168925L12.604116,13.7257155L16.430588999999998,13.7257175Z" fill="url(#master_svg2_134_45383)" fill-opacity="1" filter="url(#master_svg1_159_71661)"/></g></svg>