<svg xmlns="http://www.w3.org/2000/svg" xmlns:xlink="http://www.w3.org/1999/xlink" fill="none" version="1.1" width="24" height="24" viewBox="0 0 24 24"><defs><clipPath id="master_svg0_159_79172"><rect x="0" y="0" width="24" height="24" rx="0"/></clipPath><filter id="master_svg1_159_79173" filterUnits="objectBoundingBox" color-interpolation-filters="sRGB" x="-0.2999995994573219" y="-0.2790590479147492" width="1.5999991989146438" height="1.5581180958294985"><feFlood flood-opacity="0" result="BackgroundImageFix"/><feColorMatrix in="SourceAlpha" type="matrix" values="0 0 0 0 0 0 0 0 0 0 0 0 0 0 0 0 0 0 127 0"/><feOffset dy="0" dx="0"/><feGaussianBlur stdDeviation="1.5"/><feColorMatrix type="matrix" values="0 0 0 0 0 0 0 0 0 0 0 0 0 0 0 0 0 0 0.20000000298023224 0"/><feBlend mode="normal" in2="BackgroundImageFix" result="effect1_dropShadow"/><feBlend mode="normal" in="SourceGraphic" in2="effect1_dropShadow" result="shape"/></filter><linearGradient x1="0.5" y1="1" x2="0.5" y2="0" id="master_svg2_29_17013"><stop offset="0%" stop-color="#868686" stop-opacity="0.800000011920929"/><stop offset="50.776487588882446%" stop-color="#FFFFFF" stop-opacity="1"/></linearGradient></defs><g clip-path="url(#master_svg0_159_79172)"><path d="M17.4501009296875,5.9381587375C17.4501009296875,7.9887514375,14.1030039296875,9.6424565375,9.974621729687499,9.6424565375C5.8469753296875,9.6424565375,2.4998779296875,7.9814024375,2.4998779296875,5.9381587375C2.4998779296875,3.8949153375,5.8462395296875,2.2412109375,9.974620829687499,2.2412109375C14.1030039296875,2.2412109375,17.4501009296875,3.8875661375,17.4501009296875,5.9381587375ZM11.9649467296875,12.2222356375C11.3055172296875,12.3146029375,10.6404886296875,12.3612629375,9.974621729687499,12.3618809375C5.846977029687499,12.3618809375,2.4998779296875,10.7008276375,2.4998779296875,8.657583737500001C2.5026237184875,8.3778915375,2.5658053536875,8.1020994375,2.6850940596875,7.8491063375C3.4333028796875,9.5028100375,6.4092362296875,10.7375755375,9.9746227296875,10.7375755375C13.5400089296875,10.7375755375,16.5174109296875,9.5028100375,17.2641519296875,7.8491063375C17.384002929687497,8.101934437499999,17.4474509296875,8.3777985375,17.4501009296875,8.657583737500001C17.3972059296875,9.4388818375,16.9868979296875,10.1521082375,16.3380769296875,10.5905799375C14.7403329296875,10.6374006375,13.2028729296875,11.2110424375,11.9649467296875,12.2222356375ZM10.8191127296875,13.4202519375C10.4270448296875,13.9255709375,10.105601329687499,14.4819149375,9.8636393296875,15.0739569375C5.7874422296875,15.0445559375,2.4998779296875,13.3982019375,2.5020831524875,11.3696584375C2.5056495233875,11.0900631375,2.5687916576875,10.8144436375,2.6872980396875,10.5611801375C3.4355068796875,12.2148847375,6.412174929687501,13.4570019375,9.9768262296875,13.4570019375C10.2642030296875,13.4570019375,10.5405559296875,13.4349529375,10.8191127296875,13.4202519375ZM10.7640342296875,15.3815059375C11.6852789296875,13.1408279375,13.9283139296875,11.6894531375,16.432876929687502,11.6894531375C19.7291009296875,11.6894531375,22.4975489296875,14.4579029375,22.4999049296875,17.7564829375C22.4999049296875,20.1291029375,20.9165859296875,22.3697799375,18.6759089296875,23.2933829375C16.4352319296875,24.2146259375,13.7987249296875,23.6892109375,12.0834655296875,21.9739509375C10.3682036296875,20.2586899375,9.840430729687501,17.6221829375,10.7640342296875,15.3815059375ZM9.3410692296875,17.7419339375L9.3410692296875,17.7786839375L9.340333429687501,17.7786839375C5.5096199296875,17.6169889375,2.4998779296875,16.0294319375,2.5057577848875,14.0890859375C2.5085023408875,13.8093919375,2.5716838986875,13.5336019375,2.6909726696875,13.2806069375C3.4031678396875,14.8608139375,6.1666913296875006,16.0514809375,9.5262837296875,16.1470279375C9.4046168296875,16.669981937499998,9.3424830296875,17.2050159375,9.3410692296875,17.7419339375ZM19.0693859296875,18.4138409375C19.0693859296875,18.1499539375,18.8054959296875,18.0180129375,18.6735549296875,18.0180129375L16.8287079296875,18.0180129375L16.8287079296875,17.2263549375L18.5416109296875,17.2263549375C18.8054999296875,17.2263549375,18.9374429296875,16.9624669375,18.9374429296875,16.8305249375C18.9374429296875,16.5666369375,18.6735549296875,16.4346939375,18.5416109296875,16.4346939375L17.6227209296875,16.4346939375L18.5463259296875,15.1152629375C18.6782669296875,14.9833199375,18.6782669296875,14.8513759375,18.6782669296875,14.7194339375C18.5463259296875,14.5874899375,18.4143819296875,14.4555469375,18.2824399296875,14.4555469375C18.1504979296875,14.4555469375,18.0185529296875,14.5874909375,17.886609929687502,14.7194339375L16.6991219296875,16.3027529375L16.1713479296875,16.3027529375L14.9838579296875,14.7194339375C14.8519149296875,14.5874909375,14.5880279296875,14.5874909375,14.4560849296875,14.7194339375C14.1922009296875,14.7194339375,14.1922009296875,14.9833199375,14.3241429296875,15.1152629375L15.1158029296875,16.5666409375L14.1922009296875,16.5666409375C14.0602569296875,16.434697937499998,13.9283169296875,16.566637937499998,13.7963709296875,16.6985839375C13.6644289296875,16.8305259375,13.6644289296875,16.9624709375,13.7963709296875,17.0944129375C13.9283139296875,17.2263549375,14.0602559296875,17.2263549375,14.1922009296875,17.2263549375L16.0370479296875,17.2263549375L16.0370479296875,18.0180129375L14.1922009296875,18.0180129375C14.0602569296875,17.8860709375,13.9283159296875,18.0180109375,13.7963709296875,18.1499559375C13.6644289296875,18.2818989375,13.6644289296875,18.4138409375,13.7963709296875,18.5457859375C13.9283139296875,18.6777269375,14.0602559296875,18.6777269375,14.1922009296875,18.6777269375L16.0370479296875,18.6777269375L16.0370479296875,20.5225749375C16.0370479296875,20.6545199375,16.300933929687503,20.7864609375,16.432876929687502,20.7864609375C16.564818929687497,20.7864609375,16.8287079296875,20.6545179375,16.8287079296875,20.5225749375L16.8287079296875,18.8096709375L18.6735549296875,18.8096709375C18.9374429296875,18.8096709375,19.0693859296875,18.5457839375,19.0693859296875,18.4138409375ZM9.4373512296875,18.8664529375C9.525718729687501,19.4293959375,9.6814265296875,19.9796749375,9.9011240296875,20.5054589375L9.9003882296875,20.5054589375C5.8065521296875,20.4834099375,2.4998779296875,18.8370549375,2.5006131682275,16.8011609375C2.5049785184875,16.5216629375,2.5680828686875,16.2462069375,2.6858280596875,15.9926829375C3.3943486196875,17.5655379375,6.117448129687499,18.7415069375,9.4373512296875,18.8664529375ZM2.6850933996875,18.7121069375C3.4333022196875,20.3658099375,6.4099703296875,21.6005749375,9.974621729687499,21.6005749375C10.0881467296875,21.6005759375,10.1977958296875,21.5941159375,10.308065929687501,21.5876219375C10.3641357296875,21.5843179375,10.4203663296875,21.5810069375,10.4773483296875,21.5785289375C10.8425817296875,22.1490399375,11.2881517296875,22.6639209375,11.8003111296875,23.1072869375C11.1947975296875,23.1845439375,10.5850420296875,23.2238179375,9.974621729687499,23.2248819375C5.8469760296875,23.2248819375,2.4998779296875,21.5638279375,2.4998779296875,19.5205839375C2.5026231433875,19.2408919375,2.5658046976875,18.9650989375,2.6850933996875,18.7121069375Z" fill-rule="evenodd" fill="url(#master_svg2_29_17013)" fill-opacity="1" filter="url(#master_svg1_159_79173)"/></g></svg>