<svg xmlns="http://www.w3.org/2000/svg" xmlns:xlink="http://www.w3.org/1999/xlink" fill="none" version="1.1" width="16" height="16" viewBox="0 0 16 16"><defs><clipPath id="master_svg0_215_84135"><rect x="0" y="0" width="16" height="16" rx="0"/></clipPath><linearGradient x1="0.5" y1="0" x2="0.5" y2="1" id="master_svg1_43_19738"><stop offset="0%" stop-color="#FFC2C2" stop-opacity="1"/><stop offset="100%" stop-color="#FFFFFF" stop-opacity="1"/></linearGradient></defs><g clip-path="url(#master_svg0_215_84135)"><path d="M10.1896114,9.67611978125C10.5457754,9.64682578125,10.8506966,9.92864798125,10.8494949,10.28601268125C10.8332767,10.63553238125,10.5393257,10.90721528125,10.1896114,10.89590328125L8.6098914,10.89590328125L8.6098914,12.38564128125C8.6572328,12.75616828125,8.3685393,13.08409328125,7.9950004,13.08409328125C7.62146,13.08409328125,7.332767,12.75616828125,7.3801084,12.38564128125L7.3801084,10.85591228125L5.8103871,10.85591228125C5.4735532,10.85591228125,5.2004952,10.58285428125,5.2004952,10.24601938125C5.2004952,9.90918538125,5.4735532,9.63612748125,5.8103871,9.63612748125L7.3901072,9.63612748125L7.3901072,8.79627658125L5.8103871,8.79627658125C5.4542236,8.82557108125,5.1493015,8.543748381250001,5.1505041,8.18638468125C5.1667228,7.83686398125,5.4606733,7.56518218125,5.8103871,7.57649228125L6.6902318,7.57649228125L6.3802867,6.96660038125L6.0003533,6.17673968125C5.8181686,5.87620018125,5.9171672,5.48470498125,6.2203145,5.30689338125C6.5184126,5.21263838125,6.8420687,5.33712148125,7.0001774,5.60684018125L7.3101225,6.21673158125L7.6200681,6.82662388125L7.9300132,7.48650698125L8.2399573,6.82662388125L8.549902,6.21673158125L8.859848,5.60684018125C9.0048275,5.29361198125,9.3748837,5.15539738125,9.6897011,5.29689498125C9.9750452,5.48766948125,10.0700216,5.86325928125,9.9096613,6.16674038125L9.6897011,6.90660998125L9.379755,7.56649258125L10.2096081,7.56649258125C10.546442,7.56649258125,10.8195,7.83955148125,10.8195,8.176385881249999C10.8195,8.51321938125,10.546442,8.786277281250001,10.2096081,8.786277281250001L8.6598825,8.786277281250001L8.6598825,9.66612248125L10.1896114,9.67611978125ZM14.348875,3.28725078125L1.66112107,3.28725078125C1.30094275,3.25755738125,0.9940918409,3.54581098125,1.0012380674,3.90714078125L1.0012380674,14.09533928125C0.978168596,14.47529028125,1.2804707,14.79591228125,1.66112107,14.79521528125L14.338879,14.79521528125C14.719528,14.79591228125,15.021832,14.47529028125,14.998761,14.09533928125L14.998761,3.90714148125C15.005907,3.54581098125,14.699056,3.25755738125,14.338879,3.28725098125L14.348875,3.28725078125ZM2.7109354000000003,2.0274740812500003L13.289062,2.0274740812500003C13.645226,2.05676808125,13.950148,1.7749460312499998,13.948945,1.41758203125C13.93807,1.06410587125,13.642529,0.78647424725,13.289062,0.79769164475L2.7109354000000003,0.79769164475C2.3713403,0.79769164475,2.0960443,1.07298779125,2.0960443,1.41258293125C2.0960443,1.7521778912500001,2.3713403,2.0274740812500003,2.7109354000000003,2.0274740812500003Z" fill="url(#master_svg1_43_19738)" fill-opacity="1"/></g></svg>