<svg xmlns="http://www.w3.org/2000/svg" xmlns:xlink="http://www.w3.org/1999/xlink" fill="none" version="1.1" width="24" height="24" viewBox="0 0 24 24"><defs><clipPath id="master_svg0_159_44323"><rect x="0" y="0" width="24" height="24" rx="0"/></clipPath><filter id="master_svg1_159_44324" filterUnits="objectBoundingBox" color-interpolation-filters="sRGB" x="-0.3" y="-0.3" width="1.6" height="1.6"><feFlood flood-opacity="0" result="BackgroundImageFix"/><feColorMatrix in="SourceAlpha" type="matrix" values="0 0 0 0 0 0 0 0 0 0 0 0 0 0 0 0 0 0 127 0"/><feOffset dy="0" dx="0"/><feGaussianBlur stdDeviation="1.5"/><feColorMatrix type="matrix" values="0 0 0 0 1 0 0 0 0 0.9262745380401611 0 0 0 0 0.8156862854957581 0 0 0 0.30000001192092896 0"/><feBlend mode="normal" in2="BackgroundImageFix" result="effect1_dropShadow"/><feBlend mode="normal" in="SourceGraphic" in2="effect1_dropShadow" result="shape"/></filter><linearGradient x1="0.5" y1="1" x2="0.5" y2="0" id="master_svg2_134_45383"><stop offset="0%" stop-color="#FFECD9" stop-opacity="0.800000011920929"/><stop offset="45.873382687568665%" stop-color="#FFFFFF" stop-opacity="1"/></linearGradient></defs><g clip-path="url(#master_svg0_159_44323)"><path d="M12.39984130859375,21.7197265625C6.87701840859375,21.7197265625,2.39984200399573,17.2425505625,2.39984200399573,11.7197255625C2.39984183014525,6.1969027625,6.87701800859375,1.7197265625,12.39984130859375,1.7197265625C17.922663308593748,1.7197265625,22.39984130859375,6.1969027625,22.39984130859375,11.7197255625C22.39984130859375,17.242548562499998,17.92266530859375,21.7197265625,12.39984130859375,21.7197265625ZM11.96743580859375,10.5122012625L11.96743580859375,7.5531816625C11.96743680859375,7.0928778625,11.59428600859375,6.7197275625,11.13398170859375,6.7197275625C10.67367740859375,6.7197275625,10.30052710859375,7.0928773625,10.30052660859375,7.5531816625L10.30052660859375,12.3213015625L6.71732710859375,7.2374448625C6.46656460859375,6.8803400625,6.01315830859375,6.7271332625,5.5971889085937505,6.8589486625C5.181219808593751,6.9907646625,4.89880180859375,7.3771443625,4.89947700859375,7.8134984625L4.89947700859375,14.6269745625C4.89947700859375,15.0872795625,5.27262760859375,15.4604295625,5.73293180859375,15.4604295625C6.19323610859375,15.4604295625,6.56638670859375,15.0872795625,6.56638670859375,14.6269745625L6.56638670859375,9.9164590625L10.15031530859375,14.9995865625C10.40128610859375,15.3560225625,10.85428520859375,15.5087425625,11.26983360859375,15.3770065625C11.68538090859375,15.2452725625,11.96765800859375,14.8594605625,11.96743580859375,14.4235315625L11.96743580859375,13.6856005625C12.96576430859375,15.5298615625,15.39888430859375,16.0049445625,17.01764630859375,14.6716895625C18.63640630859375,13.3384345625,18.63640630859375,10.8593654625,17.01764630859375,9.5261096625C15.39888430859375,8.1928534625,12.96576530859375,8.6679382625,11.96743580859375,10.5122012625ZM14.90020430859375,13.7650815625C13.96615130859375,13.7846265625,13.19842330859375,13.0327945625,13.19842330859375,12.0985365625C13.19842330859375,11.1642770625,13.96615230859375,10.4124450625,14.90020430859375,10.4319906625C15.80702530859375,10.4509668625,16.53224130859375,11.1915178625,16.53224130859375,12.0985365625C16.53224130859375,13.0055555625,15.80702530859375,13.7461065625,14.90020430859375,13.7650815625ZM19.06675130859375,15.0528175625C19.53651030859375,15.0667205625,19.92486430859375,14.6896925625,19.92486430859375,14.2197275625C19.92486430859375,13.7497625625,19.53651030859375,13.3727325625,19.06675130859375,13.3866365625C18.61624530859375,13.3999705625,18.25795330859375,13.7690245625,18.25795330859375,14.2197275625C18.25795330859375,14.6704305625,18.61624530859375,15.0394835625,19.06675130859375,15.0528175625Z" fill="url(#master_svg2_134_45383)" fill-opacity="1" filter="url(#master_svg1_159_44324)"/></g></svg>