<svg xmlns="http://www.w3.org/2000/svg" xmlns:xlink="http://www.w3.org/1999/xlink" fill="none" version="1.1" width="16" height="16" viewBox="0 0 16 16"><defs><clipPath id="master_svg0_215_98890"><rect x="0" y="0" width="16" height="16" rx="0"/></clipPath><linearGradient x1="0.5" y1="1" x2="0.5" y2="0" id="master_svg1_26_34225"><stop offset="0%" stop-color="#868686" stop-opacity="0.800000011920929"/><stop offset="50.776487588882446%" stop-color="#FFFFFF" stop-opacity="1"/></linearGradient></defs><g clip-path="url(#master_svg0_215_98890)"><path d="M1.7142859,15.8916015625C0.7675119,15.8916015625,0,15.1240905625,0,14.1773165625C0,13.2305415625,0.7675119,12.4630305625,1.7142859,12.4630305625L4.3462858,12.4630305625L12.029715,8.0276012625L12.980572,12.4630305625L14.285715,12.4630305625C15.232489,12.4630305625,16,13.2305415625,16,14.1773165625C16,15.1240905625,15.232489,15.8916015625,14.285715,15.8916015625L1.7142859,15.8916015625ZM10.939428,2.9418876625L11.525715,5.6778879625L3.4799998,10.3236025625L4.2319999,6.8150305625L10.939428,2.9418876625ZM10.285715,-0.1083984375L10.436572,0.5933158425L4.8765712,3.8024587625L5.7142859,-0.1083984375L10.285715,-0.1083984375Z" fill="url(#master_svg1_26_34225)" fill-opacity="1"/></g></svg>