<svg xmlns="http://www.w3.org/2000/svg" xmlns:xlink="http://www.w3.org/1999/xlink" fill="none" version="1.1" width="16" height="16" viewBox="0 0 16 16"><defs><clipPath id="master_svg0_219_43877"><rect x="0" y="0" width="16" height="16" rx="0"/></clipPath><linearGradient x1="0.5" y1="0" x2="0.5" y2="1" id="master_svg1_43_19738"><stop offset="0%" stop-color="#FFC2C2" stop-opacity="1"/><stop offset="100%" stop-color="#FFFFFF" stop-opacity="1"/></linearGradient></defs><g clip-path="url(#master_svg0_219_43877)"><path d="M13.375587,3.4451351C13.28523,3.3609343,13.184284,3.2671306,13.075232,3.1661191C12.763591,2.8774610000000003,12.449306,2.5887785,12.152117,2.3191704C12.118558,2.2887366,12.118558,2.2887366,12.08497,2.2583194C11.688448,1.8993503999999999,11.357689,1.60671002,11.113272,1.40049866C10.9702721,1.27985111,10.8577042,1.18950157,10.7749872,1.12990643C10.720089,1.090352111,10.675457,1.061861753,10.6314478,1.040998045C10.5760231,1.014723107,10.5243492,0.9987144471,10.4514666,1.000081046877C10.2564831,1.0037371935,10.1000004,1.16090891,10.1000004,1.35796699L10.1000004,2.0575585L10.1000004,2.7571502L10.1000004,4.1563327L10.1000004,4.5061288L10.4499998,4.5061288L13.25,4.5061288L12.900001,4.1563327L12.900001,14.650205L13.25,14.300408L4.1497464,14.300408C3.5689981,14.300408,3.1000001,13.832747,3.1000001,13.252826L3.1000001,1.35796699L2.75,1.7077627199999998L9.0500002,1.7077627199999998C9.2433004,1.7077627199999998,9.4000006,1.55115384,9.4000006,1.35796699C9.4000006,1.16478015,9.2433004,1.0081712566,9.0500002,1.0081712566L2.75,1.0081712566L2.4,1.0081712566L2.4,1.35796699L2.4,13.252826C2.4,14.219478,3.1827538,15,4.1497464,15L13.25,15L13.6,15L13.6,14.650205L13.6,4.1563327L13.6,3.8065369L13.25,3.8065369L10.4499998,3.8065369L10.8000002,4.1563327L10.8000002,2.7571502L10.8000002,2.0575585L10.8000002,1.35796699C10.8000002,1.54432881,10.6489,1.69609356,10.4645977,1.69954938C10.4022264,1.7007188800000002,10.36619,1.6895545699999999,10.3314438,1.67308295C10.3277664,1.67133939,10.3426075,1.68081313,10.3656378,1.6974058699999999C10.4305782,1.74419439,10.5312901,1.8250284799999998,10.6617289,1.93507689C10.8985615,2.1348903,11.224054,2.4228712,11.61503,2.7768186C11.648341,2.8069854000000003,11.648341,2.8069854000000003,11.681635,2.8371788000000002C11.97683,3.1049795,12.289407,3.3920918,12.599404,3.6792288C12.707924,3.7797453,12.808358,3.8730748,12.898222,3.9568141C12.952088,4.0070102,12.990499,4.0428898,13.010738,4.0618358C13.151817,4.1938996,13.373307,4.1866572,13.505448,4.0456598C13.637589,3.9046619,13.630342,3.6833024,13.489262,3.5512385C13.468495,3.5317979,13.429854,3.4957035,13.375587,3.4451351ZM2.4,7.3044944L1,7.3044944L1,13.251021L8,13.251021L15,13.251021L15,7.3044944L3.1000001,7.3044944L3.1000001,7.2963233L2.4,7.2963233L2.4,7.3044944ZM3.8464844,10.7207041L3.8464844,12.2L3.1546876,12.2L3.1546876,8.218751000000001L4.6777349,8.218751000000001C5.122529,8.218751000000001,5.4757147,8.334503699999999,5.7373052,8.566016699999999C5.9988947,8.797527299999999,6.1296878,9.1037741,6.1296878,9.484766C6.1296878,9.8748722,6.0016294,10.1783848,5.7455077,10.3953123C5.4893866,10.6122417,5.1307316,10.7207041,4.6695311,10.7207041L3.8464844,10.7207041ZM3.8464844,10.1656256L4.6777349,10.1656256C4.9238292999999995,10.1656256,5.1115875,10.107748,5.2410159,9.991992C5.3704438,9.8762369,5.4351563,9.7089863,5.4351563,9.4902353C5.4351563,9.2751303,5.3695321,9.103322,5.2382817,8.9748044C5.1070313,8.8462896,4.9265635,8.7802081,4.6968749,8.7765622L3.8464844,8.7765622L3.8464844,10.1656256ZM6.7339845,12.2L6.7339845,8.218751000000001L7.9097662,8.218751000000001C8.2615905,8.218751000000001,8.5737615,8.2971354,8.846290100000001,8.4539065C9.1188164,8.610678199999999,9.3298178,8.8330722,9.4792967,9.1210947C9.6287775,9.4091167,9.703516,9.7390614,9.703516,10.1109381L9.703516,10.3105478C9.703516,10.6878939,9.6283216,11.019661,9.4779301,11.30586C9.3275375,11.59206,9.1133471,11.812631,8.8353519,11.967578C8.5573549,12.122527,8.2388048,12.2,7.8796878,12.2L6.7339845,12.2ZM7.4257812,8.7765622L7.4257812,11.647656L7.8769531,11.647656C8.2397151,11.647656,8.518163699999999,11.534182,8.7123051,11.307227C8.906445999999999,11.080273,9.0053396,10.7544298,9.0089846,10.3296881L9.0089846,10.1082029C9.0089846,9.6761703,8.9151053,9.3462248,8.727344,9.1183596C8.5395827,8.8904934,8.267058800000001,8.7765622,7.9097662,8.7765622L7.4257812,8.7765622ZM12.686719,10.5128908L11.084375,10.5128908L11.084375,12.2L10.3925791,12.2L10.3925791,8.218751000000001L12.921875,8.218751000000001L12.921875,8.7765622L11.084375,8.7765622L11.084375,9.9605474L12.686719,9.9605474L12.686719,10.5128908Z" fill="url(#master_svg1_43_19738)" fill-opacity="1"/></g></svg>