<svg xmlns="http://www.w3.org/2000/svg" xmlns:xlink="http://www.w3.org/1999/xlink" fill="none" version="1.1" width="24" height="24" viewBox="0 0 24 24"><defs><clipPath id="master_svg0_159_49310"><rect x="0" y="0" width="24" height="24" rx="0"/></clipPath><filter id="master_svg1_159_49311" filterUnits="objectBoundingBox" color-interpolation-filters="sRGB" x="-0.2608772236813407" y="-0.26086982481897586" width="1.5217544473626814" height="1.5217396496379516"><feFlood flood-opacity="0" result="BackgroundImageFix"/><feColorMatrix in="SourceAlpha" type="matrix" values="0 0 0 0 0 0 0 0 0 0 0 0 0 0 0 0 0 0 127 0"/><feOffset dy="0" dx="0"/><feGaussianBlur stdDeviation="1.5"/><feColorMatrix type="matrix" values="0 0 0 0 1 0 0 0 0 0.8156862854957581 0 0 0 0 0.8156862854957581 0 0 0 0.30000001192092896 0"/><feBlend mode="normal" in2="BackgroundImageFix" result="effect1_dropShadow"/><feBlend mode="normal" in="SourceGraphic" in2="effect1_dropShadow" result="shape"/></filter><linearGradient x1="0.5" y1="1" x2="0.5" y2="0" id="master_svg2_123_04455"><stop offset="0%" stop-color="#FFDBDB" stop-opacity="0.800000011920929"/><stop offset="45.873382687568665%" stop-color="#FFFFFF" stop-opacity="1"/></linearGradient></defs><g clip-path="url(#master_svg0_159_49310)"><path d="M23.28173828125,12.7229538125L18.41391528125,12.7229538125L18.41391528125,12.4762648125C18.41391528125,12.0446118125,18.35281928125,11.6746568125,18.29172728125,11.3047028125L18.16810428125,10.7257948125L17.80284128125,9.5781088125C17.06956128125,8.0365915125,15.72513928125,6.8033290125,14.13631828125,6.1867318125C14.86959828125,5.5701113125,15.29741328125,4.5835376125,15.29741328125,3.5352628125C15.29741328125,1.5620692125,13.70857328125,0.0205078125,11.81417128125,0.0205078125C9.85872078125,0.0205078125,8.33092878125,1.6237244125,8.33092878125,3.5352626125C8.33092878125,4.5834699125,8.75874238125,5.5084333125,9.49202438125,6.1867533125C6.98657468125,7.1733284125,5.15331268125,9.5781088125,5.15331268125,12.4762648125L5.15331268125,12.7229538125L0.28241210931,12.7229538125L0.28501757815,14.4494138125L1.48676748125,14.4494138125L1.48676748125,21.9106238125C1.48676748125,22.5271758125,1.97562988125,23.0204848125,2.58674718125,23.0204848125L20.91940928125,23.0204848125C21.53045828125,23.0204848125,22.01938828125,22.5271298125,22.01938828125,21.9105548125L22.01938828125,14.3878028125L23.28173828125,14.3878028125L23.28173828125,12.7229538125ZM6.98657508125,12.4146328125C6.98657508125,9.7631187125,9.12534998125,7.6049380125,11.75305528125,7.6049380125C14.38080628125,7.6049380125,16.51955828125,9.7631426125,16.51955828125,12.4146348125L16.51955828125,12.7229538125L7.04764648125,12.7229538125C6.98657508125,12.5996218125,6.98657508125,12.5379208125,6.98657508125,12.4146328125Z" fill="url(#master_svg2_123_04455)" fill-opacity="1" filter="url(#master_svg1_159_49311)"/></g></svg>