<svg xmlns="http://www.w3.org/2000/svg" xmlns:xlink="http://www.w3.org/1999/xlink" fill="none" version="1.1" width="40" height="40" viewBox="0 0 40 40"><defs><linearGradient x1="0.5" y1="0" x2="0.5" y2="1" id="master_svg0_43_19738"><stop offset="0%" stop-color="#FFC2C2" stop-opacity="1"/><stop offset="100%" stop-color="#FFFFFF" stop-opacity="1"/></linearGradient></defs><g><path d="M21.519604,2.62853479L39.62207,20.729752C40.12598,21.234077,40.12598,22.051006,39.62207,22.555338C39.369904,22.807499,39.039379,22.933374,38.709282,22.933374C38.37875,22.933374,38.048645,22.807499,37.796486,22.555338L35.770832,20.529688L35.770832,37.095409C35.770832,37.746037,35.499916,38.144501,35.27401,38.363739C34.853039,38.77137,34.348713,38.823467,33.99902,38.823467C33.930664,38.823467,33.868557,38.8218,33.814793,38.820133L33.672665,38.816799L6.5614781,38.816799C5.4048572,38.816799,4.4645553,37.807308,4.4645553,36.566078L4.4645553,20.294613L2.2038307,22.555338C1.6995032,23.059664,0.8825745,23.059664,0.37824619,22.555338C-0.12608205,22.05101,-0.12608205,21.234079,0.37824619,20.729752L18.479465,2.6293682499999997C18.88126,2.22507218,19.421017,2.00083346054,19.994951,2L19.999117,2C20.57305,2,21.112806,2.22257148,21.519604,2.62853479ZM19.999802,21.733101C20.500301,20.9606,21.661503,19.5,23.2822,19.5C25.6082,19.5,27.5,21.596001,27.5,24.172201C27.5,25.379501,26.6791,27.1087,25.669903,28.028502C24.272999,29.831802,20.4988,32.943302,20.0142,32.943302C19.537901,32.943302,15.680901,29.770102,14.3089,28.007202C13.317,27.1036,12.5,25.376499,12.5,24.172201C12.5,21.596001,14.3917,19.5,16.717503,19.5C18.338402,19.5,19.498901,20.9606,19.999802,21.733101Z" fill-rule="evenodd" fill="url(#master_svg0_43_19738)" fill-opacity="1"/></g></svg>