<svg xmlns="http://www.w3.org/2000/svg" xmlns:xlink="http://www.w3.org/1999/xlink" fill="none" version="1.1" width="40" height="40" viewBox="0 0 40 40"><defs><linearGradient x1="0.5" y1="0" x2="0.5" y2="1" id="master_svg0_43_19738"><stop offset="0%" stop-color="#FFC2C2" stop-opacity="1"/><stop offset="100%" stop-color="#FFFFFF" stop-opacity="1"/></linearGradient></defs><path d="M6.7836988,3.79937297C7.8495297,2.73354232,7.4231973,2.73354232,8.4890285,3.79937297C10.194357400000001,5.7178681000000005,12.1128521,7.4231968,13.818181,9.341692C14.244514,9.768024,14.244514,9.981190699999999,13.818181,10.4075232C12.965518,11.0470209,12.965518,11.0470209,13.818181,11.6865196C15.097178,13.178682,16.589342000000002,14.45768,17.868339,15.523511C18.081505999999997,15.736675,18.081505999999997,16.163007999999998,17.868339,16.376175C17.228839999999998,17.015674,16.802509,17.65517,16.16301,18.081502999999998C15.949843,18.29467,15.736676,18.29467,15.523512,18.081502999999998C14.031349,16.589340999999997,12.7523508,15.310343,11.2601881,13.818181C10.8338556,13.391849,10.620688900000001,13.391849,10.194357400000001,13.818181C9.5548587,14.670845,9.5548587,14.670845,8.9153605,13.818181C7.4231973,12.5391836,4.2257051,9.341692,3.15987459,8.0626955C2.9467084630000002,7.8495297,2.9467084630000002,7.636363,3.15987459,7.4231968C4.0125391,6.5705328000000005,5.7178683,4.8652035,6.7836988,3.79937297ZM29.166143,3.58620685C27.247652,5.7178681000000005,25.329153,7.8495297,23.197493,9.981190699999999C22.77116,10.4075232,22.77116,10.8338556,22.984327,11.4733524C23.623823,12.965517,24.050156,14.45768,24.47649,15.949842C24.689655,16.376174,24.902821,16.589339000000002,25.329155,16.589339000000002C26.821318,16.802506,28.526648,17.228837,30.01881,17.442004C30.658308,17.65517,30.871477,17.442004,31.297806,17.015672000000002C33.003138,15.310343,34.4953,13.391848,36.200623,11.6865196C36.413795,11.4733515,36.626957,11.2601881,36.840122,11.0470209C37.053288,12.1128511,37.053288,13.178682,36.840122,14.031346C35.987457,17.868338,33.216302999999996,20.213165,29.379309,20.852663C28.100315,21.065828,26.821316,20.852663,25.542318,20.426331C25.329153,20.426331,24.689655,20.426331,24.47649,20.639494C21.065828,22.771156,18.081504000000002,25.542315,15.523511,28.739807C15.310343,29.16614,15.097178,29.379305,15.310343,29.805637C16.163007999999998,32.789963,14.244513,35.774288,11.4733515,36.413792C8.2758603,37.053288,5.7178662,35.134796,5.078367500000001,32.363634000000005C4.438869,29.16614,6.7836967,25.968651,10.1943545,25.968651C10.620687,25.968651,11.2601852,25.968651,11.6865187,25.968651C11.8996849,25.968651,12.1128511,25.968651,12.3260174,25.755484C15.310346,22.984325,17.868339,19.786831,20,16.163007999999998C20.213165,15.949842,20.213165,15.523511,20,15.097177C18.081504000000002,9.981190699999999,21.278996,4.4388714,26.608152,3.58620679C27.460815,3.37304074,28.31348,3.58620685,29.166143,3.58620685ZM13.178683,31.297804C13.178683,29.592476,11.8996878,28.313478,10.194357400000001,28.313478C8.489028000000001,28.313478,7.2100306,29.592476,7.2100306,31.297804C7.2100306,33.003136,8.489028000000001,34.282127,10.194357400000001,34.282127C11.8996878,34.282127,13.178683,32.789967000000004,13.178683,31.297804ZM29.805641,36.626957C28.952978,36.626957,28.100315,36.413792,27.460815,35.774288C24.902819,33.216299,22.557993,30.658306,20,28.100313C19.786833,27.887144,19.786833,27.460815,20,27.247646C21.492167,24.902817,23.410658,22.984322,26.181818,21.918491C26.608152,21.70533,26.821316,21.70533,27.034481,22.131657C29.379309,24.476488,31.724136,26.608149,34.068962,28.739807C35.774292,30.231972,35.774292,32.36363,34.068962,33.855796999999995C33.429463999999996,34.495289,32.789968,35.134792,32.363636,35.561127C31.72414,36.200619,30.871473,36.626957,29.805641,36.626957ZM33.216302999999996,30.231976C33.216302999999996,30.231976,26.821316,23.83699,26.821316,23.83699C26.394983,23.410656,25.968653,23.623825,25.54232,23.83699C25.115988,24.263325,25.115988,24.689653,25.54232,25.115986C25.54232,25.329153,32.150470999999996,31.724134,32.150470999999996,31.724134C32.150470999999996,31.724134,32.789968,31.9373,33.429469999999995,31.510969C33.642632,31.084637,33.216302999999996,30.231976,33.216302999999996,30.231976ZM22.557993,26.608149C22.131659,27.034479,22.344828,27.887142,22.557993,28.100313C24.47649,30.231976,26.60815,32.150469,28.739813,34.282127C29.166143,34.708462,29.805641,34.921628999999996,30.231977,34.495293000000004C30.658308,34.068962,30.658308,33.429461,30.01881,33.003132C28.100315,30.871468,25.968653,28.952976,23.83699,27.034479C23.83699,26.608149,23.197493,26.181816,22.557993,26.608149Z" fill="url(#master_svg0_43_19738)" fill-opacity="1"/></svg>