<svg xmlns="http://www.w3.org/2000/svg" xmlns:xlink="http://www.w3.org/1999/xlink" fill="none" version="1.1" width="20" height="20" viewBox="0 0 20 20"><defs><clipPath id="master_svg0_219_40779"><rect x="0" y="0" width="20" height="20" rx="0"/></clipPath><filter id="master_svg1_219_53060" filterUnits="objectBoundingBox" color-interpolation-filters="sRGB" x="-0.37432496700598805" y="-0.3388848725418299" width="1.748649934011976" height="1.67776974508366"><feFlood flood-opacity="0" result="BackgroundImageFix"/><feColorMatrix in="SourceAlpha" type="matrix" values="0 0 0 0 0 0 0 0 0 0 0 0 0 0 0 0 0 0 127 0"/><feOffset dy="0" dx="0"/><feGaussianBlur stdDeviation="1.3045809268951416"/><feColorMatrix type="matrix" values="0 0 0 0 1 0 0 0 0 0.5221238732337952 0 0 0 0 0.5221238732337952 0 0 0 1 0"/><feBlend mode="normal" in2="BackgroundImageFix" result="effect1_dropShadow"/><feBlend mode="normal" in="SourceGraphic" in2="effect1_dropShadow" result="shape"/></filter></defs><g clip-path="url(#master_svg0_219_40779)"><path d="M16.0125,10.6391401L12.3343744,10.6391401C12.1374998,10.6391401,11.9812498,10.7922649,11.9812498,10.9797649L11.9812498,16.917265C11.9812498,17.104765,12.140625,17.25789,12.3343744,17.25789L16.5875,17.25789C16.784374,17.25789,16.940624,17.104765,16.940624,16.917265L16.940624,11.5703897L16.0125,10.6391401ZM13.412499,12.57039L15.5125,12.57039C15.659375,12.57039,15.778125,12.686015,15.778125,12.82664C15.778125,12.967265,15.659375,13.082891,15.5125,13.082891L13.415625,13.082891C13.268749,13.082891,13.15,12.967265,13.15,12.82664C13.146874,12.686015,13.265625,12.57039,13.412499,12.57039ZM13.412499,13.86414L15.5125,13.86414C15.659375,13.86414,15.778125,13.979765,15.778125,14.12039C15.778125,14.261015,15.659375,14.37664,15.5125,14.37664L13.415625,14.37664C13.268749,14.37664,13.15,14.261015,13.15,14.12039C13.146874,13.979765,13.265625,13.86414,13.412499,13.86414ZM13.412499,15.161015L15.5125,15.161015C15.659375,15.161015,15.778125,15.27664,15.778125,15.417265C15.778125,15.55789,15.659375,15.673515,15.5125,15.673515L13.415625,15.673515C13.268749,15.673515,13.15,15.55789,13.15,15.417265C13.15,15.27664,13.265625,15.161015,13.412499,15.161015ZM15.843749,11.6453896L15.843749,10.9453897L16.568749,11.6453896L15.843749,11.6453896ZM11.3406248,16.989141L11.3406248,12.198515C11.2687502,12.17039,11.1937494,12.142265,11.1218748,12.117265C11.03125,12.08914,10.4718752,11.8360147,10.821874600000001,10.7703896L10.8156242,10.7703896C11.640624,9.9235139,12.2218742,9.0953889,12.2218742,7.261014L6.0562501,7.261014C6.0562501,9.1110139,6.621875,9.9328885,7.453125,10.7797642C7.8125,11.7172642,7.171875,12.067265,7.0375004,12.11414C6.675,12.24539,6.434375,12.40164,6.0656251999999995,12.57039C6.000000200000001,12.60164,6.625000200000001,16.904764999999998,6.6750004,17.24539C7.140625,17.192265,8.3250008,17.064140000000002,9.131250399999999,17.064140000000002C9.8406258,17.064140000000002,10.84375,17.161016,11.390626,17.223516C11.3625011,17.173515000000002,11.3406258,17.117266,11.3406258,17.054766L11.3406248,16.989141ZM12.6437502,5.3141397999999995C12.6437502,3.1860149,9.7468758,2.1235148600000002,9.7468758,2.1235148600000002C9.3375006,1.939139873,8.928125399999999,1.979764849,8.5093756,2.1235148600000002C8.5093756,2.1235148600000002,5.612500900000001,3.0578899,5.612500900000001,5.3141397999999995C5.612500900000001,5.6516397000000005,5.000001,5.5797647999999995,4.796876,6.6453896L13.456251,6.6453896C13.090626,5.5703897,12.6437511,5.6516397000000005,12.6437502,5.3141397999999995ZM5.4625001,12.792265C4.1343751,13.46414,3,14.342265,3,15.211015L3,15.66414C3,16.595389,5.4593749,17.398515,5.4593749,17.398515L6.41875,17.279764999999998L6.325,17.282890000000002C6.325,17.279764999999998,5.528125,12.761016,5.4625001,12.792265ZM6.421875,17.27664L6.6812499,17.27039C6.6812499,17.27039,6.6812499,17.261015,6.6781247,17.24539L6.4781249,17.27039L6.421875,17.27664Z" fill="#FFFFFF" fill-opacity="1" style="mix-blend-mode:passthrough" filter="url(#master_svg1_219_53060)"/></g></svg>