<svg xmlns="http://www.w3.org/2000/svg" xmlns:xlink="http://www.w3.org/1999/xlink" fill="none" version="1.1" width="40" height="40" viewBox="0 0 40 40"><defs><clipPath id="master_svg0_199_29233"><rect x="0" y="0" width="40" height="40" rx="0"/></clipPath><filter id="master_svg1_199_29235" filterUnits="objectBoundingBox" color-interpolation-filters="sRGB" x="-0.12121212121212122" y="-0.10526315789473684" width="1.2424242424242424" height="1.2105263157894737"><feFlood flood-opacity="0" result="BackgroundImageFix"/><feColorMatrix in="SourceAlpha" type="matrix" values="0 0 0 0 0 0 0 0 0 0 0 0 0 0 0 0 0 0 127 0"/><feOffset dy="0" dx="0"/><feGaussianBlur stdDeviation="1"/><feColorMatrix type="matrix" values="0 0 0 0 0.800000011920929 0 0 0 0 0.10196078568696976 0 0 0 0 0.10196078568696976 0 0 0 1 0"/><feBlend mode="normal" in2="BackgroundImageFix" result="effect1_dropShadow"/><feBlend mode="normal" in="SourceGraphic" in2="effect1_dropShadow" result="shape"/></filter><linearGradient x1="0.5" y1="0" x2="0.5" y2="1" id="master_svg2_43_19738"><stop offset="0%" stop-color="#FFC2C2" stop-opacity="1"/><stop offset="100%" stop-color="#FFFFFF" stop-opacity="1"/></linearGradient></defs><g clip-path="url(#master_svg0_199_29233)"><path d="M19.509375,1C19.433207,1.056971502,11.2261238,7.6466765,3,7.6466765L3,18.756123C3,31.669664,15.491523,37.44278,19.318954,38.924038C19.37608,38.943027,19.433207,38.962021,19.490332,39C22.479921,37.917538,25.279085,36.379311,27.773579,34.42329C30.039572,32.714141999999995,31.943768,30.58721,33.429043,28.156425C35.123775,25.30785,36.018745,22.060472,35.999702,18.756123L35.999702,7.6466765C27.640287,7.6466765,19.585543,1.056971502,19.509375,1ZM19.37608,28.289354C16.06278,28.289354,12.501936,27.415791,12.501936,25.478762C12.5209761,21.718643,15.605773,18.680161,19.37608,18.69915C17.129129,18.69915,15.301101,16.876060000000003,15.301101,14.635183C15.301101,12.394302,17.129129,10.5712147,19.37608,10.5712147L19.395121,10.5712147C21.642073,10.5712147,23.4701,12.394302,23.4701,14.635183C23.4701,16.876060000000003,21.642071,18.69915,19.395119,18.69915C23.165428,18.69915,26.212139,21.718643,26.250225,25.478762C26.269266,27.415791,22.70842,28.289358,19.37608,28.289354Z" fill="url(#master_svg2_43_19738)" fill-opacity="1" filter="url(#master_svg1_199_29235)"/></g></svg>