<svg xmlns="http://www.w3.org/2000/svg" xmlns:xlink="http://www.w3.org/1999/xlink" fill="none" version="1.1" width="16" height="16" viewBox="0 0 16 16"><defs><clipPath id="master_svg0_159_79974"><rect x="0" y="0" width="16" height="16" rx="0"/></clipPath><filter id="master_svg1_159_79975" filterUnits="objectBoundingBox" color-interpolation-filters="sRGB" x="-0.3333333333333333" y="-0.33299364198140513" width="1.6666666666666667" height="1.6659872839628103"><feFlood flood-opacity="0" result="BackgroundImageFix"/><feColorMatrix in="SourceAlpha" type="matrix" values="0 0 0 0 0 0 0 0 0 0 0 0 0 0 0 0 0 0 127 0"/><feOffset dy="0" dx="0"/><feGaussianBlur stdDeviation="1"/><feColorMatrix type="matrix" values="0 0 0 0 1 0 0 0 0 0.5221238732337952 0 0 0 0 0.5221238732337952 0 0 0 1 0"/><feBlend mode="normal" in2="BackgroundImageFix" result="effect1_dropShadow"/><feBlend mode="normal" in="SourceGraphic" in2="effect1_dropShadow" result="shape"/></filter></defs><g clip-path="url(#master_svg0_159_79974)"><path d="M2,13.137849L3.6366816,13.137849L3.6366816,10.1684179L2,10.1684179L2,13.137849ZM13.950864,11.5655775C13.842357,11.3543606,13.591295,11.2599401,13.370495,11.3473082C13.367369,11.3473082,13.365487,11.3523159,13.362372,11.3523159C12.205372,11.7525759,11.2822638,12.311068,10.2253284,12.509316C9.508616400000001,12.644414,7.5373435,12.213494,7.5373435,12.213494L10.1840534,12.213494C10.4323473,12.211625,10.6324654,12.018373,10.6305962,11.7800951L10.6305962,11.7688332L10.6255884,11.585597C10.6228418,11.3376379,10.4201374,11.1385641,10.1721687,11.1403008L8.3672504,11.1403008L6.8556509,10.2928772C6.5656753,10.1324444,6.2418671,10.0428686,5.9106653,10.0314646C5.8000042,10.0267181,5.6891400999999995,10.0311108,5.5792006999999995,10.0445957L4.0006623,10.171546L4.0006623,13.137849L7.5842481,13.899597C8.5083175,14.111581,9.475940699999999,14.022838,10.346036,13.646308L13.726975,12.172843C13.957861,12.077937,14.063743,11.8102617,13.960258,11.5830927L13.950876,11.5661993L13.950864,11.5655775ZM5.4503579,8.4097838L5.4503579,8.7612567C5.4253418,9.122746,5.7105362,9.4366946,6.0870256,9.461710499999999C6.1195416,9.462969300000001,6.1514473,9.462969300000001,6.1839638,9.461710499999999L12.720697,9.461710499999999C13.094072,9.489854300000001,13.420528,9.2196832,13.448671,8.8613214C13.451253,8.8301044,13.451253,8.7987275,13.448671,8.767510900000001L13.448671,4.2183208C13.467434,3.8505773999999997,13.169121,3.5366287,12.785742,3.5184895000000003C12.760756,3.5167462,12.73568,3.5167462,12.710694,3.5184895000000003L12.358598,3.5184895000000003L12.358598,7.9801226C12.358598,8.2177892,12.165968,8.4104061,11.928937,8.4104061L5.4503715,8.4104061L5.4503579,8.4097838ZM11.1403008,2L4.8399639,2C4.3646557,2,3.9800314,2.3852596,3.9800314,2.8599326L3.9800314,7.1414561C3.9800314,7.6167645,4.3652911,8.001388500000001,4.8399639,8.001388500000001L11.1403008,8.001388500000001C11.6156092,8.001388500000001,12.000234,7.6161413,12.000234,7.1414561L12.000234,2.8599326C12.000234,2.3852596,11.614975,2.000000023298171,11.1403008,2ZM7.7212143,5.8737639999999995C7.7212143,6.1114182,7.5292077,6.3040481,7.2915535,6.3040481L6.0013494,6.3040481C5.7703121,6.295166,5.587595,6.1052895,5.587595,5.8740816C5.587595,5.642874,5.7703123000000005,5.4529977,6.0013494,5.4441156L7.2915535,5.4441156C7.5292077,5.4441156,7.7212143,5.6367452,7.7212143,5.8737639999999995ZM10.408577,4.1270018C10.408577,4.3646557,10.2159462,4.5572855,9.978927599999999,4.5572855L6.0013494,4.5572855C5.7703121,4.5484037,5.587595,4.3585272,5.587595,4.1273193C5.587595,3.8961113999999997,5.7703123000000005,3.7062351,6.0013494,3.6973529999999997L9.978927599999999,3.6973529999999997C10.2165813,3.6973529999999997,10.408577,3.8899828000000003,10.408577,4.1270018Z" fill="#FFFFFF" fill-opacity="1" style="mix-blend-mode:passthrough" filter="url(#master_svg1_159_79975)"/></g></svg>