<svg xmlns="http://www.w3.org/2000/svg" xmlns:xlink="http://www.w3.org/1999/xlink" fill="none" version="1.1" width="16" height="19" viewBox="0 0 16 19"><defs><linearGradient x1="0.5" y1="0" x2="0.5" y2="1" id="master_svg0_43_19738"><stop offset="0%" stop-color="#FFC2C2" stop-opacity="1"/><stop offset="100%" stop-color="#FFFFFF" stop-opacity="1"/></linearGradient></defs><g><path d="M9.597579,0.58741868C11.110438,1.727106,12.542611,2.8365362,14.396369,4.3897386C15.384771,5.2187853,15.997984,5.910666,16,6.6711307L16,15.796698C16,17.057413,14.924862,18.078089,13.599597,18.078089L2.4004035,18.078089C1.0751388,18.078089,0,17.057413,0,15.796698L0,6.6711307C0,5.8622546,0.54664665,5.2651796,1.5995966,4.3897386C3.0801816,3.1592796,4.5405951,1.850152,6.3983865,0.58741868C7.3121533,-0.23759398,8.665658,-0.15287383,9.597579,0.58741868ZM12.000133,10.137685C12.071343,10.216032,12.173716,10.259467,12.280134,10.256485C12.387997,10.267863,12.494068,10.222858,12.560134,10.137685C12.720278,9.9868889,12.720278,9.7340813,12.560134,9.5832844L10.880129,7.9200845C10.72781,7.7615423,10.472447,7.7615423,10.320127,7.9200845L8.6401215,9.5832844C8.4852781,9.7363434,8.4851818,9.9847221,8.6399059,10.137899C8.7946301,10.291076,9.0455189,10.29098,9.2001228,10.137685L10.199926,9.1478834L10.199926,11.081304C9.0649891,11.269957,8.2002287,12.247202,8.2002287,13.424402C8.2002287,14.73663,9.2747478,15.800402,10.600236,15.800404C11.924095,15.796519,12.996321,14.73502,13.000243,13.424402C13.000243,12.246988,12.135169,11.269602,10.999928,11.081202L10.999928,9.1474857L12.000133,10.137685ZM7.800015,10.256402C7.7964959,11.432011,6.9334335,12.407183,5.8002214,12.598417L5.8002214,13.028402L7.400013,13.028402C7.6209278,13.028402,7.800014,13.205698,7.800014,13.424403C7.800014,13.643108,7.6209278,13.820403,7.400013,13.820403L5.8002214,13.820403L5.8002214,15.404404C5.8139238,15.628486,5.6265678,15.813969,5.4002204,15.800404C5.1738729,15.813969,4.9865165,15.628486,5.0002193,15.404404L5.0002193,13.820403L3.4000013,13.820403C3.1790867,13.820403,3,13.643108,3,13.424403C3,13.205698,3.1790867,13.028402,3.4000013,13.028402L5.0002193,13.028402L5.0002193,12.599586C3.8650255,12.411147,3,11.433783,3,10.256402C3,8.9441738,4.0745201,7.8804016,5.4000072,7.8804016C6.7254944,7.8804016,7.800015,8.9441729,7.800015,10.256402ZM7.0000124,10.256402C7.0000124,11.131151,6.2837811,11.840288,5.4002204,11.840403L5.4000072,11.840403C4.5163493,11.840403,3.8000028,11.131221,3.8000028,10.256402C3.8000028,9.3815832,4.5163488,8.6724014,5.4000072,8.6724014C6.282526,8.6751194,6.9972668,9.3827105,7.0000124,10.256402ZM9.0002317,13.424402C9.0002317,12.562138,9.6961651,11.86079,10.562298,11.840837C10.574699,11.841299,10.587252,11.841164,10.599927,11.840402L10.600236,11.840402C11.482756,11.843119,12.197496,12.550711,12.200241,13.424402C12.200241,14.299221,11.483894,15.008403,10.600237,15.008403C9.7165775,15.008403,9.0002317,14.299221,9.0002317,13.424402Z" fill-rule="evenodd" fill="url(#master_svg0_43_19738)" fill-opacity="1"/></g></svg>