<svg xmlns="http://www.w3.org/2000/svg" xmlns:xlink="http://www.w3.org/1999/xlink" fill="none" version="1.1" width="24" height="24" viewBox="0 0 24 24"><defs><clipPath id="master_svg0_159_60466"><rect x="0" y="0" width="24" height="24" rx="0"/></clipPath><filter id="master_svg1_159_60467" filterUnits="objectBoundingBox" color-interpolation-filters="sRGB" x="-0.3333333333333333" y="-0.33333336865460805" width="1.6666666666666667" height="1.666666737309216"><feFlood flood-opacity="0" result="BackgroundImageFix"/><feColorMatrix in="SourceAlpha" type="matrix" values="0 0 0 0 0 0 0 0 0 0 0 0 0 0 0 0 0 0 127 0"/><feOffset dy="0" dx="0"/><feGaussianBlur stdDeviation="1.5"/><feColorMatrix type="matrix" values="0 0 0 0 1 0 0 0 0 0.8156862854957581 0 0 0 0 0.8156862854957581 0 0 0 0.30000001192092896 0"/><feBlend mode="normal" in2="BackgroundImageFix" result="effect1_dropShadow"/><feBlend mode="normal" in="SourceGraphic" in2="effect1_dropShadow" result="shape"/></filter><linearGradient x1="0.5" y1="1" x2="0.5" y2="0" id="master_svg2_29_17001"><stop offset="0%" stop-color="#FFDBDB" stop-opacity="0.800000011920929"/><stop offset="45.873382687568665%" stop-color="#FFFFFF" stop-opacity="1"/></linearGradient></defs><g clip-path="url(#master_svg0_159_60466)"><path d="M19.38699928125,3.0205078125L5.17647518125,3.0205078125C4.12963301125,3.0205078125,3.28173828125,3.8684025425,3.28173828125,4.9152447125L3.28173828125,7.7573500125L21.28173828125,7.7573500125L21.28173828125,4.9152447125C21.28173828125,3.8684025425,20.43384328125,3.0205078125,19.38699928125,3.0205078125ZM3.28173828125,9.178402412499999L3.28173828125,19.1257688125C3.28173828125,20.1726108125,4.12963301125,21.0205058125,5.17647518125,21.0205058125L19.38699928125,21.0205058125C20.43384128125,21.0205058125,21.28173628125,20.1726108125,21.28173628125,19.1257688125L21.28173628125,9.178402412499999L3.28173828125,9.178402412499999ZM9.46805378125,16.7052438125C9.74752758125,16.9847178125,9.74752758125,17.4347168125,9.46805378125,17.7094548125C9.188580081249999,17.988927812500002,8.73858018125,17.988927812500002,8.463843781249999,17.7094548125L6.11910678125,15.3647188125C5.83940458125,15.0884098125,5.83940458125,14.6368138125,6.11910678125,14.3605088125L8.463843781249999,12.0157719125C8.74015138125,11.7360697125,9.191745781249999,11.7360697125,9.46805378125,12.0157719125C9.74752758125,12.2952452125,9.74752758125,12.7452450125,9.46805378125,13.0199823125L7.62542248125,14.8626118125L9.46805378125,16.7052438125ZM13.61752828125,11.9968233125L12.33858108125,18.022085812500002C12.25805478125,18.4057698125,11.87910838125,18.6520848125,11.49542328125,18.5715588125C11.11173968125,18.491032812500002,10.86542368125,18.1120848125,10.94595008125,17.7284008125L12.22489738125,11.7031393125C12.30542278125,11.3194542125,12.68437198125,11.0731392125,13.06805518125,11.1536646125C13.45174028125,11.2389278125,13.69805528125,11.6131391125,13.61752828125,11.9968233125ZM18.444369281249998,15.3647178125L16.09963328125,17.7094528125C15.82015928125,17.9889258125,15.37015928125,17.9889258125,15.09542228125,17.7094528125C14.81572028125,17.4331438125,14.81572028125,16.9815498125,15.09542228125,16.7052418125L16.93805328125,14.8626118125L15.09542128125,13.0199804125C14.81571828125,12.7436724125,14.81571828125,12.2920780125,15.09542128125,12.0157709125C15.37172928125,11.7360678125,15.82332328125,11.7360678125,16.099631281249998,12.0157709125L18.444367281250003,14.3605068125C18.72384028125,14.6399808125,18.72384028125,15.0852428125,18.444369281249998,15.3647178125Z" fill="url(#master_svg2_29_17001)" fill-opacity="1" filter="url(#master_svg1_159_60467)"/></g></svg>