<svg xmlns="http://www.w3.org/2000/svg" xmlns:xlink="http://www.w3.org/1999/xlink" fill="none" version="1.1" width="32" height="32" viewBox="0 0 32 32"><defs><clipPath id="master_svg0_215_86449"><rect x="0" y="0" width="32" height="32" rx="0"/></clipPath><linearGradient x1="0.5" y1="0" x2="0.5" y2="1" id="master_svg1_43_19738"><stop offset="0%" stop-color="#FFC2C2" stop-opacity="1"/><stop offset="100%" stop-color="#FFFFFF" stop-opacity="1"/></linearGradient></defs><g clip-path="url(#master_svg0_215_86449)"><path d="M16.181501,12.5744914875C16.643499,12.7589921875,17.6905,13.1654929875,19.100501,13.6334911875C19.1425,12.2114915875,18.727001,10.2239918875,17.908,7.9634918875C17.174500000000002,5.9384917875,16.2865,4.2104921975,15.800499,3.6044921875C14.671,3.6224921865,13.5670004,3.7949921775,12.5019999,4.1204921575C13.1154995,5.2169921875,14.8915,8.5544919875,16.181501,12.5744914875ZM25.286501,20.9834921875C24.382,20.9834921875,23.408499,20.8859921875,22.372,20.6909921875C20.914,20.4164921875,19.323999,19.9469931875,17.65,19.2989941875C14.810499,18.1994941875,12.7270002,16.9754941875,12.6385002,16.924494187500002C12.6190004,16.910994187500002,12.5980005,16.8974931875,12.5799999,16.8839931875C11.8149991,17.6924911875,10.9285007,18.679494187499998,10.034500099999999,19.7834931875C10.3090005,20.0534931875,11.6800008,21.3509921875,13.8445005,22.5404931875C16.057001,23.7569941875,19.583499,25.1084921875,23.8165,24.6419921875C23.843502,24.6389941875,23.868999,24.6374931875,23.894501,24.6389941875C24.095499,24.4619901875,24.293501,24.2789931875,24.483997,24.0884951875C25.425999,23.1464941875,26.194,22.0709911875,26.7745,20.8874951875C26.303499,20.9504951875,25.806999,20.9834941875,25.286501,20.9834921875ZM19.366,15.0224921875C17.668,14.4779911875,16.39,13.9874921875,15.800501,13.7519911875C15.3805,14.1239921875,14.519501,14.9069911875,13.4620008,15.9719901875C14.041001,16.297492187499998,15.8485,17.2784921875,18.112000000000002,18.1544911875C21.691,19.5374921875,24.782501,20.0339911875,27.052,19.5899901875C27.143499,19.5719921875,27.233501,19.5749901875,27.317501,19.5959901875C27.616003,18.7529911875,27.8155,17.8829901875,27.918999,16.9949901875C24.6985,16.5974901875,21.494501,15.7049921875,19.366,15.0224921875ZM24.772001,15.2039921875C25.824999,15.4304901875,26.912498,15.6239911875,27.998501,15.7604921875C28,15.7079921875,28,15.6554931875,28,15.6029911875C28,13.9829921875,27.681999,12.4109916875,27.056499,10.9319924875C26.452,9.5024923875,25.5865,8.2199921875,24.4855,7.1174923875000005C24.035948,6.6678211874999995,23.551428,6.2545244874999995,23.036501,5.8814925875C23.887001,7.6049923875,24.839502,10.5809921875,24.772001,15.2039921875ZM11.907999499999999,15.7994931875C13.2939997,14.3534921875,14.4415,13.3079919875,14.9695,12.8399915875C14.632,11.7959918875,14.256999,10.7969922875,13.8804998,9.8744921875C13.276,10.139992687500001,12.1179991,10.729492687499999,10.782999499999999,11.8139924875C9.0204992,13.2464923875,6.5889997000000005,15.8549931875,4.9119997,20.1974921875L4.94349974,20.2739901875C5.3214996,21.1664921875,5.7999997,22.0019911875,6.374499800000001,22.7714921875C8.097999999999999,19.9919911875,10.3044996,17.4734931875,11.907999499999999,15.7994931875ZM17.8915,25.4549921875C16.295499,25.0589921875,14.720499,24.4349921875,13.2114983,23.6009921875C11.1085,22.4384921875,9.7329993,21.2054901875,9.2679996,20.7599911875C8.5449996,21.7094921875,7.8384998,22.7249931875,7.2099996,23.7719921875C7.310499699999999,23.8784921875,7.4109998,23.9849911875,7.514500099999999,24.0884891875C8.6170001,25.1909921875,9.8995004,26.0549911875,11.3289995,26.6594901875C12.8079996,27.2849921875,14.379999,27.6029911875,16,27.6029911875C17.620001000000002,27.6029911875,19.190499000000003,27.2849921875,20.671,26.6594901875C21.145,26.4584901875,21.604,26.2289921875,22.045,25.9709931875C20.654501,25.9679911875,19.264001,25.7954921875,17.8915,25.4549921875ZM19.068998,7.5434913875C19.615000000000002,9.0494908875,20.486498,11.8604917875,20.3155,14.0234921875C21.293499,14.3264911875,22.386999,14.6369901875,23.542,14.9189921875C23.563,11.0894913875,22.838499,8.540991787500001,22.219,7.0649914875C21.563499,5.5049916875000005,20.9035,4.8299915875,20.897499,4.8224916874999995C20.825499,4.7504917875,20.7745,4.6664917875,20.744501,4.5764916575C20.720501,4.5659915775,20.695,4.5554916275,20.671,4.5449915574999995C19.596999,4.0919921675,18.475,3.8009921775,17.321499,3.6749921815C17.8855,4.6424921875,18.530499,6.058492187500001,19.068998,7.5434913875ZM6.703000100000001,14.3324911875C7.6959999,12.9914912875,8.8239999,11.8079919875,10.0584998,10.8119926875C11.4880004,9.6599921875,12.724,9.0299925875,13.3989992,8.735993387499999C12.4719992,6.6194927875000005,11.6139994,5.0564927875,11.3259993,4.5479928275C9.8979988,5.1524927875,8.6169996,6.0164925875,7.5159996,7.1174928875C6.4134996,8.2199930875,5.5494999,9.5024933875,4.94499981,10.9319924875C4.31799999,12.4109916875,4,13.9829921875,4,15.6029911875C4,16.5554901875,4.1095,17.4914921875,4.32699996,18.401991187500002C4.99899995,16.924493187499998,5.7939999,15.5609911875,6.703000100000001,14.3324911875Z" fill="url(#master_svg1_43_19738)" fill-opacity="1"/></g></svg>