<svg xmlns="http://www.w3.org/2000/svg" xmlns:xlink="http://www.w3.org/1999/xlink" fill="none" version="1.1" width="28" height="28" viewBox="0 0 28 28"><defs><clipPath id="master_svg0_159_39057"><rect x="0" y="0" width="28" height="28" rx="0"/></clipPath><linearGradient x1="0.5" y1="0" x2="0.5" y2="1" id="master_svg1_43_19738"><stop offset="0%" stop-color="#FFC2C2" stop-opacity="1"/><stop offset="100%" stop-color="#FFFFFF" stop-opacity="1"/></linearGradient></defs><g clip-path="url(#master_svg0_159_39057)"><path d="M28.164782,25.221739L20.615347,25.221739C20.25028,25.15674,19.976208,24.94875,19.852713,24.647593C19.718384,24.318274,19.779049,23.467894,19.779049,22.875336L19.779049,11.2169895C19.779049,10.8800874,19.758467,10.5605168,19.827797,10.3687754C19.858128,10.2831945,19.95454,10.1391177,20.048788,10.043788C20.35644,9.731801,20.739923,9.769716299999999,21.35198,9.769716299999999L26.466185,9.769716299999999C26.928749,9.769716299999999,27.560307,9.7448006,28.015287,9.769716299999999C28.181032,9.7783828,28.354355,9.798965500000001,28.458351,9.844463300000001C28.487602,9.8574624,28.499517,9.897543899999999,28.532017,9.9192104C28.566681,9.9419594,28.629513,9.9484591,28.655512,9.9690413C28.718344,10.0221219,28.757341,10.1033683,28.802837,10.1683664C28.824503,10.2008643,28.859169,10.2116976,28.877586,10.243113000000001C28.947998,10.3687754,28.94475,10.492269499999999,28.999998,10.642847100000001L28.999998,24.323692C28.923086,24.828501,28.640347,25.123158,28.164782,25.22282L28.164782,25.221739ZM23.983288,24.4981C24.062368,24.625931,24.173948,24.733173,24.327774,24.747257C24.397104,24.753759,24.508682,24.747257,24.573679,24.722342C24.644096,24.695259,24.79034,24.549015,24.819586,24.473186C24.879972,24.307949,24.86204,24.124229,24.770838,23.973791C24.731165,23.906591,24.670708,23.85412,24.598597,23.824295C24.487013,23.772297,24.431768,23.7528,24.254108,23.799379C23.922623,23.88496,23.837042,24.258692,23.984369,24.499184L23.983288,24.4981ZM26.688259,10.892004499999999C26.65576,10.7468433,26.527931,10.7295113,26.295023,10.7165117C25.740383,10.6861792,25.094742,10.7165117,24.573679,10.7165117C23.674547,10.7165117,22.970413,10.6634307,22.26194,10.7165117C22.237024,10.718678,22.247858,10.7370944,22.237024,10.7414265C22.116779,10.7901745,22.010616,10.921253199999999,22.09078,11.0913286C22.155777,11.231072900000001,22.329103,11.214824700000001,22.582594,11.215907099999999C23.707047,11.2224059,24.647341,11.215907099999999,25.729548,11.215907099999999C25.926706,11.215907099999999,26.182362,11.235405400000001,26.368687,11.215907099999999C26.503014,11.2018242,26.536596,11.2202392,26.614592,11.14116C26.670923,11.0848284,26.71859,11.021998400000001,26.688259,10.892004499999999ZM28.090034,12.1648674L20.712843,12.1648674C20.684677,12.169199899999999,20.686844,12.203866,20.687925,12.239615L20.687925,23.298903L28.088949,23.298903L28.088949,12.163784L28.090034,12.1648674ZM22.623762,9.1695757L21.394232,9.1695757C21.381231,8.7286777,21.438646,7.3496513,21.320566,7.0474148C21.204653,6.7484272999999995,20.867752,6.4006916,20.5341,6.2988628C20.29361,6.2251993,19.957792,6.249032,19.599222,6.249032L6.0256232999999995,6.249032C5.687638,6.249032,5.3659008,6.2262832,5.1156611000000005,6.2988628C4.7484982,6.4172915,4.4518538,6.6909649,4.3042786,7.0474148C4.1991996,7.320403300000001,4.2306151,7.7407193,4.2306151,8.1957004L4.2306151,15.534976C4.2306151,15.965041,4.1764505,16.492604,4.2793632,16.784008999999998C4.4071912,17.145826,4.7289277,17.478396,5.065830200000001,17.582391C5.4807291,17.710217,6.1599507,17.632221,6.6885958,17.632221L19.240654,17.632221L19.240654,20.777006L4.7711760000000005,20.777006C4.3974417,20.777006,4.0182905,20.806255,3.76263505,20.702258999999998C3.6055241799999997,20.629587,3.463631,20.527760999999998,3.3444857,20.402188000000002C3.13107792,20.179029999999997,3.075830087,19.969954,3,19.628719L3,6.1732012C3.10724575,5.49939626,3.48422953,5.099662513,4.1558685,5L21.46681,5C21.957539,5.079079978,22.346441,5.3314859,22.524097,5.77346736C22.650845,6.0887046,22.622679,6.4884373,22.622679,6.9217531999999995L22.622679,9.1695757L22.623762,9.1695757ZM8.680763200000001,24.423357C8.6980953,24.410357,8.7370944,24.413605,8.754426500000001,24.398439C8.814007799999999,24.346441,8.8562555,24.271692,8.9266696,24.222944C8.945086,24.211029,8.9797506,24.213194,9.0003324,24.198029C9.020915500000001,24.182861,9.029581499999999,24.137365,9.0490818,24.123281C9.0729136,24.107033,9.102162400000001,24.114616,9.1227446,24.098366C9.5175238,23.80443,9.937274500000001,23.545622,10.3771915,23.324898L10.3771915,21.501724C10.3750257,21.465971,10.3739424,21.431309,10.4021072,21.426977L15.246572,21.426977L15.246572,23.29998C15.327817,23.390976,15.442647,23.419142,15.541226,23.47439C15.695053,23.562136,15.866214,23.663963,16.033039000000002,23.773375C16.078537,23.803707,16.157618,23.852455,16.229115,23.897955C16.291946,23.936951,16.342858,23.966198,16.401358000000002,24.022532C16.427357,24.046362,16.522685,24.104862,16.573601,24.14711C16.612597,24.179609,16.648347,24.201273,16.696013,24.246771C16.725262999999998,24.274935,16.77401,24.304184,16.819509,24.347517C16.924587000000002,24.447178,17.287488,24.659504,17.262573,24.896744C17.215992999999997,25.343061,15.703722,25.19573,15.171827,25.19573L9.2700715,25.19573C8.6504312,25.19573,8.0957875,25.077654,8.5074368,24.596672C8.5475183,24.550093,8.620099100000001,24.467762,8.679680300000001,24.422266L8.680763200000001,24.423357ZM6.2086995,8.2292814L19.378233,8.2292814L19.378233,15.754884L6.2086995,15.754884L6.2086995,8.2292814ZM21.478727,12.9329181L27.297066,12.9329181L27.297066,22.510267L21.478727,22.510267L21.478727,12.9329181Z" fill="url(#master_svg1_43_19738)" fill-opacity="1"/></g></svg>