<svg xmlns="http://www.w3.org/2000/svg" xmlns:xlink="http://www.w3.org/1999/xlink" fill="none" version="1.1" width="24" height="24" viewBox="0 0 24 24"><defs><clipPath id="master_svg0_159_39061"><rect x="0" y="0" width="24" height="24" rx="0"/></clipPath><linearGradient x1="0.5" y1="0" x2="0.5" y2="1" id="master_svg1_43_19738"><stop offset="0%" stop-color="#FFC2C2" stop-opacity="1"/><stop offset="100%" stop-color="#FFFFFF" stop-opacity="1"/></linearGradient></defs><g clip-path="url(#master_svg0_159_39061)"><path d="M12.000216,1C5.9248958,1,1,5.9297051,1,12.010959C1,18.091272,5.9248958,23.020761,12.000216,23.020761C18.075134,23.020761,23,18.091272,23,12.010959C23.000031,5.9297051,18.07535,1,12.000216,1ZM11.207495,17.25318C11.207495,17.683031,10.8580627,18.032833,10.4286041,18.032833C9.9991179,18.032833,9.6497126,17.683031,9.6497126,17.25318L9.6497126,8.6496964L7.5946894,10.706727C7.4475265,10.8539257,7.2518902,10.9348907,7.0439548,10.9348907C6.8360462,10.9348907,6.6405177,10.8539257,6.4933543,10.706727C6.3461637,10.5594997,6.26509,10.3636732,6.26509,10.1553469C6.26509,9.9470186,6.3461637,9.751193,6.4933543,9.6038589L9.8268719,6.2674894C9.8347397,6.2596126,9.8429308,6.2520599,9.8512297,6.2446947C9.998929,6.0812054,10.2083158,5.9879823,10.4286041,5.9879823C10.6366196,5.9879823,10.8321476,6.0690279,10.979311,6.2163615C11.126502,6.3636689,11.207576,6.5594959,11.207496,6.7677145L11.207495,17.25318ZM17.506784,14.416901L14.173347,17.753164C14.164538,17.762087,14.155729,17.770073,14.148264,17.776579C14.000564,17.93977,13.791501,18.032806,13.571428,18.032806C13.141861,18.032806,12.792427,17.683006,12.792427,17.253155L12.792427,6.7676077C12.792427,6.3377295,13.14186,5.9879827,13.571428,5.9879827C14.000887,5.9879827,14.350211,6.337729,14.350211,6.7676077L14.350211,15.371065L16.405208000000002,13.31409C16.552584,13.166944,16.748141,13.086004,16.956048,13.086004C17.163958,13.086004,17.359486,13.166971,17.506569,13.313955C17.653946,13.461369,17.73494,13.657225,17.73494,13.865551C17.73494,14.07374,17.653946,14.269621,17.506784,14.416901Z" fill="url(#master_svg1_43_19738)" fill-opacity="1"/></g></svg>