<svg xmlns="http://www.w3.org/2000/svg" xmlns:xlink="http://www.w3.org/1999/xlink" fill="none" version="1.1" width="20" height="20" viewBox="0 0 20 20"><defs><linearGradient x1="0.5" y1="0" x2="0.5" y2="1" id="master_svg0_43_19738"><stop offset="0%" stop-color="#FFC2C2" stop-opacity="1"/><stop offset="100%" stop-color="#FFFFFF" stop-opacity="1"/></linearGradient></defs><path d="M5.1484293999999995,6.2997787C5.1484293999999995,8.1221967,6.6257906,9.5995569,8.4482079,9.5995569C10.2706251,9.5995569,11.7479858,8.1221967,11.7479858,6.2997787C11.7479858,4.4773610999999995,10.2706251,3,8.4482079,3C6.6257906,3,5.1484293999999995,4.4773610999999995,5.1484293999999995,6.2997787ZM10.0289621,9.786407L7.4354782,9.786407C4.4327922,9.786407,2,12.2192001,2,15.221886C2,16.128111,2.73619062,16.864302000000002,3.6424149999999997,16.864302000000002L13.511853,16.864302000000002C14.223753,16.864302000000002,14.801121,16.286932999999998,14.801121,15.575034L14.801121,14.558567C14.801121,11.9239759,12.663552,9.786407,10.0289621,9.786407ZM12.170268,6.273619699999999C12.170268,7.1462111,11.852622,7.9440627,11.3257036,8.558800699999999C11.2640429,8.6298037,11.2677803,8.736308600000001,11.3331776,8.805443799999999C11.789093,9.2781749,12.42999,9.5715303,13.138152,9.5715303C14.532056,9.5715303,15.660633,8.437347899999999,15.651291,7.0415754C15.641948,5.6775675,14.532056,4.5620707,13.168048,4.5471226C12.783136,4.5433856,12.418778,4.6237314000000005,12.09179,4.7750801C11.9759426,4.8292665,11.9180193,4.9619302,11.9609947,5.0815148C12.097396,5.4514785,12.170268,5.8532069,12.170268,6.273619699999999ZM13.590331,9.980732L12.865352,9.980732C12.717739,9.980732,12.663553,10.175056900000001,12.790611,10.2516651C14.234964,11.1093092,15.202849,12.6844578,15.202849,14.487564L15.202849,15.535794C15.202849,15.817938,15.115029,16.079529,14.963681,16.296276C14.896416,16.391569,14.963681,16.524234,15.081397,16.524234L16.807895000000002,16.524234C17.465609,16.524234,18,15.989841,18,15.332129L18,14.394139C18,11.9557409,16.024991,9.980732,13.590331,9.980732Z" fill="url(#master_svg0_43_19738)" fill-opacity="1"/></svg>