<svg xmlns="http://www.w3.org/2000/svg" xmlns:xlink="http://www.w3.org/1999/xlink" fill="none" version="1.1" width="24" height="24" viewBox="0 0 24 24"><defs><clipPath id="master_svg0_159_71498"><rect x="0" y="0" width="24" height="24" rx="0"/></clipPath><filter id="master_svg1_159_71499" filterUnits="objectBoundingBox" color-interpolation-filters="sRGB" x="-0.25" y="-0.3333333333333333" width="1.5" height="1.6666666666666667"><feFlood flood-opacity="0" result="BackgroundImageFix"/><feColorMatrix in="SourceAlpha" type="matrix" values="0 0 0 0 0 0 0 0 0 0 0 0 0 0 0 0 0 0 127 0"/><feOffset dy="0" dx="0"/><feGaussianBlur stdDeviation="1.5"/><feColorMatrix type="matrix" values="0 0 0 0 1 0 0 0 0 0.8156862854957581 0 0 0 0 0.8156862854957581 0 0 0 0.30000001192092896 0"/><feBlend mode="normal" in2="BackgroundImageFix" result="effect1_dropShadow"/><feBlend mode="normal" in="SourceGraphic" in2="effect1_dropShadow" result="shape"/></filter><linearGradient x1="0.5" y1="1" x2="0.5" y2="0" id="master_svg2_29_17001"><stop offset="0%" stop-color="#FFDBDB" stop-opacity="0.800000011920929"/><stop offset="45.873382687568665%" stop-color="#FFFFFF" stop-opacity="1"/></linearGradient></defs><g clip-path="url(#master_svg0_159_71498)"><path d="M7.8818359375,14.2705078125Q7.8818359375,13.8134768125,7.7060547375,13.4033198125Q7.5302734375,12.9931640125,7.2197265375,12.6826172125Q6.9091797375,12.3720703125,6.4990234375,12.1962890125Q6.0888671375,12.0205078125,5.6318359375,12.0205078125L4.8818359375,12.0205078125L4.8818359375,3.7705078125Q4.8818359375,3.4658203125,4.6591797375,3.2431640625Q4.4365234375,3.0205078125,4.1318359375,3.0205078125Q3.8271484375,3.0205078125,3.6044921375,3.2431640625Q3.3818359375,3.4658203125,3.3818359375,3.7705078125L3.3818359375,12.0205078125L2.6318359375,12.0205078125Q2.1748047374999997,12.0205078125,1.7646484375,12.1962890125Q1.3544921875,12.3720703125,1.0439453175,12.6826172125Q0.7333984375,12.9931640125,0.5576171875,13.4033198125Q0.3818359375,13.8134768125,0.3818359375,14.2705078125L0.3818359375,17.2705078125Q0.3818359375,17.5283198125,0.4814453125,17.6748048125Q0.5810546875,17.8212888125,0.7392578175,17.8974608125Q0.8974609375,17.9736328125,1.0908203175,17.9970698125Q1.2841796875,18.0205078125,1.4833984375,18.0205078125L1.8818359375,18.0205078125L1.8818359375,20.2705078125Q1.8818359375,20.5751958125,2.1044921375000003,20.7978518125Q2.3271484375,21.0205078125,2.6318359375,21.0205078125Q2.9365234375,21.0205078125,3.1591797375,20.7978518125Q3.3818359375,20.5751958125,3.3818359375,20.2705078125L3.3818359375,18.0205078125L4.8818359375,18.0205078125L4.8818359375,20.2705078125Q4.8818359375,20.5751958125,5.1044921375,20.7978518125Q5.3271484375,21.0205078125,5.6318359375,21.0205078125Q5.9365234375,21.0205078125,6.1591797375,20.7978518125Q6.3818359375,20.5751958125,6.3818359375,20.2705078125L6.3818359375,18.0205078125L6.7802734375,18.0205078125Q6.9794921375,18.0205078125,7.1728515375,17.9970698125Q7.3662109375,17.9736328125,7.5244140375,17.8974608125Q7.6826171375,17.8212888125,7.7822265375,17.6748048125Q7.8818359375,17.5283198125,7.8818359375,17.2705078125L7.8818359375,14.2705078125ZM24.3818359375,9.7705078125Q24.3818359375,9.1494140125,23.9365239375,8.7041016125Q23.5029299375,8.2705078125,22.8818359375,8.2705078125L21.3818359375,8.2705078125L21.3818359375,6.688476612500001Q21.3818359375,5.9501953125,21.0830079375,5.282226612500001Q20.7841799375,4.6142578125,20.2861329375,4.1162109125Q19.7880859375,3.6181640625,19.1201169375,3.3193359325Q18.4521479375,3.0205078125,17.7138669375,3.0205078125L6.3818359375,3.0205078125L6.3818359375,4.5205078125L17.6318359375,4.5205078125Q18.0888669375,4.5205078125,18.4990239375,4.6962890125Q18.9091799375,4.8720703125,19.2197269375,5.1826172125Q19.5302739375,5.493164012499999,19.7060549375,5.9033203125Q19.8818359375,6.313476612500001,19.8818359375,6.7705078125L19.8818359375,14.2705078125Q19.8818359375,14.7275388125,19.7060549375,15.1376958125Q19.5302739375,15.5478518125,19.2197269375,15.8583988125Q18.9091799375,16.1689458125,18.4990239375,16.3447268125Q18.0888669375,16.5205078125,17.6318359375,16.5205078125L9.3818359375,16.5205078125L9.3818359375,18.0205078125L17.7138669375,18.0205078125Q18.4638669375,18.0205078125,19.1259769375,17.7216798125Q19.7880859375,17.4228518125,20.2861329375,16.9248048125Q20.7841799375,16.4267578125,21.0771479375,15.7587888125Q21.3701169375,15.0908198125,21.3818359375,14.3525388125L21.3818359375,12.7705078125L22.8818359375,12.7705078125Q23.1865239375,12.7705078125,23.4560549375,12.6533203125Q23.7255859375,12.5361328125,23.9365239375,12.3251953125Q24.1474609375,12.1142578125,24.2646479375,11.8447266125Q24.3818359375,11.5751953125,24.3818359375,11.2705078125L24.3818359375,9.7705078125ZM6.3818359375,6.0205078125L6.3818359375,10.5205078125L6.4404297375,10.5205078125Q7.0498047375,10.5205078125,7.5830078375,10.7666016125Q8.1162109375,11.0126953125,8.5146484375,11.4228516125Q8.9130859375,11.8330078125,9.1474609375,12.3779297125Q9.3818359375,12.9228516125,9.3818359375,13.5205078125L9.3818359375,15.0205078125L17.2568359375,15.0205078125Q17.7255859375,15.0205078125,18.0537109375,14.6923828125Q18.3818359375,14.3642578125,18.3818359375,13.8955078125L18.3818359375,7.1455078125Q18.3818359375,6.6767578125,18.0537109375,6.3486328125Q17.7255859375,6.0205078125,17.2568359375,6.0205078125L6.3818359375,6.0205078125Z" fill="url(#master_svg2_29_17001)" fill-opacity="1" filter="url(#master_svg1_159_71499)"/></g></svg>