<svg xmlns="http://www.w3.org/2000/svg" xmlns:xlink="http://www.w3.org/1999/xlink" fill="none" version="1.1" width="18" height="13.388400077819824" viewBox="0 0 18 13.388400077819824"><defs><linearGradient x1="0.5" y1="0" x2="0.5" y2="1" id="master_svg0_43_19738"><stop offset="0%" stop-color="#FFC2C2" stop-opacity="1"/><stop offset="100%" stop-color="#FFFFFF" stop-opacity="1"/></linearGradient></defs><path d="M2.2778995,3.3471C2.2778995,5.1957002,3.8069999,6.6942,5.6933999,6.6942C7.5798001,6.6942,9.1098003,5.1957002,9.1098003,3.3471C9.1098003,1.4985001,7.5807004,0,5.6933999,0C3.8069999,0,2.2778995,1.4984999,2.2778995,3.3471ZM10.202401,5.0526004C10.202401,6.5871005,11.472301,7.8309007,13.0374,7.8309007C14.6034,7.8309007,15.8724,6.5871005,15.8724,5.0526004C15.8724,3.5181,14.6043,2.2743001,13.0374,2.2743001C11.472301,2.2743001,10.202401,3.5181,10.202401,5.0526004ZM0,12.1329L0,12.4119C0,13.3884,1.9755003,13.3884,4.4127002,13.3884L7.1351995,13.3884C7.0244145,13.132612,6.9691978,12.856219,6.9731998,12.5775L6.9731998,12.346201C6.9731998,10.639801,7.8624005,9.1404009,9.2034006,8.2566004C8.5976162,7.9632745,7.9333644,7.8106713,7.2603002,7.8102002L4.4127002,7.8102002C1.9755,7.8102002,0,9.7452002,0,12.1329ZM8.3123999,12.346201L8.3123999,12.5775C8.3123999,13.387501,9.9521999,13.387501,11.9754,13.387501L14.338799,13.387501C16.361101,13.387501,18,13.3578,18,12.5775L18,12.346201C18,10.364401,16.361101,8.7579012,14.338799,8.7579012L11.9754,8.7579012C9.9521999,8.7579012,8.3123999,10.364401,8.3123999,12.346201Z" fill="url(#master_svg0_43_19738)" fill-opacity="1"/></svg>