<svg xmlns="http://www.w3.org/2000/svg" xmlns:xlink="http://www.w3.org/1999/xlink" fill="none" version="1.1" width="32" height="32" viewBox="0 0 32 32"><defs><clipPath id="master_svg0_170_57820"><rect x="0" y="0" width="32" height="32" rx="0"/></clipPath><linearGradient x1="0.5" y1="1" x2="0.5" y2="0" id="master_svg1_29_17013"><stop offset="0%" stop-color="#868686" stop-opacity="0.800000011920929"/><stop offset="50.776487588882446%" stop-color="#FFFFFF" stop-opacity="1"/></linearGradient></defs><g clip-path="url(#master_svg0_170_57820)"><path d="M24.030872,29.966915C24.474588,29.966915,24.833784,29.60533,24.847872,29.141848L24.854914,28.852581L24.869001,28.852581C24.879566,28.6422,24.886608,28.45812,24.886608,28.280619C24.886608,23.307188,21.932035,18.905718,17.357557,17.064922L16.843412,16.857837L17.297689,16.552132C19.488089,15.072924,20.794579,12.601001,20.794579,9.9449973C20.794579,5.563250099999999,17.273039,2,12.941544,2C8.6100502,2,5.0885105,5.5632505000000005,5.0885105,9.9449973C5.0885105,12.601,6.3950019,15.072923,8.585399200000001,16.552132L9.0396776,16.857837L8.5255327,17.064922C3.9545722,18.909004,1,23.310472,1,28.280619C1,28.45812,1.007043086,28.638912,1.017607719,28.852577L1.038736943,28.852577L1.042258486,29.14842C1.042258486,29.618479,1.41202021,29.999786,1.86277735,29.999786C2.3170561000000003,30.003073,23.583637,29.966915,24.030872,29.966915ZM22.013029,17.577714999999998C24.069611,17.807814,25.928982,18.800528,27.263645,20.381639C28.591267,21.956179,29.323746,24.023781,29.323746,26.20315C29.323746,26.683071,29.700552,27.07095,30.161873,27.07095C30.609108,27.07095,30.975348,26.706079,30.992958,26.239309L30.996479,26.213009C30.996479,26.209724,30.996479,26.20315,31,26.199862C30.992958,22.061365,28.534924,18.402786,24.731659,16.874271L24.217514,16.667181L24.671793,16.36148C26.49243,15.135379,27.580587,13.084208,27.580587,10.8752556C27.580587,7.8182225,25.541613,5.1950912,22.615215,4.475209700000001L22.597607,4.4817841000000005L22.516611,4.475209700000001C22.499002,4.475209700000001,22.481396,4.4719224,22.463789,4.4686353C22.456743,4.4686353,22.449701,4.4653480000000005,22.442659,4.4653480000000005C21.974293,4.4653480000000005,21.593967,4.8630911999999995,21.593967,5.3462996C21.593967,5.7834878,21.89682,6.1483598,22.315884,6.2141023L22.35462,6.2206764L22.389835,6.2338252C22.432095,6.2502608,22.491961,6.2699838,22.569433,6.2897062C22.587042,6.2929935,22.597607,6.2962804,22.60465,6.2995682C24.527411,6.9569941,25.819817,8.7714906,25.819817,10.8095131C25.819817,13.087495,24.213995,15.04334,21.995424,15.483814L21.960209,15.503537L21.886255,15.506826C21.361546,15.539698,20.949526,15.990034,20.949526,16.529124C20.949526,17.081361,21.372112,17.531697,21.910908,17.554707999999998L21.98134,17.557996L22.013029,17.577714999999998Z" fill="url(#master_svg1_29_17013)" fill-opacity="1"/></g></svg>