<svg xmlns="http://www.w3.org/2000/svg" xmlns:xlink="http://www.w3.org/1999/xlink" fill="none" version="1.1" width="32" height="32" viewBox="0 0 32 32"><defs><clipPath id="master_svg0_170_96503"><rect x="0" y="0" width="32" height="32" rx="0"/></clipPath><linearGradient x1="0.5" y1="1" x2="0.5" y2="0" id="master_svg1_29_17013"><stop offset="0%" stop-color="#868686" stop-opacity="0.800000011920929"/><stop offset="50.776487588882446%" stop-color="#FFFFFF" stop-opacity="1"/></linearGradient></defs><g clip-path="url(#master_svg0_170_96503)"><path d="M18.9375,14.63696575C18.9375,14.98266885,18.658203,15.26196575,18.3125,15.26196575L12.687499500000001,15.26196575C12.515624500000001,15.26196575,12.359374500000001,15.19165325,12.2460933,15.07837205C12.132812000000001,14.96509075,12.062499500000001,14.80884075,12.062499500000001,14.63696575C12.062499500000001,13.45141885,12.664062000000001,12.40454385,13.5761709,11.78735635C12.8457026,11.21509075,12.374999500000001,10.32446575,12.374999500000001,9.32446575C12.374999500000001,7.61157535,13.7519531,6.220950384,15.4589844,6.19946601865C17.173828,6.177981634,18.597656,7.5588409500000004,18.624999000000003,9.273684750000001C18.640624000000003,10.29516935,18.167968000000002,11.205325649999999,17.423827,11.78735635C17.880858,12.09595015,18.259765,12.51196575,18.523437,12.99829385C18.787108,13.48657515,18.937497999999998,14.04321575,18.9375,14.63696575ZM25.5,25.57446475C25.5,25.92016775,25.220703,26.19946475,24.875,26.19946475L19.249999000000003,26.19946475C19.078124000000003,26.19946475,18.921872999999998,26.12915275,18.808592,26.01587075C18.695311,25.90258975,18.624997999999998,25.74633975,18.624997999999998,25.57446475C18.624997999999998,24.38891775,19.226561,23.34204275,20.138669999999998,22.72485575C19.408202,22.15258975,18.9375,21.26196475,18.9375,20.26196575C18.9375,18.549074750000003,20.314453,17.158448749999998,22.021482,17.13696575C23.736326,17.11548175,25.160154,18.49633975,25.187498,20.21118475C25.203123,21.232668750000002,24.730467,22.142824750000003,23.986326,22.72485575C24.443357,23.03344875,24.822266,23.44946675,25.085936,23.93579275C25.349607,24.42407375,25.499998,24.98071475,25.5,25.57446475ZM12.374999500000001,25.57446475C12.374999500000001,25.92016775,12.0957022,26.19946475,11.749999500000001,26.19946475L6.12499994,26.19946475C5.95312494,26.19946475,5.79687497,26.12915275,5.68359374,26.01587075C5.570312485,25.90258975,5.499999981373319,25.74633975,5.499999981373319,25.57446475C5.499999981373319,24.38891775,6.10156244,23.34204275,7.0136718,22.72485575C6.28320307,22.15258975,5.81249997,21.26196475,5.81249997,20.26196575C5.81249997,18.549074750000003,7.189453,17.158448749999998,8.8964841,17.13696575C10.6113276,17.11548175,12.0351558,18.49633975,12.062499500000001,20.21118475C12.078124500000001,21.232668750000002,11.6054683,22.142824750000003,10.8613281,22.72485575C11.3183594,23.03344875,11.6972651,23.44946675,11.9609375,23.93579275C12.2246094,24.42407375,12.375,24.98071475,12.374999500000001,25.57446475ZM17.908203,20.26196575C17.792969,20.46313775,17.582031,20.57446575,17.367188,20.57446575C17.26172,20.57446575,17.154298,20.54712275,17.054688,20.490482749999998L15.5,19.593996750000002L13.9453115,20.49048075C13.6464844,20.66235575,13.2636714,20.560793750000002,13.0917964,20.26196575C13.0351558,20.16430975,13.007811499999999,20.05688775,13.007811499999999,19.94946575C13.007811499999999,19.732668750000002,13.1191397,19.52368375,13.320311499999999,19.408449750000003L14.8749981,18.51196575L14.8749981,16.82446475C14.8749981,16.47876275,15.1542959,16.19946575,15.4999981,16.19946575C15.671873,16.19946575,15.828123,16.26977875,15.941404,16.38305975C16.054686,16.49634075,16.124997999999998,16.65259075,16.124997999999998,16.82446675L16.124997999999998,18.51001375L17.679686,19.406496750000002C17.978514,19.58032575,18.080076,19.96313775,17.908203,20.26196575Z" fill="url(#master_svg1_29_17013)" fill-opacity="1"/></g></svg>