<svg xmlns="http://www.w3.org/2000/svg" xmlns:xlink="http://www.w3.org/1999/xlink" fill="none" version="1.1" width="16" height="16" viewBox="0 0 16 16"><defs><linearGradient x1="0.5" y1="0" x2="0.5" y2="1" id="master_svg0_43_19738"><stop offset="0%" stop-color="#FFC2C2" stop-opacity="1"/><stop offset="100%" stop-color="#FFFFFF" stop-opacity="1"/></linearGradient></defs><path d="M10.2775469,8.0618229C10.2775469,7.9427137,10.180891,7.8460574,10.0617809,7.8460574L7.2569532,7.8460574C7.1378441,7.8460574,7.0411878,7.9427137,7.0411878,8.0618229L7.0411878,14.966042C7.0411878,15.085151,7.1378441,15.181808,7.2569532,15.181808L10.0617809,15.181808C10.1808901,15.181808,10.2775469,15.085152,10.2775469,14.966042L10.2775469,8.0618229ZM15.789469,4.8794322L13.645703,1.14038527C13.543,0.96236968,13.374719,0.948994637,13.272016,1.12702584L11.128703,4.8863382C11.026,5.0641193,11.110156,5.25701,11.315547,5.25701L12.003593,5.25701L12.003593,14.858167C12.003593,14.976838,12.153766,15.181823,12.272422,15.181823L14.64575,15.181823C14.764421,15.181823,14.808437,14.976838,14.808437,14.858167L14.808437,5.2570105L15.60264,5.2570105C15.808046,5.2570105,15.892187,5.0574479,15.789484,4.879447900000001L15.789469,4.8794322ZM1.92473429,5.082057C1.92473429,4.2311039,2.6145155,3.5413227,3.4654686,3.5413227C4.316421699999999,3.5413227,5.0062032,4.2311039,5.0062032,5.082057C5.0062032,5.9330101,4.316421699999999,6.6227913,3.4654686,6.6227913C2.6145155,6.6227913,1.92473429,5.9330101,1.92473429,5.082057ZM3.5137811,14.534541C3.5137811,14.966057,3.2455781,15.236197,2.8371718,15.197353C2.4811718000000003,15.163697,2.2945311,14.825603,2.2945311,14.467869L2.2945311,10.9022903C2.2945311,11.195291,1.94371873,11.430025,1.6470468600000001,11.430025C1.31931251,11.430025,1,11.152353,1,10.8740091L1,8.334322C1,7.6726031,1.4826563,7.1988063,2.1443594,7.1988063L2.6720936,7.1988063L3.5351093,8.709103599999999L4.3981249,7.1988068L4.9135783,7.1988068C5.5752974,7.1988068,6.1781254,7.6726193,6.1781254,8.334556599999999L6.1781254,10.8742437C6.1781254,11.152556,5.8588128,11.43026,5.5310783,11.43026C5.2344222,11.43026,4.8835938,11.195525,4.8835938,10.9025249L4.8835938,14.468103C4.8835938,14.825822,4.6369846,15.163682,4.2807658,15.197588C3.8723283,15.236229,3.544172,14.966088,3.544172,14.534573L3.5137501,14.534573L3.5137811,14.534541Z" fill="url(#master_svg0_43_19738)" fill-opacity="1"/></svg>