<svg xmlns="http://www.w3.org/2000/svg" xmlns:xlink="http://www.w3.org/1999/xlink" fill="none" version="1.1" width="24" height="24" viewBox="0 0 24 24"><defs><clipPath id="master_svg0_91_96874"><rect x="0" y="0" width="24" height="24" rx="0"/></clipPath><linearGradient x1="0.5" y1="0" x2="0.5" y2="1" id="master_svg1_91_92201"><stop offset="0%" stop-color="#F7EFEF" stop-opacity="1"/><stop offset="47.88399934768677%" stop-color="#E8D1D1" stop-opacity="1"/><stop offset="100%" stop-color="#975555" stop-opacity="1"/></linearGradient></defs><g clip-path="url(#master_svg0_91_96874)"><path d="M1.484375,11.984375C1.484375,6.1853747,6.1853752,1.484375,11.984375,1.484375C17.783375,1.484375,22.484375,6.1853747,22.484375,11.984373C22.484375,17.783375,17.783379,22.484375,11.984375,22.484375C6.1853752,22.484375,1.484375,17.783379,1.484375,11.984375ZM16.613773000000002,15.475649C17.654257,16.097351,18.447851,16.868867,18.928156,17.711143C19.483953,17.039143,19.936438,16.294041,20.277756,15.487111C20.746649,14.378493,20.984398,13.200009,20.984398,11.984352C20.984398,10.7686958,20.746649,9.590188,20.277756,8.481594600000001C19.824524,7.4100556,19.1754,6.4474068,18.34836,5.6203909C17.521345,4.7933521,16.558695,4.1442034,15.487157,3.6909926C14.378539,3.2221019,13.200055,2.9843519,11.984398,2.9843519C10.7687426,2.9843519,9.5902348,3.2221019,8.481640800000001,3.6909926C7.4101019,4.1442266,6.4474525,4.7933521,5.6204376,5.6203909C4.7933984,6.4474068,4.1442497,7.4100556,3.6910391,8.481594600000001C3.2221482999999997,9.5902119,2.9843985,10.7686958,2.9843985,11.984352C2.9843985,13.200009,3.2221482999999997,14.378517,3.6910391,15.487111C4.0336015,16.297016,4.4882655,17.044601999999998,5.0468988,17.718548C5.5282812,16.874985000000002,6.3254375,16.101829000000002,7.3717813,15.47825C8.7634306,14.648868,10.4071016,14.192118,12.000008,14.192118C13.589985,14.192118,15.228523,14.647952,16.613773000000002,15.475649ZM8.2496095,8.910546799999999C8.2496095,6.8427973,9.9318609,5.1605468000000005,11.99961,5.1605468000000005C14.067383,5.1605468000000005,15.749609,6.8427734,15.749609,8.910546799999999C15.749609,10.9783201,14.067383,12.660547,11.99961,12.660547C9.9318609,12.660547,8.2496095,10.9782972,8.2496095,8.910546799999999ZM9.7496099,8.910546799999999C9.7496099,10.1512117,10.7589455,11.1605473,11.99961,11.1605473C13.240274,11.1605473,14.24961,10.1512117,14.24961,8.910546799999999C14.24961,7.6698828,13.240274,6.6605468,11.99961,6.6605468C10.7589455,6.6605468,9.7496099,7.6698828,9.7496099,8.910546799999999ZM8.4816179,20.277735C9.5902348,20.746626,10.7687187,20.984375,11.984375,20.984375C13.20003,20.984375,14.378539,20.746626,15.487107,20.277735C16.333905,19.919586,17.112313999999998,19.43858,17.809906,18.844625C17.52458,18.094814,16.823164,17.348118,15.844368,16.763281C14.70507,16.082539,13.30386,15.692117,12.000008,15.692117C10.6927109,15.692117,9.2856874,16.083827,8.1396885,16.766796C7.1553836,17.353391000000002,6.4511099,18.100813,6.1657119,18.85046C6.8615475,19.441719,7.6376104,19.920757,8.4816179,20.277735Z" fill-rule="evenodd" fill="url(#master_svg1_91_92201)" fill-opacity="1" style="mix-blend-mode:passthrough"/></g></svg>