<svg xmlns="http://www.w3.org/2000/svg" xmlns:xlink="http://www.w3.org/1999/xlink" fill="none" version="1.1" width="17.521728515625" height="17.521484375" viewBox="0 0 17.521728515625 17.521484375"><defs><linearGradient x1="0.5" y1="0" x2="0.5" y2="1" id="master_svg0_43_19738"><stop offset="0%" stop-color="#FFC2C2" stop-opacity="1"/><stop offset="100%" stop-color="#FFFFFF" stop-opacity="1"/></linearGradient></defs><path d="M10.94762614375,12.25015784375C10.85210324375,12.34450084375,10.70763974375,12.39167284375,10.56376644375,12.43884484375C10.37154194375,12.39167284375,10.22766684375,12.34450084375,10.13096424375,12.25015784375C9.98650164375,12.10864284375,9.93873974375,12.01488884375,9.93873974375,11.87337284375L9.93873974375,15.26856184375C9.93873974375,15.41007484375,9.89097884375,15.55159084375,9.74651524375,15.64652484375C9.66427804375,15.76498084375,9.52926444375,15.83567984375,9.38506124375,15.83579984375L9.36088564375,15.83521184375L9.36206434375,15.83521184375C9.26654244375,15.83521184375,9.16983984375,15.83521184375,9.12207794375,15.78803884375C9.05003404375,15.75277884375,8.98492094375,15.70484284375,8.92985294375,15.64652484375C8.833740743749999,15.55218284375,8.73703954375,15.41007684375,8.73703954375,15.26856184375C8.73703954375,15.41007484375,8.689277143750001,15.55159084375,8.54540344375,15.64652484375L8.400940443749999,15.78803884375C8.30423924375,15.83521184375,8.20812554375,15.83521184375,8.16036464375,15.83521184375C7.96814014375,15.83521184375,7.87202694375,15.78803884375,7.72756384375,15.64652484375C7.63204054375,15.55218284375,7.53533884375,15.41007684375,7.53533884375,15.26856184375L7.53533884375,11.87337284375C7.53533884375,12.01488884375,7.48757694375,12.10864284375,7.39087534375,12.25015784375C7.24700074375,12.34450084375,7.10253764375,12.39167284375,6.95866394375,12.43884484375C6.80197574375,12.40476284375,6.65364554375,12.33981884375,6.52232594375,12.24779984375L6.52586364375,12.25015784375C6.43034024375,12.10864284375,6.38139964375,12.01488884375,6.38139964375,11.87337284375L6.38139964375,9.32668684375C6.38139964375,8.760626343750001,6.57480384375,8.28831864375,6.95866394375,7.86377234375C6.95866394375,7.81660124375,7.00701474375,7.81660124375,7.05536604375,7.81660124375C7.48816724375,7.34488344375,8.06543164375,7.10902504375,8.73703954375,7.10902504375C9.41041564375,7.10902504375,9.98709014375,7.34488344375,10.41930294375,7.81660124375C10.46706294375,7.81660124375,10.51482484375,7.81660124375,10.56317614375,7.86377234375C10.94703674375,8.28831864375,11.14044084375,8.76003554375,11.14044084375,9.32668684375L11.14044084375,11.87337284375C11.14044084375,11.92054584375,11.14044084375,11.96712684375,11.09208874375,12.06206084375C11.09326844375,12.10864284375,11.04550644375,12.15640284375,10.94880394375,12.25074684375L10.94762614375,12.25015784375ZM3.45380284375,6.99168534375C4.26793524375,6.99168534375,4.92792054375,6.33170034375,4.92792054375,5.51756764375C4.92792054375,4.7034349437500005,4.26793524375,4.04345014375,3.45380284375,4.04345014375C2.63967004375,4.04345014375,1.97968530375,4.7034349437500005,1.97968530375,5.51756764375C1.97968530375,6.33170034375,2.63967004375,6.99168534375,3.45380284375,6.99168534375ZM8.760626343750001,6.99168534375C9.57475854375,6.99168534375,10.23474314375,6.33170034375,10.23474314375,5.51756764375C10.23474314375,4.7034349437500005,9.57475854375,4.04345014375,8.760626343750001,4.04345014375C7.94649364375,4.04345014375,7.28650804375,4.7034349437500005,7.28650804375,5.51756764375C7.28650804375,6.33170034375,7.94649364375,6.99168534375,8.760626343750001,6.99168534375ZM14.06744884375,6.99168534375C14.88158184375,6.99168534375,15.54156784375,6.33170034375,15.54156784375,5.51756764375C15.54156784375,4.7034349437500005,14.88158184375,4.04345014375,14.06744884375,4.04345014375C13.25331684375,4.04345014375,12.59333084375,4.7034349437500005,12.59333084375,5.51756764375C12.59333084375,6.33170034375,13.25331684375,6.99168534375,14.06744884375,6.99168534375ZM11.41403784375,4.04345014375C12.22817084375,4.04345014375,12.88815484375,3.38346504375,12.88815484375,2.56933244375C12.88815484375,1.7551997937500001,12.22817084375,1.09521484375,11.41403784375,1.09521484375C10.59990314375,1.09521484375,9.93991944375,1.7551997937500001,9.93991944375,2.56933244375C9.93991944375,3.38346504375,10.59990314375,4.04345014375,11.41403784375,4.04345014375ZM6.10721394375,4.04345014375C6.92134664375,4.04345014375,7.58133174375,3.38346504375,7.58133174375,2.56933244375C7.58133174375,1.7551997937500001,6.92134664375,1.09521484375,6.10721394375,1.09521484375C5.29308124375,1.09521484375,4.63309674375,1.7551997937500001,4.63309674375,2.56933244375C4.63309674375,3.38346504375,5.29308124375,4.04345014375,6.10721394375,4.04345014375ZM14.02263584375,7.10961484375C14.69483184375,7.10961484375,15.27209784375,7.34547374375,15.70489884375,7.81719114375C15.75265984375,7.81719114375,15.80101184375,7.81719114375,15.84936384375,7.86436314375C16.23322184375,8.28890894375,16.42662684375,8.760626343750001,16.42662684375,9.32727714375L16.42662684375,11.87396384375C16.42662684375,11.92113384375,16.42662684375,11.96771584375,16.37827484375,12.06264984375C16.37827484375,12.10923284375,16.330513843749998,12.15699284375,16.23381284375,12.25133584375C16.13710884375,12.34567984375,15.99382584375,12.39285084375,15.84994984375,12.44002384375C15.65654884375,12.39285084375,15.51385184375,12.34567984375,15.41714984375,12.25133584375C15.27268684375,12.10982084375,15.22492384375,12.01606684375,15.22492384375,11.87455084375L15.22492384375,15.26973784375C15.22492384375,15.41125584375,15.17657284375,15.55276984375,15.03269984375,15.64770284375C14.94592184375,15.77267484375,14.80079384375,15.84401284375,14.64884084375,15.83638984375C14.55272884375,15.83638984375,14.45602584375,15.83638984375,14.40826384375,15.78921884375C14.33625684375,15.75386184375,14.27099984375,15.70616484375,14.21544884375,15.64829484375C14.11992784375,15.55394984375,14.02322484375,15.41184384375,14.02322484375,15.27032884375C14.02322484375,15.41184284375,13.97546384375,15.55335884375,13.83099984375,15.64829484375L13.68653584375,15.78980784375C13.59101284375,15.83697984375,13.49489884375,15.83697984375,13.44654984375,15.83697984375C13.25373584375,15.83697984375,13.15821284375,15.78980784375,13.01374884375,15.64829484375C12.91763684375,15.55394984375,12.82152484375,15.41184384375,12.82152484375,15.27032884375L12.82152484375,11.87513984375C12.82152484375,12.01665584375,12.77317284375,12.11041084375,12.67705984375,12.25192584375C12.53318684375,12.34626984375,12.38872284375,12.39343984375,12.24484984375,12.44061284375C12.08799784375,12.40703684375,11.93956984375,12.34204884375,11.80851084375,12.24956784375L11.81204884375,12.25192584375C11.71652584375,12.11041084375,11.66817584375,12.01665584375,11.66817584375,11.87513984375L11.66817584375,9.32786654375C11.66817584375,8.76180454375,11.86040084375,8.28949784375,12.24543984375,7.86495164375C12.24543984375,7.81777954375,12.29202084375,7.81777954375,12.34096384375,7.81777954375C12.77376384375,7.34724144375,13.35043884375,7.11138244375,14.02263584375,7.11138244375L14.02263584375,7.10961484375ZM5.85307644375,9.32727714375L5.85307644375,11.87396384375C5.85307644375,11.92113584375,5.85307644375,11.96771684375,5.80413534375,12.06265084375C5.80413534375,12.10923284375,5.75637434375,12.15699384375,5.65967274375,12.25133784375C5.56414934375,12.34567984375,5.42027564375,12.39285284375,5.27522234375,12.44002484375C5.08358714375,12.39285284375,4.9391233437499995,12.34567984375,4.84242124375,12.25133784375C4.69795774375,12.10982284375,4.65078564375,12.01606784375,4.65078564375,11.87455384375L4.65078564375,15.26973884375C4.65078564375,15.41125584375,4.6030240437500005,15.55276984375,4.458560943749999,15.64770484375C4.37178394375,15.77267684375,4.22665524375,15.84401384375,4.07470104375,15.83639184375C3.97799874375,15.83639184375,3.88188604375,15.83639184375,3.83353524375,15.78921884375C3.76166674375,15.75420984375,3.69673924375,15.70646084375,3.64189984375,15.64829484375L3.64131044375,15.64770484375C3.54460834375,15.55335984375,3.44849564375,15.41125684375,3.44849564375,15.26973884375C3.44849564375,15.41125584375,3.40073444375,15.55276984375,3.25686074375,15.64770484375L3.11239724375,15.78921884375C3.01805364375,15.83521184375,2.92135154375,15.83521184375,2.87358984375,15.83521184375C2.68195474375,15.83521184375,2.58525264375,15.78862984375,2.44078914375,15.64652484375C2.34467654375,15.55218284375,2.24915394375,15.41066684375,2.24915394375,15.26915284375L2.24915394375,11.87337284375C2.24915394375,12.01488884375,2.20139254375,12.10864284375,2.10469044375,12.25074684375C1.96022701375,12.34508984375,1.81635314375,12.39226184375,1.6718895437499999,12.43943384375C1.5150383437500001,12.40585984375,1.36660981375,12.34087184375,1.23555076375,12.24838784375L1.23908868375,12.25074684375C1.14356590775,12.11041184375,1.09521484375,12.01547784375,1.09521484375,11.87396384375L1.09521484375,9.32727714375C1.09521484375,8.761217143749999,1.28685014375,8.28890894375,1.6718895437499999,7.86436364375C1.6718895437499999,7.81719164375,1.71965098375,7.81719164375,1.76741230375,7.81719164375C2.2002133437499998,7.34547374375,2.77747734375,7.10961484375,3.44908544375,7.10961484375C4.12305164375,7.10961484375,4.69913694375,7.34547374375,5.13193794375,7.81719164375C5.17969944375,7.81719164375,5.22746084375,7.81719164375,5.27640154375,7.86436364375C5.66026114375,8.290088143750001,5.85366584375,8.76180644375,5.85366584375,9.32786654375L5.85307644375,9.32727714375Z" fill="url(#master_svg0_43_19738)" fill-opacity="1"/></svg>