<svg xmlns="http://www.w3.org/2000/svg" xmlns:xlink="http://www.w3.org/1999/xlink" fill="none" version="1.1" width="31.999998092651367" height="31.999998092651367" viewBox="0 0 31.999998092651367 31.999998092651367"><defs><clipPath id="master_svg0_215_86007"><rect x="0" y="0" width="31.999998092651367" height="31.999998092651367" rx="0"/></clipPath><linearGradient x1="0.5" y1="0" x2="0.5" y2="1" id="master_svg1_43_19738"><stop offset="0%" stop-color="#FFC2C2" stop-opacity="1"/><stop offset="100%" stop-color="#FFFFFF" stop-opacity="1"/></linearGradient></defs><g clip-path="url(#master_svg0_215_86007)"><g><path d="M16.000000999999997,4L16.000000999999997,4.7046981500000005C15.972595,10.7696533,11.0715699,15.684141,5.0067118,15.72819C4.64429533,15.72819,4.32214779,15.677854,4,15.677854C4.17983945,9.1788735,9.4985352,4.0029612314,16.000000999999997,4ZM27.96018,14.963379C27.555573,14.919538,27.149021,14.896018,26.742058,14.892908C19.870684,14.909558,14.309151,20.4846,14.309172,27.355997L14.309172,27.889553C8.8469076,27.113878,4.61566806,22.716549,4.05078125,17.228478000000003C4.43178195,17.272635,4.81489146,17.296159,5.1984326,17.298947C12.0675001,17.271228999999998,17.621307,11.6949182,17.621252,4.8257919000000005L17.621252,4.12109375C23.17742,4.87581152,27.47024,9.3776336,27.96018,14.963379ZM26.902685,16.35235C27.269485,16.355444,27.635824,16.378968999999998,28.000002,16.422821C27.777611,22.890169,22.471174,28.018538,16.000000999999997,28.020138L15.758392,28.020138L15.758392,27.496651C15.758392,21.341824,20.747864,16.35235,26.902685,16.35235Z" fill-rule="evenodd" fill="url(#master_svg1_43_19738)" fill-opacity="1"/></g></g></svg>