<svg xmlns="http://www.w3.org/2000/svg" xmlns:xlink="http://www.w3.org/1999/xlink" fill="none" version="1.1" width="17.5216064453125" height="17.521484375" viewBox="0 0 17.5216064453125 17.521484375"><defs><linearGradient x1="0.5" y1="0" x2="0.5" y2="1" id="master_svg0_43_19738"><stop offset="0%" stop-color="#FFC2C2" stop-opacity="1"/><stop offset="100%" stop-color="#FFFFFF" stop-opacity="1"/></linearGradient></defs><path d="M3.871846,15.816815L2.6368117,15.816815L2.6368117,10.097172C2.6368117,6.8513956,5.2674322,4.2189102,8.5150738,4.2189102C11.76227,4.2189102,14.392857,6.8518748,14.392857,10.097172L14.392857,15.816797L3.8723423,15.816797L3.871846,15.816815ZM8.9403324,6.5881267L6.0407443,11.363485L8.3597574,11.363485L7.7791824,14.944979L10.67877,10.169656L8.3597574,10.169656L8.9403324,6.5881267ZM13.387057,1.3420632C13.659239,1.5006981,13.75231,1.8493044,13.595417,2.1224937L12.553121,3.934783L11.568129,3.364629L12.609929,1.5523055C12.765492,1.2805007,13.111993,1.1863474,13.38372,1.3420461L13.387039,1.3420461L13.387057,1.3420632ZM8.5131741,0C8.8541269,0,9.1297331,0.25666428,9.1297331,0.57537282L9.1297331,2.6292005L7.8965979,2.6292005L7.8965979,0.57393551C7.896615,0.25666428,8.1722221,0,8.5131922,0L8.5131741,0ZM3.6426446,1.3420632C3.9147239,1.1846181,4.2629385,1.2779819,4.4197559,1.5504233L5.4620523,3.3627295L4.4770603,3.9333799L3.4338057,2.1205945C3.2770765,1.8479679,3.3702266,1.4999356,3.6421828,1.3420461L3.6426446,1.3420632ZM0.076790862,4.9235735C0.2330808,4.6507506,0.58156097,4.5572581,0.85342264,4.7152133L2.6590903,5.762711L2.0908356,6.7515016L0.2846376,5.7025666C0.012421617,5.5446582,-0.080756336,5.1962948,0.076277554,4.9235735L0.076790862,4.9235735ZM16.952946,4.9235735C17.109835,5.1967673,17.016756,5.5453749,16.744568,5.7040043L14.939363,6.7500825L14.371108,5.7608299L16.176313,4.7137933C16.447474,4.5573225,16.794111,4.649642,16.951525,4.9202542C16.951525,4.9221535,16.952946,4.9221535,16.952946,4.9235735ZM0.6227842,15.816815L16.4088,15.816815C16.749769,15.816815,17.027275,16.09432,17.027275,16.435274C17.027275,16.776226,16.749769,17.053732,16.4088,17.053732L0.6228013,17.053732C0.28183141,17.053732,0.0043260073,16.776705,0.0043260073,16.435274C0.0035381611,16.093376,0.28090379,15.816019,0.6227842,15.816815L0.6227842,15.816815Z" fill="url(#master_svg0_43_19738)" fill-opacity="1"/></svg>