<svg xmlns="http://www.w3.org/2000/svg" xmlns:xlink="http://www.w3.org/1999/xlink" fill="none" version="1.1" width="40" height="40" viewBox="0 0 40 40"><defs><linearGradient x1="0.5" y1="0" x2="0.5" y2="1" id="master_svg0_43_19738"><stop offset="0%" stop-color="#FFC2C2" stop-opacity="1"/><stop offset="100%" stop-color="#FFFFFF" stop-opacity="1"/></linearGradient></defs><g><path d="M34.962685,3.2910624C34.962685,2.57581395,34.379128,2,33.656132,2L2.3065553000000003,2C1.58356005,2,1,2.57581395,1,3.2910624L1,36.796715C1.0056837723,37.51302,1.59023869,38.089489,2.3065553000000003,38.085194L15.506377,38.085194L18.979334,30.374969L34.962685,14.133405L34.962685,3.2910624ZM3.6131105,14.887384L3.6131105,4.718977199999999L32.35216,4.7318883L32.35216,14.887384L3.6131105,14.887384ZM11.778149,12.310678L11.778149,7.1541748L9.1650391,7.1541748L9.1650391,12.310678L11.778149,12.310678ZM19.617481,7.1541748L17.000977,7.1541748L17.000977,12.310678L19.617481,12.310678L19.617481,7.1541748ZM24.840307,7.1541748L27.450834,7.1541748L27.450859,12.310678L24.840307,12.310678L24.840307,7.1541748ZM37.171253,16.268276999999998L39.035545,18.06027L39.032967,18.065435C39.549393,18.55604,39.46418,19.446873,38.844471,20.045927L26.571634,32.285196C25.939014,32.881668000000005,25.027523,32.959131,24.511097,32.468529000000004L22.657131,30.671368Q22.143288,30.1756,22.845627,28.696043L35.121048,16.449026C35.74334,15.852555,36.654827,15.77251,37.171253,16.268276999999998ZM5.4774041,29.06325C5.4774041,27.165388,7.2177563,23.72858,10.7036247,18.755407C14.18691,23.72858,15.929845,27.165388,15.929845,29.06325C15.929845,31.911331,13.590441,34.219753,10.7036247,34.219753C7.8168087,34.219753,5.4774041,31.911331,5.4774041,29.06325ZM34.962685,36.796715L34.962685,26.736755L25.865862,35.756115L21.220621,38.085194L33.656132,38.087776C34.379128,38.087776,34.962685,37.50938,34.962685,36.796715ZM17.650391,37.940048L20.317726,32.008909C20.678717,31.204414,21.722065,30.990496,22.370514,31.588022L23.839745,32.941057C24.505569,33.556454,24.346317,34.64846,23.532471,35.048073L17.650391,37.940048Z" fill-rule="evenodd" fill="url(#master_svg0_43_19738)" fill-opacity="1"/></g></svg>