<svg xmlns="http://www.w3.org/2000/svg" xmlns:xlink="http://www.w3.org/1999/xlink" fill="none" version="1.1" width="24" height="24" viewBox="0 0 24 24"><defs><clipPath id="master_svg0_91_96883"><rect x="0" y="0" width="24" height="24" rx="0"/></clipPath><linearGradient x1="0.5" y1="0" x2="0.5" y2="1" id="master_svg1_91_92201"><stop offset="0%" stop-color="#F7EFEF" stop-opacity="1"/><stop offset="47.88399934768677%" stop-color="#E8D1D1" stop-opacity="1"/><stop offset="100%" stop-color="#975555" stop-opacity="1"/></linearGradient></defs><g clip-path="url(#master_svg0_91_96883)"><path d="M20.730404125,5.2016017625C20.235201125,5.2016017625,19.778095125,5.3925166625,19.429825125,5.7036876625L12.286822125,1.5747848525C12.106485125,1.4555401595,11.872360125,1.4555401595,11.692023125,1.5747848525L4.565731325,5.6938118625C4.215224525,5.3863644625,3.750422525,5.2016022625,3.246003225,5.2016022625C2.175603275,5.2016022625,1.283203125,6.0936021625,1.283203125,7.1640019625C1.283203125,8.0058402625,1.8351856450000001,8.700715062499999,2.5916226250000003,8.9590830625L2.5916226250000003,16.679184562499998C2.589822125,16.8980305625,2.7027329250000003,17.101848562500003,2.889222625,17.2163835625L10.159862525,21.3692605625C10.447661425,22.0994625625,11.165115325,22.6264015625,11.988004125,22.6264015625C12.810827125,22.6264015625,13.528232125,22.0993095625,13.816076125,21.3692685625L21.087223125,17.2143855625C21.273006125,17.1001755625,21.385685125,16.8972625625,21.384424125,16.679184562499998L21.384424125,9.011804062500001C22.140915125,8.7377805625,22.692804125,8.0059561625,22.692804125,7.1640014625C22.692804125,6.0936016625,21.800800125,5.2016017625,20.730404125,5.2016017625ZM5.208206425,7.1319751625C5.195999125,7.9848027625,4.6185767250000005,8.7196378625,3.839622725,8.973000962499999L3.839622725,16.3223855625L10.026833525,19.8795815625C10.061932525,19.7644485625,10.148351625,19.6663795625,10.269823025,19.6210305625C10.294728325,19.6117325625,10.319973925,19.6050735625,10.345251125,19.6009155625C10.698038125,19.0623565625,11.306905125,18.7012025625,11.988004125,18.7012025625C12.810153125,18.7012025625,13.527057125,19.2276645625,13.815368125,19.9568845625L20.135624125,16.322384562499998L20.135624125,9.2670321625C20.059080125,9.2256164625,19.996483125,9.1594962625,19.959921125,9.0765595625C19.942032125,9.0359830625,19.931318125,8.993521662500001,19.927507125,8.9508428625C19.248415125,8.639488262499999,18.767605125,7.9496965625,18.767605125,7.1640014625C18.767605125,7.0259909625,18.782440125,6.8909458625,18.810579125,6.7603964625L11.988022125,2.8227851625L5.637497925,6.4885663625C5.700138525,6.5640697625,5.735167525,6.6625170625,5.728945725,6.7676029625C5.716406825,6.9789709625,5.541378925,7.1439618625,5.329690425,7.1439618625C5.313374525,7.1438789625,5.297078125,7.1428103625,5.280890925,7.1407618625L5.208206425,7.1319751625ZM3.246003225,7.8776020625C2.829602925,7.8776020625,2.532403125,7.5804023625,2.532403125,7.1640019625C2.532403125,6.7476014625,2.829602925,6.4504017625,3.246003225,6.4504017625C3.662403125,6.4504017625,3.959603825,6.7476014625,3.959603825,7.1640014625C3.959603825,7.5804014625,3.602803725,7.8792013625,3.246003625,7.8792013625L3.246003225,7.8776020625ZM20.730404125,7.8776020625C20.314003125,7.8776020625,20.016804125,7.5804023625,20.016804125,7.1640019625C20.016804125,6.7476014625,20.314003125,6.4504017625,20.730404125,6.4504017625C21.146803125,6.4504017625,21.444004125,6.7476014625,21.444004125,7.1640019625C21.444004125,7.5804023625,21.146404125,7.8792013625,20.730404125,7.8792013625L20.730404125,7.8776020625ZM7.634490525,7.4247612625C7.650543725,7.4268050625,7.666707025,7.4278740625,7.682890425,7.4279608625C7.894682425,7.4281487625,8.069911525,7.2632164625,8.082534825,7.0518011625C8.095157624999999,6.8403863625,7.940799225,6.6557755625,7.730490725,6.6307606625L6.553690425,6.4887609625C6.331439525,6.4566178625,6.126282225,6.6136884625,6.099327525,6.8366279625C6.072372425,7.0595688625,6.234182825,7.2610092625,6.457690725,7.2827610625L7.634490525,7.4247612625ZM9.882429125,7.6960558625L8.811289325,7.5667610625C8.587338425,7.5456294625,8.424843825,7.3440475625,8.451734025,7.1207136625C8.478623425,6.8973803625,8.684322824999999,6.7401299625,8.906889925,6.7727613625L10.083689725,6.9147610625C10.293998725,6.9397759625,10.448356625,7.1243867625,10.435733825,7.3358020625C10.432792625,7.3850688625,10.421019525,7.4318117625,10.402012825,7.4745287625C10.537680625,7.4260659625,10.676203725,7.3836016625,10.817257925,7.3474573625C10.869279825,7.1555418625,11.057774525,7.0274438625,11.260491325,7.0567612625L11.856091125,7.1287612625C11.924553125,7.1369042625,11.987086125,7.1619596625,12.039860125,7.1993465625C14.642588125,7.2209486625,16.746131124999998,9.3369550625,16.747228125,11.9447795625C16.747376125000002,12.2957625625,16.709434125,12.6378655625,16.637308125,12.9671795625C16.792722124999997,13.1170575625,16.801349125,13.3643885625,16.654837125,13.5248005625L16.343422125,13.8657555625C15.606497125,15.5314005625,13.939606125,16.6938345625,12.000965125,16.6943775625C10.997157125,16.694660562499998,10.066033325,16.3833485625,9.299016925,15.8518435625L9.314825025,15.8944295625C9.411788025,16.1556455625,9.218656525,16.433491562500002,8.940023925,16.433628562499997L8.940023925,16.4352305625C8.772722725000001,16.4353155625,8.623044024999999,16.3312725625,8.564824625,16.174428562499997L8.074824325,14.8544295625C8.043548125000001,14.7708885625,8.041989325,14.6835045625,8.064856525,14.6038875625C7.551845525,13.8456605625,7.252169625,12.9312305625,7.252031325,11.9467785625C7.252031325,10.0853814625,8.323094825,8.4742092625,9.882429125,7.6960558625ZM11.999631125,15.7239805625C9.913538925,15.7239795625,8.222429725,14.0328695625,8.222429725,11.9467795625C8.222429725,9.8606891625,9.913538925,8.1695790625,11.999631125,8.1695790625C14.085720125,8.1695790625,15.776829125,9.8606891625,15.776830125,11.9467805625C15.775726125,14.0320885625,14.084940125,15.7219785625,11.999631125,15.7219805625L11.999631125,15.7239805625ZM18.372719125,10.8124790625C18.436655125,10.9575881625,18.580269125,11.0512304625,18.738838125,11.0512008625C18.851259125,11.0513324625,18.958551125,11.0041484625,19.034437125,10.9211988625L19.827637125,10.0531997625C19.982107125,9.8908843625,19.973131125,9.6333522625,19.807733125,9.4821843625C19.642336125,9.331017062499999,19.385038125,9.3451857625,19.237238125,9.5136003625L18.443638125,10.3812007625C18.336603125,10.4981956625,18.308782125,10.6673717625,18.372719125,10.8124790625ZM16.788313125000002,12.5488875625C16.852075125,12.6931765625,16.994689125,12.7865145625,17.152437125,12.7872005625C17.264367125,12.7867825625,17.370998125,12.7394865625,17.446438125,12.6568015625L18.239637125,11.7892005625C18.369320125,11.6245275625,18.349888125,11.3876724625,18.195103125,11.2463359625C18.040316125,11.1050004625,17.802675125,11.1071224625,17.650436125,11.2511997625L16.857237124999997,12.1192005625C16.751543124999998,12.2363075625,16.724548125,12.4045985625,16.788313125000002,12.5488875625ZM9.544822725,18.8144285625C9.602992025,18.9711345625,9.752470025,19.0751475625,9.919623325,19.0752295625C9.967261325,19.0747875625,10.014425325,19.0657065625,10.058822625,19.0484315625C10.265903425,18.9716335625,10.371551525,18.7415355625,10.294822725,18.5344295625L9.804822925,17.2144295625C9.727593425,17.007188562499998,9.496933925,16.9018525625,9.289739625,16.9792055625C9.082544825,17.0565575625,8.977347325,17.2872805625,9.054822925,17.4944305625L9.544822725,18.8144285625ZM11.988004125,21.3776035625C11.572003125,21.3776035625,11.274403525,21.0804025625,11.274403525,20.6640015625C11.274403525,20.3072035625,11.572004125,19.9504015625,11.988005125,19.9504015625C12.404004125,19.9504015625,12.701605125,20.2476025625,12.701605125,20.6640015625C12.701605125,21.0208015625,12.344804125,21.3776035625,11.988004125,21.3776035625Z" fill-rule="evenodd" fill="url(#master_svg1_91_92201)" fill-opacity="1" style="mix-blend-mode:passthrough"/></g></svg>